g CircleEffect
v 5.300965E-08 0.7265394 -0.08462285
v -0.1261622 0.7155018 0.08462285
v -0.1261622 0.7155017 -0.08462285
v 5.300965E-08 0.7265395 0.08462285
v 0.1261623 0.7155017 -0.08462285
v 0.1261623 0.7155017 0.08462285
v 0.2484912 0.6827237 -0.08462285
v 0.2484912 0.6827238 0.08462285
v 0.3632697 0.6292017 -0.08462285
v 0.3632697 0.6292017 0.08462285
v 0.4670106 0.5565615 -0.08462285
v 0.4670105 0.5565616 0.08462285
v 0.5565615 0.4670106 -0.08462285
v 0.5565614 0.4670106 0.08462285
v 0.6292016 0.3632697 -0.08462285
v 0.6292016 0.3632698 0.08462285
v 0.6827237 0.2484911 -0.08462285
v 0.6827237 0.2484912 0.08462285
v 0.7155017 0.1261623 -0.08462285
v 0.7155017 0.1261623 0.08462285
v 0.7265394 1.011396E-09 -0.08462285
v 0.7265394 8.661575E-08 0.08462285
v 0.7155016 -0.1261628 -0.08462285
v 0.7155015 -0.1261627 0.08462285
v 0.6827236 -0.2484916 -0.08462285
v 0.6827236 -0.2484915 0.08462285
v 0.6292014 -0.3632702 -0.08462285
v 0.6292014 -0.3632701 0.08462285
v 0.5565612 -0.4670109 -0.08462285
v 0.5565612 -0.4670108 0.08462285
v 0.4670102 -0.5565618 -0.08462285
v 0.4670101 -0.5565616 0.08462285
v 0.3632694 -0.6292018 -0.08462285
v 0.3632693 -0.6292017 0.08462285
v 0.2484907 -0.6827239 -0.08462285
v 0.2484907 -0.6827237 0.08462285
v 0.1261619 -0.7155018 -0.08462285
v 0.1261619 -0.7155017 0.08462285
v -3.396196E-07 -0.7265394 -0.08462285
v -3.396196E-07 -0.7265393 0.08462285
v -0.1261626 -0.7155017 -0.08462285
v -0.1261626 -0.7155015 0.08462285
v -0.2484914 -0.6827236 -0.08462285
v -0.2484914 -0.6827235 0.08462285
v -0.3632699 -0.6292015 -0.08462285
v -0.3632699 -0.6292014 0.08462285
v -0.4670108 -0.5565614 -0.08462285
v -0.4670107 -0.5565612 0.08462285
v -0.5565617 -0.4670102 -0.08462285
v -0.5565616 -0.4670101 0.08462285
v -0.6292018 -0.3632694 -0.08462285
v -0.6292017 -0.3632693 0.08462285
v -0.6827239 -0.2484908 -0.08462285
v -0.6827238 -0.2484907 0.08462285
v -0.7155018 -0.126162 -0.08462285
v -0.7155017 -0.1261619 0.08462285
v -0.7265394 2.839363E-07 -0.08462285
v -0.7265394 3.695406E-07 0.08462285
v -0.7155017 0.1261625 -0.08462285
v -0.7155016 0.1261626 0.08462285
v -0.6827236 0.2484914 -0.08462285
v -0.6827236 0.2484915 0.08462285
v -0.6292015 0.3632699 -0.08462285
v -0.6292015 0.36327 0.08462285
v -0.5565614 0.4670107 -0.08462285
v -0.5565614 0.4670108 0.08462285
v -0.4670104 0.5565616 -0.08462285
v -0.4670103 0.5565616 0.08462285
v -0.3632696 0.6292017 -0.08462285
v -0.3632696 0.6292017 0.08462285
v -0.248491 0.6827238 -0.08462285
v -0.248491 0.6827239 0.08462285
v -0.1261622 0.7155017 -0.08462285
v -0.1261622 0.7155018 0.08462285
v 5.944024E-08 0.7873098 0.000356548
v -0.1141917 0.6476135 0.0003559374
v -0.1367148 0.7753488 0.000356548
v 3.53866E-08 0.657604 0.0003559374
v 0.136715 0.7753488 0.000356548
v 0.1141917 0.6476135 0.0003559374
v 0.2692758 0.7398292 0.000356548
v 0.2249138 0.6179456 0.0003559374
v 0.3936549 0.6818303 0.000356548
v 0.3288019 0.5695018 0.0003559374
v 0.506073 0.6031144 0.000356548
v 0.4226997 0.5037538 0.0003559374
v 0.6031143 0.5060731 0.000356548
v 0.5037538 0.4226997 0.0003559374
v 0.6818303 0.3936549 0.000356548
v 0.5695018 0.328802 0.0003559374
v 0.7398292 0.2692758 0.000356548
v 0.6179456 0.2249138 0.0003559374
v 0.7753488 0.1367149 0.000356548
v 0.6476135 0.1141917 0.0003559374
v 0.7873098 -3.714568E-09 0.000356548
v 0.6576039 -2.752509E-09 0.0003559374
v 0.7753487 -0.1367155 0.000356548
v 0.6476133 -0.1141922 0.0003559374
v 0.7398291 -0.2692764 0.000356548
v 0.6179455 -0.2249142 0.0003559374
v 0.6818301 -0.3936554 0.000356548
v 0.5695015 -0.3288023 0.0003559374
v 0.6031141 -0.5060734 0.000356548
v 0.5037535 -0.4226999 0.0003559374
v 0.5060727 -0.6031147 0.000356548
v 0.4226994 -0.5037541 0.0003559374
v 0.3936546 -0.6818306 0.000356548
v 0.3288016 -0.5695019 0.0003559374
v 0.2692754 -0.7398294 0.000356548
v 0.2249135 -0.6179457 0.0003559374
v 0.1367145 -0.7753489 0.000356548
v 0.1141914 -0.6476136 0.0003559374
v -3.6603E-07 -0.7873098 0.000356548
v -3.199893E-07 -0.657604 0.0003559374
v -0.1367152 -0.7753488 0.000356548
v -0.114192 -0.6476134 0.0003559374
v -0.2692761 -0.7398292 0.000356548
v -0.224914 -0.6179455 0.0003559374
v -0.3936552 -0.6818302 0.000356548
v -0.3288021 -0.5695016 0.0003559374
v -0.5060732 -0.6031142 0.000356548
v -0.4226998 -0.5037537 0.0003559374
v -0.6031146 -0.5060727 0.000356548
v -0.5037541 -0.4226994 0.0003559374
v -0.6818305 -0.3936546 0.000356548
v -0.5695019 -0.3288017 0.0003559374
v -0.7398294 -0.2692755 0.000356548
v -0.6179457 -0.2249135 0.0003559374
v -0.7753489 -0.1367146 0.000356548
v -0.6476136 -0.1141915 0.0003559374
v -0.7873098 3.028752E-07 0.000356548
v -0.657604 2.533279E-07 0.0003559374
v -0.7753488 0.1367152 0.000356548
v -0.6476134 0.1141919 0.0003559374
v -0.7398292 0.2692761 0.000356548
v -0.6179455 0.224914 0.0003559374
v -0.6818302 0.3936551 0.000356548
v -0.5695016 0.3288021 0.0003559374
v -0.6031142 0.5060732 0.000356548
v -0.5037537 0.4226998 0.0003559374
v -0.5060729 0.6031144 0.000356548
v -0.4226996 0.5037539 0.0003559374
v -0.3936548 0.6818304 0.000356548
v -0.3288018 0.5695018 0.0003559374
v -0.2692758 0.7398293 0.000356548
v -0.2249137 0.6179456 0.0003559374
v -0.1367148 0.7753488 0.000356548
v -0.1141917 0.6476135 0.0003559374
vt 0.9999999 0
vt 1.027778 1
vt 1.027778 0
vt 0.9999999 1
vt 0.9722222 0
vt 0.9722222 1
vt 0.9444444 0
vt 0.9444444 1
vt 0.9166666 0
vt 0.9166666 1
vt 0.8888888 0
vt 0.8888888 1
vt 0.861111 0
vt 0.861111 1
vt 0.8333333 0
vt 0.8333333 1
vt 0.8055555 0
vt 0.8055555 1
vt 0.7777777 0
vt 0.7777777 1
vt 0.75 0
vt 0.75 1
vt 0.722222 0
vt 0.722222 1
vt 0.6944443 0
vt 0.6944443 1
vt 0.6666665 0
vt 0.6666665 1
vt 0.6388888 0
vt 0.6388888 1
vt 0.611111 0
vt 0.611111 1
vt 0.5833333 0
vt 0.5833333 1
vt 0.5555555 0
vt 0.5555555 1
vt 0.5277777 0
vt 0.5277777 1
vt 0.4999999 0
vt 0.4999999 1
vt 0.4722221 0
vt 0.4722221 1
vt 0.4444444 0
vt 0.4444444 1
vt 0.4166666 0
vt 0.4166666 1
vt 0.3888888 0
vt 0.3888888 1
vt 0.361111 0
vt 0.361111 1
vt 0.3333333 0
vt 0.3333333 1
vt 0.3055555 0
vt 0.3055555 1
vt 0.2777777 0
vt 0.2777777 1
vt 0.2499999 0
vt 0.2499999 1
vt 0.2222222 0
vt 0.2222222 1
vt 0.1944444 0
vt 0.1944444 1
vt 0.1666666 0
vt 0.1666666 1
vt 0.1388889 0
vt 0.1388889 1
vt 0.1111111 0
vt 0.1111111 1
vt 0.08333331 0
vt 0.08333331 1
vt 0.05555554 0
vt 0.05555554 1
vt 0.02777777 0
vt 0.02777777 1
vt 0.9999999 0
vt 1.027778 1
vt 1.027778 0
vt 0.9999999 1
vt 0.9722222 0
vt 0.9722222 1
vt 0.9444444 0
vt 0.9444444 1
vt 0.9166666 0
vt 0.9166666 1
vt 0.8888888 0
vt 0.8888888 1
vt 0.861111 0
vt 0.861111 1
vt 0.8333333 0
vt 0.8333333 1
vt 0.8055555 0
vt 0.8055555 1
vt 0.7777777 0
vt 0.7777777 1
vt 0.75 0
vt 0.75 1
vt 0.722222 0
vt 0.722222 1
vt 0.6944443 0
vt 0.6944443 1
vt 0.6666665 0
vt 0.6666665 1
vt 0.6388888 0
vt 0.6388888 1
vt 0.611111 0
vt 0.611111 1
vt 0.5833333 0
vt 0.5833333 1
vt 0.5555555 0
vt 0.5555555 1
vt 0.5277777 0
vt 0.5277777 1
vt 0.4999999 0
vt 0.4999999 1
vt 0.4722221 0
vt 0.4722221 1
vt 0.4444444 0
vt 0.4444444 1
vt 0.4166666 0
vt 0.4166666 1
vt 0.3888888 0
vt 0.3888888 1
vt 0.361111 0
vt 0.361111 1
vt 0.3333333 0
vt 0.3333333 1
vt 0.3055555 0
vt 0.3055555 1
vt 0.2777777 0
vt 0.2777777 1
vt 0.2499999 0
vt 0.2499999 1
vt 0.2222222 0
vt 0.2222222 1
vt 0.1944444 0
vt 0.1944444 1
vt 0.1666666 0
vt 0.1666666 1
vt 0.1388889 0
vt 0.1388889 1
vt 0.1111111 0
vt 0.1111111 1
vt 0.08333331 0
vt 0.08333331 1
vt 0.05555554 0
vt 0.05555554 1
vt 0.02777777 0
vt 0.02777777 1
vn 0 1 0
vn -0.173648 0.9848078 0
vn -0.173648 0.9848078 0
vn 0 1 0
vn 0.1736481 0.9848077 0
vn 0.1736481 0.9848077 0
vn 0.3420202 0.9396926 0
vn 0.3420202 0.9396926 0
vn 0.5 0.8660254 0
vn 0.4999999 0.8660255 0
vn 0.6427875 0.7660445 0
vn 0.6427875 0.7660445 0
vn 0.7660446 0.6427874 0
vn 0.7660446 0.6427875 0
vn 0.8660255 0.4999999 0
vn 0.8660254 0.5 0
vn 0.9396926 0.3420202 0
vn 0.9396926 0.3420202 0
vn 0.9848077 0.1736481 0
vn 0.9848077 0.1736482 0
vn 1 0 0
vn 1 0 0
vn 0.9848077 -0.1736486 0
vn 0.9848077 -0.1736486 0
vn 0.9396924 -0.3420209 0
vn 0.9396924 -0.3420208 0
vn 0.8660251 -0.5000007 0
vn 0.8660251 -0.5000006 0
vn 0.7660439 -0.6427883 0
vn 0.766044 -0.6427882 0
vn 0.642787 -0.7660449 0
vn 0.642787 -0.7660449 0
vn 0.4999995 -0.8660258 0
vn 0.4999995 -0.8660257 0
vn 0.3420197 -0.9396927 0
vn 0.3420197 -0.9396927 0
vn 0.1736478 -0.9848078 0
vn 0.1736478 -0.9848078 0
vn 0 -1 0
vn 0 -1 0
vn -0.1736485 -0.9848077 0
vn -0.1736486 -0.9848077 0
vn -0.3420207 -0.9396924 0
vn -0.3420207 -0.9396924 0
vn -0.5000002 -0.8660253 0
vn -0.5000002 -0.8660253 0
vn -0.6427879 -0.7660441 0
vn -0.6427879 -0.7660441 0
vn -0.7660448 -0.6427872 0
vn -0.7660449 -0.642787 0
vn -0.8660256 -0.4999998 0
vn -0.8660256 -0.4999998 0
vn -0.9396926 -0.3420199 0
vn -0.9396926 -0.3420199 0
vn -0.9848078 -0.1736478 0
vn -0.9848078 -0.1736477 0
vn -1 0 0
vn -1 0 0
vn -0.9848077 0.1736485 0
vn -0.9848077 0.1736485 0
vn -0.9396926 0.3420205 0
vn -0.9396926 0.3420205 0
vn -0.8660253 0.5000002 0
vn -0.8660253 0.5000002 0
vn -0.7660443 0.6427879 0
vn -0.7660441 0.6427879 0
vn -0.6427875 0.7660446 0
vn -0.6427874 0.7660446 0
vn -0.5 0.8660254 0
vn -0.5 0.8660254 0
vn -0.3420202 0.9396926 0
vn -0.3420202 0.9396926 0
vn -0.173648 0.9848078 0
vn -0.173648 0.9848078 0
vn 0 -6.468131E-06 1
vn 1.123179E-06 -6.369865E-06 1
vn 1.123178E-06 -6.369865E-06 1
vn 0 -6.468131E-06 1
vn -1.12318E-06 -6.369864E-06 1
vn -1.123179E-06 -6.369864E-06 1
vn -2.212229E-06 -6.078054E-06 1
vn -2.212229E-06 -6.078053E-06 1
vn -3.234064E-06 -5.601564E-06 1
vn -3.234064E-06 -5.601565E-06 1
vn -4.157633E-06 -4.954873E-06 1
vn -4.157633E-06 -4.954873E-06 1
vn -4.954873E-06 -4.157632E-06 1
vn -4.954874E-06 -4.157632E-06 1
vn -5.601563E-06 -3.234064E-06 1
vn -5.601564E-06 -3.234065E-06 1
vn -6.078054E-06 -2.21223E-06 1
vn -6.078054E-06 -2.21223E-06 1
vn -6.369864E-06 -1.123179E-06 1
vn -6.369863E-06 -1.123179E-06 1
vn -6.468128E-06 0 1
vn -6.468129E-06 0 1
vn -6.369862E-06 1.123181E-06 1
vn -6.369862E-06 1.12318E-06 1
vn -6.078051E-06 2.212234E-06 1
vn -6.07805E-06 2.212234E-06 1
vn -5.60156E-06 3.234069E-06 1
vn -5.60156E-06 3.23407E-06 1
vn -4.954872E-06 4.157635E-06 1
vn -4.954872E-06 4.157635E-06 1
vn -4.157631E-06 4.954877E-06 1
vn -4.157631E-06 4.954876E-06 1
vn -3.234061E-06 5.601566E-06 1
vn -3.234061E-06 5.601566E-06 1
vn -2.212228E-06 6.078055E-06 1
vn -2.212228E-06 6.078055E-06 1
vn -1.123176E-06 6.369867E-06 1
vn -1.123176E-06 6.369866E-06 1
vn 0 6.468131E-06 1
vn 0 6.468131E-06 1
vn 1.123182E-06 6.369862E-06 1
vn 1.123182E-06 6.369863E-06 1
vn 2.212233E-06 6.078051E-06 1
vn 2.212233E-06 6.078051E-06 1
vn 3.234065E-06 5.601562E-06 1
vn 3.234064E-06 5.601561E-06 1
vn 4.157634E-06 4.954872E-06 1
vn 4.157634E-06 4.954872E-06 1
vn 4.954878E-06 4.15763E-06 1
vn 4.954877E-06 4.15763E-06 1
vn 5.601565E-06 3.234062E-06 1
vn 5.601566E-06 3.234063E-06 1
vn 6.078055E-06 2.212229E-06 1
vn 6.078055E-06 2.212229E-06 1
vn 6.369866E-06 1.123176E-06 1
vn 6.369866E-06 1.123176E-06 1
vn 6.46813E-06 0 1
vn 6.468131E-06 0 1
vn 6.369862E-06 -1.123182E-06 1
vn 6.369862E-06 -1.123182E-06 1
vn 6.078052E-06 -2.212231E-06 1
vn 6.078053E-06 -2.212231E-06 1
vn 5.601563E-06 -3.234065E-06 1
vn 5.601564E-06 -3.234066E-06 1
vn 4.954873E-06 -4.157635E-06 1
vn 4.954873E-06 -4.157634E-06 1
vn 4.157633E-06 -4.954875E-06 1
vn 4.157633E-06 -4.954876E-06 1
vn 3.234064E-06 -5.601565E-06 1
vn 3.234064E-06 -5.601566E-06 1
vn 2.21223E-06 -6.078054E-06 1
vn 2.21223E-06 -6.078054E-06 1
vn 1.123178E-06 -6.369865E-06 1
vn 1.123179E-06 -6.369865E-06 1
g CircleEffect_0
f 3/3/3 2/2/2 1/1/1
f 2/2/2 4/4/4 1/1/1
f 1/1/1 4/4/4 5/5/5
f 4/4/4 6/6/6 5/5/5
f 5/5/5 6/6/6 7/7/7
f 6/6/6 8/8/8 7/7/7
f 7/7/7 8/8/8 9/9/9
f 8/8/8 10/10/10 9/9/9
f 9/9/9 10/10/10 11/11/11
f 10/10/10 12/12/12 11/11/11
f 11/11/11 12/12/12 13/13/13
f 12/12/12 14/14/14 13/13/13
f 13/13/13 14/14/14 15/15/15
f 14/14/14 16/16/16 15/15/15
f 15/15/15 16/16/16 17/17/17
f 16/16/16 18/18/18 17/17/17
f 17/17/17 18/18/18 19/19/19
f 18/18/18 20/20/20 19/19/19
f 19/19/19 20/20/20 21/21/21
f 20/20/20 22/22/22 21/21/21
f 21/21/21 22/22/22 23/23/23
f 22/22/22 24/24/24 23/23/23
f 23/23/23 24/24/24 25/25/25
f 24/24/24 26/26/26 25/25/25
f 25/25/25 26/26/26 27/27/27
f 26/26/26 28/28/28 27/27/27
f 27/27/27 28/28/28 29/29/29
f 28/28/28 30/30/30 29/29/29
f 29/29/29 30/30/30 31/31/31
f 30/30/30 32/32/32 31/31/31
f 31/31/31 32/32/32 33/33/33
f 32/32/32 34/34/34 33/33/33
f 33/33/33 34/34/34 35/35/35
f 34/34/34 36/36/36 35/35/35
f 35/35/35 36/36/36 37/37/37
f 36/36/36 38/38/38 37/37/37
f 37/37/37 38/38/38 39/39/39
f 38/38/38 40/40/40 39/39/39
f 39/39/39 40/40/40 41/41/41
f 40/40/40 42/42/42 41/41/41
f 41/41/41 42/42/42 43/43/43
f 42/42/42 44/44/44 43/43/43
f 43/43/43 44/44/44 45/45/45
f 44/44/44 46/46/46 45/45/45
f 45/45/45 46/46/46 47/47/47
f 46/46/46 48/48/48 47/47/47
f 47/47/47 48/48/48 49/49/49
f 48/48/48 50/50/50 49/49/49
f 49/49/49 50/50/50 51/51/51
f 50/50/50 52/52/52 51/51/51
f 51/51/51 52/52/52 53/53/53
f 52/52/52 54/54/54 53/53/53
f 53/53/53 54/54/54 55/55/55
f 54/54/54 56/56/56 55/55/55
f 55/55/55 56/56/56 57/57/57
f 56/56/56 58/58/58 57/57/57
f 57/57/57 58/58/58 59/59/59
f 58/58/58 60/60/60 59/59/59
f 59/59/59 60/60/60 61/61/61
f 60/60/60 62/62/62 61/61/61
f 61/61/61 62/62/62 63/63/63
f 62/62/62 64/64/64 63/63/63
f 63/63/63 64/64/64 65/65/65
f 64/64/64 66/66/66 65/65/65
f 65/65/65 66/66/66 67/67/67
f 66/66/66 68/68/68 67/67/67
f 67/67/67 68/68/68 69/69/69
f 68/68/68 70/70/70 69/69/69
f 69/69/69 70/70/70 71/71/71
f 70/70/70 72/72/72 71/71/71
f 71/71/71 72/72/72 73/73/73
f 72/72/72 74/74/74 73/73/73
f 77/77/77 76/76/76 75/75/75
f 76/76/76 78/78/78 75/75/75
f 75/75/75 78/78/78 79/79/79
f 78/78/78 80/80/80 79/79/79
f 79/79/79 80/80/80 81/81/81
f 80/80/80 82/82/82 81/81/81
f 81/81/81 82/82/82 83/83/83
f 82/82/82 84/84/84 83/83/83
f 83/83/83 84/84/84 85/85/85
f 84/84/84 86/86/86 85/85/85
f 85/85/85 86/86/86 87/87/87
f 86/86/86 88/88/88 87/87/87
f 87/87/87 88/88/88 89/89/89
f 88/88/88 90/90/90 89/89/89
f 89/89/89 90/90/90 91/91/91
f 90/90/90 92/92/92 91/91/91
f 91/91/91 92/92/92 93/93/93
f 92/92/92 94/94/94 93/93/93
f 93/93/93 94/94/94 95/95/95
f 94/94/94 96/96/96 95/95/95
f 95/95/95 96/96/96 97/97/97
f 96/96/96 98/98/98 97/97/97
f 97/97/97 98/98/98 99/99/99
f 98/98/98 100/100/100 99/99/99
f 99/99/99 100/100/100 101/101/101
f 100/100/100 102/102/102 101/101/101
f 101/101/101 102/102/102 103/103/103
f 102/102/102 104/104/104 103/103/103
f 103/103/103 104/104/104 105/105/105
f 104/104/104 106/106/106 105/105/105
f 105/105/105 106/106/106 107/107/107
f 106/106/106 108/108/108 107/107/107
f 107/107/107 108/108/108 109/109/109
f 108/108/108 110/110/110 109/109/109
f 109/109/109 110/110/110 111/111/111
f 110/110/110 112/112/112 111/111/111
f 111/111/111 112/112/112 113/113/113
f 112/112/112 114/114/114 113/113/113
f 113/113/113 114/114/114 115/115/115
f 114/114/114 116/116/116 115/115/115
f 115/115/115 116/116/116 117/117/117
f 116/116/116 118/118/118 117/117/117
f 117/117/117 118/118/118 119/119/119
f 118/118/118 120/120/120 119/119/119
f 119/119/119 120/120/120 121/121/121
f 120/120/120 122/122/122 121/121/121
f 121/121/121 122/122/122 123/123/123
f 122/122/122 124/124/124 123/123/123
f 123/123/123 124/124/124 125/125/125
f 124/124/124 126/126/126 125/125/125
f 125/125/125 126/126/126 127/127/127
f 126/126/126 128/128/128 127/127/127
f 127/127/127 128/128/128 129/129/129
f 128/128/128 130/130/130 129/129/129
f 129/129/129 130/130/130 131/131/131
f 130/130/130 132/132/132 131/131/131
f 131/131/131 132/132/132 133/133/133
f 132/132/132 134/134/134 133/133/133
f 133/133/133 134/134/134 135/135/135
f 134/134/134 136/136/136 135/135/135
f 135/135/135 136/136/136 137/137/137
f 136/136/136 138/138/138 137/137/137
f 137/137/137 138/138/138 139/139/139
f 138/138/138 140/140/140 139/139/139
f 139/139/139 140/140/140 141/141/141
f 140/140/140 142/142/142 141/141/141
f 141/141/141 142/142/142 143/143/143
f 142/142/142 144/144/144 143/143/143
f 143/143/143 144/144/144 145/145/145
f 144/144/144 146/146/146 145/145/145
f 145/145/145 146/146/146 147/147/147
f 146/146/146 148/148/148 147/147/147
