g Dark Treant Seed
v -9.685755E-08 -0.06559788 -0.05376696
v 0.1044524 9.685755E-08 9.685755E-08
v 0.07833926 0.01846369 -0.04405085
v 0.07833926 0.07833925 9.685755E-08
v 0.1044524 9.685755E-08 9.685755E-08
v -9.685755E-08 -0.06559788 -0.05376696
v -9.685755E-08 -0.08021458 0.06283997
v -9.685755E-08 -0.06559788 -0.05376696
v -9.685755E-08 0.02041173 -0.06624297
v 0.07833926 0.07833925 9.685755E-08
v -9.685755E-08 0.1044524 9.685755E-08
v 0.0005529523 0.053756 0.05310035
v -0.07833925 0.07833925 9.685755E-08
v -0.07833925 9.685755E-08 0.07836217
v -0.1044524 9.685755E-08 9.685755E-08
v -0.07833925 0.07833925 9.685755E-08
v -9.685755E-08 -0.08021458 0.06283997
v 0.07833926 0.07833925 9.685755E-08
v 0.1044524 9.685755E-08 9.685755E-08
v -9.685755E-08 -0.08021458 0.06283997
v -0.1044524 9.685755E-08 9.685755E-08
v -9.685755E-08 -0.06559788 -0.05376696
v -0.07833925 0.07833925 9.685755E-08
v -9.685755E-08 -0.06559788 -0.05376696
vt 0.5000068 0.1985887
vt 0.9503747 0.4408914
vt 0.7685755 0.5246096
vt 0.8377793 0.8230039
vt 0.9503747 0.4408914
vt 0.5000068 0.1985887
vt 0.4999931 0.04962514
vt 0.5000068 0.1985887
vt 0.5000068 0.5321553
vt 0.8377793 0.8230039
vt 0.5000068 0.9503747
vt 0.5018898 0.6614779
vt 0.1622206 0.8230039
vt 0.2314244 0.4530004
vt 0.04962514 0.4408914
vt 0.1622206 0.8230039
vt 0.4999931 0.04962514
vt 0.8377793 0.8230039
vt 0.9503747 0.4408914
vt 0.4999931 0.04962514
vt 0.04962514 0.4408914
vt 0.5000068 0.1985887
vt 0.1622206 0.8230039
vt 0.5000068 0.1985887
vn -0.03489912 -0.7463734 -0.6646117
vn 0.9608403 -0.2255251 0.1610101
vn 0.6142464 0.08085632 -0.7849609
vn 0.6850971 0.7261721 0.05758511
vn 0.9608403 -0.2255251 0.1610101
vn -0.03489912 -0.7463734 -0.6646117
vn 0.1029725 -0.7961603 0.5962595
vn -0.03489912 -0.7463734 -0.6646117
vn -0.10192 0.2110684 -0.9721432
vn 0.6850971 0.7261721 0.05758511
vn -0.00043118 0.9980855 -0.0618481
vn 0.1661637 0.4561734 0.8742399
vn -0.6591511 0.7395762 -0.1361869
vn -0.5595772 -0.0493558 0.8273073
vn -0.9425539 -0.210206 -0.2596259
vn -0.6591511 0.7395762 -0.1361869
vn 0.1029725 -0.7961603 0.5962595
vn 0.6850971 0.7261721 0.05758511
vn 0.9608403 -0.2255251 0.1610101
vn 0.1029725 -0.7961603 0.5962595
vn -0.9425539 -0.210206 -0.2596259
vn -0.03489912 -0.7463734 -0.6646117
vn -0.6591511 0.7395762 -0.1361869
vn -0.03489912 -0.7463734 -0.6646117
g Dark Treant Seed_0
f 3/3/3 2/2/2 1/1/1
f 5/5/5 3/3/3 4/4/4
f 5/5/5 7/7/7 6/6/6
f 9/9/9 3/3/3 8/8/8
f 3/3/3 9/9/9 10/10/10
f 11/11/11 10/10/10 9/9/9
f 11/11/11 12/12/12 10/10/10
f 11/11/11 9/9/9 13/13/13
f 11/11/11 13/13/13 12/12/12
f 13/13/13 14/14/14 12/12/12
f 14/14/14 15/15/15 7/7/7
f 15/15/15 14/14/14 16/16/16
f 17/17/17 12/12/12 14/14/14
f 19/19/19 18/18/18 12/12/12
f 20/20/20 19/19/19 12/12/12
f 22/22/22 20/20/20 21/21/21
f 9/9/9 21/21/21 23/23/23
f 9/9/9 24/24/24 21/21/21
