g Sphere001
v 10.99286 13.07899 9.90416
v 10.69544 11.15589 12.38092
v 8.274406 10.0682 12.38093
v 14.25301 12.78579 9.904164
v 12.92606 11.93743 12.38093
v 12.4589 14.70345 6.570977
v 17.1951 12.25071 9.904157
v 16.35641 14.40235 6.570981
v 13.73434 16.11737 2.50948
v 20.17117 13.91044 6.570981
v 19.52227 11.39819 9.904172
v 17.97524 15.80746 2.509482
v 14.9016 17.41195 -2.124236
v 23.42761 13.1057 6.570977
v 20.85917 10.80795 9.904157
v 19.2494 17.07372 -2.124239
v 15.76843 18.37378 -7.152117
v 22.59839 15.32768 2.509481
v 25.32823 11.82524 6.570981
v 21.86662 7.968371 -2.605063
v 20.10197 17.99917 -7.152116
v 16.09236 18.73327 -12.38094
v 20.40515 18.34184 -12.38094
v 26.98652 14.59456 2.509482
v 24.57162 16.53925 -2.124241
v 25.91548 17.38553 -7.15212
v 26.39554 17.69021 -12.38094
v 25.38511 9.837915 6.570977
v 22.57878 7.088415 -2.604941
v 24.71821 7.534915 6.571206
v 29.54298 13.31335 2.509487
v 30.07489 15.8392 -2.124236
v 32.20674 16.66723 -7.152117
v 32.96765 16.95572 -12.38094
v 29.41372 11.0854 2.509484
v 27.20037 7.954515 2.509484
v 33.22169 14.54729 -2.124237
v 35.74725 15.36146 -7.152117
v 36.64401 15.64408 -12.38094
v 32.87582 12.10423 -2.124237
v 29.96078 8.546827 -2.124233
v 35.23441 12.77783 -7.152117
v 36.06922 13.01283 -12.38094
v 31.83193 8.919025 -7.152115
v 32.49628 9.046751 -12.38094
v -22.42419 -14.63086 2.509484
v -23.08401 -12.51593 6.570981
v -23.08712 -13.03539 6.570977
v -26.62963 -14.54611 2.50948
v -24.43096 -16.12571 -2.124239
v -29.69962 -16.32508 -2.124237
v -25.80079 -17.17936 -7.152121
v -31.81406 -17.55729 -7.152116
v -26.29063 -17.56098 -12.38094
v -32.56762 -17.99708 -12.38094
v -35.1076 -16.96867 -7.152119
v -35.98527 -17.44921 -12.38094
v -32.6313 -15.62484 -2.124238
v -29.01316 -13.69208 2.509481
v -24.85312 -11.50786 6.570989
v -34.44177 -14.25997 -7.152116
v -35.25412 -14.67537 -12.38094
v -32.14291 -13.1007 -2.124239
v -28.75886 -11.43258 2.509481
v -30.97742 -9.700809 -7.152117
v -31.62013 -9.956591 -12.38094
v -29.16421 -8.982636 -2.124234
v -26.77199 -4.52769 -7.152121
v -27.30207 -4.649795 -12.38094
v -20.42607 -9.198597 9.904168
v -19.18509 -10.30505 9.904176
v -16.36936 -6.445395 12.38092
v -15.24776 -4.950558 12.38094
v -20.48559 -7.441531 9.904176
v -13.77989 -3.114235 12.38094
v -24.8068 -9.523612 6.570981
v -19.39031 -5.00233 9.904164
v -12.04408 -1.026943 12.38094
v -23.2107 -6.588058 6.570992
v -17.40868 -2.064215 9.904157
v -10.14965 1.187061 12.38093
v -26.48119 -7.919358 2.509482
v -14.87006 1.114944 9.904164
v -8.216221 3.3902 12.38093
v -20.5108 -2.927184 6.570989
v -23.12462 -3.633857 2.509485
v -12.02942 4.278419 9.904172
v -6.3589 5.447615 12.38093
v -17.27166 1.051775 6.570981
v -25.29118 -4.177167 -2.12423
v -9.03669 7.177496 9.904164
v -4.675758 7.242298 12.38093
v -13.87059 5.001041 6.570989
v -19.32566 0.9834042 2.50949
v -21.10367 0.913435 -2.124234
v -5.954708 9.574455 9.90416
v -1.14711 9.592905 12.38093
v -10.47959 8.589785 6.570992
v -15.51509 5.555252 2.509481
v -22.36766 0.8575649 -7.152117
v -22.82997 0.8358536 -12.38094
v -2.788345 11.30393 9.90416
v 0.9682198 9.910448 12.38094
v -16.99247 5.945831 -2.124238
v -18.05979 6.177317 -7.152119
v -18.45194 6.253855 -12.38094
v -7.136551 11.45628 6.570977
v -11.86152 9.728186 2.509484
v 0.540947 12.39363 9.90416
v 3.307884 10.08566 12.38093
v -13.11878 10.60051 -2.124234
v -14.00821 11.17244 -7.15212
v -14.32908 11.37301 -12.38094
v -3.688595 13.41618 6.570977
v -8.358566 13.12479 2.509485
v 4.038471 12.96349 9.90416
v 5.776756 10.13303 12.38092
v -9.467972 14.54163 -2.124233
v -10.24406 15.5056 -7.152119
v -10.52198 15.84713 -12.38094
v 0.1156578 14.44965 6.570977
v -4.673698 15.35607 2.509481
v 7.561275 13.15406 9.90416
v 8.274406 10.0682 12.38093
v 10.99286 13.07899 9.90416
v -5.611855 17.02737 -2.124243
v -6.296928 18.1651 -7.152116
v -6.548624 18.56712 -12.38094
v 4.29493 14.84714 6.570973
v 8.47411 14.87155 6.570981
v 12.4589 14.70345 6.570977
v -0.353138 16.29772 2.509479
v -0.8176117 17.88626 -2.124232
v -1.180111 18.96934 -7.152116
v -1.319408 19.35242 -12.38094
v 4.628635 16.46213 2.509482
v 9.457146 16.34753 2.509479
v 13.73434 16.11737 2.50948
v 5.010269 17.84325 -2.124236
v 5.31012 18.81 -7.152117
v 5.422005 19.15881 -12.38094
v 10.50614 17.6584 -2.12424
v 14.9016 17.41195 -2.124236
v 11.34107 18.60713 -7.152118
v 11.6609 18.9568 -12.38094
v 15.76843 18.37378 -7.152117
v 16.09236 18.73327 -12.38094
vt 1 0.3842973
vt 0.9687502 0.2646723
vt 1 0.2646723
vt 0.9687502 0.3842973
vt 0.9375002 0.2646723
vt 1 0.5039223
vt 0.9375002 0.3842973
vt 0.9687502 0.5039223
vt 1 0.6235474
vt 0.9375002 0.5039223
vt 0.9062502 0.3842973
vt 0.9687502 0.6235474
vt 1 0.7431724
vt 0.9062502 0.5039223
vt 0.8750002 0.3842973
vt 0.9687502 0.7431724
vt 1 0.8627974
vt 0.9375002 0.6235474
vt 0.8750002 0.5039223
vt 0.8437502 0.3842973
vt 0.9687502 0.8627974
vt 1 0.9824224
vt 0.9687502 0.9824224
vt 0.9062502 0.6235474
vt 0.9375002 0.7431724
vt 0.9375002 0.8627974
vt 0.9375002 0.9824224
vt 0.8437502 0.5039223
vt 0.8125001 0.3842973
vt 0.8125001 0.5039223
vt 0.8750002 0.6235474
vt 0.9062502 0.7431724
vt 0.9062502 0.8627974
vt 0.9062502 0.9824224
vt 0.8437502 0.6235474
vt 0.8125001 0.6235474
vt 0.8750002 0.7431724
vt 0.8750002 0.8627974
vt 0.8750002 0.9824224
vt 0.8437502 0.7431724
vt 0.8125001 0.7431724
vt 0.8437502 0.8627974
vt 0.8437502 0.9824224
vt 0.8125001 0.8627974
vt 0.8125001 0.9824224
vt 0.4375 0.6235474
vt 0.40625 0.5039223
vt 0.4375 0.5039223
vt 0.40625 0.6235474
vt 0.4375 0.7431724
vt 0.40625 0.7431724
vt 0.4375 0.8627974
vt 0.40625 0.8627974
vt 0.4375 0.9824224
vt 0.40625 0.9824224
vt 0.375 0.8627974
vt 0.375 0.9824224
vt 0.375 0.7431724
vt 0.375 0.6235474
vt 0.375 0.5039223
vt 0.34375 0.8627974
vt 0.34375 0.9824224
vt 0.34375 0.7431724
vt 0.34375 0.6235474
vt 0.3125 0.8627974
vt 0.3125 0.9824224
vt 0.3125 0.7431724
vt 0.28125 0.8627974
vt 0.28125 0.9824224
vt 0.375 0.3842973
vt 0.40625 0.3842973
vt 0.375 0.2646723
vt 0.34375 0.2646723
vt 0.34375 0.3842973
vt 0.3125 0.2646723
vt 0.34375 0.5039223
vt 0.3125 0.3842973
vt 0.28125 0.2646723
vt 0.3125 0.5039223
vt 0.28125 0.3842973
vt 0.25 0.2646723
vt 0.3125 0.6235474
vt 0.25 0.3842973
vt 0.21875 0.2646723
vt 0.28125 0.5039223
vt 0.28125 0.6235474
vt 0.21875 0.3842973
vt 0.1875 0.2646723
vt 0.25 0.5039223
vt 0.28125 0.7431724
vt 0.1875 0.3842973
vt 0.15625 0.2646723
vt 0.21875 0.5039223
vt 0.25 0.6235474
vt 0.25 0.7431724
vt 0.15625 0.3842973
vt 0.125 0.2646723
vt 0.1875 0.5039223
vt 0.21875 0.6235474
vt 0.25 0.8627974
vt 0.25 0.9824224
vt 0.125 0.3842973
vt 0.09375 0.2646723
vt 0.21875 0.7431724
vt 0.21875 0.8627974
vt 0.21875 0.9824224
vt 0.15625 0.5039223
vt 0.1875 0.6235474
vt 0.09375 0.3842973
vt 0.0625 0.2646723
vt 0.1875 0.7431724
vt 0.1875 0.8627974
vt 0.1875 0.9824224
vt 0.125 0.5039223
vt 0.15625 0.6235474
vt 0.0625 0.3842973
vt 0.03125 0.2646723
vt 0.15625 0.7431724
vt 0.15625 0.8627974
vt 0.15625 0.9824224
vt 0.09375 0.5039223
vt 0.125 0.6235474
vt 0.03125 0.3842973
vt 0 0.2646723
vt 0 0.3842973
vt 0.125 0.7431724
vt 0.125 0.8627974
vt 0.125 0.9824224
vt 0.0625 0.5039223
vt 0.03125 0.5039223
vt 0 0.5039223
vt 0.09375 0.6235474
vt 0.09375 0.7431724
vt 0.09375 0.8627974
vt 0.09375 0.9824224
vt 0.0625 0.6235474
vt 0.03125 0.6235474
vt 0 0.6235474
vt 0.0625 0.7431724
vt 0.0625 0.8627974
vt 0.0625 0.9824224
vt 0.03125 0.7431724
vt 0 0.7431724
vt 0.03125 0.8627974
vt 0.03125 0.9824224
vt 0 0.8627974
vt 0 0.9824224
vn 0.5669178 0.6235704 0.5382975
vn 0.3916521 0.4134964 0.8219668
vn 0.3787228 0.4180607 0.8257083
vn 0.5875447 0.6080496 0.5339165
vn 0.4117262 0.4101783 0.8137783
vn 0.6347576 0.7005314 0.3260958
vn 0.6114748 0.577812 0.5405849
vn 0.6478787 0.6836951 0.3358782
vn 0.648019 0.7183435 0.2530889
vn 0.6628513 0.6512294 0.3694975
vn 0.6469557 0.5201873 0.5575423
vn 0.6563644 0.7091294 0.2575291
vn 0.6567412 0.7292697 0.1919812
vn 0.6858857 0.5845708 0.4334026
vn 0.6668504 0.388996 0.6356041
vn 0.6638319 0.722759 0.1922146
vn 0.6655009 0.73869 0.1069841
vn 0.6676491 0.6906021 0.2780529
vn 0.7323371 0.4462679 0.5143222
vn 0.6573582 0.2393599 0.7145538
vn 0.6721733 0.7328779 0.1052281
vn 0.6666965 0.7431304 0.05720943
vn 0.6774792 0.7334659 0.05522412
vn 0.6967137 0.6333761 0.3367856
vn 0.6710463 0.713948 0.1999378
vn 0.6742137 0.730737 0.1070487
vn 0.6767668 0.734113 0.05536158
vn 0.7741107 0.252341 0.580583
vn 0.639232 0.1084828 0.7613238
vn 0.7996862 0.08158058 0.5948501
vn 0.7732506 0.4726322 0.4227319
vn 0.7033418 0.6685836 0.2414671
vn 0.7107337 0.6917917 0.1276006
vn 0.7111198 0.6999569 0.06609845
vn 0.8401427 0.2202569 0.4956281
vn 0.8670428 0.009834878 0.4981366
vn 0.8130494 0.4879119 0.317636
vn 0.8491723 0.4984633 0.1744725
vn 0.8613821 0.4991342 0.09426474
vn 0.9055945 0.1809978 0.3835863
vn 0.9216231 -0.05765063 0.3837801
vn 0.9643298 0.1561857 0.2137144
vn 0.982612 0.1462074 0.1144422
vn 0.9712355 -0.104258 0.2140837
vn 0.9865998 -0.1184945 0.1121603
vn -0.6430475 -0.7218192 0.2558648
vn -0.6569369 -0.6363778 0.4042983
vn -0.6356408 -0.6907895 0.3446314
vn -0.6579812 -0.6865477 0.309375
vn -0.6416511 -0.7449283 0.1826626
vn -0.6568171 -0.7219293 0.2177368
vn -0.6445702 -0.7583961 0.09677103
vn -0.657751 -0.7445737 0.1139016
vn -0.6450467 -0.7625092 0.04994606
vn -0.657208 -0.7514192 0.05870792
vn -0.7688554 -0.6195686 0.1581021
vn -0.7761742 -0.6247723 0.08493034
vn -0.7452757 -0.5993047 0.2922293
vn -0.720735 -0.569607 0.395081
vn -0.6946863 -0.529422 0.486953
vn -0.9117634 -0.3532021 0.2096087
vn -0.9286842 -0.3535816 0.1119184
vn -0.8576648 -0.3511304 0.3756576
vn -0.7995974 -0.3575095 0.4825257
vn -0.9709086 -0.08428656 0.2241256
vn -0.9900434 -0.07671773 0.1180187
vn -0.9122334 -0.1100266 0.3946195
vn -0.9758808 -0.04218505 0.2141896
vn -0.9926149 -0.04249604 0.1136213
vn -0.6446573 -0.4599748 0.6106064
vn -0.6319078 -0.5627509 0.5329204
vn -0.5765011 -0.2547465 0.7763702
vn -0.4699167 -0.08030709 0.8790501
vn -0.6404425 -0.317905 0.6991208
vn -0.4048691 -0.04213788 0.9134032
vn -0.7418553 -0.3607089 0.5652784
vn -0.6266413 -0.183544 0.757385
vn -0.3732677 -0.01974657 0.9275135
vn -0.7796016 -0.1950226 0.5951366
vn -0.6103371 -0.0847583 0.7875943
vn -0.3557761 -0.004789662 0.9345589
vn -0.8486059 -0.1520053 0.5067173
vn -0.592882 -0.01160239 0.8052058
vn -0.3498905 0.009570308 0.9367417
vn -0.8000047 -0.08445366 0.5940202
vn -0.8692018 -0.05912668 0.4909096
vn -0.5523378 0.06462913 0.8311113
vn -0.3467526 0.02682064 0.9375731
vn -0.8002901 -0.01821512 0.5993362
vn -0.9248708 -0.04733983 0.3773234
vn -0.4473109 0.1922265 0.873477
vn -0.249603 0.1469714 0.9571299
vn -0.7681628 0.04725353 0.6385085
vn -0.8752199 -0.02841111 0.4828902
vn -0.9293486 -0.03711044 0.3673338
vn -0.2082881 0.3944301 0.8950089
vn 0.1912432 0.4570712 0.8686265
vn -0.6560153 0.191257 0.7301129
vn -0.8641855 0.00393169 0.503158
vn -0.977312 -0.04512206 0.2069426
vn -0.9927511 -0.04796865 0.1102005
vn 0.1333772 0.5740188 0.8079066
vn 0.3338394 0.4577326 0.824034
vn -0.9272583 -0.02746993 0.3734131
vn -0.9777388 -0.0456331 0.2048033
vn -0.9928067 -0.05166728 0.1080068
vn -0.3307544 0.4625588 0.8225818
vn -0.8031518 0.1166906 0.5842348
vn 0.3634649 0.6314432 0.6849619
vn 0.3519303 0.4363551 0.8280938
vn -0.906257 0.042696 0.4205654
vn -0.9740834 -0.004156828 0.2261512
vn -0.9928744 -0.01644554 0.1180254
vn 0.1751077 0.6876227 0.7046364
vn -0.4989373 0.456798 0.7364761
vn 0.4799037 0.6395482 0.6005585
vn 0.3642159 0.4243404 0.8290247
vn -0.6757467 0.4372936 0.5934144
vn -0.8294639 0.4354881 0.349771
vn -0.8799212 0.4336698 0.1940858
vn 0.4707117 0.7279207 0.4985599
vn 0.2053693 0.7709953 0.6028181
vn 0.5350294 0.6346151 0.5576802
vn 0.3787228 0.4180607 0.8257083
vn 0.5669178 0.6235704 0.5382975
vn 0.2181132 0.8541176 0.472133
vn 0.2184578 0.9369581 0.2727375
vn 0.2151628 0.964984 0.1500362
vn 0.5771273 0.7213114 0.382928
vn 0.6175107 0.7108462 0.3367166
vn 0.6347576 0.7005314 0.3260958
vn 0.5390531 0.7597158 0.3636669
vn 0.5812645 0.7748897 0.2483496
vn 0.6047215 0.7861769 0.1274276
vn 0.6102126 0.7896181 0.06437243
vn 0.6208075 0.7344654 0.2741508
vn 0.6397908 0.7254384 0.253785
vn 0.648019 0.7183435 0.2530889
vn 0.642904 0.74148 0.1920465
vn 0.6546888 0.7490017 0.1018776
vn 0.6564593 0.7524881 0.05312974
vn 0.6498333 0.7361084 0.1893698
vn 0.6567412 0.7292697 0.1919812
vn 0.657389 0.746204 0.1049721
vn 0.6588753 0.7501653 0.0559945
vn 0.6655009 0.73869 0.1069841
vn 0.6666965 0.7431304 0.05720943
g Sphere001_0
f 3/3/3 2/2/2 1/1/1
f 4/4/4 1/1/1 2/2/2
f 2/2/2 5/5/5 4/4/4
f 1/1/1 4/4/4 6/6/6
f 7/7/7 4/4/4 5/5/5
f 8/8/8 6/6/6 4/4/4
f 4/4/4 7/7/7 8/8/8
f 6/6/6 8/8/8 9/9/9
f 10/10/10 8/8/8 7/7/7
f 7/7/7 11/11/11 10/10/10
f 12/12/12 9/9/9 8/8/8
f 8/8/8 10/10/10 12/12/12
f 9/9/9 12/12/12 13/13/13
f 14/14/14 10/10/10 11/11/11
f 11/11/11 15/15/15 14/14/14
f 16/16/16 13/13/13 12/12/12
f 13/13/13 16/16/16 17/17/17
f 18/18/18 12/12/12 10/10/10
f 10/10/10 14/14/14 18/18/18
f 12/12/12 18/18/18 16/16/16
f 19/19/19 14/14/14 15/15/15
f 15/15/15 20/20/20 19/19/19
f 21/21/21 17/17/17 16/16/16
f 17/17/17 21/21/21 22/22/22
f 23/23/23 22/22/22 21/21/21
f 24/24/24 18/18/18 14/14/14
f 14/14/14 19/19/19 24/24/24
f 25/25/25 16/16/16 18/18/18
f 16/16/16 25/25/25 21/21/21
f 18/18/18 24/24/24 25/25/25
f 21/21/21 26/26/26 23/23/23
f 26/26/26 21/21/21 25/25/25
f 27/27/27 23/23/23 26/26/26
f 28/28/28 19/19/19 20/20/20
f 20/20/20 29/29/29 28/28/28
f 30/30/30 28/28/28 29/29/29
f 31/31/31 24/24/24 19/19/19
f 19/19/19 28/28/28 31/31/31
f 32/32/32 25/25/25 24/24/24
f 25/25/25 32/32/32 26/26/26
f 24/24/24 31/31/31 32/32/32
f 26/26/26 33/33/33 27/27/27
f 33/33/33 26/26/26 32/32/32
f 34/34/34 27/27/27 33/33/33
f 28/28/28 30/30/30 35/35/35
f 35/35/35 31/31/31 28/28/28
f 36/36/36 35/35/35 30/30/30
f 37/37/37 32/32/32 31/31/31
f 32/32/32 37/37/37 33/33/33
f 31/31/31 35/35/35 37/37/37
f 33/33/33 38/38/38 34/34/34
f 38/38/38 33/33/33 37/37/37
f 39/39/39 34/34/34 38/38/38
f 35/35/35 36/36/36 40/40/40
f 40/40/40 37/37/37 35/35/35
f 37/37/37 40/40/40 38/38/38
f 41/41/41 40/40/40 36/36/36
f 38/38/38 42/42/42 39/39/39
f 42/42/42 38/38/38 40/40/40
f 40/40/40 41/41/41 42/42/42
f 43/43/43 39/39/39 42/42/42
f 44/44/44 42/42/42 41/41/41
f 42/42/42 44/44/44 43/43/43
f 45/45/45 43/43/43 44/44/44
f 48/48/48 47/47/47 46/46/46
f 49/49/49 46/46/46 47/47/47
f 46/46/46 49/49/49 50/50/50
f 51/51/51 50/50/50 49/49/49
f 50/50/50 51/51/51 52/52/52
f 53/53/53 52/52/52 51/51/51
f 52/52/52 53/53/53 54/54/54
f 55/55/55 54/54/54 53/53/53
f 53/53/53 56/56/56 55/55/55
f 57/57/57 55/55/55 56/56/56
f 51/51/51 58/58/58 53/53/53
f 56/56/56 53/53/53 58/58/58
f 49/49/49 59/59/59 51/51/51
f 58/58/58 51/51/51 59/59/59
f 47/47/47 60/60/60 49/49/49
f 59/59/59 49/49/49 60/60/60
f 56/56/56 61/61/61 57/57/57
f 62/62/62 57/57/57 61/61/61
f 58/58/58 63/63/63 56/56/56
f 61/61/61 56/56/56 63/63/63
f 59/59/59 64/64/64 58/58/58
f 63/63/63 58/58/58 64/64/64
f 61/61/61 65/65/65 62/62/62
f 66/66/66 62/62/62 65/65/65
f 63/63/63 67/67/67 61/61/61
f 65/65/65 61/61/61 67/67/67
f 65/65/65 68/68/68 66/66/66
f 69/69/69 66/66/66 68/68/68
f 60/60/60 47/47/47 70/70/70
f 71/71/71 70/70/70 47/47/47
f 70/70/70 71/71/71 72/72/72
f 72/72/72 73/73/73 70/70/70
f 74/74/74 70/70/70 73/73/73
f 70/70/70 74/74/74 60/60/60
f 73/73/73 75/75/75 74/74/74
f 76/76/76 60/60/60 74/74/74
f 60/60/60 76/76/76 59/59/59
f 64/64/64 59/59/59 76/76/76
f 77/77/77 74/74/74 75/75/75
f 74/74/74 77/77/77 76/76/76
f 75/75/75 78/78/78 77/77/77
f 76/76/76 79/79/79 64/64/64
f 79/79/79 76/76/76 77/77/77
f 80/80/80 77/77/77 78/78/78
f 77/77/77 80/80/80 79/79/79
f 78/78/78 81/81/81 80/80/80
f 82/82/82 64/64/64 79/79/79
f 64/64/64 82/82/82 63/63/63
f 67/67/67 63/63/63 82/82/82
f 83/83/83 80/80/80 81/81/81
f 81/81/81 84/84/84 83/83/83
f 85/85/85 79/79/79 80/80/80
f 79/79/79 85/85/85 82/82/82
f 80/80/80 83/83/83 85/85/85
f 82/82/82 86/86/86 67/67/67
f 86/86/86 82/82/82 85/85/85
f 87/87/87 83/83/83 84/84/84
f 84/84/84 88/88/88 87/87/87
f 89/89/89 85/85/85 83/83/83
f 85/85/85 89/89/89 86/86/86
f 83/83/83 87/87/87 89/89/89
f 90/90/90 67/67/67 86/86/86
f 67/67/67 90/90/90 65/65/65
f 68/68/68 65/65/65 90/90/90
f 91/91/91 87/87/87 88/88/88
f 88/88/88 92/92/92 91/91/91
f 93/93/93 89/89/89 87/87/87
f 87/87/87 91/91/91 93/93/93
f 94/94/94 86/86/86 89/89/89
f 86/86/86 94/94/94 90/90/90
f 89/89/89 93/93/93 94/94/94
f 90/90/90 95/95/95 68/68/68
f 95/95/95 90/90/90 94/94/94
f 96/96/96 91/91/91 92/92/92
f 92/92/92 97/97/97 96/96/96
f 98/98/98 93/93/93 91/91/91
f 91/91/91 96/96/96 98/98/98
f 99/99/99 94/94/94 93/93/93
f 94/94/94 99/99/99 95/95/95
f 93/93/93 98/98/98 99/99/99
f 100/100/100 68/68/68 95/95/95
f 68/68/68 100/100/100 69/69/69
f 101/101/101 69/69/69 100/100/100
f 102/102/102 96/96/96 97/97/97
f 97/97/97 103/103/103 102/102/102
f 104/104/104 95/95/95 99/99/99
f 95/95/95 104/104/104 100/100/100
f 100/100/100 105/105/105 101/101/101
f 105/105/105 100/100/100 104/104/104
f 106/106/106 101/101/101 105/105/105
f 107/107/107 98/98/98 96/96/96
f 96/96/96 102/102/102 107/107/107
f 108/108/108 99/99/99 98/98/98
f 99/99/99 108/108/108 104/104/104
f 98/98/98 107/107/107 108/108/108
f 109/109/109 102/102/102 103/103/103
f 103/103/103 110/110/110 109/109/109
f 104/104/104 111/111/111 105/105/105
f 111/111/111 104/104/104 108/108/108
f 105/105/105 112/112/112 106/106/106
f 112/112/112 105/105/105 111/111/111
f 113/113/113 106/106/106 112/112/112
f 114/114/114 107/107/107 102/102/102
f 102/102/102 109/109/109 114/114/114
f 115/115/115 108/108/108 107/107/107
f 108/108/108 115/115/115 111/111/111
f 107/107/107 114/114/114 115/115/115
f 116/116/116 109/109/109 110/110/110
f 110/110/110 117/117/117 116/116/116
f 111/111/111 118/118/118 112/112/112
f 118/118/118 111/111/111 115/115/115
f 112/112/112 119/119/119 113/113/113
f 119/119/119 112/112/112 118/118/118
f 120/120/120 113/113/113 119/119/119
f 121/121/121 114/114/114 109/109/109
f 109/109/109 116/116/116 121/121/121
f 122/122/122 115/115/115 114/114/114
f 115/115/115 122/122/122 118/118/118
f 114/114/114 121/121/121 122/122/122
f 123/123/123 116/116/116 117/117/117
f 117/117/117 124/124/124 123/123/123
f 125/125/125 123/123/123 124/124/124
f 118/118/118 126/126/126 119/119/119
f 126/126/126 118/118/118 122/122/122
f 119/119/119 127/127/127 120/120/120
f 127/127/127 119/119/119 126/126/126
f 128/128/128 120/120/120 127/127/127
f 129/129/129 121/121/121 116/116/116
f 116/116/116 123/123/123 129/129/129
f 123/123/123 125/125/125 130/130/130
f 130/130/130 129/129/129 123/123/123
f 131/131/131 130/130/130 125/125/125
f 132/132/132 122/122/122 121/121/121
f 122/122/122 132/132/132 126/126/126
f 121/121/121 129/129/129 132/132/132
f 126/126/126 133/133/133 127/127/127
f 133/133/133 126/126/126 132/132/132
f 127/127/127 134/134/134 128/128/128
f 134/134/134 127/127/127 133/133/133
f 135/135/135 128/128/128 134/134/134
f 136/136/136 132/132/132 129/129/129
f 129/129/129 130/130/130 136/136/136
f 132/132/132 136/136/136 133/133/133
f 130/130/130 131/131/131 137/137/137
f 137/137/137 136/136/136 130/130/130
f 138/138/138 137/137/137 131/131/131
f 139/139/139 133/133/133 136/136/136
f 133/133/133 139/139/139 134/134/134
f 136/136/136 137/137/137 139/139/139
f 134/134/134 140/140/140 135/135/135
f 140/140/140 134/134/134 139/139/139
f 141/141/141 135/135/135 140/140/140
f 137/137/137 138/138/138 142/142/142
f 142/142/142 139/139/139 137/137/137
f 139/139/139 142/142/142 140/140/140
f 143/143/143 142/142/142 138/138/138
f 140/140/140 144/144/144 141/141/141
f 144/144/144 140/140/140 142/142/142
f 142/142/142 143/143/143 144/144/144
f 145/145/145 141/141/141 144/144/144
f 146/146/146 144/144/144 143/143/143
f 144/144/144 146/146/146 145/145/145
f 147/147/147 145/145/145 146/146/146
