g Wand
v 0.00750643 -0.4119887 -0.0006429553
v 0.1052854 -0.5722526 -0.05709589
v 0.06395942 -0.5722536 0.09713602
v 0.00750643 -0.7446328 -0.0006429553
v 0.00750643 -0.4119887 -0.0006429553
v -0.09027255 -0.5722536 0.05581003
v 0.00750643 -0.7446328 -0.0006429553
v 0.00750643 -0.4119887 -0.0006429553
v -0.09027255 -0.5722536 0.05581003
v -0.0489465 -0.5722526 -0.09842193
v 0.00750643 -0.7446328 -0.0006429553
v 0.00750643 -0.4119887 -0.0006429553
v 0.1052854 -0.5722526 -0.05709589
v 0.00750643 -0.7446328 -0.0006429553
v -0.07139039 -0.3756737 0.04215652
v -0.1765124 -0.4080546 0.0266757
v -0.07024956 -0.2922347 0.04155415
v -0.06952637 -0.2928477 -0.04189062
v -0.1770616 -0.4074146 -0.01738352
v -0.1415259 -0.5912488 0.01013815
v -0.1399528 -0.4311676 -0.01819181
v -0.07066721 -0.3762867 -0.04128736
v -0.1415259 -0.5912488 0.01013815
v -0.07139039 -0.3756737 0.04215652
v -0.1394037 -0.4318076 0.0258674
v -0.1415259 -0.5912488 0.01013815
v -0.07066721 -0.3762867 -0.04128736
v -0.07139039 -0.3756737 0.04215652
v -0.1394037 -0.4318076 0.0258674
v -0.1399528 -0.4311676 -0.01819181
v -0.1415259 -0.5912488 0.01013815
v -0.03231615 -0.3756737 -0.06468064
v -0.01775283 -0.4080546 -0.1699322
v -0.03170317 -0.2922347 -0.06354463
v 0.05174357 -0.2928477 -0.06354946
v 0.0262996 -0.4074146 -0.1708671
v -0.003031969 -0.5912488 -0.1383093
v 0.02743179 -0.4311676 -0.1337671
v 0.05113155 -0.3762867 -0.06468451
v -0.003031969 -0.5912488 -0.1383093
v -0.03231615 -0.3756737 -0.06468064
v -0.0166207 -0.4318076 -0.1328322
v -0.003031969 -0.5912488 -0.1383093
v 0.05113155 -0.3762867 -0.06468451
v -0.03231615 -0.3756737 -0.06468064
v -0.0166207 -0.4318076 -0.1328322
v 0.02743179 -0.4311676 -0.1337671
v -0.003031969 -0.5912488 -0.1383093
v 0.07139045 -0.3756737 -0.04215652
v 0.1765124 -0.4080546 -0.0266757
v 0.07024956 -0.2922347 -0.0415532
v 0.06952637 -0.2928477 0.04189062
v 0.1770616 -0.4074146 0.01738352
v 0.1439391 -0.5912488 -0.01013815
v 0.1399529 -0.4311676 0.01819181
v 0.07066727 -0.3762867 0.0412873
v 0.1439391 -0.5912488 -0.01013815
v 0.07139045 -0.3756737 -0.04215652
v 0.1394037 -0.4318076 -0.02586746
v 0.1439391 -0.5912488 -0.01013815
v 0.07066727 -0.3762867 0.0412873
v 0.07139045 -0.3756737 -0.04215652
v 0.1394037 -0.4318076 -0.02586746
v 0.1399529 -0.4311676 0.01819181
v 0.1439391 -0.5912488 -0.01013815
v 0.04753596 -0.3756737 0.06468064
v 0.03297263 -0.4080546 0.1699332
v 0.04692298 -0.2922347 0.06354463
v -0.03652376 -0.2928477 0.06354946
v -0.01107979 -0.4074146 0.1708671
v 0.01583856 -0.5912488 0.1383092
v -0.01221198 -0.4311676 0.1337671
v -0.0359118 -0.3762867 0.06468451
v 0.01583856 -0.5912488 0.1383092
v 0.04753596 -0.3756737 0.06468064
v 0.0318405 -0.4318076 0.1328322
v 0.01583856 -0.5912488 0.1383092
v -0.0359118 -0.3762867 0.06468451
v 0.04753596 -0.3756737 0.06468064
v 0.0318405 -0.4318076 0.1328322
v -0.01221198 -0.4311676 0.1337671
v 0.01583856 -0.5912488 0.1383092
v 0.0902977 -0.3973103 0.08214927
v 0.08965474 -0.2891535 -0.08279026
v 0.0902977 -0.3973094 -0.08343416
v 0.08965474 -0.2891535 0.08150536
v 0.04000628 -0.2592234 -0.03314281
v 0.04000628 -0.2592234 0.03185785
v 0.03030229 0.0003973842 -0.02343875
v 0.03030229 0.0003973842 0.0221529
v 0.04000628 0.1948406 0.03185785
v 0.04000628 0.1948406 -0.03314281
v 0.06610477 0.2133697 -0.05924034
v 0.06610477 0.2133697 0.05795538
v 0.00750643 0.2691566 -0.0006429553
v -0.07528478 -0.3973103 -0.08343416
v -0.07464182 -0.2891535 0.08150536
v -0.07528478 -0.3973103 0.08214927
v -0.07464182 -0.2891535 -0.08279026
v -0.02499342 -0.2592234 0.03185785
v -0.02499342 -0.2592234 -0.03314281
v -0.01528937 0.0003973842 0.0221529
v -0.01528937 0.0003973842 -0.02343875
v -0.02499342 0.1948406 0.03185785
v -0.02499342 0.1948406 -0.03314281
v -0.05109191 0.2133697 0.05795538
v -0.05109191 0.2133697 -0.05924129
v 0.00750643 0.2691566 -0.0006429553
v 0.0902977 -0.3973094 -0.08343416
v -0.07464182 -0.2891535 -0.08279026
v -0.07528478 -0.3973103 -0.08343416
v 0.08965474 -0.2891535 -0.08279026
v -0.02499342 -0.2592234 -0.03314281
v 0.04000628 -0.2592234 -0.03314281
v -0.01528937 0.0003973842 -0.02343875
v 0.03030229 0.0003973842 -0.02343875
v -0.02499342 0.1948406 -0.03314281
v 0.04000628 0.1948406 -0.03314281
v -0.05109191 0.2133697 -0.05924129
v 0.06610477 0.2133697 -0.05924034
v 0.00750643 0.2691566 -0.0006429553
v -0.07528478 -0.3973103 0.08214927
v 0.08965474 -0.2891535 0.08150536
v 0.0902977 -0.3973103 0.08214927
v -0.07464182 -0.2891535 0.08150536
v 0.04000628 -0.2592234 0.03185785
v -0.02499342 -0.2592234 0.03185785
v 0.03030229 0.0003973842 0.0221529
v -0.01528937 0.0003973842 0.0221529
v 0.04000628 0.1948406 0.03185785
v -0.02499342 0.1948406 0.03185785
v 0.06610477 0.2133697 0.05795538
v -0.05109191 0.2133697 0.05795538
v 0.00750643 0.2691566 -0.0006429553
v 0.0902977 -0.3973094 -0.08343416
v 0.00750643 -0.353806 -0.0006429553
v 0.0902977 -0.3973103 0.08214927
v -0.07528478 -0.3973103 -0.08343416
v -0.07528478 -0.3973103 0.08214927
vt 0.4586921 0.7156973
vt 0.4941184 0.7659823
vt 0.4586921 0.7659823
vt 0.4586921 0.8200707
vt 0.4586921 0.7156973
vt 0.4232734 0.7659823
vt 0.4586921 0.8200707
vt 0.4992906 0.7674719
vt 0.4638643 0.8177569
vt 0.4992906 0.8177569
vt 0.4992906 0.8718453
vt 0.4992906 0.7674719
vt 0.5347093 0.8177569
vt 0.4992906 0.8718453
vt 0.4246723 0.5726461
vt 0.4289824 0.634213
vt 0.4717132 0.5550577
vt 0.5127125 0.5844271
vt 0.4428127 0.6427199
vt 0.3772683 0.727743
vt 0.4549415 0.65807
vt 0.5057482 0.6347424
vt 0.3772683 0.727743
vt 0.4246723 0.5726461
vt 0.4047398 0.6243148
vt 0.3772683 0.727743
vt 0.3768373 0.5614095
vt 0.4246723 0.5726461
vt 0.4047398 0.6243148
vt 0.3762929 0.6182806
vt 0.3772683 0.727743
vt 0.4246723 0.5726461
vt 0.4289824 0.634213
vt 0.4717132 0.5550577
vt 0.5127125 0.5844271
vt 0.4428127 0.6427199
vt 0.3772683 0.727743
vt 0.4549415 0.65807
vt 0.5057482 0.6347424
vt 0.3772683 0.727743
vt 0.4246723 0.5726461
vt 0.4047398 0.6243148
vt 0.3772683 0.727743
vt 0.3768373 0.5614095
vt 0.4246723 0.5726461
vt 0.4047398 0.6243148
vt 0.3762929 0.6182806
vt 0.3772683 0.727743
vt 0.4246723 0.5726461
vt 0.4289824 0.634213
vt 0.4717132 0.5550577
vt 0.5127125 0.5844271
vt 0.4428127 0.6427199
vt 0.3772683 0.727743
vt 0.4549415 0.65807
vt 0.5057482 0.6347424
vt 0.3772683 0.727743
vt 0.4246723 0.5726461
vt 0.4047398 0.6243148
vt 0.3772683 0.727743
vt 0.3768373 0.5614095
vt 0.4246723 0.5726461
vt 0.4047398 0.6243148
vt 0.3762929 0.6182806
vt 0.3772683 0.727743
vt 0.4246723 0.5726461
vt 0.4289824 0.634213
vt 0.4717132 0.5550577
vt 0.5127125 0.5844271
vt 0.4428127 0.6427199
vt 0.3772683 0.727743
vt 0.4549415 0.65807
vt 0.5057482 0.6347424
vt 0.3772683 0.727743
vt 0.4246723 0.5726461
vt 0.4047398 0.6243148
vt 0.3772683 0.727743
vt 0.3768373 0.5614095
vt 0.4246723 0.5726461
vt 0.4047398 0.6243148
vt 0.3762929 0.6182806
vt 0.3772683 0.727743
vt 0.5859319 0.7687725
vt 0.6411698 0.7427983
vt 0.6426821 0.7687725
vt 0.5874442 0.7427983
vt 0.6249349 0.7323859
vt 0.6036791 0.7323859
vt 0.621759 0.6157399
vt 0.606855 0.6157399
vt 0.6036791 0.5480934
vt 0.6249349 0.5480934
vt 0.6334645 0.5357831
vt 0.5951496 0.5357831
vt 0.6143107 0.5046442
vt 0.6426821 0.7687725
vt 0.5874442 0.7427983
vt 0.5859319 0.7687725
vt 0.6411698 0.7427983
vt 0.6036791 0.7323859
vt 0.6249349 0.7323859
vt 0.606855 0.6157399
vt 0.621759 0.6157399
vt 0.6036791 0.5480934
vt 0.6249349 0.5480934
vt 0.5951496 0.5357831
vt 0.6334645 0.5357831
vt 0.6143107 0.5046442
vt 0.6489356 0.7705798
vt 0.7134591 0.7445979
vt 0.7132549 0.7705798
vt 0.6487314 0.7445979
vt 0.6939046 0.7341856
vt 0.6682934 0.7341856
vt 0.6900785 0.6175472
vt 0.6721196 0.6175472
vt 0.6938971 0.5499007
vt 0.6682934 0.5499007
vt 0.704181 0.5375828
vt 0.6580095 0.5375828
vt 0.6810952 0.5064439
vt 0.515533 0.7695438
vt 0.5807749 0.7435696
vt 0.5812891 0.7695438
vt 0.5160472 0.7435696
vt 0.5612129 0.7331572
vt 0.5356092 0.7331572
vt 0.5573943 0.6165112
vt 0.5394278 0.6165112
vt 0.5612129 0.5488647
vt 0.5356092 0.5488647
vt 0.5714967 0.5365544
vt 0.5253253 0.5365544
vt 0.548411 0.5054155
vt 0.6057963 0.8295152
vt 0.5780603 0.8024218
vt 0.5475339 0.8295152
vt 0.6057963 0.7757368
vt 0.5475339 0.7757368
vn -0.0009775162 0.9999995 0
vn 0.8651022 0.01466274 -0.5013812
vn 0.499511 0.01466274 0.8661835
vn 0.0009775162 -0.9999995 0
vn -0.0009775162 0.9999995 0
vn -0.8651022 0.01466274 0.5013813
vn 0.0009775162 -0.9999995 0
vn -0.0009775162 0.9999995 0
vn -0.8651022 0.01466274 0.5013813
vn -0.499511 0.01466274 -0.8661835
vn 0.0009775162 -0.9999995 0
vn -0.0009775162 0.9999995 0
vn 0.8651022 0.01466274 -0.5013812
vn 0.0009775162 -0.9999995 0
vn 0.2199413 -0.4349949 0.8731582
vn -0.7790807 0.1691104 0.6036844
vn -0.6969694 0.5855324 0.4139873
vn -0.7165197 0.5444767 -0.4360557
vn -0.792766 0.1691104 -0.585597
vn 0.086999 -0.9960895 0.01539248
vn 0.3998043 -0.4095795 -0.8200007
vn 0.05376339 -0.4349949 -0.8988264
vn 0.086999 -0.9960895 0.01539248
vn 0.2199413 -0.4349949 0.8731582
vn 0.4701855 -0.3880741 0.7926689
vn 0.086999 -0.9960895 0.01539248
vn 0.05376339 -0.4349949 -0.8988264
vn 0.2199413 -0.4349949 0.8731582
vn 0.4701855 -0.3880741 0.7926689
vn 0.3998043 -0.4095795 -0.8200007
vn 0.086999 -0.9960895 0.01539248
vn -0.8709673 -0.4349949 0.2284633
vn -0.6109478 0.1769305 -0.7716465
vn -0.4193547 0.5855324 -0.6937531
vn 0.4291298 0.5444767 -0.7206891
vn 0.5816224 0.1730205 -0.7948455
vn -0.04594326 -0.9960895 0.07546513
vn 0.8201364 -0.4193546 0.3892531
vn 0.8983378 -0.4349949 0.0613896
vn -0.04594326 -0.9960895 0.07546513
vn -0.8709673 -0.4349949 0.2284633
vn -0.7849458 -0.3880741 0.4829684
vn -0.04594326 -0.9960895 0.07546513
vn 0.8983378 -0.4349949 0.0613896
vn -0.8709673 -0.4349949 0.2284633
vn -0.7849458 -0.3880741 0.4829684
vn 0.8201364 -0.4193546 0.3892531
vn -0.04594326 -0.9960895 0.07546513
vn -0.2199413 -0.4349949 -0.8731582
vn 0.7771257 0.1730205 -0.6050947
vn 0.6969694 0.5855324 -0.4139873
vn 0.7165197 0.5444767 0.4360557
vn 0.7908109 0.1730205 0.5870962
vn -0.07331371 -0.9960895 -0.04930371
vn -0.4017594 -0.4134895 0.8170776
vn -0.05376339 -0.4349949 0.8988264
vn -0.07331371 -0.9960895 -0.04930371
vn -0.2199413 -0.4349949 -0.8731582
vn -0.4701855 -0.3919842 -0.7907427
vn -0.07331371 -0.9960895 -0.04930371
vn -0.05376339 -0.4349949 0.8988264
vn -0.2199413 -0.4349949 -0.8731582
vn -0.4701855 -0.3919842 -0.7907427
vn -0.4017594 -0.4134895 0.8170776
vn -0.07331371 -0.9960895 -0.04930371
vn 0.8709673 -0.4349949 -0.2284631
vn 0.6109479 0.1749755 0.7720921
vn 0.4193546 0.5855324 0.6937532
vn -0.4291298 0.5444767 0.720689
vn -0.5796673 0.1749755 0.7958451
vn 0.030303 -0.9980445 -0.05467115
vn -0.8201364 -0.4134895 -0.3954778
vn -0.8983378 -0.4349949 -0.06138863
vn 0.030303 -0.9980445 -0.05467115
vn 0.8709673 -0.4349949 -0.2284631
vn 0.7849458 -0.3939392 -0.4781965
vn 0.030303 -0.9980445 -0.05467115
vn -0.8983378 -0.4349949 -0.06138863
vn 0.8709673 -0.4349949 -0.2284631
vn 0.7849458 -0.3939392 -0.4781965
vn -0.8201364 -0.4134895 -0.3954778
vn 0.030303 -0.9980445 -0.05467115
vn 0.5268815 -0.6656889 0.5284451
vn 0.6265882 0.4643204 -0.6259344
vn 0.5268815 -0.6656889 -0.5284451
vn 0.6265882 0.4643204 0.6259344
vn 0.4877808 0.7243398 -0.4872388
vn 0.4877808 0.7243398 0.4872388
vn 0.7067446 -0.008797646 -0.7074141
vn 0.7067446 -0.008797646 0.7074141
vn 0.5112412 -0.6911043 0.5108888
vn 0.5112412 -0.6911043 -0.5108888
vn 0.7067446 -0.04789829 -0.7058455
vn 0.7067446 -0.04789829 0.7058455
vn -0.0009775162 0.9999995 0
vn -0.5268815 -0.6656889 -0.5284451
vn -0.6265881 0.4643204 0.6259344
vn -0.5268815 -0.6656889 0.5284451
vn -0.6265881 0.4643204 -0.6259344
vn -0.4877808 0.7243398 0.4872388
vn -0.4877808 0.7243398 -0.4872388
vn -0.7067446 -0.008797646 0.7074141
vn -0.7067446 -0.008797646 -0.7074141
vn -0.5112412 -0.6911043 0.5108888
vn -0.5112412 -0.6911043 -0.5108888
vn -0.7067446 -0.04789829 0.7058455
vn -0.7067446 -0.04789829 -0.7058455
vn -0.0009775162 0.9999995 0
vn 0.5268815 -0.6656889 -0.5284451
vn -0.6265881 0.4643204 -0.6259344
vn -0.5268815 -0.6656889 -0.5284451
vn 0.6265882 0.4643204 -0.6259344
vn -0.4877808 0.7243398 -0.4872388
vn 0.4877808 0.7243398 -0.4872388
vn -0.7067446 -0.008797646 -0.7074141
vn 0.7067446 -0.008797646 -0.7074141
vn -0.5112412 -0.6911043 -0.5108888
vn 0.5112412 -0.6911043 -0.5108888
vn -0.7067446 -0.04789829 -0.7058455
vn 0.7067446 -0.04789829 -0.7058455
vn -0.0009775162 0.9999995 0
vn -0.5268815 -0.6656889 0.5284451
vn 0.6265882 0.4643204 0.6259344
vn 0.5268815 -0.6656889 0.5284451
vn -0.6265881 0.4643204 0.6259344
vn 0.4877808 0.7243398 0.4872388
vn -0.4877808 0.7243398 0.4872388
vn 0.7067446 -0.008797646 0.7074141
vn -0.7067446 -0.008797646 0.7074141
vn 0.5112412 -0.6911043 0.5108888
vn -0.5112412 -0.6911043 0.5108888
vn 0.7067446 -0.04789829 0.7058455
vn -0.7067446 -0.04789829 0.7058455
vn -0.0009775162 0.9999995 0
vn 0.5268815 -0.6656889 -0.5284451
vn 0.0009775162 -0.9999995 0
vn 0.5268815 -0.6656889 0.5284451
vn -0.5268815 -0.6656889 -0.5284451
vn -0.5268815 -0.6656889 0.5284451
g Wand_0
f 3/3/3 2/2/2 1/1/1
f 3/3/3 4/4/4 2/2/2
f 6/6/6 3/3/3 5/5/5
f 6/6/6 7/7/7 3/3/3
f 10/10/10 9/9/9 8/8/8
f 10/10/10 11/11/11 9/9/9
f 13/13/13 10/10/10 12/12/12
f 13/13/13 14/14/14 10/10/10
f 17/17/17 16/16/16 15/15/15
f 17/17/17 18/18/18 16/16/16
f 19/19/19 16/16/16 18/18/18
f 16/16/16 19/19/19 20/20/20
f 19/19/19 18/18/18 21/21/21
f 22/22/22 21/21/21 18/18/18
f 23/23/23 19/19/19 21/21/21
f 25/25/25 24/24/24 16/16/16
f 26/26/26 25/25/25 16/16/16
f 28/28/28 25/25/25 27/27/27
f 30/30/30 27/27/27 29/29/29
f 31/31/31 30/30/30 25/25/25
f 34/34/34 33/33/33 32/32/32
f 34/34/34 35/35/35 33/33/33
f 36/36/36 33/33/33 35/35/35
f 33/33/33 36/36/36 37/37/37
f 36/36/36 35/35/35 38/38/38
f 39/39/39 38/38/38 35/35/35
f 40/40/40 36/36/36 38/38/38
f 42/42/42 41/41/41 33/33/33
f 43/43/43 42/42/42 33/33/33
f 45/45/45 42/42/42 44/44/44
f 47/47/47 44/44/44 46/46/46
f 48/48/48 47/47/47 42/42/42
f 51/51/51 50/50/50 49/49/49
f 51/51/51 52/52/52 50/50/50
f 53/53/53 50/50/50 52/52/52
f 50/50/50 53/53/53 54/54/54
f 53/53/53 52/52/52 55/55/55
f 56/56/56 55/55/55 52/52/52
f 57/57/57 53/53/53 55/55/55
f 59/59/59 58/58/58 50/50/50
f 60/60/60 59/59/59 50/50/50
f 62/62/62 59/59/59 61/61/61
f 64/64/64 61/61/61 63/63/63
f 65/65/65 64/64/64 59/59/59
f 68/68/68 67/67/67 66/66/66
f 68/68/68 69/69/69 67/67/67
f 70/70/70 67/67/67 69/69/69
f 67/67/67 70/70/70 71/71/71
f 70/70/70 69/69/69 72/72/72
f 73/73/73 72/72/72 69/69/69
f 74/74/74 70/70/70 72/72/72
f 76/76/76 75/75/75 67/67/67
f 77/77/77 76/76/76 67/67/67
f 79/79/79 76/76/76 78/78/78
f 81/81/81 78/78/78 80/80/80
f 82/82/82 81/81/81 76/76/76
f 85/85/85 84/84/84 83/83/83
f 86/86/86 83/83/83 84/84/84
f 84/84/84 87/87/87 86/86/86
f 88/88/88 86/86/86 87/87/87
f 87/87/87 89/89/89 88/88/88
f 90/90/90 88/88/88 89/89/89
f 90/90/90 89/89/89 91/91/91
f 92/92/92 91/91/91 89/89/89
f 92/92/92 93/93/93 91/91/91
f 94/94/94 91/91/91 93/93/93
f 93/93/93 95/95/95 94/94/94
f 98/98/98 97/97/97 96/96/96
f 99/99/99 96/96/96 97/97/97
f 97/97/97 100/100/100 99/99/99
f 101/101/101 99/99/99 100/100/100
f 100/100/100 102/102/102 101/101/101
f 103/103/103 101/101/101 102/102/102
f 102/102/102 104/104/104 103/103/103
f 105/105/105 103/103/103 104/104/104
f 104/104/104 106/106/106 105/105/105
f 107/107/107 105/105/105 106/106/106
f 106/106/106 108/108/108 107/107/107
f 111/111/111 110/110/110 109/109/109
f 112/112/112 109/109/109 110/110/110
f 110/110/110 113/113/113 112/112/112
f 114/114/114 112/112/112 113/113/113
f 113/113/113 115/115/115 114/114/114
f 116/116/116 114/114/114 115/115/115
f 115/115/115 117/117/117 116/116/116
f 118/118/118 116/116/116 117/117/117
f 117/117/117 119/119/119 118/118/118
f 120/120/120 118/118/118 119/119/119
f 119/119/119 121/121/121 120/120/120
f 124/124/124 123/123/123 122/122/122
f 125/125/125 122/122/122 123/123/123
f 123/123/123 126/126/126 125/125/125
f 127/127/127 125/125/125 126/126/126
f 126/126/126 128/128/128 127/127/127
f 129/129/129 127/127/127 128/128/128
f 128/128/128 130/130/130 129/129/129
f 131/131/131 129/129/129 130/130/130
f 130/130/130 132/132/132 131/131/131
f 133/133/133 131/131/131 132/132/132
f 132/132/132 134/134/134 133/133/133
f 137/137/137 136/136/136 135/135/135
f 135/135/135 136/136/136 138/138/138
f 139/139/139 136/136/136 137/137/137
f 138/138/138 136/136/136 139/139/139
