g 1001_ALL_E_M_qibo01
v 0.00821951 0.04606743 -0.03459837
v -0.01471864 0.08391537 -0.02121778
v -0.008219495 0.04606743 -0.03459837
v 0.01471864 0.08391537 -0.02121778
v 0.0235116 0.0407152 -0.03459837
v -0.02045317 0.1148819 -0.001338065
v 0.04262671 0.07397549 -0.02121778
v 0.03574528 0.03001073 -0.03459837
v 0.02045318 0.1148819 -0.001338065
v -0.0246585 0.1401138 0.0258054
v 0.06556486 0.0548604 -0.02121778
v 0.04415593 0.01586555 -0.03459837
v 0.05830111 0.101119 -0.001338065
v 0.0246585 0.1401138 0.0258054
v -0.02848153 0.1607581 0.06212412
v 0.08009235 0.02924612 -0.02121778
v 0.04683204 -0.0001911521 -0.03459837
v 0.0896499 0.0751224 -0.001338065
v 0.07129939 0.1232925 0.0258054
v 0.02848153 0.1607581 0.06212412
v -0.03153995 0.1779618 0.1080004
v 0.08544458 -0.0001911521 -0.02121778
v 0.04415593 -0.01586555 -0.03459837
v 0.1099119 0.03995059 -0.001338065
v 0.1091473 0.09156142 0.0258054
v 0.08162156 0.1412607 0.06212412
v 0.03153995 0.1779618 0.1080004
v -0.03383376 0.1924892 0.1649635
v 0.03383376 0.1924892 0.1649635
v 0.09041451 0.1565528 0.1080004
v 0.09767825 0.1691688 0.1649635
v 0.08009235 -0.02924614 -0.02121778
v 0.03574528 -0.03001073 -0.03459837
v 0.1167934 -0.0001911521 -0.001338065
v 0.1336147 0.04874355 0.0258054
v 0.125204 0.104942 0.06212412
v 0.1382023 0.1160288 0.1080004
v 0.1496714 0.1255863 0.1649635
v 0.06556486 -0.05486038 -0.02121778
v 0.0235116 -0.0407152 -0.03459837
v 0.1099119 -0.03995059 -0.001338065
v 0.1424076 -0.0001911521 0.0258054
v 0.1534944 0.05600728 0.06212412
v 0.1695511 0.06174181 0.1080004
v 0.1836963 0.06671177 0.1649635
v 0.04262671 -0.07397551 -0.02121778
v 0.00821951 -0.04606743 -0.03459837
v 0.0896499 -0.07512242 -0.001338065
v 0.1336147 -0.04874355 0.0258054
v 0.1634343 -0.0001911521 0.06212412
v 0.1806379 -0.0001911521 0.1080004
v 0.1955477 0.0001911521 0.1649635
v 0.01471864 -0.08391537 -0.02121778
v -0.008219495 -0.04606743 -0.03459837
v 0.05830111 -0.101119 -0.001338065
v 0.1091473 -0.09156141 0.0258054
v 0.1534944 -0.0560073 0.06212412
v 0.1695511 -0.06174183 0.1080004
v 0.1836963 -0.06671177 0.1649635
v -0.01471864 -0.08391537 -0.02121778
v -0.02351159 -0.0407152 -0.03459837
v 0.02045318 -0.1148819 -0.001338065
v 0.07129939 -0.1232925 0.0258054
v 0.125204 -0.104942 0.06212412
v 0.1382023 -0.1160288 0.1080004
v 0.1496714 -0.1255863 0.1649635
v -0.04262671 -0.07397551 -0.02121778
v -0.03574526 -0.03001073 -0.03459837
v -0.02045317 -0.1148819 -0.001338065
v 0.0246585 -0.1401138 0.0258054
v 0.08162156 -0.1412607 0.06212412
v 0.09041451 -0.1565528 0.1080004
v 0.09767825 -0.1691688 0.1649635
v -0.06556486 -0.05486038 -0.02121778
v -0.04415593 -0.01586555 -0.03459837
v -0.05830111 -0.101119 -0.001338065
v -0.0246585 -0.1401138 0.0258054
v 0.02848153 -0.1607581 0.06212412
v 0.03153995 -0.1779618 0.1080004
v 0.03383376 -0.1924892 0.1649635
v -0.08009233 -0.02924614 -0.02121778
v -0.04683204 -0.0001911521 -0.03459837
v -0.0896499 -0.07512242 -0.001338065
v -0.07129939 -0.1232925 0.0258054
v -0.02848153 -0.1607581 0.06212412
v -0.03153995 -0.1779618 0.1080004
v -0.03383376 -0.1924892 0.1649635
v -0.08544458 -0.0001911521 -0.02121778
v -0.04415593 0.01586555 -0.03459837
v -0.1099119 -0.03995059 -0.001338065
v -0.1091473 -0.09156141 0.0258054
v -0.08162154 -0.1412607 0.06212412
v -0.09041451 -0.1565528 0.1080004
v -0.09767826 -0.1691688 0.1649635
v -0.08009233 0.02924612 -0.02121778
v -0.03574526 0.03001073 -0.03459837
v -0.1167934 -0.0001911521 -0.001338065
v -0.1336147 -0.04874355 0.0258054
v -0.125204 -0.104942 0.06212412
v -0.1382023 -0.1160288 0.1080004
v -0.1496714 -0.1255863 0.1649635
v -0.06556486 0.0548604 -0.02121778
v -0.02351159 0.0407152 -0.03459837
v -0.1099119 0.03995059 -0.001338065
v -0.1424076 0.0001911521 0.0258054
v -0.1534944 -0.0560073 0.06212412
v -0.1695511 -0.06174183 0.1080004
v -0.1836963 -0.06671177 0.1649635
v -0.04262671 0.07397549 -0.02121778
v -0.008219495 0.04606743 -0.03459837
v -0.01471864 0.08391537 -0.02121778
v -0.0896499 0.0751224 -0.001338065
v -0.05830111 0.101119 -0.001338065
v -0.02045317 0.1148819 -0.001338065
v -0.1336147 0.04874355 0.0258054
v -0.1634343 0.0001911521 0.06212412
v -0.1806379 0.0001911521 0.1080004
v -0.1955477 0.0001911521 0.1649635
v -0.07129939 0.1232925 0.0258054
v -0.0246585 0.1401138 0.0258054
v -0.1091473 0.09156142 0.0258054
v -0.1534944 0.05600728 0.06212412
v -0.1695511 0.06174181 0.1080004
v -0.1836963 0.06671177 0.1649635
v -0.125204 0.104942 0.06212412
v -0.08162154 0.1412607 0.06212412
v -0.02848153 0.1607581 0.06212412
v -0.1382023 0.1160288 0.1080004
v -0.1496714 0.1255863 0.1649635
v -0.09041451 0.1565528 0.1080004
v -0.03153995 0.1779618 0.1080004
v -0.09767826 0.1691688 0.1649635
v -0.03383376 0.1924892 0.1649635
vt 0.9714612 0
vt 1.027778 0.1669385
vt 1.027778 0
vt 0.9714612 0.1669385
vt 0.9171559 0
vt 1.027778 0.3338769
vt 0.9171559 0.1669385
vt 0.8608393 0
vt 0.9714612 0.3338769
vt 1.027778 0.5008154
vt 0.8608393 0.1669385
vt 0.806534 0
vt 0.9171559 0.3338769
vt 0.9714612 0.5008154
vt 1.027778 0.6657425
vt 0.806534 0.1669385
vt 0.7502174 0
vt 0.8608393 0.3338769
vt 0.9171559 0.5008154
vt 0.9714612 0.6657425
vt 1.027778 0.832681
vt 0.7502174 0.1669385
vt 0.6939008 0
vt 0.806534 0.3338769
vt 0.8608393 0.5008154
vt 0.9171559 0.6657425
vt 0.9714612 0.832681
vt 1.027778 0.9996194
vt 0.9714612 0.9996194
vt 0.9171559 0.832681
vt 0.9171559 0.9996194
vt 0.6939008 0.1669385
vt 0.6395956 0
vt 0.7502174 0.3338769
vt 0.806534 0.5008154
vt 0.8608393 0.6657425
vt 0.8608393 0.832681
vt 0.8608393 0.9996194
vt 0.6395956 0.1669385
vt 0.583279 0
vt 0.6939008 0.3338769
vt 0.7502174 0.5008154
vt 0.806534 0.6657425
vt 0.806534 0.832681
vt 0.806534 0.9996194
vt 0.583279 0.1669385
vt 0.5269623 0
vt 0.6395956 0.3338769
vt 0.6939008 0.5008154
vt 0.7502174 0.6657425
vt 0.7502174 0.832681
vt 0.7502174 0.9996194
vt 0.5269623 0.1669385
vt 0.4726571 0
vt 0.583279 0.3338769
vt 0.6395956 0.5008154
vt 0.6939008 0.6657425
vt 0.6939008 0.832681
vt 0.6939008 0.9996194
vt 0.4726571 0.1669385
vt 0.4163405 0
vt 0.5269623 0.3338769
vt 0.583279 0.5008154
vt 0.6395956 0.6657425
vt 0.6395956 0.832681
vt 0.6395956 0.9996194
vt 0.4163405 0.1669385
vt 0.3620352 0
vt 0.4726571 0.3338769
vt 0.5269623 0.5008154
vt 0.583279 0.6657425
vt 0.583279 0.832681
vt 0.583279 0.9996194
vt 0.3620352 0.1669385
vt 0.3057186 0
vt 0.4163405 0.3338769
vt 0.4726571 0.5008154
vt 0.5269623 0.6657425
vt 0.5269623 0.832681
vt 0.5269623 0.9996194
vt 0.3057186 0.1669385
vt 0.249402 0
vt 0.3620352 0.3338769
vt 0.4163405 0.5008154
vt 0.4726571 0.6657425
vt 0.4726571 0.832681
vt 0.4726571 0.9996194
vt 0.249402 0.1669385
vt 0.1950967 0
vt 0.3057186 0.3338769
vt 0.3620352 0.5008154
vt 0.4163405 0.6657425
vt 0.4163405 0.832681
vt 0.4163405 0.9996194
vt 0.1950967 0.1669385
vt 0.1387802 0
vt 0.249402 0.3338769
vt 0.3057186 0.5008154
vt 0.3620352 0.6657425
vt 0.3620352 0.832681
vt 0.3620352 0.9996194
vt 0.1387802 0.1669385
vt 0.08246358 0
vt 0.1950967 0.3338769
vt 0.249402 0.5008154
vt 0.3057186 0.6657425
vt 0.3057186 0.832681
vt 0.3057186 0.9996194
vt 0.08246358 0.1669385
vt 0.02815829 0
vt 0.02815829 0.1669385
vt 0.1387802 0.3338769
vt 0.08246358 0.3338769
vt 0.02815829 0.3338769
vt 0.1950967 0.5008154
vt 0.249402 0.6657425
vt 0.249402 0.832681
vt 0.249402 0.9996194
vt 0.08246358 0.5008154
vt 0.02815829 0.5008154
vt 0.1387802 0.5008154
vt 0.1950967 0.6657425
vt 0.1950967 0.832681
vt 0.1950967 0.9996194
vt 0.1387802 0.6657425
vt 0.08246358 0.6657425
vt 0.02815829 0.6657425
vt 0.1387802 0.832681
vt 0.1387802 0.9996194
vt 0.08246358 0.832681
vt 0.02815829 0.832681
vt 0.08246358 0.9996194
vt 0.02815829 0.9996194
vn 0.04606938 0.3224853 -0.9454527
vn -0.07678217 0.4453369 -0.8920648
vn -0.04606932 0.3224853 -0.9454527
vn 0.07678223 0.4453369 -0.8920648
vn 0.1689209 0.2917724 -0.9414534
vn -0.1074951 0.6296142 -0.7694353
vn 0.2303467 0.3839111 -0.8941771
vn 0.2610596 0.1996338 -0.9444545
vn 0.1074951 0.6296142 -0.7694353
vn -0.138208 0.7831786 -0.6062424
vn 0.3531982 0.2917724 -0.8888869
vn 0.3224854 0.1074951 -0.940451
vn 0.3224854 0.5681884 -0.7570767
vn 0.138208 0.7831786 -0.6062424
vn -0.1689208 0.9060302 -0.3880399
vn 0.414624 0.138208 -0.8994362
vn 0.3224854 0.01535642 -0.9464499
vn 0.5067627 0.4146239 -0.7558296
vn 0.414624 0.69104 -0.5920732
vn 0.1689209 0.9060302 -0.3880399
vn -0.1689208 0.9367431 -0.3065586
vn 0.4453369 0.01535642 -0.8952314
vn 0.3224854 -0.1074951 -0.940451
vn 0.5989014 0.2303466 -0.7669795
vn 0.6296142 0.5067627 -0.5888782
vn 0.4453369 0.7831786 -0.4339427
vn 0.1689209 0.9367431 -0.3065585
vn -0.1689208 0.9674559 -0.1884007
vn 0.1689209 0.9674559 -0.1884005
vn 0.4760498 0.8138916 -0.3331022
vn 0.4760498 0.8446044 -0.2449896
vn 0.414624 -0.138208 -0.8994362
vn 0.2610596 -0.1996338 -0.9444544
vn 0.6296142 -0.01535648 -0.7767562
vn 0.7524658 0.2610596 -0.6046842
vn 0.69104 0.5681884 -0.4467949
vn 0.7217529 0.5989013 -0.3469724
vn 0.7524658 0.6296142 -0.193342
vn 0.3531982 -0.2917725 -0.8888869
vn 0.1689209 -0.2917725 -0.9414534
vn 0.5989014 -0.2303467 -0.7669795
vn 0.8138916 -0.01535648 -0.5808138
vn 0.8446045 0.3224853 -0.4273716
vn 0.9060302 0.3224853 -0.2740665
vn 0.9060302 0.3224853 -0.2740665
vn 0.2303467 -0.3839111 -0.8941771
vn 0.04606938 -0.3224854 -0.9454527
vn 0.5067627 -0.414624 -0.7558296
vn 0.7524658 -0.2610596 -0.6046842
vn 0.9060302 -0.01535648 -0.4229343
vn 0.967456 -0.01535648 -0.2525727
vn 0.967456 -0.01535648 -0.2525727
vn 0.07678223 -0.4453369 -0.8920648
vn -0.04606932 -0.3224854 -0.9454527
vn 0.3224854 -0.5681885 -0.7570767
vn 0.6296142 -0.5067627 -0.5888782
vn 0.8446045 -0.3224854 -0.4273715
vn 0.9060302 -0.3224854 -0.2740664
vn 0.9060302 -0.3224854 -0.2740664
vn -0.07678217 -0.4453369 -0.8920648
vn -0.1689208 -0.2917725 -0.9414535
vn 0.1074951 -0.6296142 -0.7694353
vn 0.414624 -0.69104 -0.5920731
vn 0.69104 -0.5681885 -0.4467947
vn 0.7217529 -0.5989014 -0.3469723
vn 0.7524658 -0.6296142 -0.1933419
vn -0.2303466 -0.3839111 -0.8941771
vn -0.2610596 -0.1996338 -0.9444544
vn -0.1074951 -0.6296142 -0.7694353
vn 0.138208 -0.7831787 -0.6062423
vn 0.4453369 -0.7831787 -0.4339426
vn 0.4760498 -0.8138916 -0.3331022
vn 0.4760498 -0.8446045 -0.2449895
vn -0.3531982 -0.2917725 -0.8888869
vn -0.3224853 -0.1074951 -0.940451
vn -0.3224853 -0.5681885 -0.7570767
vn -0.138208 -0.7831787 -0.6062423
vn 0.1689209 -0.9060302 -0.3880399
vn 0.1689209 -0.9367431 -0.3065583
vn 0.1689209 -0.967456 -0.1883999
vn -0.4146239 -0.138208 -0.8994362
vn -0.3224853 0.01535642 -0.9464499
vn -0.5067627 -0.414624 -0.7558297
vn -0.4146239 -0.69104 -0.5920732
vn -0.1689208 -0.9060302 -0.3880399
vn -0.1689208 -0.9367431 -0.3065584
vn -0.1689208 -0.967456 -0.1884
vn -0.4453369 0.01535642 -0.8952314
vn -0.3224853 0.1074951 -0.940451
vn -0.5989013 -0.2303467 -0.7669795
vn -0.6296142 -0.5067627 -0.5888782
vn -0.4453369 -0.7831787 -0.4339426
vn -0.4760497 -0.8138916 -0.3331023
vn -0.4760497 -0.8446045 -0.2449896
vn -0.4146239 0.138208 -0.8994362
vn -0.2610596 0.1996338 -0.9444545
vn -0.6296142 -0.01535648 -0.7767562
vn -0.7524658 -0.2610596 -0.6046843
vn -0.69104 -0.5681885 -0.4467948
vn -0.7217528 -0.5989014 -0.3469726
vn -0.7524658 -0.6296142 -0.193342
vn -0.3531982 0.2917724 -0.8888869
vn -0.1689208 0.2917724 -0.9414535
vn -0.5989013 0.2303466 -0.7669795
vn -0.8138916 0.01535642 -0.5808138
vn -0.8446044 -0.3224854 -0.4273716
vn -0.9060302 -0.3224854 -0.2740664
vn -0.9060302 -0.3224854 -0.2740664
vn -0.2303466 0.3839111 -0.8941771
vn -0.04606932 0.3224853 -0.9454527
vn -0.07678217 0.4453369 -0.8920648
vn -0.5067627 0.4146239 -0.7558298
vn -0.3224853 0.5681884 -0.7570768
vn -0.1074951 0.6296142 -0.7694353
vn -0.7524658 0.2610596 -0.6046843
vn -0.9060302 0.01535642 -0.4229343
vn -0.9674559 0.01535642 -0.2525732
vn -0.9674559 0.01535642 -0.2525732
vn -0.4146239 0.69104 -0.5920732
vn -0.138208 0.7831786 -0.6062424
vn -0.6296142 0.5067627 -0.5888782
vn -0.8446044 0.3224853 -0.4273717
vn -0.9060302 0.3224853 -0.2740665
vn -0.9060302 0.3224853 -0.2740665
vn -0.69104 0.5681884 -0.446795
vn -0.4453369 0.7831786 -0.4339428
vn -0.1689208 0.9060302 -0.3880399
vn -0.7217528 0.5989013 -0.3469727
vn -0.7524658 0.6296142 -0.1933422
vn -0.4760497 0.8138916 -0.3331023
vn -0.1689208 0.9367431 -0.3065586
vn -0.4760497 0.8446044 -0.2449897
vn -0.1689208 0.9674559 -0.1884007
g 1001_ALL_E_M_qibo01_0
f 3/3/3 2/2/2 1/1/1
f 2/2/2 4/4/4 1/1/1
f 1/1/1 4/4/4 5/5/5
f 2/2/2 6/6/6 4/4/4
f 4/4/4 7/7/7 5/5/5
f 5/5/5 7/7/7 8/8/8
f 6/6/6 9/9/9 4/4/4
f 4/4/4 9/9/9 7/7/7
f 6/6/6 10/10/10 9/9/9
f 7/7/7 11/11/11 8/8/8
f 8/8/8 11/11/11 12/12/12
f 9/9/9 13/13/13 7/7/7
f 7/7/7 13/13/13 11/11/11
f 10/10/10 14/14/14 9/9/9
f 9/9/9 14/14/14 13/13/13
f 10/10/10 15/15/15 14/14/14
f 11/11/11 16/16/16 12/12/12
f 12/12/12 16/16/16 17/17/17
f 13/13/13 18/18/18 11/11/11
f 11/11/11 18/18/18 16/16/16
f 14/14/14 19/19/19 13/13/13
f 13/13/13 19/19/19 18/18/18
f 15/15/15 20/20/20 14/14/14
f 14/14/14 20/20/20 19/19/19
f 15/15/15 21/21/21 20/20/20
f 16/16/16 22/22/22 17/17/17
f 17/17/17 22/22/22 23/23/23
f 18/18/18 24/24/24 16/16/16
f 16/16/16 24/24/24 22/22/22
f 19/19/19 25/25/25 18/18/18
f 18/18/18 25/25/25 24/24/24
f 20/20/20 26/26/26 19/19/19
f 19/19/19 26/26/26 25/25/25
f 21/21/21 27/27/27 20/20/20
f 20/20/20 27/27/27 26/26/26
f 21/21/21 28/28/28 27/27/27
f 28/28/28 29/29/29 27/27/27
f 27/27/27 29/29/29 30/30/30
f 27/27/27 30/30/30 26/26/26
f 29/29/29 31/31/31 30/30/30
f 22/22/22 32/32/32 23/23/23
f 23/23/23 32/32/32 33/33/33
f 24/24/24 34/34/34 22/22/22
f 22/22/22 34/34/34 32/32/32
f 25/25/25 35/35/35 24/24/24
f 24/24/24 35/35/35 34/34/34
f 26/26/26 36/36/36 25/25/25
f 26/26/26 30/30/30 36/36/36
f 25/25/25 36/36/36 35/35/35
f 30/30/30 31/31/31 37/37/37
f 30/30/30 37/37/37 36/36/36
f 31/31/31 38/38/38 37/37/37
f 32/32/32 39/39/39 33/33/33
f 33/33/33 39/39/39 40/40/40
f 34/34/34 41/41/41 32/32/32
f 32/32/32 41/41/41 39/39/39
f 35/35/35 42/42/42 34/34/34
f 34/34/34 42/42/42 41/41/41
f 36/36/36 43/43/43 35/35/35
f 36/36/36 37/37/37 43/43/43
f 35/35/35 43/43/43 42/42/42
f 37/37/37 38/38/38 44/44/44
f 37/37/37 44/44/44 43/43/43
f 38/38/38 45/45/45 44/44/44
f 39/39/39 46/46/46 40/40/40
f 40/40/40 46/46/46 47/47/47
f 41/41/41 48/48/48 39/39/39
f 39/39/39 48/48/48 46/46/46
f 42/42/42 49/49/49 41/41/41
f 41/41/41 49/49/49 48/48/48
f 43/43/43 50/50/50 42/42/42
f 43/43/43 44/44/44 50/50/50
f 42/42/42 50/50/50 49/49/49
f 44/44/44 45/45/45 51/51/51
f 44/44/44 51/51/51 50/50/50
f 45/45/45 52/52/52 51/51/51
f 46/46/46 53/53/53 47/47/47
f 47/47/47 53/53/53 54/54/54
f 48/48/48 55/55/55 46/46/46
f 46/46/46 55/55/55 53/53/53
f 49/49/49 56/56/56 48/48/48
f 48/48/48 56/56/56 55/55/55
f 50/50/50 57/57/57 49/49/49
f 50/50/50 51/51/51 57/57/57
f 49/49/49 57/57/57 56/56/56
f 51/51/51 52/52/52 58/58/58
f 51/51/51 58/58/58 57/57/57
f 52/52/52 59/59/59 58/58/58
f 53/53/53 60/60/60 54/54/54
f 54/54/54 60/60/60 61/61/61
f 55/55/55 62/62/62 53/53/53
f 53/53/53 62/62/62 60/60/60
f 56/56/56 63/63/63 55/55/55
f 55/55/55 63/63/63 62/62/62
f 57/57/57 64/64/64 56/56/56
f 57/57/57 58/58/58 64/64/64
f 56/56/56 64/64/64 63/63/63
f 58/58/58 59/59/59 65/65/65
f 58/58/58 65/65/65 64/64/64
f 59/59/59 66/66/66 65/65/65
f 60/60/60 67/67/67 61/61/61
f 61/61/61 67/67/67 68/68/68
f 62/62/62 69/69/69 60/60/60
f 60/60/60 69/69/69 67/67/67
f 63/63/63 70/70/70 62/62/62
f 62/62/62 70/70/70 69/69/69
f 64/64/64 71/71/71 63/63/63
f 64/64/64 65/65/65 71/71/71
f 63/63/63 71/71/71 70/70/70
f 65/65/65 66/66/66 72/72/72
f 65/65/65 72/72/72 71/71/71
f 66/66/66 73/73/73 72/72/72
f 67/67/67 74/74/74 68/68/68
f 68/68/68 74/74/74 75/75/75
f 69/69/69 76/76/76 67/67/67
f 67/67/67 76/76/76 74/74/74
f 70/70/70 77/77/77 69/69/69
f 69/69/69 77/77/77 76/76/76
f 71/71/71 78/78/78 70/70/70
f 71/71/71 72/72/72 78/78/78
f 70/70/70 78/78/78 77/77/77
f 72/72/72 73/73/73 79/79/79
f 72/72/72 79/79/79 78/78/78
f 73/73/73 80/80/80 79/79/79
f 74/74/74 81/81/81 75/75/75
f 75/75/75 81/81/81 82/82/82
f 76/76/76 83/83/83 74/74/74
f 74/74/74 83/83/83 81/81/81
f 77/77/77 84/84/84 76/76/76
f 76/76/76 84/84/84 83/83/83
f 78/78/78 85/85/85 77/77/77
f 78/78/78 79/79/79 85/85/85
f 77/77/77 85/85/85 84/84/84
f 79/79/79 80/80/80 86/86/86
f 79/79/79 86/86/86 85/85/85
f 80/80/80 87/87/87 86/86/86
f 81/81/81 88/88/88 82/82/82
f 82/82/82 88/88/88 89/89/89
f 83/83/83 90/90/90 81/81/81
f 81/81/81 90/90/90 88/88/88
f 84/84/84 91/91/91 83/83/83
f 83/83/83 91/91/91 90/90/90
f 85/85/85 92/92/92 84/84/84
f 85/85/85 86/86/86 92/92/92
f 84/84/84 92/92/92 91/91/91
f 86/86/86 87/87/87 93/93/93
f 86/86/86 93/93/93 92/92/92
f 87/87/87 94/94/94 93/93/93
f 88/88/88 95/95/95 89/89/89
f 89/89/89 95/95/95 96/96/96
f 90/90/90 97/97/97 88/88/88
f 88/88/88 97/97/97 95/95/95
f 91/91/91 98/98/98 90/90/90
f 90/90/90 98/98/98 97/97/97
f 92/92/92 99/99/99 91/91/91
f 92/92/92 93/93/93 99/99/99
f 91/91/91 99/99/99 98/98/98
f 93/93/93 94/94/94 100/100/100
f 93/93/93 100/100/100 99/99/99
f 94/94/94 101/101/101 100/100/100
f 95/95/95 102/102/102 96/96/96
f 96/96/96 102/102/102 103/103/103
f 97/97/97 104/104/104 95/95/95
f 95/95/95 104/104/104 102/102/102
f 98/98/98 105/105/105 97/97/97
f 97/97/97 105/105/105 104/104/104
f 99/99/99 106/106/106 98/98/98
f 99/99/99 100/100/100 106/106/106
f 98/98/98 106/106/106 105/105/105
f 100/100/100 101/101/101 107/107/107
f 100/100/100 107/107/107 106/106/106
f 101/101/101 108/108/108 107/107/107
f 102/102/102 109/109/109 103/103/103
f 103/103/103 109/109/109 110/110/110
f 109/109/109 111/111/111 110/110/110
f 104/104/104 112/112/112 102/102/102
f 102/102/102 112/112/112 109/109/109
f 109/109/109 113/113/113 111/111/111
f 112/112/112 113/113/113 109/109/109
f 113/113/113 114/114/114 111/111/111
f 105/105/105 115/115/115 104/104/104
f 104/104/104 115/115/115 112/112/112
f 106/106/106 116/116/116 105/105/105
f 106/106/106 107/107/107 116/116/116
f 105/105/105 116/116/116 115/115/115
f 107/107/107 108/108/108 117/117/117
f 107/107/107 117/117/117 116/116/116
f 108/108/108 118/118/118 117/117/117
f 113/113/113 119/119/119 114/114/114
f 119/119/119 120/120/120 114/114/114
f 112/112/112 121/121/121 113/113/113
f 115/115/115 121/121/121 112/112/112
f 121/121/121 119/119/119 113/113/113
f 116/116/116 122/122/122 115/115/115
f 116/116/116 117/117/117 122/122/122
f 115/115/115 122/122/122 121/121/121
f 117/117/117 118/118/118 123/123/123
f 117/117/117 123/123/123 122/122/122
f 118/118/118 124/124/124 123/123/123
f 122/122/122 125/125/125 121/121/121
f 121/121/121 125/125/125 119/119/119
f 122/122/122 123/123/123 125/125/125
f 119/119/119 126/126/126 120/120/120
f 125/125/125 126/126/126 119/119/119
f 126/126/126 127/127/127 120/120/120
f 123/123/123 124/124/124 128/128/128
f 123/123/123 128/128/128 125/125/125
f 125/125/125 128/128/128 126/126/126
f 124/124/124 129/129/129 128/128/128
f 126/126/126 130/130/130 127/127/127
f 128/128/128 130/130/130 126/126/126
f 128/128/128 129/129/129 130/130/130
f 130/130/130 131/131/131 127/127/127
f 129/129/129 132/132/132 130/130/130
f 130/130/130 132/132/132 131/131/131
f 132/132/132 133/133/133 131/131/131
