g Arrow
v -0.04290237 0.02963258 -0.1181832
v 2.086163E-07 -2.086163E-07 -0.201284
v 0.04290241 0.02963258 -0.1181832
v -0.04290237 -0.02963263 -0.1181832
v 0.04290241 -0.02963263 -0.1181832
v 2.086163E-07 -2.086163E-07 -0.201284
v 0.04290241 -0.02963263 -0.1181832
v 0.04290241 0.02963258 -0.1181832
v -0.04290237 0.02963258 -0.1181832
v -0.04290237 -0.02963263 -0.1181832
v 0.04290241 0.02963258 -0.1181832
v 0.04290241 -0.02963263 -0.1181832
v 0.01389924 0.01389919 -0.1255214
v -0.01389919 0.01389919 0.1026936
v -0.01389919 0.01389919 -0.1255214
v 0.01389924 0.01389919 0.1026936
v -0.03299418 0.03299418 0.1542984
v 0.03299423 0.03299418 0.1542981
v -0.01389919 0.01389919 0.161778
v 0.01389924 0.01389919 0.161778
v -0.01389919 -0.01389924 0.1026936
v 0.01389924 -0.01389924 -0.1255214
v -0.01389919 -0.01389924 -0.1255214
v 0.01389924 -0.01389924 0.1026936
v 0.03299423 -0.03299423 0.1542981
v -0.03299418 -0.03299423 0.1542981
v 0.01389924 -0.01389924 0.161778
v -0.01389919 -0.01389924 0.161778
v 0.01389924 -0.01389924 -0.1255214
v 0.01389924 0.01389919 0.1026936
v 0.01389924 0.01389919 -0.1255214
v 0.01389924 -0.01389924 0.1026936
v 0.03299423 0.03299418 0.1542981
v 0.03299423 -0.03299423 0.1542981
v 0.01389924 0.01389919 0.161778
v 0.01389924 -0.01389924 0.161778
v 0.01389924 0.01389919 0.201284
v -0.01389919 -0.01389924 0.201284
v -0.01389919 0.01389919 0.201284
v 0.01389924 -0.01389924 0.201284
v -0.01389919 0.01389919 0.161778
v -0.01389919 -0.01389924 0.201284
v -0.01389919 -0.01389924 0.161778
v -0.01389919 0.01389919 0.201284
v 0.01389924 0.01389919 0.161778
v 0.01389924 0.01389919 0.201284
v 0.01389924 -0.01389924 0.161778
v 0.01389924 -0.01389924 0.201284
v -0.01389919 -0.01389924 0.161778
v -0.01389919 -0.01389924 0.201284
v -0.01389919 0.01389919 -0.1255214
v -0.01389919 -0.01389924 0.1026936
v -0.01389919 -0.01389924 -0.1255214
v -0.01389919 0.01389919 0.1026936
v -0.03299418 -0.03299423 0.1542981
v -0.03299418 0.03299418 0.1542984
v -0.01389919 -0.01389924 0.161778
v -0.01389919 0.01389919 0.161778
vt 0.09102359 0.9555812
vt 0.06264067 0.9721862
vt 0.09102359 0.9886872
vt 0.09102359 0.9886872
vt 0.09102359 0.9555812
vt 0.101955 0.9273171
vt 0.09102359 0.9555812
vt 0.1131537 0.9555812
vt 0.09102359 0.9555812
vt 0.1131537 0.9555812
vt 0.09102359 0.9886872
vt 0.1132873 0.9886872
vt 0.04162453 0.7573167
vt 0.1191689 0.7467269
vt 0.04162453 0.7467269
vt 0.1191689 0.7573167
vt 0.1370214 0.7401919
vt 0.1370214 0.7649063
vt 0.1443734 0.7475438
vt 0.1443734 0.7582227
vt 0.1191689 0.7883879
vt 0.04162453 0.7777981
vt 0.04162453 0.7883879
vt 0.1191689 0.7777981
vt 0.1370214 0.7712631
vt 0.1370214 0.7959775
vt 0.1444773 0.778615
vt 0.1444773 0.7892939
vt 0.1187084 0.7627676
vt 0.04111955 0.7733573
vt 0.1187084 0.7733573
vt 0.04111955 0.7627676
vt 0.02326698 0.7798923
vt 0.02326698 0.755178
vt 0.015618 0.7721988
vt 0.015618 0.761817
vt 0.1605179 0.7890562
vt 0.1708997 0.7783625
vt 0.1605179 0.7783625
vt 0.1708997 0.7890562
vt 0.1464082 0.7570196
vt 0.1598496 0.7467418
vt 0.1464082 0.7467418
vt 0.1598496 0.7570196
vt 0.1464082 0.7677728
vt 0.1598496 0.7677728
vt 0.1464082 0.7786002
vt 0.1598496 0.7786002
vt 0.1464082 0.789591
vt 0.1598496 0.789591
vt 0.1183223 0.7320676
vt 0.0404512 0.7426574
vt 0.1183223 0.7426574
vt 0.0404512 0.7320676
vt 0.02259862 0.7491924
vt 0.02259862 0.7244632
vt 0.0153358 0.741989
vt 0.0153358 0.731622
vn -0.6766937 0.6352211 0.3722631
vn 0.0006911755 -0.0006911755 -0.9999995
vn 0.6766936 0.6352211 0.3722632
vn -0.6766937 -0.6352211 0.3722631
vn 0.6766936 -0.6352211 0.3722633
vn 0.0006911755 -0.0006911755 -0.9999995
vn 0.6766936 -0.6352211 0.3722633
vn 0.6766936 0.6352211 0.3722632
vn -0.6766937 0.6352211 0.3722631
vn -0.6766937 -0.6352211 0.3722631
vn 0.6766936 0.6352211 0.3722632
vn 0.6766936 -0.6352211 0.3722633
vn 0.7071068 0.7071068 0
vn -0.6808408 0.6808408 -0.2700213
vn -0.7071068 0.7071068 0
vn 0.6808409 0.6808408 -0.2700211
vn -0.6725464 0.6725464 0.3088085
vn 0.6725464 0.6725464 0.3088085
vn -0.4389178 0.4389178 0.7840296
vn 0.4389177 0.4389178 0.7840296
vn -0.6808408 -0.6808409 -0.2700211
vn 0.7071068 -0.7071068 0
vn -0.7071068 -0.7071068 0
vn 0.6808409 -0.6808409 -0.2700209
vn 0.6725464 -0.6725464 0.3088085
vn -0.6725464 -0.6725464 0.3088085
vn 0.4389177 -0.4389177 0.7840296
vn -0.4389178 -0.4389177 0.7840296
vn 0.7071068 -0.7071068 0
vn 0.6808409 0.6808408 -0.2700211
vn 0.7071068 0.7071068 0
vn 0.6808409 -0.6808409 -0.2700209
vn 0.6725464 0.6725464 0.3088085
vn 0.6725464 -0.6725464 0.3088085
vn 0.4389177 0.4389178 0.7840296
vn 0.4389177 -0.4389177 0.7840296
vn 0.5771595 0.5771595 0.5777316
vn -0.5771595 -0.5771595 0.5777316
vn -0.5771595 0.5771595 0.5777316
vn 0.5771595 -0.5771595 0.5777316
vn -0.4389178 0.4389178 0.7840296
vn -0.5771595 -0.5771595 0.5777316
vn -0.4389178 -0.4389177 0.7840296
vn -0.5771595 0.5771595 0.5777316
vn 0.4389177 0.4389178 0.7840296
vn 0.5771595 0.5771595 0.5777316
vn 0.4389177 -0.4389177 0.7840296
vn 0.5771595 -0.5771595 0.5777316
vn -0.4389178 -0.4389177 0.7840296
vn -0.5771595 -0.5771595 0.5777316
vn -0.7071068 0.7071068 0
vn -0.6808408 -0.6808409 -0.2700211
vn -0.7071068 -0.7071068 0
vn -0.6808408 0.6808408 -0.2700213
vn -0.6725464 -0.6725464 0.3088085
vn -0.6725464 0.6725464 0.3088085
vn -0.4389178 -0.4389177 0.7840296
vn -0.4389178 0.4389178 0.7840296
g Arrow_0
f 3/3/3 2/2/2 1/1/1
f 5/5/5 4/4/4 2/2/2
f 8/8/8 7/7/7 6/6/6
f 6/6/6 10/10/10 9/9/9
f 9/9/9 10/10/10 11/11/11
f 12/12/12 11/11/11 10/10/10
f 15/15/15 14/14/14 13/13/13
f 16/16/16 13/13/13 14/14/14
f 14/14/14 17/17/17 16/16/16
f 18/18/18 16/16/16 17/17/17
f 17/17/17 19/19/19 18/18/18
f 20/20/20 18/18/18 19/19/19
f 23/23/23 22/22/22 21/21/21
f 24/24/24 21/21/21 22/22/22
f 24/24/24 25/25/25 21/21/21
f 26/26/26 21/21/21 25/25/25
f 25/25/25 27/27/27 26/26/26
f 28/28/28 26/26/26 27/27/27
f 31/31/31 30/30/30 29/29/29
f 32/32/32 29/29/29 30/30/30
f 30/30/30 33/33/33 32/32/32
f 34/34/34 32/32/32 33/33/33
f 33/33/33 35/35/35 34/34/34
f 36/36/36 34/34/34 35/35/35
f 39/39/39 38/38/38 37/37/37
f 40/40/40 37/37/37 38/38/38
f 43/43/43 42/42/42 41/41/41
f 44/44/44 41/41/41 42/42/42
f 41/41/41 44/44/44 45/45/45
f 46/46/46 45/45/45 44/44/44
f 45/45/45 46/46/46 47/47/47
f 48/48/48 47/47/47 46/46/46
f 47/47/47 48/48/48 49/49/49
f 50/50/50 49/49/49 48/48/48
f 53/53/53 52/52/52 51/51/51
f 54/54/54 51/51/51 52/52/52
f 52/52/52 55/55/55 54/54/54
f 56/56/56 54/54/54 55/55/55
f 55/55/55 57/57/57 56/56/56
f 58/58/58 56/56/56 57/57/57
