g Blade
v 0.006366074 -0.05820179 -0.5071026
v 0.1022469 0.02736712 -0.5251091
v 0.1022469 -0.02736664 -0.5251091
v 0.006366074 -0.05820179 -0.5071026
v 0.006366074 0.05820227 -0.5071026
v -0.06978041 -0.04317552 -0.3723232
v -0.06978041 0.043176 -0.3723232
v -0.1664873 -0.05820179 -0.6451395
v -0.1959711 -0.04317552 -0.3787485
v -0.02823961 -0.03503782 -0.2351418
v -0.02823961 0.03503829 -0.2351418
v -0.1087564 -0.03503782 -0.2174329
v 0.1078926 -0.03503782 0.1648167
v 0.1078926 0.03503829 0.1648167
v -0.007175565 -0.03503782 0.161604
v 0.03523153 -0.05820334 0.4208369
v 0.1391804 -0.05820334 0.4208369
v 0.1391804 0.05820227 0.4208369
v 0.1486415 0.05820227 0.8002209
v 0.1486415 -0.05820334 0.8002209
v 0.04469424 -0.05820334 0.8002209
v 0.04469424 0.05820227 0.8002209
v 0.03523153 0.05820227 0.4208369
v -0.007175565 0.03503829 0.161604
v -0.1087564 0.03503829 -0.2174329
v -0.1959711 0.043176 -0.3787485
v -0.1664873 -0.05820179 -0.6451395
v -0.1664873 0.05820227 -0.6451395
v -0.1664873 -0.05820179 -0.6451395
v -0.01242298 0.02736712 -0.67533
v -0.01242298 -0.02736664 -0.67533
v -0.1664873 -0.05820179 -0.6451395
v 0.1022469 -0.02736664 -0.5251091
v 0.1022469 0.02736712 -0.5251091
v 0.2478218 0.02914 0.8094558
v 0.1486415 2.384186E-07 0.7948232
v 0.1486415 0.03572643 0.7948232
v 0.04469424 2.384186E-07 0.7948232
v -0.0453968 0.04280096 0.7947581
v 0.04469424 0.04041439 0.7948232
v 0.1736016 -0.0342707 0.5615842
v 0.1651431 0.03477949 0.6002517
v 0.1736016 0.03427118 0.5615842
v 0.1736016 0.03427118 0.5615842
v 0.2691818 2.384186E-07 0.5781137
v 0.1336757 2.384186E-07 0.4208369
v 0.1313913 0.03609991 0.4788855
v 0.1313913 -0.03609937 0.4788855
v 0.2691818 2.384186E-07 0.5781137
v 0.1736016 0.03427118 0.5615842
v 0.1362994 0.03583026 0.585241
v 0.1651431 0.03477949 0.6002517
v 0.1486415 0.03572643 0.7948232
v 0.2322593 0.03031778 0.6550847
v 0.1362994 -0.03583127 0.585241
v 0.2478218 0.02914 0.8094558
v 0.1651431 -0.03477901 0.6002517
v 0.1651431 0.03477949 0.6002517
v 0.1486415 -0.03572744 0.7948232
v 0.2322593 -0.03031886 0.6550847
v 0.3076526 0.0240925 0.7573288
v 0.3675872 2.384186E-07 0.9366646
v 0.3398299 2.384186E-07 0.7438011
v 0.2846126 2.384186E-07 0.6143048
v 0.2846126 2.384186E-07 0.6143048
v 0.2322593 0.03031778 0.6550847
v 0.1651431 0.03477949 0.6002517
v 0.3076526 -0.02409202 0.7573288
v 0.2478218 -0.02914107 0.8094558
v 0.2478218 0.02914 0.8094558
v 0.1486415 2.384186E-07 0.7948232
v 0.2322593 -0.03031886 0.6550847
v 0.1651431 -0.03477901 0.6002517
v 0.1848698 -0.07290417 0.8159322
v 0.1797092 2.384186E-07 0.6395779
v 0.1797092 -0.07290417 0.6395779
v 0.1797092 2.384186E-07 0.6395779
v 0.1848698 -0.07290417 0.8159322
v 0.1848698 2.384186E-07 0.8159322
v 0.1848698 0.0729031 0.8159322
v 0.1797092 2.384186E-07 0.6395779
v 0.1848698 2.384186E-07 0.8159322
v 0.1797092 2.384186E-07 0.6395779
v 0.1848698 0.0729031 0.8159322
v 0.1797092 0.0729031 0.6395779
v 0.006366074 0.05820227 -0.5071026
v -0.01242298 0.02736712 -0.67533
v 0.1022469 0.02736712 -0.5251091
v -0.1664873 0.05820227 -0.6451395
v -0.06978041 0.043176 -0.3723232
v -0.1959711 0.043176 -0.3787485
v -0.1087564 0.03503829 -0.2174329
v -0.02823961 0.03503829 -0.2351418
v -0.007175565 0.03503829 0.161604
v 0.1078926 0.03503829 0.1648167
v 0.03523153 0.05820227 0.4208369
v 0.1391804 0.05820227 0.4208369
v 0.1486415 0.05820227 0.8002209
v 0.04469424 0.05820227 0.8002209
v 0.03748953 0.0406608 0.5100802
v 0.04469424 0.04041439 0.7948232
v -0.0453968 0.04280096 0.7947581
v -0.09261429 0.04347974 0.6937538
v -0.03751636 0.04265064 0.5512273
v -0.1621263 2.384186E-07 0.6409821
v 0.0407362 2.384186E-07 0.4208369
v -0.1793098 0.04377729 0.7261092
v -0.2932188 2.384186E-07 0.6561881
v -0.1327789 0.04376489 0.9496887
v -0.3524188 0.04113501 0.8624291
v -0.2790108 0.04274052 0.7502124
v -0.5613967 0.0333491 0.7139996
v -0.1258825 2.384186E-07 0.485495
v -0.03751636 -0.04265171 0.5512273
v 0.03748953 -0.04066026 0.5100802
v -0.5232328 0.03483218 0.5892021
v -0.09261429 -0.04347926 0.6937538
v -0.1793098 -0.04377836 0.7261092
v -0.0453968 -0.04280204 0.7947581
v 0.04469424 -0.04041386 0.7948232
v 0.04469424 2.384186E-07 0.7948232
v -0.0453968 0.04280096 0.7947581
v -0.1327789 -0.04376441 0.9496887
v -0.1327789 0.04376489 0.9496887
v -0.588483 0.03205353 0.5409618
v -0.7214507 0.02497584 0.5809776
v -0.6694369 0.02787077 0.5009971
v -0.8209952 0.01908684 0.4298036
v -0.7772182 0.02172452 0.3775076
v -0.8358851 2.384186E-07 0.2144703
v -0.3524188 -0.04113448 0.8624291
v -0.2790108 -0.04274005 0.7502124
v -0.5613967 -0.03334862 0.7139996
v -0.3524188 0.04113501 0.8624291
v -0.1327789 0.04376489 0.9496887
v -0.5613967 0.0333491 0.7139996
v -0.7214507 0.02497584 0.5809776
v -0.5232328 -0.0348317 0.5892021
v -0.7214507 -0.02497536 0.5809776
v -0.8209952 0.01908684 0.4298036
v -0.4300206 2.384186E-07 0.4672329
v -0.5002006 2.384186E-07 0.4483539
v -0.588483 -0.03205305 0.5409618
v -0.6032909 2.384186E-07 0.4248305
v -0.5002006 2.384186E-07 0.4483539
v -0.8209952 -0.01908636 0.4298036
v -0.8358851 2.384186E-07 0.2144703
v -0.6694369 -0.02787185 0.5009971
v -0.6032909 2.384186E-07 0.4248305
v -0.6500419 2.384186E-07 0.4141621
v -0.7772182 -0.02172399 0.3775076
v -0.8358851 2.384186E-07 0.2144703
v -0.743987 2.384186E-07 0.3430569
v 0.0005421638 2.384186E-07 0.6400537
v 0.1797092 -0.07290417 0.6395779
v 0.1797092 2.384186E-07 0.6395779
v 0.0005437136 -0.07290417 0.6400537
v 0.1414135 -0.07290417 0.6748686
v 0.04097021 -0.07290417 0.6758279
v 0.002408028 -0.07290417 0.816408
v 0.1401086 -0.07290417 0.7770647
v 0.1848698 -0.07290417 0.8159322
v 0.09170407 -0.1165913 0.727253
v 0.04209381 -0.07290417 0.7781464
v 0.1848698 2.384186E-07 0.8159322
v 0.1848698 -0.07290417 0.8159322
v 0.002408028 2.384186E-07 0.816408
v 0.0005437136 -0.07290417 0.6400537
v 0.002408028 2.384186E-07 0.816408
v 0.002408028 -0.07290417 0.816408
v 0.0005421638 2.384186E-07 0.6400537
v 0.1797092 0.0729031 0.6395779
v 0.0005421638 2.384186E-07 0.6400537
v 0.1797092 2.384186E-07 0.6395779
v 0.0005437136 0.0729031 0.6400537
v 0.1414135 0.0729031 0.6748686
v 0.04097021 0.0729031 0.6758279
v 0.002408028 0.0729031 0.816408
v 0.1401086 0.0729031 0.7770647
v 0.1848698 0.0729031 0.8159322
v 0.09170407 0.1165903 0.727253
v 0.04209381 0.0729031 0.7781464
v 0.1848698 2.384186E-07 0.8159322
v 0.002408028 2.384186E-07 0.816408
v 0.1848698 0.0729031 0.8159322
v 0.0005437136 0.0729031 0.6400537
v 0.002408028 2.384186E-07 0.816408
v 0.0005421638 2.384186E-07 0.6400537
v 0.002408028 0.0729031 0.816408
vt 0.139932 0.1299878
vt 0.1426345 0.2349691
vt 0.1394841 0.1699587
vt 0.139932 0.1299878
vt 0.169884 0.1669724
vt 0.1888914 0.08967355
vt 0.1849944 0.1350794
vt 0.07193528 0.07005394
vt 0.1773198 0.03920607
vt 0.2472127 0.09667629
vt 0.2381346 0.1314212
vt 0.2486163 0.06291683
vt 0.4182796 0.1041568
vt 0.4328375 0.1407383
vt 0.4087983 0.05794473
vt 0.5180051 0.06927752
vt 0.525396 0.1112193
vt 0.5455831 0.1528774
vt 0.696672 0.1479053
vt 0.6791577 0.1086213
vt 0.6717518 0.06667949
vt 0.6701243 0.02548428
vt 0.5176767 0.04192355
vt 0.4003472 0.03069528
vt 0.2281008 0.03460725
vt 0.151429 0.009104747
vt 0.07193528 0.07005394
vt 0.03808622 0.04228189
vt 0.07193528 0.07005394
vt 0.03805636 0.1749606
vt 0.07071091 0.1343776
vt 0.07193528 0.07005394
vt 0.1394841 0.1699587
vt 0.1426345 0.2349691
vt 0.4763471 0.6896991
vt 0.4224006 0.6817408
vt 0.4224006 0.6817408
vt 0.4712854 0.4223409
vt 0.5202896 0.422311
vt 0.4712854 0.4223409
vt 0.4452454 0.50718
vt 0.4686874 0.5299949
vt 0.4721066 0.5187517
vt 0.4721066 0.5187517
vt 0.4972358 0.5161686
vt 0.4235354 0.4306128
vt 0.4222812 0.4621923
vt 0.4222812 0.4621923
vt 0.4972358 0.5161686
vt 0.4452454 0.50718
vt 0.4249539 0.5200507
vt 0.4406466 0.5282031
vt 0.4316729 0.6340505
vt 0.4771534 0.5580357
vt 0.4249539 0.5200507
vt 0.4856194 0.6420237
vt 0.4406466 0.5282031
vt 0.4686874 0.5299949
vt 0.4316729 0.6340505
vt 0.4771534 0.5580357
vt 0.5181693 0.6136544
vt 0.5507791 0.711215
vt 0.5356687 0.6062934
vt 0.5056421 0.5358479
vt 0.5056421 0.5358479
vt 0.4832453 0.5374754
vt 0.4686874 0.5299949
vt 0.5181693 0.6136544
vt 0.4856194 0.6420237
vt 0.4763471 0.6896991
vt 0.4224006 0.6817408
vt 0.4771534 0.5580357
vt 0.4406466 0.5282031
vt 0.78175 0.1035446
vt 0.7964871 0.02434951
vt 0.7799135 0.04119192
vt 0.7964871 0.02434951
vt 0.78175 0.1035446
vt 0.7992942 0.1202975
vt 0.78175 0.1035446
vt 0.7964871 0.02434951
vt 0.7992942 0.1202975
vt 0.7964871 0.02434951
vt 0.78175 0.1035446
vt 0.7799135 0.04119192
vt 0.139932 0.1299878
vt 0.07071091 0.1343776
vt 0.1394841 0.1699587
vt 0.07193528 0.07005394
vt 0.1888914 0.08967355
vt 0.1773198 0.03920607
vt 0.2486163 0.06291683
vt 0.2472127 0.09667629
vt 0.4087983 0.05794473
vt 0.4182796 0.1041568
vt 0.5180051 0.06927752
vt 0.525396 0.1112193
vt 0.6791577 0.1086213
vt 0.6717518 0.06667949
vt 0.477437 0.2159617
vt 0.4735251 0.3708581
vt 0.5225293 0.3708282
vt 0.5482259 0.3158814
vt 0.518244 0.2383436
vt 0.5860317 0.2871687
vt 0.4756752 0.1674054
vt 0.5953786 0.3334853
vt 0.6573431 0.2954406
vt 0.5700703 0.4551
vt 0.6895498 0.4076337
vt 0.6496238 0.3465949
vt 0.803236 0.3268857
vt 0.5663225 0.2025834
vt 0.518244 0.2383436
vt 0.477437 0.2159617
vt 0.7824816 0.2589935
vt 0.5482259 0.3158814
vt 0.5953786 0.3334853
vt 0.5225293 0.3708282
vt 0.4735251 0.3708581
vt 0.4712854 0.4223409
vt 0.5202896 0.422311
vt 0.5700703 0.4551
vt 0.5678306 0.5065977
vt 0.8179731 0.2327593
vt 0.8903148 0.254529
vt 0.8620052 0.2110195
vt 0.9444554 0.1722879
vt 0.9206401 0.143844
vt 0.952563 0.0551526
vt 0.6895498 0.4076337
vt 0.6496238 0.3465949
vt 0.803236 0.3268857
vt 0.6873101 0.4591314
vt 0.5678306 0.5065977
vt 0.8359205 0.3652888
vt 0.9229993 0.2929172
vt 0.7824816 0.2589935
vt 0.8903148 0.254529
vt 0.9876215 0.1935052
vt 0.7317752 0.1926541
vt 0.7699543 0.1823814
vt 0.8179731 0.2327593
vt 0.826036 0.1695854
vt 0.7699543 0.1823814
vt 0.9444554 0.1722879
vt 0.952563 0.0551526
vt 0.8620052 0.2110195
vt 0.826036 0.1695854
vt 0.8514638 0.1637771
vt 0.9206401 0.143844
vt 0.952563 0.0551526
vt 0.9025733 0.1250904
vt 0.6990162 0.02461827
vt 0.7799135 0.04119192
vt 0.7964871 0.02434951
vt 0.7165604 0.04135616
vt 0.7663708 0.05367441
vt 0.7308645 0.05400289
vt 0.7172322 0.1037238
vt 0.7659229 0.08980793
vt 0.78175 0.1035446
vt 0.7487968 0.07218911
vt 0.7312527 0.09018122
vt 0.7992942 0.1202975
vt 0.78175 0.1035446
vt 0.7000315 0.1205513
vt 0.7165604 0.04135616
vt 0.7000315 0.1205513
vt 0.7172322 0.1037238
vt 0.6990162 0.02461827
vt 0.7799135 0.04119192
vt 0.6990162 0.02461827
vt 0.7964871 0.02434951
vt 0.7165604 0.04135616
vt 0.7663708 0.05367441
vt 0.7308645 0.05400289
vt 0.7172322 0.1037238
vt 0.7659229 0.08980793
vt 0.78175 0.1035446
vt 0.7487968 0.07218911
vt 0.7312527 0.09018122
vt 0.7992942 0.1202975
vt 0.7000315 0.1205513
vt 0.78175 0.1035446
vt 0.7165604 0.04135616
vt 0.7000315 0.1205513
vt 0.6990162 0.02461827
vt 0.7172322 0.1037238
vn 0.4154266 -0.8357404 0.3591082
vn 0.8337855 0.4682102 0.2925421
vn 0.8337855 -0.4682102 0.2925422
vn 0.4154266 -0.8357404 0.3591082
vn 0.4154266 0.8357404 0.3591082
vn 0.5815971 -0.8044613 0.1207756
vn 0.5815971 0.8044614 0.1207751
vn -0.5600928 -0.624606 -0.5442089
vn -0.7497227 -0.6402456 0.1673362
vn 0.6812996 -0.7047589 -0.1978529
vn 0.6812996 0.704759 -0.1978525
vn -0.6304709 -0.7262633 0.2739491
vn 0.7164886 -0.6695698 -0.1957557
vn 0.7164886 0.6695698 -0.1957557
vn -0.6930293 -0.7106237 0.1213438
vn -0.6793447 -0.7321282 0.04979092
vn 0.7047589 -0.7047589 -0.08142374
vn 0.7047589 0.704759 -0.08142282
vn 0.7125787 0.7008491 -0.03228246
vn 0.7125787 -0.7008491 -0.03228246
vn -0.7008491 -0.7125787 0.03228293
vn -0.7008491 0.7125788 0.032282
vn -0.6793447 0.7321283 0.04978973
vn -0.6930293 0.7106237 0.1213438
vn -0.6304709 0.7262634 0.2739488
vn -0.7497227 0.6402457 0.167336
vn -0.5600928 -0.624606 -0.5442089
vn -0.5600928 0.624606 -0.5442089
vn -0.5600928 -0.624606 -0.5442089
vn 0.3333187 0.5033993 -0.7971749
vn 0.3333187 -0.5033993 -0.7971749
vn -0.5600928 -0.624606 -0.5442089
vn 0.8337855 -0.4682102 0.2925422
vn 0.8337855 0.4682102 0.2925421
vn -0.1827877 0.7985965 0.5734391
vn -0.1456437 0.0009775162 0.9893366
vn -0.04594135 0.7653624 0.6419578
vn -0.0009775162 0.0009775162 0.999999
vn 0.2864 0.8396504 0.4614784
vn 0.01857197 0.6949842 0.7187851
vn 0.4330211 -0.8709295 0.232324
vn 0.5249037 0.8337855 -0.1711078
vn 0.4330211 0.8709296 0.2323239
vn 0.4330211 0.8709296 0.2323239
vn 0.9061186 0.0009775162 0.4230225
vn 0.7575425 -0.0009774566 -0.6527851
vn 0.4291112 0.8396504 -0.3329427
vn 0.4291112 -0.8396503 -0.3329428
vn 0.9061186 0.0009775162 0.4230225
vn 0.4330211 0.8709296 0.2323239
vn 0.04004604 0.9991979 0
vn 0.5249037 0.8337855 -0.1711078
vn -0.04594135 0.7653624 0.6419578
vn 0.2297064 0.8435603 -0.4854286
vn 0.04004604 -0.9991979 0
vn -0.1827877 0.7985965 0.5734391
vn 0.5249037 -0.8337855 -0.1711078
vn 0.5249037 0.8337855 -0.1711078
vn -0.04594135 -0.7653623 0.6419579
vn 0.2297064 -0.8435602 -0.4854288
vn 0.3489583 0.931533 -0.1023444
vn 0.4838497 -0.0009774566 0.8751506
vn 0.9432626 0.0009775162 -0.3320462
vn 0.4212914 0.0009775162 -0.9069248
vn 0.4212914 0.0009775162 -0.9069248
vn 0.2297064 0.8435603 -0.4854286
vn 0.5249037 0.8337855 -0.1711078
vn 0.3489583 -0.9315329 -0.102345
vn -0.1827877 -0.7985964 0.5734391
vn -0.1827877 0.7985965 0.5734391
vn -0.1456437 0.0009775162 0.9893366
vn 0.2297064 -0.8435602 -0.4854288
vn 0.5249037 -0.8337855 -0.1711078
vn 0.587462 -0.5757324 0.5687009
vn 0.6949842 0.0009775162 -0.7190244
vn 0.5679125 -0.5796422 -0.5843717
vn 0.6949842 0.0009775162 -0.7190244
vn 0.587462 -0.5757324 0.5687009
vn 0.7184435 0.0009775162 0.6955846
vn 0.587462 0.5757324 0.5687009
vn 0.6949842 0.0009775162 -0.7190244
vn 0.7184435 0.0009775162 0.6955846
vn 0.6949842 0.0009775162 -0.7190244
vn 0.587462 0.5757324 0.5687009
vn 0.5679125 0.5796423 -0.5843716
vn 0.4154266 0.8357404 0.3591082
vn 0.3333187 0.5033993 -0.7971749
vn 0.8337855 0.4682102 0.2925421
vn -0.5600928 0.624606 -0.5442089
vn 0.5815971 0.8044614 0.1207751
vn -0.7497227 0.6402457 0.167336
vn -0.6304709 0.7262634 0.2739488
vn 0.6812996 0.704759 -0.1978525
vn -0.6930293 0.7106237 0.1213438
vn 0.7164886 0.6695698 -0.1957557
vn -0.6793447 0.7321283 0.04978973
vn 0.7047589 0.704759 -0.08142282
vn 0.7125787 0.7008491 -0.03228246
vn -0.7008491 0.7125788 0.032282
vn -0.1260942 0.9530374 -0.2753543
vn 0.01857197 0.6949842 0.7187851
vn 0.2864 0.8396504 0.4614784
vn -0.1124096 0.9862715 -0.1209652
vn -0.1612833 0.9725869 -0.1675185
vn -0.6109214 0.0009775162 -0.7916906
vn -0.3958771 -0.0009774566 -0.918303
vn -0.05571604 0.9725869 -0.2257665
vn 0.2961747 0.0009775162 -0.9551333
vn 0.2688054 0.5874621 0.7633033
vn -0.360688 0.6793447 0.6390579
vn 0.0009774566 0.9882265 -0.1529946
vn -0.4564805 0.6910743 0.5603945
vn -0.7653624 -0.0009774566 -0.6435989
vn -0.1612833 -0.9725869 -0.1675185
vn -0.1260942 -0.9530374 -0.2753543
vn 0.05571604 0.9921364 -0.1120768
vn -0.1124096 -0.9862715 -0.1209652
vn -0.05571604 -0.9725869 -0.2257665
vn 0.2864 -0.8396503 0.4614785
vn 0.01857197 -0.6949842 0.7187851
vn -0.0009775162 0.0009775162 0.999999
vn 0.2864 0.8396504 0.4614784
vn 0.2688054 -0.587462 0.7633034
vn 0.2688054 0.5874621 0.7633033
vn 0.07917541 0.9510825 -0.2986191
vn -0.5737774 0.6597952 0.4852317
vn 0.02834672 0.9921364 -0.1219096
vn -0.7379931 0.6363357 0.2245951
vn 0.06353581 0.9862715 -0.1524196
vn -0.2922648 0.0009775162 -0.9563369
vn -0.360688 -0.6793445 0.6390581
vn 0.0009774566 -0.9882264 -0.1529953
vn -0.4564805 -0.6910743 0.5603945
vn -0.360688 0.6793447 0.6390579
vn 0.2688054 0.5874621 0.7633033
vn -0.4564805 0.6910743 0.5603945
vn -0.5737774 0.6597952 0.4852317
vn 0.05571604 -0.9921364 -0.1120768
vn -0.5737774 -0.6597951 0.4852318
vn -0.7379931 0.6363357 0.2245951
vn 0.5737773 0.0009775162 -0.8190108
vn -0.02443683 0.0009775162 -0.9997009
vn 0.07917541 -0.9510824 -0.2986193
vn 0.5776873 -0.0009774566 -0.8162576
vn -0.02443683 0.0009775162 -0.9997009
vn -0.7379931 -0.6363357 0.2245951
vn -0.2922648 0.0009775162 -0.9563369
vn 0.02834672 -0.9921364 -0.1219096
vn 0.5776873 -0.0009774566 -0.8162576
vn 0.5033993 -0.0009774566 -0.8640534
vn 0.06353581 -0.9862715 -0.1524196
vn -0.2922648 0.0009775162 -0.9563369
vn 0.7184435 0.0009775162 -0.6955846
vn -0.7125788 0.0009775162 -0.7015914
vn 0.5679125 -0.5796422 -0.5843717
vn 0.6949842 0.0009775162 -0.7190244
vn -0.5815972 -0.5776873 -0.5727322
vn 0.09481496 -0.9901814 -0.1027179
vn -0.09676993 -0.9901814 -0.1008782
vn -0.5737774 -0.5776873 0.580566
vn 0.1006798 -0.9901814 0.09697639
vn 0.587462 -0.5757324 0.5687009
vn 0.004887342 -0.9999561 0.007989779
vn -0.09676993 -0.9901814 0.1008782
vn 0.7184435 0.0009775162 0.6955846
vn 0.587462 -0.5757324 0.5687009
vn -0.702804 0.0009775162 0.7113829
vn -0.5815972 -0.5776873 -0.5727322
vn -0.702804 0.0009775162 0.7113829
vn -0.5737774 -0.5776873 0.580566
vn -0.7125788 0.0009775162 -0.7015914
vn 0.5679125 0.5796423 -0.5843716
vn -0.7125788 0.0009775162 -0.7015914
vn 0.6949842 0.0009775162 -0.7190244
vn -0.5815972 0.5776873 -0.5727322
vn 0.09481496 0.9901814 -0.1027174
vn -0.09676993 0.9901814 -0.1008777
vn -0.5737774 0.5776873 0.580566
vn 0.1006798 0.9901814 0.09697578
vn 0.587462 0.5757324 0.5687009
vn 0.004887342 0.9999561 0.007989779
vn -0.09676993 0.9901814 0.1008777
vn 0.7184435 0.0009775162 0.6955846
vn -0.702804 0.0009775162 0.7113829
vn 0.587462 0.5757324 0.5687009
vn -0.5815972 0.5776873 -0.5727322
vn -0.702804 0.0009775162 0.7113829
vn -0.7125788 0.0009775162 -0.7015914
vn -0.5737774 0.5776873 0.580566
g Blade_0
f 3/3/3 2/2/2 1/1/1
f 5/5/5 4/4/4 2/2/2
f 4/4/4 5/5/5 6/6/6
f 7/7/7 6/6/6 5/5/5
f 4/4/4 6/6/6 8/8/8
f 9/9/9 8/8/8 6/6/6
f 6/6/6 7/7/7 10/10/10
f 11/11/11 10/10/10 7/7/7
f 9/9/9 6/6/6 12/12/12
f 10/10/10 12/12/12 6/6/6
f 10/10/10 11/11/11 13/13/13
f 14/14/14 13/13/13 11/11/11
f 12/12/12 10/10/10 15/15/15
f 13/13/13 15/15/15 10/10/10
f 15/15/15 13/13/13 16/16/16
f 13/13/13 14/14/14 17/17/17
f 17/17/17 16/16/16 13/13/13
f 18/18/18 17/17/17 14/14/14
f 18/18/18 19/19/19 17/17/17
f 20/20/20 17/17/17 19/19/19
f 17/17/17 20/20/20 16/16/16
f 21/21/21 16/16/16 20/20/20
f 21/21/21 22/22/22 16/16/16
f 23/23/23 16/16/16 22/22/22
f 23/23/23 24/24/24 16/16/16
f 15/15/15 16/16/16 24/24/24
f 15/15/15 24/24/24 12/12/12
f 25/25/25 12/12/12 24/24/24
f 12/12/12 25/25/25 9/9/9
f 26/26/26 9/9/9 25/25/25
f 9/9/9 26/26/26 27/27/27
f 28/28/28 27/27/27 26/26/26
f 28/28/28 30/30/30 29/29/29
f 27/27/27 31/31/31 4/4/4
f 31/31/31 32/32/32 30/30/30
f 33/33/33 4/4/4 31/31/31
f 31/31/31 30/30/30 33/33/33
f 34/34/34 33/33/33 30/30/30
f 37/37/37 36/36/36 35/35/35
f 40/40/40 39/39/39 38/38/38
f 43/43/43 42/42/42 41/41/41
f 45/45/45 44/44/44 41/41/41
f 47/47/47 45/45/45 46/46/46
f 49/49/49 48/48/48 46/46/46
f 41/41/41 48/48/48 49/49/49
f 47/47/47 50/50/50 49/49/49
f 47/47/47 51/51/51 50/50/50
f 52/52/52 50/50/50 51/51/51
f 53/53/53 52/52/52 51/51/51
f 52/52/52 53/53/53 54/54/54
f 48/48/48 41/41/41 55/55/55
f 56/56/56 54/54/54 53/53/53
f 57/57/57 55/55/55 41/41/41
f 57/57/57 41/41/41 58/58/58
f 57/57/57 59/59/59 55/55/55
f 57/57/57 60/60/60 59/59/59
f 54/54/54 56/56/56 61/61/61
f 61/61/61 56/56/56 62/62/62
f 63/63/63 54/54/54 61/61/61
f 61/61/61 62/62/62 63/63/63
f 54/54/54 63/63/63 64/64/64
f 63/63/63 60/60/60 65/65/65
f 60/60/60 66/66/66 65/65/65
f 66/66/66 60/60/60 67/67/67
f 62/62/62 68/68/68 63/63/63
f 60/60/60 63/63/63 68/68/68
f 62/62/62 69/69/69 68/68/68
f 60/60/60 68/68/68 69/69/69
f 69/69/69 59/59/59 60/60/60
f 69/69/69 62/62/62 70/70/70
f 69/69/69 70/70/70 59/59/59
f 70/70/70 71/71/71 59/59/59
f 73/73/73 58/58/58 72/72/72
f 76/76/76 75/75/75 74/74/74
f 79/79/79 78/78/78 77/77/77
f 82/82/82 81/81/81 80/80/80
f 85/85/85 84/84/84 83/83/83
f 88/88/88 87/87/87 86/86/86
f 89/89/89 86/86/86 87/87/87
f 86/86/86 89/89/89 90/90/90
f 91/91/91 90/90/90 89/89/89
f 91/91/91 92/92/92 90/90/90
f 93/93/93 90/90/90 92/92/92
f 92/92/92 94/94/94 93/93/93
f 95/95/95 93/93/93 94/94/94
f 94/94/94 96/96/96 95/95/95
f 97/97/97 95/95/95 96/96/96
f 97/97/97 96/96/96 98/98/98
f 99/99/99 98/98/98 96/96/96
f 102/102/102 101/101/101 100/100/100
f 103/103/103 102/102/102 100/100/100
f 104/104/104 103/103/103 100/100/100
f 103/103/103 104/104/104 105/105/105
f 100/100/100 106/106/106 104/104/104
f 103/103/103 107/107/107 102/102/102
f 103/103/103 105/105/105 107/107/107
f 105/105/105 108/108/108 107/107/107
f 109/109/109 102/102/102 107/107/107
f 109/109/109 107/107/107 110/110/110
f 111/111/111 110/110/110 107/107/107
f 111/111/111 107/107/107 108/108/108
f 110/110/110 111/111/111 112/112/112
f 113/113/113 104/104/104 106/106/106
f 113/113/113 105/105/105 104/104/104
f 113/113/113 106/106/106 114/114/114
f 113/113/113 114/114/114 105/105/105
f 115/115/115 114/114/114 106/106/106
f 116/116/116 112/112/112 111/111/111
f 111/111/111 108/108/108 116/116/116
f 117/117/117 105/105/105 114/114/114
f 117/117/117 114/114/114 115/115/115
f 105/105/105 117/117/117 118/118/118
f 105/105/105 118/118/118 108/108/108
f 119/119/119 117/117/117 115/115/115
f 117/117/117 119/119/119 118/118/118
f 120/120/120 119/119/119 115/115/115
f 120/120/120 121/121/121 119/119/119
f 121/121/121 122/122/122 119/119/119
f 119/119/119 122/122/122 123/123/123
f 123/123/123 118/118/118 119/119/119
f 124/124/124 123/123/123 122/122/122
f 116/116/116 125/125/125 112/112/112
f 126/126/126 112/112/112 125/125/125
f 125/125/125 127/127/127 126/126/126
f 126/126/126 127/127/127 128/128/128
f 129/129/129 128/128/128 127/127/127
f 129/129/129 130/130/130 128/128/128
f 123/123/123 131/131/131 118/118/118
f 132/132/132 118/118/118 131/131/131
f 131/131/131 133/133/133 132/132/132
f 132/132/132 108/108/108 118/118/118
f 131/131/131 123/123/123 134/134/134
f 131/131/131 134/134/134 133/133/133
f 135/135/135 134/134/134 123/123/123
f 136/136/136 133/133/133 134/134/134
f 136/136/136 137/137/137 133/133/133
f 132/132/132 138/138/138 108/108/108
f 138/138/138 132/132/132 133/133/133
f 139/139/139 133/133/133 137/137/137
f 137/137/137 140/140/140 139/139/139
f 141/141/141 108/108/108 138/138/138
f 141/141/141 116/116/116 108/108/108
f 141/141/141 142/142/142 116/116/116
f 141/141/141 138/138/138 142/142/142
f 125/125/125 116/116/116 142/142/142
f 143/143/143 142/142/142 138/138/138
f 138/138/138 133/133/133 143/143/143
f 139/139/139 143/143/143 133/133/133
f 143/143/143 144/144/144 125/125/125
f 143/143/143 125/125/125 145/145/145
f 146/146/146 139/139/139 140/140/140
f 146/146/146 140/140/140 147/147/147
f 148/148/148 143/143/143 139/139/139
f 139/139/139 146/146/146 148/148/148
f 143/143/143 148/148/148 149/149/149
f 125/125/125 149/149/149 127/127/127
f 150/150/150 127/127/127 149/149/149
f 150/150/150 149/149/149 148/148/148
f 127/127/127 150/150/150 129/129/129
f 151/151/151 148/148/148 146/146/146
f 148/148/148 151/151/151 150/150/150
f 152/152/152 151/151/151 146/146/146
f 153/153/153 152/152/152 129/129/129
f 153/153/153 129/129/129 150/150/150
f 153/153/153 150/150/150 151/151/151
f 130/130/130 153/153/153 151/151/151
f 156/156/156 155/155/155 154/154/154
f 157/157/157 154/154/154 155/155/155
f 155/155/155 158/158/158 157/157/157
f 159/159/159 157/157/157 158/158/158
f 157/157/157 159/159/159 160/160/160
f 158/158/158 155/155/155 161/161/161
f 162/162/162 161/161/161 155/155/155
f 158/158/158 163/163/163 159/159/159
f 161/161/161 163/163/163 158/158/158
f 161/161/161 162/162/162 164/164/164
f 164/164/164 163/163/163 161/161/161
f 159/159/159 163/163/163 164/164/164
f 160/160/160 164/164/164 162/162/162
f 164/164/164 160/160/160 159/159/159
f 166/166/166 165/165/165 160/160/160
f 167/167/167 160/160/160 165/165/165
f 170/170/170 169/169/169 168/168/168
f 171/171/171 168/168/168 169/169/169
f 174/174/174 173/173/173 172/172/172
f 175/175/175 172/172/172 173/173/173
f 172/172/172 175/175/175 176/176/176
f 177/177/177 176/176/176 175/175/175
f 175/175/175 178/178/178 177/177/177
f 176/176/176 179/179/179 172/172/172
f 180/180/180 172/172/172 179/179/179
f 181/181/181 176/176/176 177/177/177
f 181/181/181 179/179/179 176/176/176
f 179/179/179 182/182/182 180/180/180
f 181/181/181 182/182/182 179/179/179
f 181/181/181 177/177/177 182/182/182
f 178/178/178 180/180/180 182/182/182
f 182/182/182 177/177/177 178/178/178
f 184/184/184 183/183/183 178/178/178
f 185/185/185 178/178/178 183/183/183
f 188/188/188 187/187/187 186/186/186
f 189/189/189 186/186/186 187/187/187
