g body
v -0.6473243 0.1490937 0.1104276
v -0.6654141 0.1743068 -0.03157258
v -0.62672 0.4097174 0.05938596
v -0.6473243 0.1490937 0.1104276
v -0.5443797 0.07963234 0.02374607
v -0.4832941 0.1901079 0.1190245
v -0.4940212 0.3059494 -0.05272812
v -0.5443797 0.07963234 0.02374607
v -0.4940212 0.3059494 -0.05272812
v -0.6654141 0.1743068 -0.03157258
v -0.5443797 0.07963234 0.02374607
v -0.4832941 0.1901079 0.1190245
v -0.5443797 0.07963234 0.02374607
v -0.6473243 0.1490937 0.1104276
v -0.62672 0.4097174 0.05938596
v -0.6473243 0.1490937 0.1104276
v -0.6654141 0.1743068 -0.03157258
v -0.61792 0.3441502 -0.1077299
v -0.62672 0.4097174 0.05938596
v -0.4823601 0.5459836 0.01165599
v -0.4663 0.3611064 0.08401161
v -0.4832941 0.1901079 0.1190245
v 0.6470572 0.1490937 0.1104276
v 0.6264627 0.4097174 0.05938596
v 0.6651404 0.1743068 -0.03157258
v 0.6470572 0.1490937 0.1104276
v 0.5441555 0.07963234 0.02374607
v 0.4830782 0.1901079 0.1190245
v 0.5441555 0.07963234 0.02374607
v 0.4938185 0.3059494 -0.05272812
v 0.4938185 0.3059494 -0.05272812
v 0.5441555 0.07963234 0.02374607
v 0.6651404 0.1743068 -0.03157258
v 0.4830782 0.1901079 0.1190245
v 0.6470572 0.1490937 0.1104276
v 0.5441555 0.07963234 0.02374607
v 0.6264627 0.4097174 0.05938596
v 0.6470572 0.1490937 0.1104276
v 0.6176662 0.3441502 -0.1077299
v 0.6651404 0.1743068 -0.03157258
v 0.6264627 0.4097174 0.05938596
v 0.4821624 0.5459836 0.01165599
v 0.4661089 0.3611064 0.08401161
v 0.4830782 0.1901079 0.1190245
v -0.4663 0.3611064 0.08401161
v -0.4940212 0.3059494 -0.05272812
v -0.4832941 0.1901079 0.1190245
v -0.4823601 0.5459836 0.01165599
v -0.61792 0.3441502 -0.1077299
v -0.6654141 0.1743068 -0.03157258
v 0.4661089 0.3611064 0.08401161
v 0.4830782 0.1901079 0.1190245
v 0.4938185 0.3059494 -0.05272812
v 0.4821624 0.5459836 0.01165599
v 0.6176662 0.3441502 -0.1077299
v 0.6651404 0.1743068 -0.03157258
v -0.1814417 0.1498577 0.2534854
v -0.3470395 0.2231373 0.2396908
v -0.17399 0.2911087 0.3740281
v -0.116188 0.2438556 0.4248189
v 0.0009703636 0.2304273 0.4485056
v -0.2493751 0.05911696 0.001191258
v -0.4211062 0.1634477 0.004334629
v -0.2539541 0.08175761 -0.2621271
v -0.3781813 0.1891013 -0.2233339
v -0.3356804 0.2315246 -0.3790808
v -0.2045839 0.1759139 -0.4724781
v 1.192093E-07 0.1513279 -0.5310655
v 0.0005413294 0.1120942 0.2447615
v 1.192093E-07 0.04318887 -0.2786987
v 0.2045842 0.1759139 -0.4724781
v 1.192093E-07 0.02553308 -0.000500083
v 0.2539543 0.08175761 -0.2621271
v 0.335679 0.2315246 -0.3790808
v 0.3781815 0.1891013 -0.2233339
v 0.4211048 0.1634477 0.004334629
v 0.2493753 0.05174446 0.001191258
v 0.3538463 0.2243369 0.2501523
v 0.1872534 0.1506431 0.2573499
v 0.1355155 0.2521885 0.4346945
v 0.1886593 0.2981611 0.3827471
v -0.2058347 0.351889 -0.549746
v -0.2045839 0.1759139 -0.4724781
v 1.192093E-07 0.1513279 -0.5310655
v -0.3356804 0.2315246 -0.3790808
v -0.3762226 0.3658156 -0.4206576
v -0.3839136 0.5603178 -0.4336437
v -0.209313 0.5601379 -0.5507607
v -0.3540771 0.7223878 -0.4008073
v 1.192093E-07 0.351889 -0.5917617
v 0.2058349 0.351889 -0.549746
v 0.2045842 0.1759139 -0.4724781
v 0.335679 0.2315246 -0.3790808
v -0.192946 0.7808183 -0.5076444
v -0.3010504 0.8632873 -0.3337038
v 1.192093E-07 0.5601379 -0.5927765
v 1.192093E-07 0.7808183 -0.5496618
v 1.192093E-07 0.9275444 -0.4208556
v -0.1785772 0.9097929 -0.3920454
v -0.1907234 0.9688308 -0.2161561
v -0.3406538 0.8892082 -0.1877963
v -0.3444473 0.9544289 0.003054202
v 0.2093132 0.5601379 -0.5507607
v -0.1962692 1.010992 -0.005116999
v -0.1571097 0.9573644 0.2013481
v 0.000290513 0.951467 0.2157137
v 1.192093E-07 1.026191 -0.232142
v 1.192093E-07 1.065083 -0.005362868
v 0.1962695 1.010992 -0.005116999
v 0.1576892 0.9573644 0.2013481
v 0.3444475 0.9544289 0.003054202
v 0.1907236 0.9688308 -0.2161561
v 0.340654 0.8892082 -0.1877963
v 0.3010506 0.8632873 -0.3337038
v 0.1785774 0.9097929 -0.3920454
v 0.1929462 0.7808183 -0.5076444
v 0.3540773 0.7223878 -0.4008073
v 0.4131647 0.7384841 -0.2147651
v 0.340654 0.8892082 -0.1877963
v 0.3839138 0.5603178 -0.4336437
v 0.4095147 0.7821863 -0.003542781
v 0.4477452 0.5620041 -0.002523065
v 0.3444475 0.9544289 0.003054202
v 0.3598872 0.7319531 0.2106677
v 0.3983652 0.5725712 0.1975975
v 0.4052047 0.3911788 0.2120571
v 0.4474861 0.5610125 -0.2318796
v 0.3762229 0.3658156 -0.4206576
v 0.4491313 0.349914 -0.2281686
v 0.3781815 0.1891013 -0.2233339
v 0.4686318 0.3159885 0.00602597
v 0.3538463 0.2243369 0.2501523
v 0.4211048 0.1634477 0.004334629
v -0.3949691 0.5725712 0.1927595
v -0.3971488 0.3840424 0.2049338
v -0.4477466 0.5620041 -0.002523065
v -0.3588029 0.7319531 0.2106677
v -0.4686316 0.3159885 0.00602597
v -0.3470395 0.2231373 0.2396908
v -0.4211062 0.1634477 0.004334629
v -0.3781813 0.1891013 -0.2233339
v -0.449131 0.349914 -0.2281686
v -0.3356804 0.2315246 -0.3790808
v -0.3762226 0.3658156 -0.4206576
v -0.3839136 0.5603178 -0.4336437
v -0.4474859 0.5610125 -0.2318796
v -0.3540771 0.7223878 -0.4008073
v -0.4131645 0.7384841 -0.2147651
v -0.3010504 0.8632873 -0.3337038
v -0.3406538 0.8892082 -0.1877963
v -0.4095145 0.7821863 -0.003542781
v -0.3444473 0.9544289 0.003054202
vt 0.1807283 0.424631
vt 0.2310219 0.4057934
vt 0.1807433 0.4618578
vt 0.1807283 0.424631
vt 0.1807134 0.3859989
vt 0.1304049 0.4058083
vt 0.1806984 0.3497439
vt 0.1807134 0.3859989
vt 0.1806984 0.3497439
vt 0.2310219 0.4057934
vt 0.1807134 0.3859989
vt 0.1304049 0.4058083
vt 0.1807134 0.3859989
vt 0.1807283 0.424631
vt 0.1807433 0.4618578
vt 0.1807283 0.424631
vt 0.2310219 0.4057934
vt 0.2310219 0.4675988
vt 0.1807433 0.4618578
vt 0.1807582 0.5254723
vt 0.1304049 0.4676138
vt 0.1304049 0.4058083
vt 0.1807283 0.424631
vt 0.1807433 0.4618578
vt 0.2310219 0.4057934
vt 0.1807283 0.424631
vt 0.1807134 0.3859989
vt 0.1304049 0.4058083
vt 0.1807134 0.3859989
vt 0.1806984 0.3497439
vt 0.1806984 0.3497439
vt 0.1807134 0.3859989
vt 0.2310219 0.4057934
vt 0.1304049 0.4058083
vt 0.1807283 0.424631
vt 0.1807134 0.3859989
vt 0.1807433 0.4618578
vt 0.1807283 0.424631
vt 0.2310219 0.4675988
vt 0.2310219 0.4057934
vt 0.1807433 0.4618578
vt 0.1807582 0.5254723
vt 0.1304049 0.4676138
vt 0.1304049 0.4058083
vt 0.1304049 0.3439879
vt 0.1806984 0.3497439
vt 0.1304049 0.4058083
vt 0.1806835 0.2861294
vt 0.2310219 0.343973
vt 0.2310219 0.4057934
vt 0.1304049 0.3439879
vt 0.1304049 0.4058083
vt 0.1806984 0.3497439
vt 0.1806835 0.2861294
vt 0.2310219 0.343973
vt 0.2310219 0.4057934
vt 0.6998999 0.9243072
vt 0.6413089 0.9243072
vt 0.6998999 0.9866508
vt 0.7170033 0.9866508
vt 0.7623931 0.9866508
vt 0.6998999 0.8609469
vt 0.6413089 0.8609469
vt 0.6998999 0.7984538
vt 0.6413089 0.7984538
vt 0.6413089 0.7359457
vt 0.6998999 0.7359457
vt 0.7623931 0.7359457
vt 0.7623931 0.9243072
vt 0.7623931 0.7984538
vt 0.8249012 0.7359457
vt 0.7623931 0.8609469
vt 0.8249012 0.7984538
vt 0.8851668 0.7359457
vt 0.8851668 0.7984538
vt 0.8851668 0.8609469
vt 0.8249012 0.8609469
vt 0.8851668 0.9243072
vt 0.8249012 0.9243072
vt 0.8040303 0.9866508
vt 0.8249012 0.9866508
vt 0.06545983 0.9185811
vt 0.06545983 0.9810743
vt 0.127953 0.9810743
vt 0.00686875 0.9810743
vt 0.00686875 0.9185811
vt 0.00686875 0.856088
vt 0.06545983 0.856073
vt 0.00686875 0.7935799
vt 0.127953 0.9185811
vt 0.1904611 0.9185811
vt 0.1904611 0.9810743
vt 0.2507266 0.9810743
vt 0.06545983 0.7935799
vt 0.00686875 0.7341068
vt 0.127953 0.856073
vt 0.127953 0.7935799
vt 0.127953 0.7341068
vt 0.06545983 0.7341068
vt 0.06545983 0.6685786
vt 0.00686875 0.6685786
vt 0.00686875 0.6060705
vt 0.1904611 0.856073
vt 0.06545983 0.6060705
vt 0.06545983 0.5435773
vt 0.127953 0.5435773
vt 0.127953 0.6685786
vt 0.127953 0.6060705
vt 0.1904611 0.6060705
vt 0.1904611 0.5435773
vt 0.2507266 0.6060705
vt 0.1904611 0.6685786
vt 0.2507266 0.6685786
vt 0.2507266 0.7341068
vt 0.1904611 0.7341068
vt 0.1904611 0.7935799
vt 0.2507266 0.7935201
vt 0.3125919 0.7934602
vt 0.3125919 0.7341068
vt 0.2507266 0.8560133
vt 0.3751 0.7934602
vt 0.3751 0.8559535
vt 0.3751 0.7341068
vt 0.4375931 0.7934602
vt 0.4375931 0.8559535
vt 0.4375931 0.9184616
vt 0.3125919 0.8559535
vt 0.2507266 0.9185214
vt 0.3125919 0.9184616
vt 0.3125919 0.9810743
vt 0.3751 0.9184616
vt 0.4375931 0.9810743
vt 0.3751 0.9810743
vt 0.4478043 0.856088
vt 0.4478043 0.9185811
vt 0.5103124 0.856088
vt 0.4478043 0.7935799
vt 0.5103124 0.9185811
vt 0.4478043 0.9810743
vt 0.5103124 0.9810743
vt 0.5728056 0.9810743
vt 0.5728056 0.9185811
vt 0.628601 0.9810743
vt 0.628601 0.9185811
vt 0.628601 0.856088
vt 0.5728056 0.856088
vt 0.628601 0.7935799
vt 0.5728056 0.7935799
vt 0.628601 0.7341068
vt 0.5728056 0.7341068
vt 0.5103124 0.7935799
vt 0.5103124 0.7341068
vn -0.6180291 -0.1950501 0.7615744
vn -0.7554782 -0.3053965 -0.5796427
vn -0.720632 0.5134904 0.465851
vn -0.6180291 -0.1950501 0.7615744
vn 0.4118711 -0.8261544 -0.3844882
vn 0.6325641 -0.1737551 0.7547661
vn 0.7003207 -0.1350371 -0.7009393
vn 0.4118711 -0.8261544 -0.3844882
vn 0.7003207 -0.1350371 -0.7009393
vn -0.7554782 -0.3053965 -0.5796427
vn 0.4118711 -0.8261544 -0.3844882
vn 0.6325641 -0.1737551 0.7547661
vn 0.4118711 -0.8261544 -0.3844882
vn -0.6180291 -0.1950501 0.7615744
vn -0.720632 0.5134904 0.465851
vn -0.6180291 -0.1950501 0.7615744
vn -0.7554782 -0.3053965 -0.5796427
vn -0.4709005 0.2347204 -0.8503876
vn -0.720632 0.5134904 0.465851
vn 0.2415117 0.9664916 -0.08698262
vn 0.7196797 0.1882587 0.6682962
vn 0.6325641 -0.1737551 0.7547661
vn 0.6190127 -0.1950501 0.7607751
vn 0.7216156 0.5134904 0.4643259
vn 0.7564619 -0.3053965 -0.5783584
vn 0.6190127 -0.1950501 0.7607751
vn -0.4128234 -0.8261544 -0.3834656
vn -0.6315804 -0.1737551 0.7555894
vn -0.4128234 -0.8261544 -0.3834656
vn -0.7012729 -0.1350371 -0.6999866
vn -0.7012729 -0.1350371 -0.6999866
vn -0.4128234 -0.8261544 -0.3834656
vn 0.7564619 -0.3053965 -0.5783584
vn -0.6315804 -0.1737551 0.7555894
vn 0.6190127 -0.1950501 0.7607751
vn -0.4128234 -0.8261544 -0.3834656
vn 0.7216156 0.5134904 0.4643259
vn 0.6190127 -0.1950501 0.7607751
vn 0.4699482 0.2347204 -0.8509142
vn 0.7564619 -0.3053965 -0.5783584
vn 0.7216156 0.5134904 0.4643259
vn -0.240528 0.9664916 -0.08966678
vn -0.720632 0.1882587 0.6672692
vn -0.6315804 -0.1737551 0.7555894
vn 0.7196797 0.1882587 0.6682962
vn 0.7003207 -0.1350371 -0.7009393
vn 0.6325641 -0.1737551 0.7547661
vn 0.2415117 0.9664916 -0.08698262
vn -0.4709005 0.2347204 -0.8503876
vn -0.7554782 -0.3053965 -0.5796427
vn -0.720632 0.1882587 0.6672692
vn -0.6315804 -0.1737551 0.7555894
vn -0.7012729 -0.1350371 -0.6999866
vn -0.240528 0.9664916 -0.08966678
vn 0.4699482 0.2347204 -0.8509142
vn 0.7564619 -0.3053965 -0.5783584
vn -0.2831179 -0.8571288 0.430319
vn -0.5580161 -0.7022566 0.4421015
vn -0.4263747 -0.6616026 0.6168359
vn -0.4728364 -0.6828976 0.5568452
vn 0.02081877 -0.831962 0.5544418
vn -0.3199001 -0.9384367 0.1303862
vn -0.7303115 -0.6770898 0.09052384
vn -0.3160283 -0.9229495 -0.2197506
vn -0.7690296 -0.6093333 -0.1931489
vn -0.7109525 -0.4912432 -0.5032164
vn -0.3102205 -0.7003207 -0.6428952
vn -0.0004761219 -0.7100002 -0.7042013
vn -0.00628382 -0.9190777 0.3940263
vn -0.00434792 -0.971347 -0.2376259
vn 0.3092683 -0.7003207 -0.6433538
vn -0.008219779 -0.992642 0.1208069
vn 0.315076 -0.9210136 -0.2290437
vn 0.7100002 -0.4912432 -0.5045592
vn 0.7719491 -0.6035255 -0.1996286
vn 0.7312951 -0.6770898 0.08220001
vn 0.3170119 -0.9403726 0.1233
vn 0.5686793 -0.7003207 0.4314567
vn 0.2802297 -0.8571288 0.4322054
vn 0.4467174 -0.713872 0.539287
vn 0.4041275 -0.6887053 0.6019685
vn -0.3353873 -0.175691 -0.9255528
vn -0.3102205 -0.7003207 -0.6428952
vn -0.0004761219 -0.7100002 -0.7042013
vn -0.7109525 -0.4912432 -0.5032164
vn -0.780645 -0.1989219 -0.5924724
vn -0.7922603 0.09533542 -0.6026895
vn -0.3470027 0.07791227 -0.9346223
vn -0.75935 0.3334514 -0.5587466
vn -0.0004761219 -0.1698833 -0.9854641
vn 0.334435 -0.175691 -0.9258973
vn 0.3092683 -0.7003207 -0.6433538
vn 0.7100002 -0.4912432 -0.5045592
vn -0.381849 0.3992721 -0.8335305
vn -0.6509394 0.6315804 -0.4211698
vn -0.0004761219 0.06242508 -0.9980496
vn -0.0004761219 0.4089516 -0.9125559
vn -0.0004761219 0.8077475 -0.5895283
vn -0.3024769 0.8000039 -0.5181712
vn -0.3508745 0.8929273 -0.2820777
vn -0.7380551 0.6315804 -0.2374467
vn -0.7090165 0.7051447 0.008159558
vn 0.3479863 0.07791227 -0.9342565
vn -0.2908615 0.9529403 0.08546561
vn -0.07597631 0.9606839 0.2670469
vn -0.0004761219 0.9277735 0.3731434
vn -0.0004761219 0.9471325 -0.3208422
vn -0.0004761219 0.9877866 0.155812
vn 0.2899093 0.9529403 0.08864187
vn 0.07502407 0.9606839 0.267316
vn 0.7080643 0.7051447 -0.03762856
vn 0.3499222 0.8929273 -0.2832582
vn 0.7390387 0.6315804 -0.2343672
vn 0.6519231 0.6315804 -0.4196458
vn 0.3034606 0.8000039 -0.5175958
vn 0.3808967 0.3992721 -0.8339661
vn 0.7583978 0.3334514 -0.5600383
vn 0.9403726 0.3005411 -0.1592936
vn 0.7390387 0.6315804 -0.2343672
vn 0.7913081 0.09533542 -0.6039393
vn 0.9558598 0.2695666 0.1169009
vn 0.9868343 0.1185662 0.1100007
vn 0.7080643 0.7051447 -0.03762856
vn 0.9403726 0.2250409 0.2550608
vn 0.9636034 0.1321176 0.2324077
vn 0.9539239 -0.04017782 0.2973464
vn 0.9848984 0.09533542 -0.144521
vn 0.7796926 -0.1989219 -0.593725
vn 0.9655393 -0.175691 -0.1920063
vn 0.7719491 -0.6035255 -0.1996286
vn 0.9868343 -0.156332 0.04145352
vn 0.5686793 -0.7003207 0.4314567
vn 0.7312951 -0.6770898 0.08220001
vn -0.9606839 0.1069508 0.2562186
vn -0.9413249 -0.04211372 0.334864
vn -0.9858506 0.1127585 0.1240325
vn -0.9393889 0.2192331 0.2636007
vn -0.9858506 -0.1543961 0.06527146
vn -0.5580161 -0.7022566 0.4421015
vn -0.7303115 -0.6770898 0.09052384
vn -0.7690296 -0.6093333 -0.1931489
vn -0.9645557 -0.175691 -0.1968883
vn -0.7109525 -0.4912432 -0.5032164
vn -0.780645 -0.1989219 -0.5924724
vn -0.7922603 0.09533542 -0.6026895
vn -0.9839148 0.09533542 -0.1510723
vn -0.75935 0.3334514 -0.5587466
vn -0.9413249 0.3005411 -0.153566
vn -0.6509394 0.6315804 -0.4211698
vn -0.7380551 0.6315804 -0.2374467
vn -0.9568121 0.2695666 0.1088323
vn -0.7090165 0.7051447 0.008159558
g body_0
f 3/3/3 2/2/2 1/1/1
f 2/2/2 5/5/5 4/4/4
f 8/8/8 7/7/7 6/6/6
f 11/11/11 10/10/10 9/9/9
f 14/14/14 13/13/13 12/12/12
f 16/16/16 12/12/12 15/15/15
f 18/18/18 17/17/17 15/15/15
f 20/20/20 18/18/18 19/19/19
f 21/21/21 20/20/20 19/19/19
f 19/19/19 22/22/22 21/21/21
f 25/25/25 24/24/24 23/23/23
f 27/27/27 25/25/25 26/26/26
f 30/30/30 29/29/29 28/28/28
f 33/33/33 32/32/32 31/31/31
f 36/36/36 35/35/35 34/34/34
f 34/34/34 38/38/38 37/37/37
f 40/40/40 39/39/39 37/37/37
f 39/39/39 42/42/42 41/41/41
f 42/42/42 43/43/43 41/41/41
f 44/44/44 41/41/41 43/43/43
f 47/47/47 46/46/46 45/45/45
f 46/46/46 48/48/48 45/45/45
f 49/49/49 48/48/48 46/46/46
f 46/46/46 50/50/50 49/49/49
f 53/53/53 52/52/52 51/51/51
f 54/54/54 53/53/53 51/51/51
f 54/54/54 55/55/55 53/53/53
f 56/56/56 53/53/53 55/55/55
f 59/59/59 58/58/58 57/57/57
f 60/60/60 59/59/59 57/57/57
f 61/61/61 60/60/60 57/57/57
f 57/57/57 58/58/58 62/62/62
f 58/58/58 63/63/63 62/62/62
f 62/62/62 63/63/63 64/64/64
f 63/63/63 65/65/65 64/64/64
f 66/66/66 64/64/64 65/65/65
f 66/66/66 67/67/67 64/64/64
f 67/67/67 68/68/68 64/64/64
f 61/61/61 57/57/57 69/69/69
f 57/57/57 62/62/62 69/69/69
f 68/68/68 70/70/70 64/64/64
f 68/68/68 71/71/71 70/70/70
f 62/62/62 64/64/64 72/72/72
f 64/64/64 70/70/70 72/72/72
f 62/62/62 72/72/72 69/69/69
f 71/71/71 73/73/73 70/70/70
f 72/72/72 70/70/70 73/73/73
f 74/74/74 73/73/73 71/71/71
f 74/74/74 75/75/75 73/73/73
f 75/75/75 76/76/76 73/73/73
f 77/77/77 72/72/72 73/73/73
f 76/76/76 77/77/77 73/73/73
f 69/69/69 72/72/72 77/77/77
f 76/76/76 78/78/78 77/77/77
f 61/61/61 69/69/69 79/79/79
f 79/79/79 69/69/69 77/77/77
f 78/78/78 79/79/79 77/77/77
f 80/80/80 61/61/61 79/79/79
f 78/78/78 81/81/81 79/79/79
f 81/81/81 80/80/80 79/79/79
f 84/84/84 83/83/83 82/82/82
f 85/85/85 82/82/82 83/83/83
f 85/85/85 86/86/86 82/82/82
f 87/87/87 82/82/82 86/86/86
f 87/87/87 88/88/88 82/82/82
f 89/89/89 88/88/88 87/87/87
f 90/90/90 84/84/84 82/82/82
f 82/82/82 88/88/88 90/90/90
f 90/90/90 91/91/91 84/84/84
f 91/91/91 92/92/92 84/84/84
f 93/93/93 92/92/92 91/91/91
f 89/89/89 94/94/94 88/88/88
f 95/95/95 94/94/94 89/89/89
f 88/88/88 96/96/96 90/90/90
f 90/90/90 96/96/96 91/91/91
f 97/97/97 96/96/96 88/88/88
f 94/94/94 97/97/97 88/88/88
f 97/97/97 94/94/94 98/98/98
f 95/95/95 99/99/99 94/94/94
f 98/98/98 94/94/94 99/99/99
f 95/95/95 100/100/100 99/99/99
f 98/98/98 99/99/99 100/100/100
f 95/95/95 101/101/101 100/100/100
f 102/102/102 100/100/100 101/101/101
f 97/97/97 103/103/103 96/96/96
f 96/96/96 103/103/103 91/91/91
f 102/102/102 104/104/104 100/100/100
f 102/102/102 105/105/105 104/104/104
f 106/106/106 104/104/104 105/105/105
f 104/104/104 107/107/107 100/100/100
f 98/98/98 100/100/100 107/107/107
f 106/106/106 108/108/108 104/104/104
f 104/104/104 108/108/108 107/107/107
f 109/109/109 108/108/108 106/106/106
f 107/107/107 108/108/108 109/109/109
f 109/109/109 106/106/106 110/110/110
f 111/111/111 109/109/109 110/110/110
f 107/107/107 109/109/109 112/112/112
f 111/111/111 112/112/112 109/109/109
f 98/98/98 107/107/107 112/112/112
f 111/111/111 113/113/113 112/112/112
f 114/114/114 112/112/112 113/113/113
f 98/98/98 112/112/112 115/115/115
f 114/114/114 115/115/115 112/112/112
f 98/98/98 115/115/115 116/116/116
f 114/114/114 116/116/116 115/115/115
f 116/116/116 97/97/97 98/98/98
f 97/97/97 116/116/116 103/103/103
f 114/114/114 117/117/117 116/116/116
f 103/103/103 116/116/116 117/117/117
f 114/114/114 118/118/118 117/117/117
f 114/114/114 119/119/119 118/118/118
f 103/103/103 117/117/117 120/120/120
f 120/120/120 91/91/91 103/103/103
f 121/121/121 118/118/118 119/119/119
f 122/122/122 118/118/118 121/121/121
f 121/121/121 119/119/119 123/123/123
f 123/123/123 124/124/124 121/121/121
f 122/122/122 121/121/121 124/124/124
f 122/122/122 124/124/124 125/125/125
f 122/122/122 125/125/125 126/126/126
f 117/117/117 118/118/118 127/127/127
f 117/117/117 127/127/127 120/120/120
f 122/122/122 127/127/127 118/118/118
f 120/120/120 128/128/128 91/91/91
f 93/93/93 91/91/91 128/128/128
f 120/120/120 127/127/127 129/129/129
f 120/120/120 129/129/129 128/128/128
f 93/93/93 128/128/128 129/129/129
f 122/122/122 129/129/129 127/127/127
f 93/93/93 129/129/129 130/130/130
f 122/122/122 126/126/126 131/131/131
f 122/122/122 131/131/131 129/129/129
f 130/130/130 129/129/129 131/131/131
f 132/132/132 131/131/131 126/126/126
f 133/133/133 130/130/130 131/131/131
f 132/132/132 133/133/133 131/131/131
f 136/136/136 135/135/135 134/134/134
f 136/136/136 134/134/134 137/137/137
f 136/136/136 138/138/138 135/135/135
f 139/139/139 135/135/135 138/138/138
f 139/139/139 138/138/138 140/140/140
f 140/140/140 138/138/138 141/141/141
f 138/138/138 142/142/142 141/141/141
f 136/136/136 142/142/142 138/138/138
f 143/143/143 141/141/141 142/142/142
f 143/143/143 142/142/142 144/144/144
f 145/145/145 144/144/144 142/142/142
f 145/145/145 142/142/142 146/146/146
f 136/136/136 146/146/146 142/142/142
f 146/146/146 147/147/147 145/145/145
f 146/146/146 148/148/148 147/147/147
f 136/136/136 148/148/148 146/146/146
f 149/149/149 147/147/147 148/148/148
f 149/149/149 148/148/148 150/150/150
f 136/136/136 151/151/151 148/148/148
f 150/150/150 148/148/148 151/151/151
f 136/136/136 137/137/137 151/151/151
f 150/150/150 151/151/151 152/152/152
f 152/152/152 151/151/151 137/137/137
