g bomb
v 0.01096572 0.05100815 -0.06442847
v -0.003808324 0.07758553 -0.09013019
v -0.003808328 0.04933366 -0.06642406
v 0.01096573 0.07926002 -0.08813459
v 0.0206088 0.05839518 -0.05562495
v 0.0206088 0.08664705 -0.07933108
v 0.02060879 0.06803827 -0.04413278
v 0.02060879 0.09629015 -0.0678389
v 0.01096571 0.07542529 -0.03532926
v 0.01096571 0.1036772 -0.05903539
v -0.003808337 0.07709979 -0.03333367
v -0.003808332 0.1053517 -0.0570398
v -0.01680041 0.07227825 -0.03907975
v -0.01680041 0.1005301 -0.06278589
v -0.02193138 0.06321672 -0.04987886
v -0.02193137 0.09146859 -0.07358498
v -0.01680041 0.0541552 -0.06067797
v -0.0168004 0.08240706 -0.0843841
v -0.003808328 0.04933366 -0.06642406
v -0.003808324 0.07758553 -0.09013019
v 0.01096571 0.07542529 -0.03532926
v -0.01680041 0.07227825 -0.03907975
v -0.003808337 0.07709979 -0.03333367
v 0.01096572 0.05100815 -0.06442847
v 0.02060879 0.06803827 -0.04413278
v 0.0206088 0.05839518 -0.05562495
v -0.01680041 0.0541552 -0.06067797
v -0.02193138 0.06321672 -0.04987886
v -0.003808328 0.04933366 -0.06642406
v 0.01096573 0.07926002 -0.08813459
v -0.0168004 0.08240706 -0.0843841
v -0.003808324 0.07758553 -0.09013019
v 0.01096571 0.1036772 -0.05903539
v 0.02060879 0.09629015 -0.0678389
v 0.0206088 0.08664705 -0.07933108
v -0.01680041 0.1005301 -0.06278589
v -0.02193137 0.09146859 -0.07358498
v -0.003808332 0.1053517 -0.0570398
v -0.003157965 0.1107503 -0.08983033
v 0.002842034 0.1107503 -0.08983033
v -0.0001579658 0.1126786 -0.0875322
v -0.0001579654 0.1088219 -0.09212846
v -0.0001579699 0.08203683 -0.06182071
v 0.002842034 0.1107503 -0.08983033
v 0.00284203 0.08010847 -0.06411884
v -0.0001579658 0.1126786 -0.0875322
v -0.003157969 0.08010847 -0.06411884
v -0.003157965 0.1107503 -0.08983033
v -0.0001579695 0.0781801 -0.06641698
v -0.0001579654 0.1088219 -0.09212846
v 0.00284203 0.08010847 -0.06411884
v 0.002842034 0.1107503 -0.08983033
v 0.00284203 0.08010847 -0.06411884
v -0.003157969 0.08010847 -0.06411884
v -0.0001579699 0.08203683 -0.06182071
v -0.0001579695 0.0781801 -0.06641698
v 9.151132E-09 0.1002829 0.0002315184
v -0.03454914 0.08118459 -0.04732132
v 6.608042E-09 0.08118459 -0.05854702
v -0.05590169 0.0311846 -0.07671062
v -4.985885E-11 0.0311846 -0.09487417
v -0.05590169 -0.03061879 -0.07671062
v -8.279479E-09 -0.0306188 -0.09487418
v -0.03454915 -0.08061881 -0.04732137
v -1.493738E-08 -0.08061882 -0.05854706
v -1.748048E-08 -0.09971712 0.0002314495
v -0.05590171 -0.08061882 -0.01793209
v -1.748048E-08 -0.09971712 0.0002314495
v -0.09045086 -0.03061881 -0.02915778
v -0.09045086 0.03118459 -0.02915776
v -0.0559017 -0.08061883 0.01839505
v -1.748048E-08 -0.09971712 0.0002314495
v -0.09045084 -0.03061882 0.02962077
v -0.0559017 0.08118459 -0.01793205
v 9.151132E-09 0.1002829 0.0002315184
v -0.09045084 0.03118457 0.02962079
v -0.03454913 -0.08061884 0.0477843
v -1.748048E-08 -0.09971712 0.0002314495
v -0.05590166 -0.03061885 0.07717359
v -0.05590168 0.08118457 0.01839509
v 9.151132E-09 0.1002829 0.0002315184
v -0.05590166 0.03118456 0.07717362
v 3.923964E-08 -0.08061884 0.05900998
v -1.748048E-08 -0.09971712 0.0002314495
v 7.940424E-08 -0.03061887 0.09533712
v -0.03454911 0.08118456 0.04778435
v 9.151132E-09 0.1002829 0.0002315184
v 8.763386E-08 0.03118454 0.09533715
v 0.03454918 -0.08061884 0.04778423
v -1.748048E-08 -0.09971712 0.0002314495
v 0.05590178 -0.03061887 0.07717349
v 6.078507E-08 0.08118456 0.05901003
v 9.151132E-09 0.1002829 0.0002315184
v 0.05590179 0.03118454 0.07717352
v 0.0559017 -0.08061884 0.01839494
v -1.748048E-08 -0.09971712 0.0002314495
v 0.09045088 -0.03061885 0.02962061
v 0.03454921 0.08118455 0.04778429
v 9.151132E-09 0.1002829 0.0002315184
v 0.0904509 0.03118455 0.02962063
v 0.05590165 -0.08061883 -0.0179322
v -1.748048E-08 -0.09971712 0.0002314495
v 0.09045079 -0.03061884 -0.02915795
v 0.05590172 0.08118457 0.01839499
v 9.151132E-09 0.1002829 0.0002315184
v 0.0904508 0.03118457 -0.02915793
v 0.03454904 -0.08061882 -0.04732143
v -1.748048E-08 -0.09971712 0.0002314495
v 0.05590154 -0.03061882 -0.07671072
v 0.05590167 0.08118457 -0.01793215
v 9.151132E-09 0.1002829 0.0002315184
v -1.493738E-08 -0.08061882 -0.05854706
v -1.748048E-08 -0.09971712 0.0002314495
v -8.279479E-09 -0.0306188 -0.09487418
v 0.05590155 0.03118458 -0.07671072
v -4.985885E-11 0.0311846 -0.09487417
v 0.03454906 0.08118459 -0.04732139
v 9.151132E-09 0.1002829 0.0002315184
v 6.608042E-09 0.08118459 -0.05854702
v 9.151132E-09 0.1002829 0.0002315184
vt 0.9941068 0.752615
vt 0.9969006 0.7774015
vt 0.9969006 0.752615
vt 0.9941068 0.7774015
vt 0.9913132 0.752615
vt 0.9913132 0.7774015
vt 0.9885194 0.752615
vt 0.9885194 0.7774015
vt 0.9857257 0.752615
vt 0.9857257 0.7774015
vt 0.982932 0.752615
vt 0.982932 0.7774015
vt 0.9801384 0.752615
vt 0.9801384 0.7774015
vt 0.9773446 0.752615
vt 0.9773446 0.7774015
vt 0.9745509 0.752615
vt 0.9745509 0.7774015
vt 0.9717572 0.752615
vt 0.9717572 0.7774015
vt 0.9945179 0.7712048
vt 0.9917114 0.7555144
vt 0.9960111 0.7628561
vt 0.972743 0.7712048
vt 0.9879302 0.776654
vt 0.9793307 0.7766541
vt 0.9755495 0.7555144
vt 0.9836305 0.752615
vt 0.9712498 0.7628561
vt 0.972743 0.7712048
vt 0.9755495 0.7555144
vt 0.9712498 0.7628561
vt 0.9945179 0.7712048
vt 0.9879302 0.776654
vt 0.9793307 0.7766541
vt 0.9917114 0.7555144
vt 0.9836305 0.752615
vt 0.9960111 0.7628561
vt 0.5495478 0.0004045434
vt 0.5073019 0.0004045434
vt 0.5284249 0.0004045434
vt 0.5706707 0.0004045434
vt 0.5284249 0.08489627
vt 0.5073019 0.0004045434
vt 0.5073019 0.08489627
vt 0.5284249 0.0004045434
vt 0.5495478 0.08489627
vt 0.5495478 0.0004045434
vt 0.5706707 0.08489627
vt 0.5706707 0.0004045434
vt 0.5917937 0.08489627
vt 0.5917937 0.0004045434
vt 0.5073019 0.08489627
vt 0.5495478 0.08489627
vt 0.5284249 0.08489627
vt 0.6129166 0.08489627
vt 0.7725216 0.8741259
vt 0.7741853 0.8609624
vt 0.7525342 0.8609624
vt 0.7741853 0.8291785
vt 0.7525342 0.8291785
vt 0.7741853 0.7973945
vt 0.7525342 0.7973945
vt 0.7741853 0.7656106
vt 0.7525342 0.7656106
vt 0.7541978 0.7524471
vt 0.7958367 0.7656106
vt 0.7758492 0.7524471
vt 0.7958367 0.7973945
vt 0.7958367 0.8291785
vt 0.817488 0.7656106
vt 0.7975004 0.7524471
vt 0.817488 0.7973945
vt 0.7958367 0.8609624
vt 0.7941729 0.8741259
vt 0.817488 0.8291785
vt 0.8391395 0.7656106
vt 0.8191519 0.7524471
vt 0.8391395 0.7973945
vt 0.817488 0.8609624
vt 0.8158242 0.8741259
vt 0.8391395 0.8291785
vt 0.8607907 0.7656106
vt 0.8408033 0.7524471
vt 0.8607907 0.7973945
vt 0.8391395 0.8609624
vt 0.8374756 0.8741259
vt 0.8607907 0.8291785
vt 0.8824422 0.7656106
vt 0.8624546 0.7524471
vt 0.8824422 0.7973945
vt 0.8607907 0.8609624
vt 0.859127 0.8741259
vt 0.8824422 0.8291785
vt 0.9040936 0.7656106
vt 0.8841059 0.7524471
vt 0.9040936 0.7973945
vt 0.8824422 0.8609624
vt 0.8807783 0.8741259
vt 0.9040936 0.8291785
vt 0.9257448 0.7656106
vt 0.9057572 0.7524471
vt 0.9257448 0.7973945
vt 0.9040936 0.8609624
vt 0.9024297 0.8741259
vt 0.9257448 0.8291785
vt 0.947396 0.7656106
vt 0.9274087 0.7524471
vt 0.947396 0.7973945
vt 0.9257448 0.8609624
vt 0.924081 0.8741259
vt 0.9690474 0.7656106
vt 0.94906 0.7524471
vt 0.9690474 0.7973945
vt 0.947396 0.8291785
vt 0.9690474 0.8291785
vt 0.947396 0.8609624
vt 0.9457324 0.8741259
vt 0.9690474 0.8609624
vt 0.9673835 0.8741259
vn 0.4999998 -0.5566704 -0.6634142
vn -0.1736485 -0.633022 -0.7544066
vn -0.1736485 -0.633022 -0.7544066
vn 0.5 -0.5566703 -0.6634141
vn 0.9396926 -0.2198462 -0.2620024
vn 0.9396927 -0.219846 -0.2620022
vn 0.9396926 0.2198464 0.2620031
vn 0.9396926 0.2198464 0.2620031
vn 0.4999998 0.5566702 0.6634142
vn 0.4999997 0.5566702 0.6634142
vn -0.1736485 0.633022 0.7544066
vn -0.1736484 0.633022 0.7544066
vn -0.7660447 0.4131757 0.4924036
vn -0.7660445 0.4131758 0.4924037
vn -1 0 -2.505882E-07
vn -1 0 -1.19121E-07
vn -0.7660445 -0.4131756 -0.4924039
vn -0.7660445 -0.4131757 -0.492404
vn -0.1736485 -0.633022 -0.7544066
vn -0.1736485 -0.633022 -0.7544066
vn 2.539564E-07 -0.7660443 0.6427878
vn 0 -0.7660444 0.6427876
vn 1.155492E-07 -0.7660438 0.6427883
vn 2.394141E-07 -0.7660445 0.6427876
vn 4.018549E-07 -0.7660444 0.6427876
vn 1.15084E-06 -0.7660446 0.6427873
vn -1.02005E-07 -0.7660446 0.6427873
vn -1.02005E-07 -0.7660446 0.6427873
vn -1.02005E-07 -0.7660446 0.6427873
vn -1.12253E-07 0.7660443 -0.6427878
vn -2.39257E-07 0.7660443 -0.6427879
vn 1.02005E-07 0.7660446 -0.6427873
vn -1.034537E-07 0.7660443 -0.6427879
vn -5.896319E-07 0.7660441 -0.6427879
vn -1.911057E-07 0.7660441 -0.642788
vn -1.264266E-07 0.7660441 -0.6427879
vn -2.252576E-06 0.7660441 -0.6427881
vn 1.02005E-07 0.7660446 -0.6427873
vn 1.02005E-07 0.7660446 -0.6427873
vn 1.02005E-07 0.7660446 -0.6427873
vn 1.02005E-07 0.7660446 -0.6427873
vn 1.02005E-07 0.7660446 -0.6427873
vn 0 0.6427873 0.7660448
vn 1 0 0
vn 1 0 0
vn -3.537738E-07 0.6427873 0.7660448
vn -1 3.056275E-07 2.055413E-07
vn -1 0 -2.363725E-07
vn -3.539075E-07 -0.6427873 -0.7660448
vn 0 -0.6427873 -0.7660448
vn 1 0 0
vn 1 0 0
vn -1.02005E-07 -0.7660446 0.6427873
vn -1.02005E-07 -0.7660446 0.6427873
vn -1.02005E-07 -0.7660446 0.6427873
vn -1.02005E-07 -0.7660446 0.6427873
vn 1.232601E-07 1 3.732945E-07
vn -0.3674983 0.7804443 -0.505818
vn -2.97651E-07 0.7804443 -0.6252254
vn -0.5620821 0.2924814 -0.7736397
vn -3.752764E-07 0.2924815 -0.9562712
vn -0.5620822 -0.292481 -0.7736398
vn -5.028755E-07 -0.2924809 -0.9562713
vn -0.3674986 -0.7804438 -0.5058184
vn -4.605831E-07 -0.7804438 -0.6252258
vn -1.496546E-07 -1 -2.893215E-07
vn -0.5946251 -0.7804438 -0.1932055
vn -1.496546E-07 -1 -2.893215E-07
vn -0.9094681 -0.292481 -0.295504
vn -0.9094681 0.2924813 -0.2955039
vn -0.5946252 -0.780444 0.1932054
vn -1.496546E-07 -1 -2.893215E-07
vn -0.909468 -0.2924812 0.2955043
vn -0.5946248 0.7804441 -0.1932051
vn 1.232601E-07 1 3.732945E-07
vn -0.9094679 0.2924812 0.2955045
vn -0.3674982 -0.7804441 0.5058182
vn -1.496546E-07 -1 -2.893215E-07
vn -0.5620818 -0.2924814 0.7736399
vn -0.5946248 0.780444 0.1932059
vn 1.232601E-07 1 3.732945E-07
vn -0.5620816 0.292481 0.7736402
vn 5.380668E-07 -0.7804441 0.6252254
vn -1.496546E-07 -1 -2.893215E-07
vn 8.585365E-07 -0.2924816 0.9562712
vn -0.3674981 0.780444 0.5058186
vn 1.232601E-07 1 3.732945E-07
vn 9.833743E-07 0.2924809 0.9562714
vn 0.3674989 -0.7804443 0.5058175
vn -1.496546E-07 -1 -2.893215E-07
vn 0.562083 -0.2924815 0.7736388
vn 6.640118E-07 0.7804438 0.6252258
vn 1.232601E-07 1 3.732945E-07
vn 0.5620832 0.2924809 0.7736391
vn 0.5946251 -0.7804441 0.1932042
vn -1.496546E-07 -1 -2.893215E-07
vn 0.9094684 -0.2924814 0.2955027
vn 0.3674991 0.7804437 0.5058181
vn 1.232601E-07 1 3.732945E-07
vn 0.9094685 0.292481 0.2955029
vn 0.5946245 -0.780444 -0.1932065
vn -1.496546E-07 -1 -2.893215E-07
vn 0.9094675 -0.2924813 -0.2955058
vn 0.5946252 0.7804438 0.1932048
vn 1.232601E-07 1 3.732945E-07
vn 0.9094676 0.2924812 -0.2955055
vn 0.3674977 -0.780444 -0.5058188
vn -1.496546E-07 -1 -2.893215E-07
vn 0.562081 -0.2924811 -0.7736406
vn 0.5946248 0.780444 -0.1932062
vn 1.232601E-07 1 3.732945E-07
vn -4.605831E-07 -0.7804438 -0.6252258
vn -1.496546E-07 -1 -2.893215E-07
vn -5.028755E-07 -0.2924809 -0.9562713
vn 0.5620812 0.2924813 -0.7736405
vn -3.752764E-07 0.2924815 -0.9562712
vn 0.3674978 0.7804441 -0.5058183
vn 1.232601E-07 1 3.732945E-07
vn -2.97651E-07 0.7804443 -0.6252254
vn 1.232601E-07 1 3.732945E-07
g bomb_0
f 3/3/3 2/2/2 1/1/1
f 4/4/4 1/1/1 2/2/2
f 1/1/1 4/4/4 5/5/5
f 6/6/6 5/5/5 4/4/4
f 5/5/5 6/6/6 7/7/7
f 8/8/8 7/7/7 6/6/6
f 7/7/7 8/8/8 9/9/9
f 10/10/10 9/9/9 8/8/8
f 9/9/9 10/10/10 11/11/11
f 12/12/12 11/11/11 10/10/10
f 11/11/11 12/12/12 13/13/13
f 14/14/14 13/13/13 12/12/12
f 13/13/13 14/14/14 15/15/15
f 16/16/16 15/15/15 14/14/14
f 15/15/15 16/16/16 17/17/17
f 18/18/18 17/17/17 16/16/16
f 17/17/17 18/18/18 19/19/19
f 20/20/20 19/19/19 18/18/18
f 23/23/23 22/22/22 21/21/21
f 22/22/22 24/24/24 21/21/21
f 21/21/21 24/24/24 25/25/25
f 24/24/24 26/26/26 25/25/25
f 27/27/27 24/24/24 22/22/22
f 28/28/28 27/27/27 22/22/22
f 29/29/29 24/24/24 27/27/27
f 32/32/32 31/31/31 30/30/30
f 31/31/31 33/33/33 30/30/30
f 33/33/33 34/34/34 30/30/30
f 30/30/30 34/34/34 35/35/35
f 36/36/36 33/33/33 31/31/31
f 37/37/37 36/36/36 31/31/31
f 38/38/38 33/33/33 36/36/36
f 41/41/41 40/40/40 39/39/39
f 42/42/42 39/39/39 40/40/40
f 45/45/45 44/44/44 43/43/43
f 46/46/46 43/43/43 44/44/44
f 43/43/43 46/46/46 47/47/47
f 48/48/48 47/47/47 46/46/46
f 47/47/47 48/48/48 49/49/49
f 50/50/50 49/49/49 48/48/48
f 49/49/49 50/50/50 51/51/51
f 52/52/52 51/51/51 50/50/50
f 55/55/55 54/54/54 53/53/53
f 56/56/56 53/53/53 54/54/54
f 59/59/59 58/58/58 57/57/57
f 58/58/58 59/59/59 60/60/60
f 61/61/61 60/60/60 59/59/59
f 60/60/60 61/61/61 62/62/62
f 63/63/63 62/62/62 61/61/61
f 62/62/62 63/63/63 64/64/64
f 65/65/65 64/64/64 63/63/63
f 66/66/66 64/64/64 65/65/65
f 64/64/64 67/67/67 62/62/62
f 68/68/68 67/67/67 64/64/64
f 62/62/62 69/69/69 60/60/60
f 69/69/69 62/62/62 67/67/67
f 60/60/60 70/70/70 58/58/58
f 70/70/70 60/60/60 69/69/69
f 67/67/67 71/71/71 69/69/69
f 72/72/72 71/71/71 67/67/67
f 73/73/73 69/69/69 71/71/71
f 69/69/69 73/73/73 70/70/70
f 74/74/74 58/58/58 70/70/70
f 58/58/58 74/74/74 75/75/75
f 70/70/70 76/76/76 74/74/74
f 76/76/76 70/70/70 73/73/73
f 71/71/71 77/77/77 73/73/73
f 78/78/78 77/77/77 71/71/71
f 79/79/79 73/73/73 77/77/77
f 73/73/73 79/79/79 76/76/76
f 80/80/80 74/74/74 76/76/76
f 74/74/74 80/80/80 81/81/81
f 76/76/76 82/82/82 80/80/80
f 82/82/82 76/76/76 79/79/79
f 77/77/77 83/83/83 79/79/79
f 84/84/84 83/83/83 77/77/77
f 85/85/85 79/79/79 83/83/83
f 79/79/79 85/85/85 82/82/82
f 86/86/86 80/80/80 82/82/82
f 80/80/80 86/86/86 87/87/87
f 82/82/82 88/88/88 86/86/86
f 88/88/88 82/82/82 85/85/85
f 83/83/83 89/89/89 85/85/85
f 90/90/90 89/89/89 83/83/83
f 91/91/91 85/85/85 89/89/89
f 85/85/85 91/91/91 88/88/88
f 92/92/92 86/86/86 88/88/88
f 86/86/86 92/92/92 93/93/93
f 88/88/88 94/94/94 92/92/92
f 94/94/94 88/88/88 91/91/91
f 89/89/89 95/95/95 91/91/91
f 96/96/96 95/95/95 89/89/89
f 97/97/97 91/91/91 95/95/95
f 91/91/91 97/97/97 94/94/94
f 98/98/98 92/92/92 94/94/94
f 92/92/92 98/98/98 99/99/99
f 94/94/94 100/100/100 98/98/98
f 100/100/100 94/94/94 97/97/97
f 95/95/95 101/101/101 97/97/97
f 102/102/102 101/101/101 95/95/95
f 103/103/103 97/97/97 101/101/101
f 97/97/97 103/103/103 100/100/100
f 104/104/104 98/98/98 100/100/100
f 98/98/98 104/104/104 105/105/105
f 100/100/100 106/106/106 104/104/104
f 106/106/106 100/100/100 103/103/103
f 101/101/101 107/107/107 103/103/103
f 108/108/108 107/107/107 101/101/101
f 109/109/109 103/103/103 107/107/107
f 103/103/103 109/109/109 106/106/106
f 110/110/110 104/104/104 106/106/106
f 104/104/104 110/110/110 111/111/111
f 107/107/107 112/112/112 109/109/109
f 113/113/113 112/112/112 107/107/107
f 114/114/114 109/109/109 112/112/112
f 115/115/115 106/106/106 109/109/109
f 109/109/109 114/114/114 115/115/115
f 106/106/106 115/115/115 110/110/110
f 116/116/116 115/115/115 114/114/114
f 117/117/117 110/110/110 115/115/115
f 115/115/115 116/116/116 117/117/117
f 110/110/110 117/117/117 118/118/118
f 119/119/119 117/117/117 116/116/116
f 117/117/117 119/119/119 120/120/120
