g Crystal
v 0.0607644 3.280325 0.241349
v 0.3058373 3.251526 -0.02346626
v 0.003403902 3.155767 0.01179558
v -0.2290973 3.322728 -0.1829712
v -0.3106025 3.265945 0.03982857
v 0.003403902 3.155767 0.01179558
v 0.003403902 3.155767 0.01179558
v -0.3106025 3.265945 0.03982857
v 0.0607644 3.280325 0.241349
v 0.2173555 3.436446 0.2174565
v 0.3058373 3.251526 -0.02346626
v 0.0607644 3.280325 0.241349
v 0.003403902 3.155767 0.01179558
v 0.3058373 3.251526 -0.02346626
v 0.2606364 3.310734 -0.1382018
v 0.2606364 3.310734 -0.1382018
v 0.342064 3.553654 -0.171791
v 0.1132038 3.489409 -0.4167718
v 0.003403902 3.155767 0.01179558
v 0.2606364 3.310734 -0.1382018
v 0.1132038 3.489409 -0.4167718
v 0.003403902 3.155767 0.01179558
v 0.1132038 3.489409 -0.4167718
v -0.2290973 3.322728 -0.1829712
v 0.3058373 3.251526 -0.02346626
v 0.342064 3.553654 -0.171791
v 0.2606364 3.310734 -0.1382018
v 0.1132038 3.489409 -0.4167718
v -0.2060775 3.559579 -0.3773549
v -0.2290973 3.322728 -0.1829712
v -0.2060775 3.559579 -0.3773549
v -0.4333328 3.519381 -0.1008697
v -0.2290973 3.322728 -0.1829712
v -0.2290973 3.322728 -0.1829712
v -0.4333328 3.519381 -0.1008697
v -0.3106025 3.265945 0.03982857
v 0.0607644 3.280325 0.241349
v -0.3106025 3.265945 0.03982857
v -0.2157256 3.703385 0.3430571
v 0.2173555 3.436446 0.2174565
v 0.0607644 3.280325 0.241349
v -0.2157256 3.703385 0.3430571
v 0.2173555 3.436446 0.2174565
v 0.3741744 3.845804 0.1464383
v 0.3058373 3.251526 -0.02346626
v 0.1132038 3.489409 -0.4167718
v 0.342064 3.553654 -0.171791
v 0.1204327 3.84658 -0.4294598
v 0.342064 3.553654 -0.171791
v 0.3721042 3.694255 -0.1800089
v 0.1204327 3.84658 -0.4294598
v 0.1132038 3.489409 -0.4167718
v 0.1204327 3.84658 -0.4294598
v -0.2060775 3.559579 -0.3773549
v -0.2157256 3.703385 0.3430571
v 0.2599431 3.84067 0.2697553
v 0.2173555 3.436446 0.2174565
v 0.2173555 3.436446 0.2174565
v 0.2599431 3.84067 0.2697553
v 0.3741744 3.845804 0.1464383
v 0.3058373 3.251526 -0.02346626
v 0.3741744 3.845804 0.1464383
v 0.3721042 3.694255 -0.1800089
v 0.342064 3.553654 -0.171791
v 0.3058373 3.251526 -0.02346626
v 0.3721042 3.694255 -0.1800089
v 0.3849231 3.852117 -0.1896134
v 0.1204327 3.84658 -0.4294598
v 0.3721042 3.694255 -0.1800089
v -0.2060775 3.559579 -0.3773549
v 0.1204327 3.84658 -0.4294598
v -0.05763161 3.830154 -0.4374062
v -0.2060775 3.559579 -0.3773549
v -0.05763161 3.830154 -0.4374062
v -0.3249535 3.825373 -0.2399292
v -0.3106025 3.265945 0.03982857
v -0.4333328 3.519381 -0.1008697
v -0.3592263 3.965291 0.04249516
v -0.4333328 3.519381 -0.1008697
v -0.2060775 3.559579 -0.3773549
v -0.3592263 3.965291 0.04249516
v -0.3106025 3.265945 0.03982857
v -0.3592263 3.965291 0.04249516
v -0.2157256 3.703385 0.3430571
v 0.3721042 3.694255 -0.1800089
v 0.3741744 3.845804 0.1464383
v 0.3849231 3.852117 -0.1896134
v 0.1204327 3.84658 -0.4294598
v 0.3849231 3.852117 -0.1896134
v 0.3174782 3.968728 -0.1648336
v -0.2060775 3.559579 -0.3773549
v -0.3249535 3.825373 -0.2399292
v -0.3592263 3.965291 0.04249516
v -0.3592263 3.965291 0.04249516
v 0.09157547 4.098387 0.3065057
v -0.2157256 3.703385 0.3430571
v -0.2157256 3.703385 0.3430571
v 0.09157547 4.098387 0.3065057
v 0.2599431 3.84067 0.2697553
v 0.3849231 3.852117 -0.1896134
v 0.3741744 3.845804 0.1464383
v 0.3174782 3.968728 -0.1648336
v -0.05763161 3.830154 -0.4374062
v 0.1204327 3.84658 -0.4294598
v 0.2099181 4.342248 -0.2629927
v -0.3592263 3.965291 0.04249516
v -0.314646 4.22905 0.2015491
v 0.09157547 4.098387 0.3065057
v 0.3174782 3.968728 -0.1648336
v 0.3741744 3.845804 0.1464383
v 0.3327261 4.095614 -0.1676311
v 0.3741744 3.845804 0.1464383
v 0.2610582 4.333419 -0.01687738
v 0.3327261 4.095614 -0.1676311
v 0.3174782 3.968728 -0.1648336
v 0.3327261 4.095614 -0.1676311
v 0.2099181 4.342248 -0.2629927
v 0.3327261 4.095614 -0.1676311
v 0.2658144 4.216507 -0.1307548
v 0.2099181 4.342248 -0.2629927
v 0.1204327 3.84658 -0.4294598
v 0.3174782 3.968728 -0.1648336
v 0.2099181 4.342248 -0.2629927
v -0.05763161 3.830154 -0.4374062
v 0.2099181 4.342248 -0.2629927
v -0.3249535 3.825373 -0.2399292
v -0.3592263 3.965291 0.04249516
v -0.3559828 4.365137 -0.1093446
v -0.314646 4.22905 0.2015491
v 0.09157547 4.098387 0.3065057
v -0.314646 4.22905 0.2015491
v -0.05003914 4.22249 0.3228396
v 0.09157547 4.098387 0.3065057
v -0.05003914 4.22249 0.3228396
v 0.2092151 4.353414 0.2195655
v 0.3327261 4.095614 -0.1676311
v 0.2610582 4.333419 -0.01687738
v 0.2658144 4.216507 -0.1307548
v 0.2099181 4.342248 -0.2629927
v -0.1325527 4.452601 -0.2593516
v -0.3249535 3.825373 -0.2399292
v -0.3249535 3.825373 -0.2399292
v -0.1325527 4.452601 -0.2593516
v -0.3592263 3.965291 0.04249516
v -0.1325527 4.452601 -0.2593516
v -0.3559828 4.365137 -0.1093446
v -0.3592263 3.965291 0.04249516
v -0.05003914 4.22249 0.3228396
v -0.314646 4.22905 0.2015491
v -0.2417224 4.482345 0.1534683
v 0.09157547 4.098387 0.3065057
v 0.2092151 4.353414 0.2195655
v 0.2610582 4.333419 -0.01687738
v 0.2658144 4.216507 -0.1307548
v 0.2033438 4.43295 -0.1118608
v 0.2099181 4.342248 -0.2629927
v -0.3559828 4.365137 -0.1093446
v -0.2417224 4.482345 0.1534683
v -0.314646 4.22905 0.2015491
v -0.2417224 4.482345 0.1534683
v -0.01957229 4.607573 0.08072904
v -0.05003914 4.22249 0.3228396
v -0.05003914 4.22249 0.3228396
v -0.01957229 4.607573 0.08072904
v 0.2092151 4.353414 0.2195655
v 0.2092151 4.353414 0.2195655
v 0.09974006 4.646422 0.02024621
v 0.2610582 4.333419 -0.01687738
v 0.09974006 4.646422 0.02024621
v 0.2033438 4.43295 -0.1118608
v 0.2610582 4.333419 -0.01687738
v 0.2610582 4.333419 -0.01687738
v 0.2033438 4.43295 -0.1118608
v 0.2658144 4.216507 -0.1307548
v 0.2033438 4.43295 -0.1118608
v 0.05823356 4.585488 -0.09572563
v 0.2099181 4.342248 -0.2629927
v 0.2099181 4.342248 -0.2629927
v 0.05823356 4.585488 -0.09572563
v -0.1325527 4.452601 -0.2593516
v -0.3559828 4.365137 -0.1093446
v -0.1325527 4.452601 -0.2593516
v -0.08296892 4.57744 -0.07928497
v -0.3559828 4.365137 -0.1093446
v -0.08296892 4.57744 -0.07928497
v -0.1156563 4.623233 -0.009953976
v -0.3559828 4.365137 -0.1093446
v -0.1156563 4.623233 -0.009953976
v -0.2417224 4.482345 0.1534683
v -0.2417224 4.482345 0.1534683
v -0.05672497 4.591471 0.06030789
v -0.01957229 4.607573 0.08072904
v 0.2092151 4.353414 0.2195655
v -0.01957229 4.607573 0.08072904
v 0.09974006 4.646422 0.02024621
v -0.1325527 4.452601 -0.2593516
v 0.05823356 4.585488 -0.09572563
v -0.006559402 4.565072 -0.02370381
v -0.1325527 4.452601 -0.2593516
v -0.006559402 4.565072 -0.02370381
v -0.08296892 4.57744 -0.07928497
v -0.1156563 4.623233 -0.009953976
v -0.05672497 4.591471 0.06030789
v -0.2417224 4.482345 0.1534683
v -0.01957229 4.607573 0.08072904
v -0.006559402 4.565072 -0.02370381
v 0.09974006 4.646422 0.02024621
v 0.09974006 4.646422 0.02024621
v 0.08450663 4.57424 -0.02671948
v 0.2033438 4.43295 -0.1118608
v 0.2033438 4.43295 -0.1118608
v 0.08450663 4.57424 -0.02671948
v 0.05823356 4.585488 -0.09572563
v -0.08296892 4.57744 -0.07928497
v -0.006559402 4.565072 -0.02370381
v -0.1156563 4.623233 -0.009953976
v -0.1156563 4.623233 -0.009953976
v -0.006559402 4.565072 -0.02370381
v -0.05672497 4.591471 0.06030789
v -0.05672497 4.591471 0.06030789
v -0.006559402 4.565072 -0.02370381
v -0.01957229 4.607573 0.08072904
v 0.09974006 4.646422 0.02024621
v -0.006559402 4.565072 -0.02370381
v 0.08450663 4.57424 -0.02671948
v 0.08450663 4.57424 -0.02671948
v -0.006559402 4.565072 -0.02370381
v 0.05823356 4.585488 -0.09572563
v 0.3741744 3.845804 0.1464383
v 0.2599431 3.84067 0.2697553
v 0.2610582 4.333419 -0.01687738
v 0.09157547 4.098387 0.3065057
vt 0.3079816 0.3171082
vt 0.3411377 0.3013261
vt 0.3048282 0.3004923
vt 0.2835124 0.2844372
vt 0.2736732 0.3053891
vt 0.3048282 0.3004923
vt 0.3048282 0.3004923
vt 0.2736732 0.3053891
vt 0.3079816 0.3171082
vt 0.3223841 0.3262349
vt 0.3411377 0.3013261
vt 0.3079816 0.3171082
vt 0.3048282 0.3004923
vt 0.3411377 0.3013261
vt 0.3316169 0.2844827
vt 0.3627112 0.305662
vt 0.3650611 0.3320565
vt 0.3976563 0.3278267
vt 0.3048282 0.3004923
vt 0.3316169 0.2844827
vt 0.3142732 0.2571482
vt 0.3048282 0.3004923
vt 0.3142732 0.2571482
vt 0.2835124 0.2844372
vt 0.3411377 0.3013261
vt 0.3650611 0.3320565
vt 0.3627112 0.305662
vt 0.3142732 0.2571482
vt 0.2819964 0.2582246
vt 0.2835124 0.2844372
vt 0.2819964 0.2582246
vt 0.2605745 0.2820873
vt 0.2835124 0.2844372
vt 0.2835124 0.2844372
vt 0.2605745 0.2820873
vt 0.2736732 0.3053891
vt 0.3079816 0.3171082
vt 0.2736732 0.3053891
vt 0.2802681 0.3643788
vt 0.3223841 0.3262349
vt 0.3079816 0.3171082
vt 0.2802681 0.3643788
vt 0.3223841 0.3262349
vt 0.3414561 0.3603764
vt 0.3411377 0.3013261
vt 0.3976563 0.3278267
vt 0.3650611 0.3320565
vt 0.3925472 0.3617409
vt 0.3650611 0.3320565
vt 0.3676535 0.345883
vt 0.3925472 0.3617409
vt 0.3976563 0.3278267
vt 0.3925472 0.3617409
vt 0.4268555 0.3459739
vt 0.2802681 0.3643788
vt 0.3278419 0.362029
vt 0.3223841 0.3262349
vt 0.3223841 0.3262349
vt 0.3278419 0.362029
vt 0.3414561 0.3603764
vt 0.3411377 0.3013261
vt 0.3414561 0.3603764
vt 0.3676535 0.345883
vt 0.3650611 0.3320565
vt 0.3411377 0.3013261
vt 0.3676535 0.345883
vt 0.3679264 0.3596487
vt 0.3925472 0.3617409
vt 0.3676535 0.345883
vt 0.4268555 0.3459739
vt 0.3925472 0.3617409
vt 0.40604 0.3641059
vt 0.4268555 0.3459739
vt 0.40604 0.3641059
vt 0.4280229 0.3774472
vt 0.4785075 0.3456252
vt 0.4540384 0.3576324
vt 0.4450937 0.401219
vt 0.4540384 0.3576324
vt 0.4268555 0.3459739
vt 0.4450937 0.401219
vt 0.4785075 0.3456252
vt 0.4450937 0.401219
vt 0.4813729 0.3956551
vt 0.3676535 0.345883
vt 0.3414561 0.3603764
vt 0.3679264 0.3596487
vt 0.3925472 0.3617409
vt 0.3679264 0.3596487
vt 0.3675626 0.3716862
vt 0.4268555 0.3459739
vt 0.4280229 0.3774472
vt 0.4450937 0.401219
vt 0.2841037 0.4367553
vt 0.3202616 0.3907127
vt 0.2802681 0.3643788
vt 0.2802681 0.3643788
vt 0.3202616 0.3907127
vt 0.3278419 0.362029
vt 0.3679264 0.3596487
vt 0.3414561 0.3603764
vt 0.3675626 0.3716862
vt 0.40604 0.3641059
vt 0.3925472 0.3617409
vt 0.3708221 0.4078896
vt 0.2841037 0.4367553
vt 0.3088912 0.4362096
vt 0.3202616 0.3907127
vt 0.3675626 0.3716862
vt 0.3414561 0.3603764
vt 0.3656826 0.3833598
vt 0.3414561 0.3603764
vt 0.3530539 0.4050546
vt 0.3656826 0.3833598
vt 0.3675626 0.3716862
vt 0.3656826 0.3833598
vt 0.3708221 0.4078896
vt 0.3656826 0.3833598
vt 0.3630144 0.3958825
vt 0.3708221 0.4078896
vt 0.3925472 0.3617409
vt 0.3675626 0.3716862
vt 0.3708221 0.4078896
vt 0.40604 0.3641059
vt 0.3708221 0.4078896
vt 0.4280229 0.3774472
vt 0.2841037 0.4367553
vt 0.3313743 0.4663033
vt 0.3088912 0.4362096
vt 0.3202616 0.3907127
vt 0.3088912 0.4362096
vt 0.3178662 0.4101334
vt 0.3202616 0.3907127
vt 0.3178662 0.4101334
vt 0.3356496 0.4080716
vt 0.3656826 0.3833598
vt 0.3530539 0.4050546
vt 0.3630144 0.3958825
vt 0.3708221 0.4078896
vt 0.3815254 0.440212
vt 0.4280229 0.3774472
vt 0.4280229 0.3774472
vt 0.3815254 0.440212
vt 0.4450937 0.401219
vt 0.3294489 0.4956086
vt 0.3313743 0.4663033
vt 0.2841037 0.4367553
vt 0.3178662 0.4101334
vt 0.3088912 0.4362096
vt 0.324173 0.4426225
vt 0.3202616 0.3907127
vt 0.3356496 0.4080716
vt 0.3530539 0.4050546
vt 0.3630144 0.3958825
vt 0.3592394 0.4155912
vt 0.3708221 0.4078896
vt 0.3313743 0.4663033
vt 0.324173 0.4426225
vt 0.3088912 0.4362096
vt 0.324173 0.4426225
vt 0.3383633 0.437665
vt 0.3178662 0.4101334
vt 0.3178662 0.4101334
vt 0.3383633 0.437665
vt 0.3356496 0.4080716
vt 0.3356496 0.4080716
vt 0.3458072 0.4330562
vt 0.3530539 0.4050546
vt 0.3458072 0.4330562
vt 0.3592394 0.4155912
vt 0.3530539 0.4050546
vt 0.3530539 0.4050546
vt 0.3592394 0.4155912
vt 0.3630144 0.3958825
vt 0.3592394 0.4155912
vt 0.3562376 0.4332229
vt 0.3708221 0.4078896
vt 0.3708221 0.4078896
vt 0.3562376 0.4332229
vt 0.3815254 0.440212
vt 0.3313743 0.4663033
vt 0.3815254 0.440212
vt 0.3523414 0.4435776
vt 0.3313743 0.4663033
vt 0.3523414 0.4435776
vt 0.3428812 0.4444266
vt 0.3313743 0.4663033
vt 0.3428812 0.4444266
vt 0.324173 0.4426225
vt 0.324173 0.4426225
vt 0.337575 0.4404545
vt 0.3383633 0.437665
vt 0.3356496 0.4080716
vt 0.3383633 0.437665
vt 0.3458072 0.4330562
vt 0.3815254 0.440212
vt 0.3562376 0.4332229
vt 0.3487635 0.4393781
vt 0.3815254 0.440212
vt 0.3487635 0.4393781
vt 0.3523414 0.4435776
vt 0.3428812 0.4444266
vt 0.337575 0.4404545
vt 0.324173 0.4426225
vt 0.3383633 0.437665
vt 0.3487635 0.4393781
vt 0.3458072 0.4330562
vt 0.3458072 0.4330562
vt 0.3513862 0.4318888
vt 0.3592394 0.4155912
vt 0.3592394 0.4155912
vt 0.3513862 0.4318888
vt 0.3562376 0.4332229
vt 0.3523414 0.4435776
vt 0.3487635 0.4393781
vt 0.3428812 0.4444266
vt 0.3428812 0.4444266
vt 0.3487635 0.4393781
vt 0.337575 0.4404545
vt 0.337575 0.4404545
vt 0.3487635 0.4393781
vt 0.3383633 0.437665
vt 0.3458072 0.4330562
vt 0.3487635 0.4393781
vt 0.3513862 0.4318888
vt 0.3513862 0.4318888
vt 0.3487635 0.4393781
vt 0.3562376 0.4332229
vt 0.3414561 0.3603764
vt 0.3278419 0.362029
vt 0.3530539 0.4050546
vt 0.3202616 0.3907127
vn 0.3186781 -0.8647336 0.3881753
vn 0.3186781 -0.8647336 0.3881753
vn 0.3186781 -0.8647336 0.3881753
vn -0.3377503 -0.8744154 -0.3483137
vn -0.3377503 -0.8744154 -0.3483137
vn -0.3377503 -0.8744154 -0.3483137
vn -0.2448046 -0.8260062 0.5077248
vn -0.2448046 -0.8260062 0.5077248
vn -0.2448046 -0.8260062 0.5077248
vn 0.6033241 -0.5103785 0.6127919
vn 0.6033241 -0.5103785 0.6127919
vn 0.6033241 -0.5103785 0.6127919
vn 0.2044325 -0.8337517 -0.5128991
vn 0.2044325 -0.8337517 -0.5128991
vn 0.2044325 -0.8337517 -0.5128991
vn 0.7311243 -0.32836 -0.5980276
vn 0.7311243 -0.32836 -0.5980276
vn 0.7311243 -0.32836 -0.5980276
vn 0.138596 -0.7988971 -0.5852816
vn 0.138596 -0.7988971 -0.5852816
vn 0.138596 -0.7988971 -0.5852816
vn -0.0434224 -0.7834061 -0.6199914
vn -0.0434224 -0.7834061 -0.6199914
vn -0.0434224 -0.7834061 -0.6199914
vn 0.8027698 -0.3380418 -0.4912111
vn 0.8027698 -0.3380418 -0.4912111
vn 0.8027698 -0.3380418 -0.4912111
vn -0.2273774 -0.6052604 -0.7628626
vn -0.2273774 -0.6052604 -0.7628626
vn -0.2273774 -0.6052604 -0.7628626
vn -0.6630598 -0.4348601 -0.6093016
vn -0.6630598 -0.4348601 -0.6093016
vn -0.6630598 -0.4348601 -0.6093016
vn -0.7134053 -0.5704058 -0.4070504
vn -0.7134053 -0.5704058 -0.4070504
vn -0.7134053 -0.5704058 -0.4070504
vn -0.4093958 -0.4580966 0.7890137
vn -0.4093958 -0.4580966 0.7890137
vn -0.4093958 -0.4580966 0.7890137
vn 0.2296053 -0.08244139 0.969786
vn 0.2296053 -0.08244139 0.969786
vn 0.2296053 -0.08244139 0.969786
vn 0.8395608 -0.2373507 0.488674
vn 0.8395608 -0.2373507 0.488674
vn 0.8395608 -0.2373507 0.488674
vn 0.734997 -0.03984129 -0.6768989
vn 0.734997 -0.03984129 -0.6768989
vn 0.734997 -0.03984129 -0.6768989
vn 0.6362423 -0.1792597 -0.7503744
vn 0.6362423 -0.1792597 -0.7503744
vn 0.6362423 -0.1792597 -0.7503744
vn -0.1286226 -0.03209585 -0.9911741
vn -0.1286226 -0.03209585 -0.9911741
vn -0.1286226 -0.03209585 -0.9911741
vn 0.1908779 -0.1463415 0.970644
vn 0.1908779 -0.1463415 0.970644
vn 0.1908779 -0.1463415 0.970644
vn 0.7272515 -0.1637688 0.6665471
vn 0.7272515 -0.1637688 0.6665471
vn 0.7272515 -0.1637688 0.6665471
vn 0.9905974 -0.1289142 0.04580401
vn 0.9905974 -0.1289142 0.04580401
vn 0.9905974 -0.1289142 0.04580401
vn 0.9538064 -0.2160507 -0.2087473
vn 0.9538064 -0.2160507 -0.2087473
vn 0.9538064 -0.2160507 -0.2087473
vn 0.6691605 -0.09986866 -0.7363766
vn 0.6691605 -0.09986866 -0.7363766
vn 0.6691605 -0.09986866 -0.7363766
vn 0.06695044 -0.2509053 -0.9656936
vn 0.06695044 -0.2509053 -0.9656936
vn 0.06695044 -0.2509053 -0.9656936
vn -0.5894778 0.1479862 -0.7941133
vn -0.5894778 0.1479862 -0.7941133
vn -0.5894778 0.1479862 -0.7941133
vn -0.8024783 -0.05726862 0.5939267
vn -0.8024783 -0.05726862 0.5939267
vn -0.8024783 -0.05726862 0.5939267
vn -0.7560055 0.3106411 -0.5761578
vn -0.7560055 0.3106411 -0.5761578
vn -0.7560055 0.3106411 -0.5761578
vn -0.9205965 -0.06501406 0.3850651
vn -0.9205965 -0.06501406 0.3850651
vn -0.9205965 -0.06501406 0.3850651
vn 0.9964065 -0.07856864 0.03163927
vn 0.9964065 -0.07856864 0.03163927
vn 0.9964065 -0.07856864 0.03163927
vn 0.5839604 0.4771686 -0.6567346
vn 0.5839604 0.4771686 -0.6567346
vn 0.5839604 0.4771686 -0.6567346
vn -0.8818693 -0.4561602 0.1192665
vn -0.8818693 -0.4561602 0.1192665
vn -0.8818693 -0.4561602 0.1192665
vn -0.5449415 0.4868504 0.6826532
vn -0.5449415 0.4868504 0.6826532
vn -0.5449415 0.4868504 0.6826532
vn 0.1618324 -0.03403223 0.9862313
vn 0.1618324 -0.03403223 0.9862313
vn 0.1618324 -0.03403223 0.9862313
vn 0.8686063 0.4945959 0.02996671
vn 0.8686063 0.4945959 0.02996671
vn 0.8686063 0.4945959 0.02996671
vn 0.01273221 0.3164502 -0.9485237
vn 0.01273221 0.3164502 -0.9485237
vn 0.01273221 0.3164502 -0.9485237
vn -0.3551775 -0.4387329 0.8254468
vn -0.3551775 -0.4387329 0.8254468
vn -0.3551775 -0.4387329 0.8254468
vn 0.967361 -0.1211687 -0.2225553
vn 0.967361 -0.1211687 -0.2225553
vn 0.967361 -0.1211687 -0.2225553
vn 0.967361 0.246741 0.05772019
vn 0.967361 0.246741 0.05772019
vn 0.967361 0.246741 0.05772019
vn 0.5065057 -0.08050501 -0.8584701
vn 0.5065057 -0.08050501 -0.8584701
vn 0.5065057 -0.08050501 -0.8584701
vn 0.8821608 0.4655504 0.07109912
vn 0.8821608 0.4655504 0.07109912
vn 0.8821608 0.4655504 0.07109912
vn 0.7853425 0.06472248 -0.6156688
vn 0.7853425 0.06472248 -0.6156688
vn 0.7853425 0.06472248 -0.6156688
vn -0.5178323 0.5062141 -0.6896354
vn -0.5178323 0.5062141 -0.6896354
vn -0.5178323 0.5062141 -0.6896354
vn -0.9844967 0.06859523 0.1614344
vn -0.9844967 0.06859523 0.1614344
vn -0.9844967 0.06859523 0.1614344
vn -0.3667957 -0.5200603 0.7713612
vn -0.3667957 -0.5200603 0.7713612
vn -0.3667957 -0.5200603 0.7713612
vn 0.2780144 0.1925227 0.9410861
vn 0.2780144 0.1925227 0.9410861
vn 0.2780144 0.1925227 0.9410861
vn 0.6730332 0.5294505 -0.5164382
vn 0.6730332 0.5294505 -0.5164382
vn 0.6730332 0.5294505 -0.5164382
vn -0.01824969 -0.0243504 -0.9995369
vn -0.01824969 -0.0243504 -0.9995369
vn -0.01824969 -0.0243504 -0.9995369
vn -0.928342 0.2777228 -0.2470852
vn -0.928342 0.2777228 -0.2470852
vn -0.928342 0.2777228 -0.2470852
vn -0.4403777 -0.3148054 -0.8408121
vn -0.4403777 -0.3148054 -0.8408121
vn -0.4403777 -0.3148054 -0.8408121
vn -0.3939049 0.2796592 0.8755739
vn -0.3939049 0.2796592 0.8755739
vn -0.3939049 0.2796592 0.8755739
vn 0.9112064 -0.3419145 0.2297768
vn 0.9112064 -0.3419145 0.2297768
vn 0.9112064 -0.3419145 0.2297768
vn 0.9499337 0.2854683 -0.127019
vn 0.9499337 0.2854683 -0.127019
vn 0.9499337 0.2854683 -0.127019
vn -0.9147875 0.3125774 0.25585
vn -0.9147875 0.3125774 0.25585
vn -0.9147875 0.3125774 0.25585
vn -0.02405876 0.5333232 0.8455694
vn -0.02405876 0.5333232 0.8455694
vn -0.02405876 0.5333232 0.8455694
vn 0.07082319 0.5275142 0.846589
vn 0.07082319 0.5275142 0.846589
vn 0.07082319 0.5275142 0.846589
vn 0.8860336 0.4384412 0.1507109
vn 0.8860336 0.4384412 0.1507109
vn 0.8860336 0.4384412 0.1507109
vn 0.8840972 0.4616777 -0.07228954
vn 0.8840972 0.4616777 -0.07228954
vn 0.8840972 0.4616777 -0.07228954
vn 0.9228246 0.289341 -0.2543159
vn 0.9228246 0.289341 -0.2543159
vn 0.9228246 0.289341 -0.2543159
vn 0.6536696 0.6611235 -0.3682823
vn 0.6536696 0.6611235 -0.3682823
vn 0.6536696 0.6611235 -0.3682823
vn 0.196687 0.6359507 -0.7462445
vn 0.196687 0.6359507 -0.7462445
vn 0.196687 0.6359507 -0.7462445
vn -0.5449415 0.7521327 -0.3705876
vn -0.5449415 0.7521327 -0.3705876
vn -0.5449415 0.7521327 -0.3705876
vn -0.4326321 0.6456326 -0.6292758
vn -0.4326321 0.6456326 -0.6292758
vn -0.4326321 0.6456326 -0.6292758
vn -0.7346234 0.6784751 0
vn -0.7346234 0.6784751 0
vn -0.7346234 0.6784751 0
vn -0.4539322 0.8818693 0.127484
vn -0.4539322 0.8818693 0.127484
vn -0.4539322 0.8818693 0.127484
vn 0.196687 0.6010961 0.7745952
vn 0.196687 0.6010961 0.7745952
vn 0.196687 0.6010961 0.7745952
vn -0.4616777 0.8702511 -0.1718041
vn -0.4616777 0.8702511 -0.1718041
vn -0.4616777 0.8702511 -0.1718041
vn 0.5219966 0.6262688 -0.5790569
vn 0.5219966 0.6262688 -0.5790569
vn 0.5219966 0.6262688 -0.5790569
vn -0.2080136 0.8140964 0.5421969
vn -0.2080136 0.8140964 0.5421969
vn -0.2080136 0.8140964 0.5421969
vn -0.4558685 0.8024783 -0.3849838
vn -0.4558685 0.8024783 -0.3849838
vn -0.4558685 0.8024783 -0.3849838
vn 0.03790498 0.5391323 -0.8413677
vn 0.03790498 0.5391323 -0.8413677
vn 0.03790498 0.5391323 -0.8413677
vn 0.7078879 0.6901689 -0.1502052
vn 0.7078879 0.6901689 -0.1502052
vn 0.7078879 0.6901689 -0.1502052
vn 0.4019419 0.8392692 -0.3661555
vn 0.4019419 0.8392692 -0.3661555
vn 0.4019419 0.8392692 -0.3661555
vn 0.4716161 0.881804 0
vn 0.4716161 0.881804 0
vn 0.4716161 0.881804 0
vn -0.1770318 0.9031693 -0.3910817
vn -0.1770318 0.9031693 -0.3910817
vn -0.1770318 0.9031693 -0.3910817
vn -0.08408612 0.5565596 -0.8265415
vn -0.08408612 0.5565596 -0.8265415
vn -0.08408612 0.5565596 -0.8265415
vn -0.09183162 0.9767513 0.1937109
vn -0.09183162 0.9767513 0.1937109
vn -0.09183162 0.9767513 0.1937109
vn 0.6730332 0.3706685 0.6400244
vn 0.6730332 0.3706685 0.6400244
vn 0.6730332 0.3706685 0.6400244
vn 0.6904606 0.362923 0.6257404
g Crystal_0
f 3/3/3 2/2/2 1/1/1
f 6/6/6 5/5/5 4/4/4
f 9/9/9 8/8/8 7/7/7
f 12/12/12 11/11/11 10/10/10
f 15/15/15 14/14/14 13/13/13
f 18/18/18 17/17/17 16/16/16
f 21/21/21 20/20/20 19/19/19
f 24/24/24 23/23/23 22/22/22
f 27/27/27 26/26/26 25/25/25
f 30/30/30 29/29/29 28/28/28
f 33/33/33 32/32/32 31/31/31
f 36/36/36 35/35/35 34/34/34
f 39/39/39 38/38/38 37/37/37
f 42/42/42 41/41/41 40/40/40
f 45/45/45 44/44/44 43/43/43
f 48/48/48 47/47/47 46/46/46
f 51/51/51 50/50/50 49/49/49
f 54/54/54 53/53/53 52/52/52
f 57/57/57 56/56/56 55/55/55
f 60/60/60 59/59/59 58/58/58
f 63/63/63 62/62/62 61/61/61
f 66/66/66 65/65/65 64/64/64
f 69/69/69 68/68/68 67/67/67
f 72/72/72 71/71/71 70/70/70
f 75/75/75 74/74/74 73/73/73
f 78/78/78 77/77/77 76/76/76
f 81/81/81 80/80/80 79/79/79
f 84/84/84 83/83/83 82/82/82
f 87/87/87 86/86/86 85/85/85
f 90/90/90 89/89/89 88/88/88
f 93/93/93 92/92/92 91/91/91
f 96/96/96 95/95/95 94/94/94
f 99/99/99 98/98/98 97/97/97
f 102/102/102 101/101/101 100/100/100
f 105/105/105 104/104/104 103/103/103
f 108/108/108 107/107/107 106/106/106
f 111/111/111 110/110/110 109/109/109
f 114/114/114 113/113/113 112/112/112
f 117/117/117 116/116/116 115/115/115
f 120/120/120 119/119/119 118/118/118
f 123/123/123 122/122/122 121/121/121
f 126/126/126 125/125/125 124/124/124
f 129/129/129 128/128/128 127/127/127
f 132/132/132 131/131/131 130/130/130
f 135/135/135 134/134/134 133/133/133
f 138/138/138 137/137/137 136/136/136
f 141/141/141 140/140/140 139/139/139
f 144/144/144 143/143/143 142/142/142
f 147/147/147 146/146/146 145/145/145
f 150/150/150 149/149/149 148/148/148
f 153/153/153 152/152/152 151/151/151
f 156/156/156 155/155/155 154/154/154
f 159/159/159 158/158/158 157/157/157
f 162/162/162 161/161/161 160/160/160
f 165/165/165 164/164/164 163/163/163
f 168/168/168 167/167/167 166/166/166
f 171/171/171 170/170/170 169/169/169
f 174/174/174 173/173/173 172/172/172
f 177/177/177 176/176/176 175/175/175
f 180/180/180 179/179/179 178/178/178
f 183/183/183 182/182/182 181/181/181
f 186/186/186 185/185/185 184/184/184
f 189/189/189 188/188/188 187/187/187
f 192/192/192 191/191/191 190/190/190
f 195/195/195 194/194/194 193/193/193
f 198/198/198 197/197/197 196/196/196
f 201/201/201 200/200/200 199/199/199
f 204/204/204 203/203/203 202/202/202
f 207/207/207 206/206/206 205/205/205
f 210/210/210 209/209/209 208/208/208
f 213/213/213 212/212/212 211/211/211
f 216/216/216 215/215/215 214/214/214
f 219/219/219 218/218/218 217/217/217
f 222/222/222 221/221/221 220/220/220
f 225/225/225 224/224/224 223/223/223
f 228/228/228 227/227/227 226/226/226
f 231/231/231 230/230/230 229/229/229
f 231/231/231 232/232/232 230/230/230
