g eyes_happy
v -0.08145234 0.07284433 0.4637206
v -0.04624945 0.1080472 0.4637206
v -0.04624945 0.1080472 0.4139358
v -0.08145234 0.07284433 0.4139358
v 0.184476 0.1079625 0.4637206
v 0.184476 0.1079625 0.4139358
v 0.1492731 0.07275963 0.4139358
v 0.1492731 0.07275963 0.4637206
v 0.1145654 0.1074674 0.4637206
v 0.1145654 0.1074674 0.4139358
v 0.07994296 0.07284433 0.4637206
v 0.07994296 0.07284433 0.4139358
v 0.04473947 0.1080472 0.4637206
v 0.04473947 0.1080472 0.4139358
v 0.1145654 0.1074674 0.4637206
v 0.07994296 0.07284433 0.4637206
v 0.04473947 0.1080472 0.4637206
v 0.1145654 0.1778731 0.4637206
v 0.184476 0.1079625 0.4637206
v 0.1492731 0.07275963 0.4637206
v 0.1145654 0.1778731 0.4139358
v 0.184476 0.1079625 0.4139358
v 0.184476 0.1079625 0.4637206
v 0.1145654 0.1778731 0.4637206
v 0.04473947 0.1080472 0.4637206
v 0.04473947 0.1080472 0.4139358
v 0.1145654 0.1074674 0.4139358
v 0.04473947 0.1080472 0.4139358
v 0.07994296 0.07284433 0.4139358
v 0.1145654 0.1778731 0.4139358
v 0.184476 0.1079625 0.4139358
v 0.1492731 0.07275963 0.4139358
v -0.1160747 0.1074674 0.4637206
v -0.1507825 0.07275963 0.4637206
v -0.185986 0.1079625 0.4637206
v -0.1160754 0.1778731 0.4637206
v -0.08145234 0.07284433 0.4637206
v -0.04624945 0.1080472 0.4637206
v -0.1160754 0.1778731 0.4139358
v -0.04624945 0.1080472 0.4139358
v -0.04624945 0.1080472 0.4637206
v -0.1160754 0.1778731 0.4637206
v -0.185986 0.1079625 0.4637206
v -0.185986 0.1079625 0.4139358
v -0.1160747 0.1074674 0.4139358
v -0.08145234 0.07284433 0.4139358
v -0.04624945 0.1080472 0.4139358
v -0.1160754 0.1778731 0.4139358
v -0.185986 0.1079625 0.4139358
v -0.1507825 0.07275963 0.4139358
v -0.1507825 0.07275963 0.4637206
v -0.185986 0.1079625 0.4139358
v -0.185986 0.1079625 0.4637206
v -0.1507825 0.07275963 0.4139358
v -0.1160747 0.1074674 0.4139358
v -0.1160747 0.1074674 0.4637206
v -0.08145234 0.07284433 0.4139358
v -0.08145234 0.07284433 0.4637206
vt 0.6944975 0.3841457
vt 0.6944975 0.3801084
vt 0.7002082 0.3801084
vt 0.7002082 0.3841457
vt 0.7061419 0.3801084
vt 0.7004313 0.3801084
vt 0.7004313 0.3841457
vt 0.7061419 0.3841457
vt 0.7061419 0.3881246
vt 0.7004313 0.3881246
vt 0.7061419 0.3920928
vt 0.7004313 0.3920928
vt 0.7061419 0.3961301
vt 0.7004313 0.3961301
vt 0.6793205 0.3719541
vt 0.6753522 0.3759224
vt 0.6793842 0.3799597
vt 0.6873897 0.3719541
vt 0.6793789 0.3639379
vt 0.6753416 0.3679752
vt 0.7120757 0.3881246
vt 0.7120757 0.3801084
vt 0.706365 0.3801084
vt 0.706365 0.3881246
vt 0.706365 0.3961301
vt 0.7120757 0.3961301
vt 0.695714 0.3719541
vt 0.695645 0.3799597
vt 0.6996822 0.3759224
vt 0.6876394 0.3719541
vt 0.6956556 0.3639379
vt 0.6996928 0.3679752
vt 0.7039108 0.3719435
vt 0.699932 0.3759224
vt 0.7039692 0.3799597
vt 0.7119854 0.3719435
vt 0.6999426 0.3679752
vt 0.7039745 0.3639379
vt 0.7002082 0.3881139
vt 0.7002082 0.3801084
vt 0.6944975 0.3801084
vt 0.6944975 0.3881139
vt 0.6944975 0.3961301
vt 0.7002082 0.3961301
vt 0.6902902 0.3881139
vt 0.6942638 0.3841457
vt 0.6902264 0.3801084
vt 0.6822209 0.3881139
vt 0.6902371 0.3961301
vt 0.6942744 0.3920928
vt 0.6819925 0.3880555
vt 0.6762872 0.3920928
vt 0.6819925 0.3920928
vt 0.6762872 0.3880555
vt 0.6762872 0.3840767
vt 0.6819925 0.3840767
vt 0.6762872 0.3801084
vt 0.6819925 0.3801084
vn 0.006094396 -0.6867174 0.7268989
vn 0.7897925 0.260592 0.5552654
vn 0.7897925 0.260592 -0.5552654
vn 0.006094396 -0.6867174 -0.7268989
vn 0.7897925 0.260592 0.5552654
vn 0.7897925 0.260592 -0.5552654
vn 0.004458308 -0.6867174 -0.7269108
vn 0.004458308 -0.6867174 0.7269108
vn -0.0004500151 -0.2989586 0.954266
vn -0.0004500151 -0.2989586 -0.954266
vn -0.005358398 -0.6867174 0.7269047
vn -0.005358398 -0.6867174 -0.7269047
vn -0.7890565 0.260592 0.5563107
vn -0.7890565 0.260592 -0.5563107
vn -0.0004500151 -0.2989586 0.954266
vn -0.005358398 -0.6867174 0.7269047
vn -0.7890565 0.260592 0.5563107
vn 0.001186073 0.883951 0.467578
vn 0.7897925 0.260592 0.5552654
vn 0.004458308 -0.6867174 0.7269108
vn 0.001186073 0.883951 -0.467578
vn 0.7897925 0.260592 -0.5552654
vn 0.7897925 0.260592 0.5552654
vn 0.001186073 0.883951 0.467578
vn -0.7890565 0.260592 0.5563107
vn -0.7890565 0.260592 -0.5563107
vn -0.0004500151 -0.2989586 -0.954266
vn -0.7890565 0.260592 -0.5563107
vn -0.005358398 -0.6867174 -0.7269047
vn 0.001186073 0.883951 -0.467578
vn 0.7897925 0.260592 -0.5552654
vn 0.004458308 -0.6867174 -0.7269108
vn -0.0004500151 -0.2989586 0.954266
vn -0.005358398 -0.6867174 0.7269047
vn -0.7890565 0.260592 0.5563107
vn -0.0004500151 0.883951 0.4675793
vn 0.006094396 -0.6867174 0.7268989
vn 0.7897925 0.260592 0.5552654
vn -0.0004500151 0.883951 -0.4675793
vn 0.7897925 0.260592 -0.5552654
vn 0.7897925 0.260592 0.5552654
vn -0.0004500151 0.883951 0.4675793
vn -0.7890565 0.260592 0.5563107
vn -0.7890565 0.260592 -0.5563107
vn -0.0004500151 -0.2989586 -0.954266
vn 0.006094396 -0.6867174 -0.7268989
vn 0.7897925 0.260592 -0.5552654
vn -0.0004500151 0.883951 -0.4675793
vn -0.7890565 0.260592 -0.5563107
vn -0.005358398 -0.6867174 -0.7269047
vn -0.005358398 -0.6867174 0.7269047
vn -0.7890565 0.260592 -0.5563107
vn -0.7890565 0.260592 0.5563107
vn -0.005358398 -0.6867174 -0.7269047
vn -0.0004500151 -0.2989586 -0.954266
vn -0.0004500151 -0.2989586 0.954266
vn 0.006094396 -0.6867174 -0.7268989
vn 0.006094396 -0.6867174 0.7268989
g eyes_happy_0
f 3/3/3 2/2/2 1/1/1
f 4/4/4 3/3/3 1/1/1
f 7/7/7 6/6/6 5/5/5
f 8/8/8 7/7/7 5/5/5
f 8/8/8 9/9/9 7/7/7
f 9/9/9 10/10/10 7/7/7
f 10/10/10 9/9/9 11/11/11
f 12/12/12 10/10/10 11/11/11
f 12/12/12 11/11/11 13/13/13
f 14/14/14 12/12/12 13/13/13
f 17/17/17 16/16/16 15/15/15
f 18/18/18 17/17/17 15/15/15
f 18/18/18 15/15/15 19/19/19
f 15/15/15 20/20/20 19/19/19
f 23/23/23 22/22/22 21/21/21
f 24/24/24 23/23/23 21/21/21
f 25/25/25 24/24/24 21/21/21
f 26/26/26 25/25/25 21/21/21
f 29/29/29 28/28/28 27/27/27
f 28/28/28 30/30/30 27/27/27
f 30/30/30 31/31/31 27/27/27
f 31/31/31 32/32/32 27/27/27
f 35/35/35 34/34/34 33/33/33
f 36/36/36 35/35/35 33/33/33
f 33/33/33 37/37/37 36/36/36
f 37/37/37 38/38/38 36/36/36
f 41/41/41 40/40/40 39/39/39
f 42/42/42 41/41/41 39/39/39
f 43/43/43 42/42/42 39/39/39
f 44/44/44 43/43/43 39/39/39
f 47/47/47 46/46/46 45/45/45
f 48/48/48 47/47/47 45/45/45
f 49/49/49 48/48/48 45/45/45
f 50/50/50 49/49/49 45/45/45
f 53/53/53 52/52/52 51/51/51
f 52/52/52 54/54/54 51/51/51
f 54/54/54 55/55/55 51/51/51
f 55/55/55 56/56/56 51/51/51
f 56/56/56 55/55/55 57/57/57
f 58/58/58 56/56/56 57/57/57
