g eyes_angry
v 0.07064913 0.08881146 0.413936
v 0.07064913 0.08881146 0.4637206
v 0.1734988 0.1056326 0.4593938
v 0.1734988 0.1056326 0.4096092
v 0.05930945 0.1261054 0.413936
v 0.1546339 0.1852073 0.4096092
v 0.05930945 0.1261054 0.4637206
v 0.1546339 0.1852073 0.4593938
v 0.07064913 0.08881146 0.4637206
v 0.07064913 0.08881146 0.413936
v 0.05930945 0.1261054 0.413936
v 0.1734988 0.1056326 0.4593938
v 0.1546339 0.1852073 0.4096092
v 0.1734988 0.1056326 0.4096092
v -0.1750089 0.1056326 0.4096092
v -0.1750089 0.1056326 0.4593938
v -0.07215925 0.08881146 0.4637206
v -0.07215925 0.08881146 0.413936
v -0.1561441 0.1852073 0.4096092
v -0.06081955 0.1261054 0.413936
v -0.1561441 0.1852073 0.4593938
v -0.06081955 0.1261054 0.4637206
v -0.1750089 0.1056326 0.4593938
v -0.1750089 0.1056326 0.4096092
v -0.1561441 0.1852073 0.4096092
v -0.07215925 0.08881146 0.4637206
v -0.06081955 0.1261054 0.413936
v -0.07215925 0.08881146 0.413936
vt 0.6826935 0.3886078
vt 0.6826935 0.3950451
vt 0.6891308 0.3950451
vt 0.6891308 0.3886078
vt 0.6826935 0.3821705
vt 0.6891308 0.3821705
vt 0.6826935 0.3757332
vt 0.6891308 0.3757332
vt 0.6826935 0.3692958
vt 0.6762562 0.3692958
vt 0.6762562 0.3757332
vt 0.6891308 0.3692958
vt 0.6955681 0.3757332
vt 0.6955681 0.3692958
vt 0.6826935 0.3886078
vt 0.6826935 0.3950451
vt 0.6891308 0.3950451
vt 0.6891308 0.3886078
vt 0.6826935 0.3821705
vt 0.6891308 0.3821705
vt 0.6826935 0.3757332
vt 0.6891308 0.3757332
vt 0.6826935 0.3692958
vt 0.6762562 0.3692958
vt 0.6762562 0.3757332
vt 0.6891308 0.3692958
vt 0.6955681 0.3757332
vt 0.6955681 0.3692958
vn -0.1390887 -0.6429266 -0.7531931
vn -0.08604765 -0.6198061 0.7800232
vn 0.564045 -0.4742833 0.6759502
vn 0.5259643 -0.4770033 -0.7041515
vn -0.5185361 0.4233342 -0.7429054
vn 0.1179563 0.7320602 -0.6709502
vn -0.462775 0.4328544 0.7736126
vn 0.1465169 0.7483805 0.6468843
vn -0.08604765 -0.6198061 0.7800232
vn -0.1390887 -0.6429266 -0.7531931
vn -0.5185361 0.4233342 -0.7429054
vn 0.564045 -0.4742833 0.6759502
vn 0.1179563 0.7320602 -0.6709502
vn 0.5259643 -0.4770033 -0.7041515
vn -0.5253361 -0.4770033 -0.7046203
vn -0.563417 -0.4742833 0.6764737
vn 0.0866757 -0.6198061 0.7799537
vn 0.1383567 -0.6429266 -0.7533278
vn -0.1186883 0.7320602 -0.6708211
vn 0.5178041 0.4233342 -0.7434158
vn -0.1472488 0.7483805 0.6467181
vn 0.462043 0.4328544 0.7740499
vn -0.563417 -0.4742833 0.6764737
vn -0.5253361 -0.4770033 -0.7046203
vn -0.1186883 0.7320602 -0.6708211
vn 0.0866757 -0.6198061 0.7799537
vn 0.5178041 0.4233342 -0.7434158
vn 0.1383567 -0.6429266 -0.7533278
g eyes_angry_0
f 3/3/3 2/2/2 1/1/1
f 4/4/4 3/3/3 1/1/1
f 4/4/4 1/1/1 5/5/5
f 6/6/6 4/4/4 5/5/5
f 6/6/6 5/5/5 7/7/7
f 8/8/8 6/6/6 7/7/7
f 8/8/8 7/7/7 9/9/9
f 9/9/9 7/7/7 10/10/10
f 7/7/7 11/11/11 10/10/10
f 12/12/12 8/8/8 9/9/9
f 13/13/13 8/8/8 12/12/12
f 14/14/14 13/13/13 12/12/12
f 17/17/17 16/16/16 15/15/15
f 18/18/18 17/17/17 15/15/15
f 18/18/18 15/15/15 19/19/19
f 20/20/20 18/18/18 19/19/19
f 20/20/20 19/19/19 21/21/21
f 22/22/22 20/20/20 21/21/21
f 22/22/22 21/21/21 23/23/23
f 23/23/23 21/21/21 24/24/24
f 21/21/21 25/25/25 24/24/24
f 26/26/26 22/22/22 23/23/23
f 27/27/27 22/22/22 26/26/26
f 28/28/28 27/27/27 26/26/26
