g Ice Rune
v -0.01658943 0.02975491 0.3570462
v -0.04198092 -0.05192626 0.1071301
v -0.0577887 0.04857981 0.07723793
v -0.01080182 -0.03035927 0.3606055
v 0.05961046 -0.04837874 0.1360183
v 0.04840809 -0.03714311 0.01346076
v -0.05267635 -0.05345586 0.001059592
v -0.0577887 0.04857981 0.07723793
v -0.01658943 0.02975491 0.3570462
v -0.01080182 -0.03035927 0.3606055
v 0.0003339648 -0.001885086 0.6529002
v 0.04323605 0.03480953 0.3644838
v 0.04236603 -0.01971865 0.3669274
v 0.05961046 -0.04837874 0.1360183
v -0.0577887 0.04857981 0.07723793
v -0.05846199 0.05133563 -0.01305908
v -0.05346119 -0.03949082 -0.1149196
v -0.05529809 0.04231268 -0.1036193
v -0.04628786 0.04450285 -0.2454538
v -0.04185468 -0.01098928 -0.2513657
v 0.01596656 0.003824204 -0.3732646
v 0.008473217 -0.0003799796 -0.2514225
v 0.009338319 0.050769 -0.246087
v 0.02592313 0.05638435 -0.09833378
v 0.02552289 -0.02359399 -0.1094725
v 0.04283676 0.06163177 0.0001357794
v 0.04840809 -0.03714311 0.01346076
v 0.04414225 0.05184746 0.1062964
v 0.05961046 -0.04837874 0.1360183
v 0.04323605 0.03480953 0.3644838
v 0.04840809 -0.03714311 0.01346076
v -0.01658943 0.02975491 0.3570462
v -0.0577887 0.04857981 0.07723793
v 0.04283676 0.06163177 0.0001357794
v -0.01658943 0.02975491 0.3570462
v 0.04323605 0.03480953 0.3644838
v 0.0003339648 -0.001885086 0.6529002
v 0.04236603 -0.01971865 0.3669274
v -0.01080182 -0.03035927 0.3606055
v 0.05961046 -0.04837874 0.1360183
v -0.0577887 0.04857981 0.07723793
v -0.05846199 0.05133563 -0.01305908
v 0.02592313 0.05638435 -0.09833378
v -0.05529809 0.04231268 -0.1036193
v -0.04628786 0.04450285 -0.2454538
v 0.009338319 0.050769 -0.246087
v 0.01596656 0.003824204 -0.3732646
v 0.008473217 -0.0003799796 -0.2514225
v -0.04185468 -0.01098928 -0.2513657
v -0.05346119 -0.03949082 -0.1149196
v 0.02552289 -0.02359399 -0.1094725
v -0.05267635 -0.05345586 0.001059592
v 0.04840809 -0.03714311 0.01346076
v -0.04198092 -0.05192626 0.1071301
vt 0.08735665 0.5001032
vt 0.05958283 0.3518245
vt 0.1041442 0.3317117
vt 0.06190742 0.503489
vt 0.01527407 0.3718261
vt 0.02063074 0.2981972
vt 0.06039138 0.2882823
vt 0.1041442 0.3317117
vt 0.08735665 0.5001032
vt 0.06190742 0.503489
vt 0.07734068 0.6776313
vt 0.06206913 0.5061168
vt 0.04177443 0.5085526
vt 0.01527407 0.3718261
vt 0.1041442 0.3317117
vt 0.1025069 0.2777812
vt 0.06222073 0.2188275
vt 0.09461342 0.2240124
vt 0.08660874 0.1396196
vt 0.06323142 0.1372343
vt 0.03829765 0.06586933
vt 0.04417988 0.1384067
vt 0.06345378 0.1406808
vt 0.06287768 0.2291669
vt 0.03221328 0.2239821
vt 0.06039138 0.2882823
vt 0.02063074 0.2981972
vt 0.05958283 0.3518245
vt 0.01527407 0.3718261
vt 0.06206913 0.5061168
vt 0.02063074 0.2981972
vt 0.08735665 0.5001032
vt 0.1041442 0.3317117
vt 0.06039138 0.2882823
vt 0.08735665 0.5001032
vt 0.06206913 0.5061168
vt 0.07734068 0.6776313
vt 0.04177443 0.5085526
vt 0.06190742 0.503489
vt 0.01527407 0.3718261
vt 0.1041442 0.3317117
vt 0.1025069 0.2777812
vt 0.06287768 0.2291669
vt 0.09461342 0.2240124
vt 0.08660874 0.1396196
vt 0.06345378 0.1406808
vt 0.03829765 0.06586933
vt 0.04417988 0.1384067
vt 0.06323142 0.1372343
vt 0.06222073 0.2188275
vt 0.03221328 0.2239821
vt 0.06039138 0.2882823
vt 0.02063074 0.2981972
vt 0.05958283 0.3518245
vn -0.7495379 0.6495255 0.1277092
vn -0.6279843 -0.7737271 0.08355889
vn -0.7680016 0.6310617 0.1092458
vn -0.5925954 -0.7921908 0.1458229
vn 0.7583405 -0.6506349 -0.03992203
vn 0.7752657 -0.6183232 -0.1289942
vn -0.6124732 -0.7904914 0
vn -0.7680016 0.6310617 0.1092458
vn -0.7495379 0.6495255 0.1277092
vn -0.5925954 -0.7921908 0.1458229
vn -0.04791284 -0.01978785 0.9986555
vn 0.6721761 0.726458 0.1429618
vn 0.7691111 -0.6229392 0.1428806
vn 0.7583405 -0.6506349 -0.03992203
vn -0.7680016 0.6310617 0.1092458
vn -0.7524682 0.6586287 0
vn -0.6187524 -0.7721884 -0.1444665
vn -0.7818496 0.6202912 -0.06284997
vn -0.7341513 0.6264457 -0.2618923
vn -0.6279843 -0.7198743 -0.2956632
vn 0.2490469 -0.1244162 -0.9604667
vn 0.7691111 -0.6337098 -0.08294604
vn 0.6090913 0.7726176 -0.1790801
vn 0.6337098 0.7618471 -0.1341677
vn 0.7552632 -0.6260165 -0.1941154
vn 0.6614055 0.7479991 -0.05513688
vn 0.7752657 -0.6183232 -0.1289942
vn 0.646019 0.7618471 0.04741862
vn 0.7583405 -0.6506349 -0.03992203
vn 0.6721761 0.726458 0.1429618
vn 0.7752657 -0.6183232 -0.1289942
vn -0.7495379 0.6495255 0.1277092
vn -0.7680016 0.6310617 0.1092458
vn 0.6614055 0.7479991 -0.05513688
vn -0.7495379 0.6495255 0.1277092
vn 0.6721761 0.726458 0.1429618
vn -0.04791284 -0.01978785 0.9986555
vn 0.7691111 -0.6229392 0.1428806
vn -0.5925954 -0.7921908 0.1458229
vn 0.7583405 -0.6506349 -0.03992203
vn -0.7680016 0.6310617 0.1092458
vn -0.7524682 0.6586287 0
vn 0.6337098 0.7618471 -0.1341677
vn -0.7818496 0.6202912 -0.06284997
vn -0.7341513 0.6264457 -0.2618923
vn 0.6090913 0.7726176 -0.1790801
vn 0.2490469 -0.1244162 -0.9604667
vn 0.7691111 -0.6337098 -0.08294604
vn -0.6279843 -0.7198743 -0.2956632
vn -0.6187524 -0.7721884 -0.1444665
vn 0.7552632 -0.6260165 -0.1941154
vn -0.6124732 -0.7904914 0
vn 0.7752657 -0.6183232 -0.1289942
vn -0.6279843 -0.7737271 0.08355889
g Ice Rune_0
f 3/3/3 2/2/2 1/1/1
f 2/2/2 5/5/5 4/4/4
f 5/5/5 2/2/2 6/6/6
f 2/2/2 8/8/8 7/7/7
f 10/10/10 9/9/9 2/2/2
f 11/11/11 9/9/9 10/10/10
f 13/13/13 12/12/12 11/11/11
f 13/13/13 14/14/14 12/12/12
f 16/16/16 7/7/7 15/15/15
f 7/7/7 16/16/16 17/17/17
f 18/18/18 17/17/17 16/16/16
f 18/18/18 19/19/19 17/17/17
f 20/20/20 17/17/17 19/19/19
f 20/20/20 19/19/19 21/21/21
f 21/21/21 23/23/23 22/22/22
f 23/23/23 24/24/24 22/22/22
f 25/25/25 22/22/22 24/24/24
f 24/24/24 26/26/26 25/25/25
f 27/27/27 25/25/25 26/26/26
f 26/26/26 28/28/28 27/27/27
f 28/28/28 30/30/30 29/29/29
f 29/29/29 31/31/31 28/28/28
f 33/33/33 32/32/32 28/28/28
f 28/28/28 34/34/34 33/33/33
f 36/36/36 28/28/28 35/35/35
f 35/35/35 37/37/37 36/36/36
f 39/39/39 38/38/38 37/37/37
f 38/38/38 39/39/39 40/40/40
f 42/42/42 41/41/41 34/34/34
f 34/34/34 43/43/43 42/42/42
f 44/44/44 42/42/42 43/43/43
f 44/44/44 43/43/43 45/45/45
f 46/46/46 45/45/45 43/43/43
f 45/45/45 46/46/46 47/47/47
f 49/49/49 47/47/47 48/48/48
f 49/49/49 48/48/48 50/50/50
f 51/51/51 50/50/50 48/48/48
f 50/50/50 51/51/51 52/52/52
f 53/53/53 52/52/52 51/51/51
f 52/52/52 53/53/53 54/54/54
