g Plane003
v -7 -12 0
v -5 -10 0
v -5 -12 0
v -7 -10 0
v -5 -12 0
v -3 -10 0
v -3 -12 0
v -5 -10 0
v -3 -12 0
v -0.9999998 -10 0
v -0.9999998 -12 0
v -3 -10 0
v 5 -12 0
v 7 -10 0
v 7 -12 0
v 5 -10 0
v -7 -10 0
v -5 -8 0
v -5 -10 0
v -7 -8 0
v -0.9999998 -10 0
v 1 -8 0
v 1 -10 0
v -0.9999998 -8 0
v 1 -10 0
v 3 -8 0
v 3 -10 0
v 1 -8 0
v 3 -10 0
v 5 -8 0
v 5 -10 0
v 3 -8 0
v 5 -10 0
v 7 -8 0
v 7 -10 0
v 5 -8 0
v -7 -8 0
v -5 -6 0
v -5 -8 0
v -7 -6 0
v -5 -8 0
v -3 -6 0
v -3 -8 0
v -5 -6 0
v -3 -8 0
v -0.9999998 -6 0
v -0.9999998 -8 0
v -3 -6 0
v -0.9999998 -8 0
v 1 -6 0
v 1 -8 0
v -0.9999998 -6 0
v 1 -8 0
v 3 -6 0
v 3 -8 0
v 1 -6 0
v 3 -8 0
v 5 -6 0
v 5 -8 0
v 3 -6 0
v 5 -8 0
v 7 -6 0
v 7 -8 0
v 5 -6 0
v -7 -6 0
v -5 -4 0
v -5 -6 0
v -7 -4 0
v -5 -6 0
v -3 -4 0
v -3 -6 0
v -5 -4 0
v 1 -6 0
v 3 -4 0
v 3 -6 0
v 1 -4 0
v 3 -6 0
v 5 -4 0
v 5 -6 0
v 3 -4 0
v 5 -6 0
v 7 -4 0
v 7 -6 0
v 5 -4 0
v -5 -4 0
v -3 -2 0
v -3 -4 0
v -5 -2 0
v -0.9999998 -4 0
v 1 -2 0
v 1 -4 0
v -0.9999998 -2 0
v 1 -4 0
v 3 -2 0
v 3 -4 0
v 1 -2 0
v 3 -4 0
v 5 -2 0
v 5 -4 0
v 3 -2 0
v 5 -4 0
v 7 -2 0
v 7 -4 0
v 5 -2 0
v -7 -2 0
v -5 0 0
v -5 -2 0
v -7 0 0
v -3 -2 0
v -0.9999998 0 0
v -0.9999998 -2 0
v -3 0 0
v -0.9999998 -2 0
v 1 0 0
v 1 -2 0
v -0.9999998 0 0
v 1 -2 0
v 3 0 0
v 3 -2 0
v 1 0 0
v 5 -2 0
v 7 0 0
v 7 -2 0
v 5 0 0
v -5 0 0
v -3 2 0
v -3 0 0
v -5 2 0
v 1 0 0
v 3 2 0
v 3 0 0
v 1 2 0
v 5 0 0
v 7 2 0
v 7 0 0
v 5 2 0
v -7 2 0
v -5 4 0
v -5 2 0
v -7 4 0
v -3 2 0
v -0.9999998 4 0
v -0.9999998 2 0
v -3 4 0
v 1 2 0
v 3 4 0
v 3 2 0
v 1 4 0
v 3 2 0
v 5 4 0
v 5 2 0
v 3 4 0
v 5 2 0
v 7 4 0
v 7 2 0
v 5 4 0
v -7 4 0
v -5 6 0
v -5 4 0
v -7 6 0
v -5 4 0
v -3 6 0
v -3 4 0
v -5 6 0
v 1 4 0
v 3 6 0
v 3 4 0
v 1 6 0
v 3 4 0
v 5 6 0
v 5 4 0
v 3 6 0
v 5 4 0
v 7 6 0
v 7 4 0
v 5 6 0
v -7 6 0
v -5 8 0
v -5 6 0
v -7 8 0
v -5 6 0
v -3 8 0
v -3 6 0
v -5 8 0
v -3 6 0
v -0.9999998 8 0
v -0.9999998 6 0
v -3 8 0
v -0.9999998 6 0
v 1 8 0
v 1 6 0
v -0.9999998 8 0
v 1 6 0
v 3 8 0
v 3 6 0
v 1 8 0
v 3 6 0
v 5 8 0
v 5 6 0
v 3 8 0
v -5 8 0
v -3 10 0
v -3 8 0
v -5 10 0
v 1 8 0
v 3 10 0
v 3 8 0
v 1 10 0
v 5 8 0
v 7 10 0
v 7 8 0
v 5 10 0
v -7 10 0
v -5 12 0
v -5 10 0
v -7 12 0
v -3 10 0
v -0.9999998 12 0
v -0.9999998 10 0
v -3 12 0
v -0.9999998 10 0
v 1 12 0
v 1 10 0
v -0.9999998 12 0
v 1 10 0
v 3 12 0
v 3 10 0
v 1 12 0
v 3 10 0
v 5 12 0
v 5 10 0
v 3 12 0
v -0.9999998 -12 0
v 1 -10 0
v 1 -12 0
v -0.9999998 -10 0
v 3 -12 0
v 5 -10 0
v 5 -12 0
v 3 -10 0
v -5 -10 0
v -3 -8 0
v -3 -10 0
v -5 -8 0
v -3 -10 0
v -0.9999998 -8 0
v -0.9999998 -10 0
v -3 -8 0
v -0.9999998 -6 0
v 1 -4 0
v 1 -6 0
v -0.9999998 -4 0
v -3 -4 0
v -0.9999998 -2 0
v -0.9999998 -4 0
v -3 -2 0
v 3 -2 0
v 5 0 0
v 5 -2 0
v 3 0 0
v -0.9999998 0 0
v 1 2 0
v 1 0 0
v -0.9999998 2 0
v 3 0 0
v 5 2 0
v 5 0 0
v 3 2 0
v -5 2 0
v -3 4 0
v -3 2 0
v -5 4 0
v -3 4 0
v -0.9999998 6 0
v -0.9999998 4 0
v -3 6 0
v -0.9999998 8 0
v 1 10 0
v 1 8 0
v -0.9999998 10 0
v 3 8 0
v 5 10 0
v 5 8 0
v 3 10 0
v -5 10 0
v -3 12 0
v -3 10 0
v -5 12 0
v 1 -12 0
v 3 -10 0
v 3 -12 0
v 1 -10 0
v -3 -6 0
v -0.9999998 -4 0
v -0.9999998 -6 0
v -3 -4 0
v -7 -4 0
v -5 -2 0
v -5 -4 0
v -7 -2 0
v -5 -2 0
v -3 0 0
v -3 -2 0
v -5 0 0
v -7 0 0
v -5 2 0
v -5 0 0
v -7 2 0
v -3 0 0
v -0.9999998 2 0
v -0.9999998 0 0
v -3 2 0
v -0.9999998 2 0
v 1 4 0
v 1 2 0
v -0.9999998 4 0
v -0.9999998 4 0
v 1 6 0
v 1 4 0
v -0.9999998 6 0
v 5 6 0
v 7 8 0
v 7 6 0
v 5 8 0
v -7 8 0
v -5 10 0
v -5 8 0
v -7 10 0
v -3 8 0
v -0.9999998 10 0
v -0.9999998 8 0
v -3 10 0
v 5 10 0
v 7 12 0
v 7 10 0
v 5 12 0
vt -2.384186E-07 1
vt 0.9999998 0
vt 0.9999998 1
vt -2.384186E-07 0
vt 0 1
vt 1 0
vt 1 1
vt 0 0
vt 0 1
vt 1 0
vt 1 1
vt 0 0
vt 0 1
vt 1 0
vt 1 1
vt 0 0
vt -2.384186E-07 1
vt 0.9999998 0
vt 0.9999998 1
vt -2.384186E-07 0
vt 0 1
vt 1 0
vt 1 1
vt 0 0
vt 0 1
vt 1 0
vt 1 1
vt 0 0
vt 1.192093E-07 1
vt 1 0
vt 1 1
vt 1.192093E-07 0
vt 0 1
vt 1 0
vt 1 1
vt 0 0
vt -2.384186E-07 1
vt 0.9999998 0
vt 0.9999998 1
vt -2.384186E-07 0
vt 0 1
vt 1 0
vt 1 1
vt 0 0
vt 0 1
vt 1 0
vt 1 1
vt 0 0
vt 0 1
vt 1 0
vt 1 1
vt 0 0
vt 0 1
vt 1 0
vt 1 1
vt 0 0
vt 1.192093E-07 1
vt 1 0
vt 1 1
vt 1.192093E-07 0
vt 0 0.9999995
vt 1 -2.384186E-07
vt 1 0.9999995
vt 0 -2.384186E-07
vt -2.384186E-07 1
vt 0.9999998 0
vt 0.9999998 1
vt -2.384186E-07 0
vt 0 1
vt 1 0
vt 1 1
vt 0 0
vt 0 1
vt 1 0
vt 1 1
vt 0 0
vt 1.192093E-07 1
vt 1 0
vt 1 1
vt 1.192093E-07 0
vt 0 0.9999998
vt 1 -1.192093E-07
vt 1 0.9999998
vt 0 -1.192093E-07
vt 0 1
vt 1 0
vt 1 1
vt 0 0
vt 0 1
vt 1 0
vt 1 1
vt 0 0
vt 0 1
vt 1 0
vt 1 1
vt 0 0
vt 1.192093E-07 1
vt 1 0
vt 1 1
vt 1.192093E-07 0
vt 0 0.9999998
vt 1 -5.960464E-08
vt 1 0.9999998
vt 0 -5.960464E-08
vt -2.384186E-07 1
vt 0.9999998 0
vt 0.9999998 1
vt -2.384186E-07 0
vt 0 1
vt 1 0
vt 1 1
vt 0 0
vt 0 1
vt 1 0
vt 1 1
vt 0 0
vt 0 1
vt 1 0
vt 1 1
vt 0 0
vt 0 0.9999999
vt 1 2.980232E-08
vt 1 0.9999999
vt 0 2.980232E-08
vt 0 1
vt 1 0
vt 1 1
vt 0 0
vt 0 1
vt 1 0
vt 1 1
vt 0 0
vt 0 1
vt 1 1.490116E-07
vt 1 1
vt 0 1.490116E-07
vt -2.384186E-07 1
vt 0.9999998 0
vt 0.9999998 1
vt -2.384186E-07 0
vt 0 1
vt 1 0
vt 1 1
vt 0 0
vt 0 1
vt 1 0
vt 1 1
vt 0 0
vt 1.192093E-07 1
vt 1 0
vt 1 1
vt 1.192093E-07 0
vt 0 1
vt 1 2.384186E-07
vt 1 1
vt 0 2.384186E-07
vt -2.384186E-07 1
vt 0.9999998 0
vt 0.9999998 1
vt -2.384186E-07 0
vt 0 1
vt 1 0
vt 1 1
vt 0 0
vt 0 1
vt 1 0
vt 1 1
vt 0 0
vt 1.192093E-07 1
vt 1 0
vt 1 1
vt 1.192093E-07 0
vt 0 1
vt 1 2.384186E-07
vt 1 1
vt 0 2.384186E-07
vt -2.384186E-07 1
vt 0.9999998 0
vt 0.9999998 1
vt -2.384186E-07 0
vt 0 1
vt 1 0
vt 1 1
vt 0 0
vt 0 1
vt 1 0
vt 1 1
vt 0 0
vt 0 1
vt 1 0
vt 1 1
vt 0 0
vt 0 1
vt 1 0
vt 1 1
vt 0 0
vt 1.192093E-07 1
vt 1 0
vt 1 1
vt 1.192093E-07 0
vt 0 1
vt 1 0
vt 1 1
vt 0 0
vt 0 1
vt 1 0
vt 1 1
vt 0 0
vt 0 1
vt 1 0
vt 1 1
vt 0 0
vt -2.384186E-07 1
vt 0.9999998 -4.768372E-07
vt 0.9999998 1
vt -2.384186E-07 -4.768372E-07
vt 0 1
vt 1 -4.768372E-07
vt 1 1
vt 0 -4.768372E-07
vt 0 1
vt 1 -4.768372E-07
vt 1 1
vt 0 -4.768372E-07
vt 0 1
vt 1 -4.768372E-07
vt 1 1
vt 0 -4.768372E-07
vt 1.192093E-07 1
vt 1 -4.768372E-07
vt 1 1
vt 1.192093E-07 -4.768372E-07
vt 0 1
vt 1 0
vt 1 1
vt 0 0
vt 1.192093E-07 1
vt 1 0
vt 1 1
vt 1.192093E-07 0
vt 0 1
vt 1 0
vt 1 1
vt 0 0
vt 0 1
vt 1 0
vt 1 1
vt 0 0
vt 0 1
vt 1 0
vt 1 1
vt 0 0
vt 0 1
vt 1 0
vt 1 1
vt 0 0
vt 1.192093E-07 1
vt 1 0
vt 1 1
vt 1.192093E-07 0
vt 0 1
vt 1 0
vt 1 1
vt 0 0
vt 1.192093E-07 1
vt 1 0
vt 1 1
vt 1.192093E-07 0
vt 0 1
vt 1 0
vt 1 1
vt 0 0
vt 0 1
vt 1 0
vt 1 1
vt 0 0
vt 0 1
vt 1 0
vt 1 1
vt 0 0
vt 1.192093E-07 1
vt 1 0
vt 1 1
vt 1.192093E-07 0
vt 0 1
vt 1 -4.768372E-07
vt 1 1
vt 0 -4.768372E-07
vt 0 1
vt 1 0
vt 1 1
vt 0 0
vt 0 1
vt 1 0
vt 1 1
vt 0 0
vt -2.384186E-07 1
vt 0.9999998 0
vt 0.9999998 1
vt -2.384186E-07 0
vt 0 1
vt 1 0
vt 1 1
vt 0 0
vt -2.384186E-07 1
vt 0.9999998 0
vt 0.9999998 1
vt -2.384186E-07 0
vt 0 1
vt 1 0
vt 1 1
vt 0 0
vt 0 1
vt 1 0
vt 1 1
vt 0 0
vt 0 1
vt 1 0
vt 1 1
vt 0 0
vt 0 1
vt 1 4.768372E-07
vt 1 1
vt 0 4.768372E-07
vt -2.384186E-07 1
vt 0.9999998 0
vt 0.9999998 1
vt -2.384186E-07 0
vt 0 1
vt 1 0
vt 1 1
vt 0 0
vt 0 1
vt 1 -4.768372E-07
vt 1 1
vt 0 -4.768372E-07
vn 0 0 1
vn 0 0 1
vn 0 0 1
vn 0 0 1
vn 0 0 1
vn 0 0 1
vn 0 0 1
vn 0 0 1
vn 0 0 1
vn 0 0 1
vn 0 0 1
vn 0 0 1
vn 0 0 1
vn 0 0 1
vn 0 0 1
vn 0 0 1
vn 0 0 1
vn 0 0 1
vn 0 0 1
vn 0 0 1
vn 0 0 1
vn 0 0 1
vn 0 0 1
vn 0 0 1
vn 0 0 1
vn 0 0 1
vn 0 0 1
vn 0 0 1
vn 0 0 1
vn 0 0 1
vn 0 0 1
vn 0 0 1
vn 0 0 1
vn 0 0 1
vn 0 0 1
vn 0 0 1
vn 0 0 1
vn 0 0 1
vn 0 0 1
vn 0 0 1
vn 0 0 1
vn 0 0 1
vn 0 0 1
vn 0 0 1
vn 0 0 1
vn 0 0 1
vn 0 0 1
vn 0 0 1
vn 0 0 1
vn 0 0 1
vn 0 0 1
vn 0 0 1
vn 0 0 1
vn 0 0 1
vn 0 0 1
vn 0 0 1
vn 0 0 1
vn 0 0 1
vn 0 0 1
vn 0 0 1
vn 0 0 1
vn 0 0 1
vn 0 0 1
vn 0 0 1
vn 0 0 1
vn 0 0 1
vn 0 0 1
vn 0 0 1
vn 0 0 1
vn 0 0 1
vn 0 0 1
vn 0 0 1
vn 0 0 1
vn 0 0 1
vn 0 0 1
vn 0 0 1
vn 0 0 1
vn 0 0 1
vn 0 0 1
vn 0 0 1
vn 0 0 1
vn 0 0 1
vn 0 0 1
vn 0 0 1
vn 0 0 1
vn 0 0 1
vn 0 0 1
vn 0 0 1
vn 0 0 1
vn 0 0 1
vn 0 0 1
vn 0 0 1
vn 0 0 1
vn 0 0 1
vn 0 0 1
vn 0 0 1
vn 0 0 1
vn 0 0 1
vn 0 0 1
vn 0 0 1
vn 0 0 1
vn 0 0 1
vn 0 0 1
vn 0 0 1
vn 0 0 1
vn 0 0 1
vn 0 0 1
vn 0 0 1
vn 0 0 1
vn 0 0 1
vn 0 0 1
vn 0 0 1
vn 0 0 1
vn 0 0 1
vn 0 0 1
vn 0 0 1
vn 0 0 1
vn 0 0 1
vn 0 0 1
vn 0 0 1
vn 0 0 1
vn 0 0 1
vn 0 0 1
vn 0 0 1
vn 0 0 1
vn 0 0 1
vn 0 0 1
vn 0 0 1
vn 0 0 1
vn 0 0 1
vn 0 0 1
vn 0 0 1
vn 0 0 1
vn 0 0 1
vn 0 0 1
vn 0 0 1
vn 0 0 1
vn 0 0 1
vn 0 0 1
vn 0 0 1
vn 0 0 1
vn 0 0 1
vn 0 0 1
vn 0 0 1
vn 0 0 1
vn 0 0 1
vn 0 0 1
vn 0 0 1
vn 0 0 1
vn 0 0 1
vn 0 0 1
vn 0 0 1
vn 0 0 1
vn 0 0 1
vn 0 0 1
vn 0 0 1
vn 0 0 1
vn 0 0 1
vn 0 0 1
vn 0 0 1
vn 0 0 1
vn 0 0 1
vn 0 0 1
vn 0 0 1
vn 0 0 1
vn 0 0 1
vn 0 0 1
vn 0 0 1
vn 0 0 1
vn 0 0 1
vn 0 0 1
vn 0 0 1
vn 0 0 1
vn 0 0 1
vn 0 0 1
vn 0 0 1
vn 0 0 1
vn 0 0 1
vn 0 0 1
vn 0 0 1
vn 0 0 1
vn 0 0 1
vn 0 0 1
vn 0 0 1
vn 0 0 1
vn 0 0 1
vn 0 0 1
vn 0 0 1
vn 0 0 1
vn 0 0 1
vn 0 0 1
vn 0 0 1
vn 0 0 1
vn 0 0 1
vn 0 0 1
vn 0 0 1
vn 0 0 1
vn 0 0 1
vn 0 0 1
vn 0 0 1
vn 0 0 1
vn 0 0 1
vn 0 0 1
vn 0 0 1
vn 0 0 1
vn 0 0 1
vn 0 0 1
vn 0 0 1
vn 0 0 1
vn 0 0 1
vn 0 0 1
vn 0 0 1
vn 0 0 1
vn 0 0 1
vn 0 0 1
vn 0 0 1
vn 0 0 1
vn 0 0 1
vn 0 0 1
vn 0 0 1
vn 0 0 1
vn 0 0 1
vn 0 0 1
vn 0 0 1
vn 0 0 1
vn 0 0 1
vn 0 0 1
vn 0 0 1
vn 0 0 1
vn 0 0 1
vn 0 0 1
vn 0 0 1
vn 0 0 1
vn 0 0 1
vn 0 0 1
vn 0 0 1
vn 0 0 1
vn 0 0 1
vn 0 0 1
vn 0 0 1
vn 0 0 1
vn 0 0 1
vn 0 0 1
vn 0 0 1
vn 0 0 1
vn 0 0 1
vn 0 0 1
vn 0 0 1
vn 0 0 1
vn 0 0 1
vn 0 0 1
vn 0 0 1
vn 0 0 1
vn 0 0 1
vn 0 0 1
vn 0 0 1
vn 0 0 1
vn 0 0 1
vn 0 0 1
vn 0 0 1
vn 0 0 1
vn 0 0 1
vn 0 0 1
vn 0 0 1
vn 0 0 1
vn 0 0 1
vn 0 0 1
vn 0 0 1
vn 0 0 1
vn 0 0 1
vn 0 0 1
vn 0 0 1
vn 0 0 1
vn 0 0 1
vn 0 0 1
vn 0 0 1
vn 0 0 1
vn 0 0 1
vn 0 0 1
vn 0 0 1
vn 0 0 1
vn 0 0 1
vn 0 0 1
vn 0 0 1
vn 0 0 1
vn 0 0 1
vn 0 0 1
vn 0 0 1
vn 0 0 1
vn 0 0 1
vn 0 0 1
vn 0 0 1
vn 0 0 1
vn 0 0 1
vn 0 0 1
vn 0 0 1
vn 0 0 1
vn 0 0 1
vn 0 0 1
vn 0 0 1
vn 0 0 1
vn 0 0 1
vn 0 0 1
vn 0 0 1
vn 0 0 1
vn 0 0 1
vn 0 0 1
vn 0 0 1
vn 0 0 1
vn 0 0 1
vn 0 0 1
vn 0 0 1
vn 0 0 1
vn 0 0 1
vn 0 0 1
vn 0 0 1
vn 0 0 1
vn 0 0 1
vn 0 0 1
vn 0 0 1
vn 0 0 1
vn 0 0 1
vn 0 0 1
vn 0 0 1
vn 0 0 1
vn 0 0 1
vn 0 0 1
vn 0 0 1
vn 0 0 1
vn 0 0 1
vn 0 0 1
vn 0 0 1
vn 0 0 1
vn 0 0 1
vn 0 0 1
vn 0 0 1
g Plane003_0
f 3/3/3 2/2/2 1/1/1
f 4/4/4 1/1/1 2/2/2
f 7/7/7 6/6/6 5/5/5
f 8/8/8 5/5/5 6/6/6
f 11/11/11 10/10/10 9/9/9
f 12/12/12 9/9/9 10/10/10
f 15/15/15 14/14/14 13/13/13
f 16/16/16 13/13/13 14/14/14
f 19/19/19 18/18/18 17/17/17
f 20/20/20 17/17/17 18/18/18
f 23/23/23 22/22/22 21/21/21
f 24/24/24 21/21/21 22/22/22
f 27/27/27 26/26/26 25/25/25
f 28/28/28 25/25/25 26/26/26
f 31/31/31 30/30/30 29/29/29
f 32/32/32 29/29/29 30/30/30
f 35/35/35 34/34/34 33/33/33
f 36/36/36 33/33/33 34/34/34
f 39/39/39 38/38/38 37/37/37
f 40/40/40 37/37/37 38/38/38
f 43/43/43 42/42/42 41/41/41
f 44/44/44 41/41/41 42/42/42
f 47/47/47 46/46/46 45/45/45
f 48/48/48 45/45/45 46/46/46
f 51/51/51 50/50/50 49/49/49
f 52/52/52 49/49/49 50/50/50
f 55/55/55 54/54/54 53/53/53
f 56/56/56 53/53/53 54/54/54
f 59/59/59 58/58/58 57/57/57
f 60/60/60 57/57/57 58/58/58
f 63/63/63 62/62/62 61/61/61
f 64/64/64 61/61/61 62/62/62
f 67/67/67 66/66/66 65/65/65
f 68/68/68 65/65/65 66/66/66
f 71/71/71 70/70/70 69/69/69
f 72/72/72 69/69/69 70/70/70
f 75/75/75 74/74/74 73/73/73
f 76/76/76 73/73/73 74/74/74
f 79/79/79 78/78/78 77/77/77
f 80/80/80 77/77/77 78/78/78
f 83/83/83 82/82/82 81/81/81
f 84/84/84 81/81/81 82/82/82
f 87/87/87 86/86/86 85/85/85
f 88/88/88 85/85/85 86/86/86
f 91/91/91 90/90/90 89/89/89
f 92/92/92 89/89/89 90/90/90
f 95/95/95 94/94/94 93/93/93
f 96/96/96 93/93/93 94/94/94
f 99/99/99 98/98/98 97/97/97
f 100/100/100 97/97/97 98/98/98
f 103/103/103 102/102/102 101/101/101
f 104/104/104 101/101/101 102/102/102
f 107/107/107 106/106/106 105/105/105
f 108/108/108 105/105/105 106/106/106
f 111/111/111 110/110/110 109/109/109
f 112/112/112 109/109/109 110/110/110
f 115/115/115 114/114/114 113/113/113
f 116/116/116 113/113/113 114/114/114
f 119/119/119 118/118/118 117/117/117
f 120/120/120 117/117/117 118/118/118
f 123/123/123 122/122/122 121/121/121
f 124/124/124 121/121/121 122/122/122
f 127/127/127 126/126/126 125/125/125
f 128/128/128 125/125/125 126/126/126
f 131/131/131 130/130/130 129/129/129
f 132/132/132 129/129/129 130/130/130
f 135/135/135 134/134/134 133/133/133
f 136/136/136 133/133/133 134/134/134
f 139/139/139 138/138/138 137/137/137
f 140/140/140 137/137/137 138/138/138
f 143/143/143 142/142/142 141/141/141
f 144/144/144 141/141/141 142/142/142
f 147/147/147 146/146/146 145/145/145
f 148/148/148 145/145/145 146/146/146
f 151/151/151 150/150/150 149/149/149
f 152/152/152 149/149/149 150/150/150
f 155/155/155 154/154/154 153/153/153
f 156/156/156 153/153/153 154/154/154
f 159/159/159 158/158/158 157/157/157
f 160/160/160 157/157/157 158/158/158
f 163/163/163 162/162/162 161/161/161
f 164/164/164 161/161/161 162/162/162
f 167/167/167 166/166/166 165/165/165
f 168/168/168 165/165/165 166/166/166
f 171/171/171 170/170/170 169/169/169
f 172/172/172 169/169/169 170/170/170
f 175/175/175 174/174/174 173/173/173
f 176/176/176 173/173/173 174/174/174
f 179/179/179 178/178/178 177/177/177
f 180/180/180 177/177/177 178/178/178
f 183/183/183 182/182/182 181/181/181
f 184/184/184 181/181/181 182/182/182
f 187/187/187 186/186/186 185/185/185
f 188/188/188 185/185/185 186/186/186
f 191/191/191 190/190/190 189/189/189
f 192/192/192 189/189/189 190/190/190
f 195/195/195 194/194/194 193/193/193
f 196/196/196 193/193/193 194/194/194
f 199/199/199 198/198/198 197/197/197
f 200/200/200 197/197/197 198/198/198
f 203/203/203 202/202/202 201/201/201
f 204/204/204 201/201/201 202/202/202
f 207/207/207 206/206/206 205/205/205
f 208/208/208 205/205/205 206/206/206
f 211/211/211 210/210/210 209/209/209
f 212/212/212 209/209/209 210/210/210
f 215/215/215 214/214/214 213/213/213
f 216/216/216 213/213/213 214/214/214
f 219/219/219 218/218/218 217/217/217
f 220/220/220 217/217/217 218/218/218
f 223/223/223 222/222/222 221/221/221
f 224/224/224 221/221/221 222/222/222
f 227/227/227 226/226/226 225/225/225
f 228/228/228 225/225/225 226/226/226
f 231/231/231 230/230/230 229/229/229
f 232/232/232 229/229/229 230/230/230
g Plane003_1
f 235/235/235 234/234/234 233/233/233
f 236/236/236 233/233/233 234/234/234
f 239/239/239 238/238/238 237/237/237
f 240/240/240 237/237/237 238/238/238
f 243/243/243 242/242/242 241/241/241
f 244/244/244 241/241/241 242/242/242
f 247/247/247 246/246/246 245/245/245
f 248/248/248 245/245/245 246/246/246
f 251/251/251 250/250/250 249/249/249
f 252/252/252 249/249/249 250/250/250
f 255/255/255 254/254/254 253/253/253
f 256/256/256 253/253/253 254/254/254
f 259/259/259 258/258/258 257/257/257
f 260/260/260 257/257/257 258/258/258
f 263/263/263 262/262/262 261/261/261
f 264/264/264 261/261/261 262/262/262
f 267/267/267 266/266/266 265/265/265
f 268/268/268 265/265/265 266/266/266
f 271/271/271 270/270/270 269/269/269
f 272/272/272 269/269/269 270/270/270
f 275/275/275 274/274/274 273/273/273
f 276/276/276 273/273/273 274/274/274
f 279/279/279 278/278/278 277/277/277
f 280/280/280 277/277/277 278/278/278
f 283/283/283 282/282/282 281/281/281
f 284/284/284 281/281/281 282/282/282
f 287/287/287 286/286/286 285/285/285
f 288/288/288 285/285/285 286/286/286
g Plane003_2
f 291/291/291 290/290/290 289/289/289
f 292/292/292 289/289/289 290/290/290
f 295/295/295 294/294/294 293/293/293
f 296/296/296 293/293/293 294/294/294
f 299/299/299 298/298/298 297/297/297
f 300/300/300 297/297/297 298/298/298
f 303/303/303 302/302/302 301/301/301
f 304/304/304 301/301/301 302/302/302
f 307/307/307 306/306/306 305/305/305
f 308/308/308 305/305/305 306/306/306
f 311/311/311 310/310/310 309/309/309
f 312/312/312 309/309/309 310/310/310
f 315/315/315 314/314/314 313/313/313
f 316/316/316 313/313/313 314/314/314
f 319/319/319 318/318/318 317/317/317
f 320/320/320 317/317/317 318/318/318
f 323/323/323 322/322/322 321/321/321
f 324/324/324 321/321/321 322/322/322
f 327/327/327 326/326/326 325/325/325
f 328/328/328 325/325/325 326/326/326
f 331/331/331 330/330/330 329/329/329
f 332/332/332 329/329/329 330/330/330
f 335/335/335 334/334/334 333/333/333
f 336/336/336 333/333/333 334/334/334
