g Pumpkin
v 0.05918156 0.05918151 0.225344
v 0.1441216 1.639128E-07 0.1737328
v 0.08369537 1.639128E-07 0.225344
v 0.1019095 0.1019094 0.1737328
v 0.1631597 1.639128E-07 0.1005771
v -1.639128E-07 0.08369532 0.225344
v 0.1153715 0.1153714 0.1005771
v 0.1445414 1.639128E-07 0.04742645
v -1.639128E-07 0.1441216 0.1737328
v -0.05918151 0.05918151 0.225344
v 0.1022062 0.1022062 0.04742645
v 0.09362569 1.639128E-07 -0.005724162
v -0.1019094 0.1019094 0.1737328
v -0.08369532 1.639128E-07 0.225344
v -0.1441219 1.639128E-07 0.1737328
v -1.639128E-07 0.1631597 0.1005771
v -0.1153714 0.1153714 0.1005771
v -0.1631597 1.639128E-07 0.1005771
v 0.0662034 0.06620334 -0.005724162
v -1.639128E-07 1.639128E-07 -0.02293789
v -1.639128E-07 0.1445414 0.04742645
v -0.1022062 0.1022062 0.04742645
v -0.1445414 1.639128E-07 0.04742645
v -1.639128E-07 0.09362563 -0.005724162
v -0.06620334 0.06620334 -0.005724162
v -0.09362563 1.639128E-07 -0.005724162
v -0.05918151 -0.05918156 0.225344
v -0.1441219 1.639128E-07 0.1737328
v -0.08369532 1.639128E-07 0.225344
v -0.1019094 -0.1019095 0.1737328
v -0.1631597 1.639128E-07 0.1005771
v -1.639128E-07 -0.08369537 0.225344
v -0.1153714 -0.1153715 0.1005771
v -0.1445414 1.639128E-07 0.04742645
v -1.639128E-07 -0.1441216 0.1737328
v 0.05918156 -0.05918156 0.225344
v -0.1022062 -0.1022062 0.04742645
v -0.09362563 1.639128E-07 -0.005724162
v 0.1019095 -0.1019095 0.1737328
v 0.08369537 1.639128E-07 0.225344
v 0.1441216 1.639128E-07 0.1737328
v -1.639128E-07 -0.1631597 0.1005771
v 0.1153715 -0.1153715 0.1005771
v 0.1631597 1.639128E-07 0.1005771
v -0.06620334 -0.0662034 -0.005724162
v -1.639128E-07 1.639128E-07 -0.02293789
v -1.639128E-07 -0.1445414 0.04742645
v 0.1022062 -0.1022062 0.04742645
v 0.1445414 1.639128E-07 0.04742645
v -1.639128E-07 -0.09362569 -0.005724162
v 0.0662034 -0.0662034 -0.005724162
v 0.09362569 1.639128E-07 -0.005724162
v 0.08369537 1.639128E-07 0.225344
v -1.639128E-07 1.639128E-07 0.1025826
v 0.05918156 0.05918151 0.225344
v 0.05918156 -0.05918156 0.225344
v -1.639128E-07 0.08369532 0.225344
v -1.639128E-07 -0.08369537 0.225344
v -0.05918151 0.05918151 0.225344
v -0.05918151 -0.05918156 0.225344
v -0.08369532 1.639128E-07 0.225344
vt 0.4528244 0.5645081
vt 0.4931836 0.4630501
vt 0.4528244 0.5203337
vt 0.4931836 0.5390992
vt 0.5378903 0.4449944
vt 0.4528244 0.599699
vt 0.5378903 0.5310917
vt 0.570364 0.4626508
vt 0.4931836 0.599699
vt 0.4528244 0.6348788
vt 0.570364 0.5389218
vt 0.6028376 0.5109288
vt 0.4931836 0.6602876
vt 0.4528244 0.6790531
vt 0.4931836 0.7363368
vt 0.5378903 0.599699
vt 0.5378903 0.6682951
vt 0.5378903 0.7543924
vt 0.6028376 0.5603269
vt 0.6262613 0.599699
vt 0.570364 0.599699
vt 0.570364 0.6604651
vt 0.570364 0.7367361
vt 0.6028376 0.599699
vt 0.6028376 0.63906
vt 0.6028376 0.6884692
vt 0.4470905 0.6348788
vt 0.4067314 0.7363368
vt 0.4470905 0.6790531
vt 0.4067314 0.6602876
vt 0.3620246 0.7543924
vt 0.4470905 0.599699
vt 0.3620246 0.6682951
vt 0.329551 0.7367361
vt 0.4067314 0.599699
vt 0.4470905 0.5645081
vt 0.329551 0.6604651
vt 0.2970773 0.6884692
vt 0.4067314 0.5390992
vt 0.4470905 0.5203337
vt 0.4067314 0.4630501
vt 0.3620246 0.599699
vt 0.3620246 0.5310917
vt 0.3620246 0.4449944
vt 0.2970773 0.63906
vt 0.2736537 0.599699
vt 0.329551 0.599699
vt 0.329551 0.5389218
vt 0.329551 0.4626508
vt 0.2970773 0.599699
vt 0.2970773 0.5603269
vt 0.2970773 0.5109288
vt 0.5375909 0.02756149
vt 0.5375909 0.07785794
vt 0.5731589 0.04228998
vt 0.502034 0.04228998
vt 0.5878873 0.07785794
vt 0.4873055 0.07785794
vt 0.5731589 0.1134148
vt 0.502034 0.1134148
vt 0.5375909 0.1281433
vn 0.03809488 0.03809494 0.9985477
vn 0.8664143 0.0009767413 0.4993248
vn 0.05372351 0.0009767413 0.9985554
vn 0.6124485 0.6124484 0.4998138
vn 0.999258 0.0009767413 -0.03850384
vn -0.0009767413 0.05372351 0.9985554
vn 0.7062204 0.7062204 -0.05005329
vn 0.8644607 0.0009767413 -0.5026994
vn -0.0009767413 0.8664144 0.4993248
vn -0.03809494 0.03809494 0.9985477
vn 0.6124485 0.6124484 -0.4998138
vn 0.5303979 0.0009767413 -0.8477483
vn -0.6124484 0.6124484 0.4998139
vn -0.05372351 0.0009767413 0.9985554
vn -0.8664144 0.0009767413 0.4993248
vn -0.0009767413 0.999258 -0.03850385
vn -0.7062204 0.7062204 -0.05005329
vn -0.999258 0.0009767413 -0.03850384
vn 0.3741112 0.3741112 -0.8485762
vn -0.0009767413 0.0009767413 -0.999999
vn -0.0009767413 0.8644608 -0.5026994
vn -0.6124484 0.6124484 -0.4998139
vn -0.8644608 0.0009767413 -0.5026994
vn -0.0009767413 0.530398 -0.8477482
vn -0.3741112 0.3741112 -0.8485762
vn -0.530398 0.0009767413 -0.8477482
vn -0.03809494 -0.03809488 0.9985477
vn -0.8664144 0.0009767413 0.4993248
vn -0.05372351 0.0009767413 0.9985554
vn -0.6124484 -0.6124485 0.4998138
vn -0.999258 0.0009767413 -0.03850384
vn 0.0009768009 -0.05372351 0.9985554
vn -0.7062204 -0.7062204 -0.05005329
vn -0.8644608 0.0009767413 -0.5026994
vn 0.0009768009 -0.8664143 0.4993248
vn 0.03809488 -0.03809488 0.9985477
vn -0.6124484 -0.6124485 -0.4998138
vn -0.530398 0.0009767413 -0.8477482
vn 0.6124485 -0.6124485 0.4998138
vn 0.05372351 0.0009767413 0.9985554
vn 0.8664143 0.0009767413 0.4993248
vn -0.0009767413 -0.999258 -0.03850385
vn 0.7062204 -0.7062204 -0.05005329
vn 0.999258 0.0009767413 -0.03850384
vn -0.3741112 -0.3741112 -0.8485762
vn -0.0009767413 0.0009767413 -0.999999
vn -0.0009767413 -0.8644607 -0.5026994
vn 0.6124485 -0.6124485 -0.4998138
vn 0.8644607 0.0009767413 -0.5026994
vn 0.0009768009 -0.5303979 -0.8477483
vn 0.3741112 -0.3741112 -0.8485762
vn 0.5303979 0.0009767413 -0.8477483
vn 0.05372351 0.0009767413 0.9985554
vn 0.0009768009 -0.0009768009 0.999999
vn 0.03809488 0.03809494 0.9985477
vn 0.03809488 -0.03809488 0.9985477
vn -0.0009767413 0.05372351 0.9985554
vn 0.0009768009 -0.05372351 0.9985554
vn -0.03809494 0.03809494 0.9985477
vn -0.03809494 -0.03809488 0.9985477
vn -0.05372351 0.0009767413 0.9985554
g Pumpkin_0
f 3/3/3 2/2/2 1/1/1
f 4/4/4 1/1/1 2/2/2
f 2/2/2 5/5/5 4/4/4
f 1/1/1 4/4/4 6/6/6
f 7/7/7 4/4/4 5/5/5
f 5/5/5 8/8/8 7/7/7
f 9/9/9 6/6/6 4/4/4
f 4/4/4 7/7/7 9/9/9
f 6/6/6 9/9/9 10/10/10
f 11/11/11 7/7/7 8/8/8
f 8/8/8 12/12/12 11/11/11
f 13/13/13 10/10/10 9/9/9
f 10/10/10 13/13/13 14/14/14
f 15/15/15 14/14/14 13/13/13
f 16/16/16 9/9/9 7/7/7
f 9/9/9 16/16/16 13/13/13
f 7/7/7 11/11/11 16/16/16
f 13/13/13 17/17/17 15/15/15
f 17/17/17 13/13/13 16/16/16
f 18/18/18 15/15/15 17/17/17
f 19/19/19 11/11/11 12/12/12
f 19/19/19 12/12/12 20/20/20
f 21/21/21 16/16/16 11/11/11
f 16/16/16 21/21/21 17/17/17
f 11/11/11 19/19/19 21/21/21
f 17/17/17 22/22/22 18/18/18
f 22/22/22 17/17/17 21/21/21
f 23/23/23 18/18/18 22/22/22
f 24/24/24 21/21/21 19/19/19
f 24/24/24 19/19/19 20/20/20
f 21/21/21 24/24/24 22/22/22
f 22/22/22 25/25/25 23/23/23
f 25/25/25 22/22/22 24/24/24
f 25/25/25 24/24/24 20/20/20
f 26/26/26 23/23/23 25/25/25
f 26/26/26 25/25/25 20/20/20
f 29/29/29 28/28/28 27/27/27
f 30/30/30 27/27/27 28/28/28
f 28/28/28 31/31/31 30/30/30
f 27/27/27 30/30/30 32/32/32
f 33/33/33 30/30/30 31/31/31
f 31/31/31 34/34/34 33/33/33
f 35/35/35 32/32/32 30/30/30
f 30/30/30 33/33/33 35/35/35
f 32/32/32 35/35/35 36/36/36
f 37/37/37 33/33/33 34/34/34
f 34/34/34 38/38/38 37/37/37
f 39/39/39 36/36/36 35/35/35
f 36/36/36 39/39/39 40/40/40
f 41/41/41 40/40/40 39/39/39
f 42/42/42 35/35/35 33/33/33
f 35/35/35 42/42/42 39/39/39
f 33/33/33 37/37/37 42/42/42
f 39/39/39 43/43/43 41/41/41
f 43/43/43 39/39/39 42/42/42
f 44/44/44 41/41/41 43/43/43
f 45/45/45 37/37/37 38/38/38
f 45/45/45 38/38/38 46/46/46
f 47/47/47 42/42/42 37/37/37
f 42/42/42 47/47/47 43/43/43
f 37/37/37 45/45/45 47/47/47
f 43/43/43 48/48/48 44/44/44
f 48/48/48 43/43/43 47/47/47
f 49/49/49 44/44/44 48/48/48
f 50/50/50 47/47/47 45/45/45
f 50/50/50 45/45/45 46/46/46
f 47/47/47 50/50/50 48/48/48
f 48/48/48 51/51/51 49/49/49
f 51/51/51 48/48/48 50/50/50
f 51/51/51 50/50/50 46/46/46
f 52/52/52 49/49/49 51/51/51
f 52/52/52 51/51/51 46/46/46
f 55/55/55 54/54/54 53/53/53
f 53/53/53 54/54/54 56/56/56
f 57/57/57 54/54/54 55/55/55
f 56/56/56 54/54/54 58/58/58
f 59/59/59 54/54/54 57/57/57
f 58/58/58 54/54/54 60/60/60
f 61/61/61 54/54/54 59/59/59
f 60/60/60 54/54/54 61/61/61
