g ShieldMesh
v -22.01108 4.560413 -52.91309
v -34.15039 26.27096 -21.93076
v -29.30243 3.634224 -52.96451
v 34.1004 26.47165 -21.66682
v 22.32904 4.690843 -52.7416
v 29.62585 3.807528 -52.73663
v 34.1004 26.47165 -21.66682
v 36.54111 37.51062 5.716797
v 26.18372 27.58542 -21.22366
v -36.86774 37.29472 5.432922
v -34.15039 26.27096 -21.93076
v -26.24408 27.43124 -21.42636
v 22.32904 4.690843 -52.7416
v 0.3945923 -27.88903 -89.02634
v 15.71277 -9.300571 -49.54605
v 15.71277 -9.300571 -49.54605
v 0.3945923 -27.88903 -89.02634
v 0.2059326 -18.80644 -47.14752
v 0.2059326 -18.80644 -47.14752
v 0.3945923 -27.88903 -89.02634
v -15.33752 -9.391905 -49.66614
v -15.33752 -9.391905 -49.66614
v 0.3945923 -27.88903 -89.02634
v -22.01108 4.560413 -52.91309
v 17.45111 5.027564 -52.60651
v 12.30774 -5.84453 -50.44714
v 0.3629456 -23.59838 -84.10188
v 12.30774 -5.84453 -50.44714
v 0.196167 -12.77977 -49.22054
v 0.3629456 -23.59838 -84.10188
v 0.196167 -12.77977 -49.22054
v -11.94604 -5.915892 -50.54096
v 0.3629456 -23.59838 -84.10188
v -11.94604 -5.915892 -50.54096
v -17.13641 4.925829 -52.74026
v 0.3629456 -23.59838 -84.10188
v 28.05035 -2.2633 12.39444
v 29.74765 -2.383345 44.90814
v 47.1188 35.29749 33.51073
v 42.11719 35.33538 5.512817
v -42.42917 35.0867 5.185837
v -47.64691 35.01879 33.14426
v -30.14313 -2.559491 44.67651
v -28.19501 -2.428734 12.17691
v -0.1344604 -36.23965 54.11154
v 29.74765 -2.383345 44.90814
v 28.05035 -2.2633 12.39444
v -0.01553345 -28.1688 17.23285
v -39.78876 24.24053 -21.45134
v -42.42917 35.0867 5.185837
v -28.19501 -2.428734 12.17691
v -27.35303 -5.628584 -14.43201
v 27.43298 -5.467464 -14.22015
v 0.08331299 -27.31956 -8.974716
v -0.01553345 -28.1688 17.23285
v 28.05035 -2.2633 12.39444
v 27.43298 -5.467464 -14.22015
v 28.05035 -2.2633 12.39444
v 42.11719 35.33538 5.512817
v 39.74677 24.47451 -21.14369
v -28.19501 -2.428734 12.17691
v -0.01553345 -28.1688 17.23285
v 0.08331299 -27.31956 -8.974716
v -27.35303 -5.628584 -14.43201
v -30.14313 -2.559491 44.67651
v -0.1344604 -36.23965 54.11154
v -0.01553345 -28.1688 17.23285
v -28.19501 -2.428734 12.17691
v 22.75696 1.011421 12.53925
v 36.54111 37.51062 5.716797
v 41.73956 37.876 34.25841
v 24.47485 0.8397446 45.42258
v -36.86774 37.29472 5.432922
v -22.9223 0.8770876 12.36261
v -24.89346 0.6945543 45.23166
v -42.28888 37.62885 33.93347
v -0.1591797 -28.51852 54.64319
v -0.03479004 -22.18542 17.6575
v 22.75696 1.011421 12.53925
v 24.47485 0.8397446 45.42258
v -24.89346 0.6945543 45.23166
v -22.9223 0.8770876 12.36261
v -0.03479004 -22.18542 17.6575
v -0.1591797 -28.51852 54.64319
v 36.54111 37.51062 5.716797
v 42.11719 35.33538 5.512817
v 47.1188 35.29749 33.51073
v 41.73956 37.876 34.25841
v 41.73956 37.876 34.25841
v 47.1188 35.29749 33.51073
v 29.74765 -2.383345 44.90814
v 24.47485 0.8397446 45.42258
v -24.89346 0.6945543 45.23166
v -30.14313 -2.559491 44.67651
v -47.64691 35.01879 33.14426
v -42.28888 37.62885 33.93347
v -42.28888 37.62885 33.93347
v -47.64691 35.01879 33.14426
v -42.42917 35.0867 5.185837
v -36.86774 37.29472 5.432922
v 24.47485 0.8397446 45.42258
v 29.74765 -2.383345 44.90814
v -0.1344604 -36.23965 54.11154
v -0.1591797 -28.51852 54.64319
v -34.15039 26.27096 -21.93076
v -39.78876 24.24053 -21.45134
v -27.35303 -5.628584 -14.43201
v -22.19244 -2.336866 -14.92799
v -36.86774 37.29472 5.432922
v -42.42917 35.0867 5.185837
v -39.78876 24.24053 -21.45134
v -34.15039 26.27096 -21.93076
v 0.06951904 -20.57592 -10.54645
v 0.08331299 -27.31956 -8.974716
v 27.43298 -5.467464 -14.22015
v 22.25714 -2.206121 -14.75609
v 22.25714 -2.206121 -14.75609
v 27.43298 -5.467464 -14.22015
v 39.74677 24.47451 -21.14369
v 34.1004 26.47165 -21.66682
v 34.1004 26.47165 -21.66682
v 39.74677 24.47451 -21.14369
v 42.11719 35.33538 5.512817
v 36.54111 37.51062 5.716797
v -22.19244 -2.336866 -14.92799
v -27.35303 -5.628584 -14.43201
v 0.08331299 -27.31956 -8.974716
v 0.06951904 -20.57592 -10.54645
v -0.1591797 -28.51852 54.64319
v -0.1344604 -36.23965 54.11154
v -30.14313 -2.559491 44.67651
v -24.89346 0.6945543 45.23166
v -29.30243 3.634224 -52.96451
v -34.15039 26.27096 -21.93076
v -22.19244 -2.336866 -14.92799
v -20.28833 -13.49885 -48.58641
v 22.25714 -2.206121 -14.75609
v 20.67914 -13.37836 -48.42795
v 0.2185059 -25.98399 -44.94227
v 0.06951904 -20.57592 -10.54645
v 29.62585 3.807528 -52.73663
v 20.67914 -13.37836 -48.42795
v 22.25714 -2.206121 -14.75609
v 34.1004 26.47165 -21.66682
v 0.2185059 -25.98399 -44.94227
v -20.28833 -13.49885 -48.58641
v -22.19244 -2.336866 -14.92799
v 0.06951904 -20.57592 -10.54645
v -16.323 3.010765 -13.92288
v -26.24408 27.43124 -21.42636
v -17.13641 4.925829 -52.74026
v -11.94604 -5.915892 -50.54096
v 12.30774 -5.84453 -50.44714
v 16.34872 3.106843 -13.79654
v 0.04089355 -10.3475 -10.9063
v 0.196167 -12.77977 -49.22054
v 26.18372 27.58542 -21.22366
v 16.34872 3.106843 -13.79654
v 12.30774 -5.84453 -50.44714
v 17.45111 5.027564 -52.60651
v -16.323 3.010765 -13.92288
v -11.94604 -5.915892 -50.54096
v 0.196167 -12.77977 -49.22054
v 0.04089355 -10.3475 -10.9063
v -22.01108 4.560413 -52.91309
v -29.30243 3.634224 -52.96451
v -20.28833 -13.49885 -48.58641
v -15.33752 -9.391905 -49.66614
v 0.2059326 -18.80644 -47.14752
v 0.2185059 -25.98399 -44.94227
v 20.67914 -13.37836 -48.42795
v 15.71277 -9.300571 -49.54605
v 15.71277 -9.300571 -49.54605
v 20.67914 -13.37836 -48.42795
v 29.62585 3.807528 -52.73663
v 22.32904 4.690843 -52.7416
v -15.33752 -9.391905 -49.66614
v -20.28833 -13.49885 -48.58641
v 0.2185059 -25.98399 -44.94227
v 0.2059326 -18.80644 -47.14752
v 22.75696 1.011421 12.53925
v 16.34872 3.106843 -13.79654
v 26.18372 27.58542 -21.22366
v 36.54111 37.51062 5.716797
v -0.03479004 -22.18542 17.6575
v 0.04089355 -10.3475 -10.9063
v 16.34872 3.106843 -13.79654
v 22.75696 1.011421 12.53925
v -22.9223 0.8770876 12.36261
v -16.323 3.010765 -13.92288
v 0.04089355 -10.3475 -10.9063
v -0.03479004 -22.18542 17.6575
v -36.86774 37.29472 5.432922
v -26.24408 27.43124 -21.42636
v -16.323 3.010765 -13.92288
v -22.9223 0.8770876 12.36261
v 0.3629456 -23.59838 -84.10188
v 0.3945923 -27.88903 -89.02634
v 22.32904 4.690843 -52.7416
v 17.45111 5.027564 -52.60651
v -17.13641 4.925829 -52.74026
v -22.01108 4.560413 -52.91309
v 0.3945923 -27.88903 -89.02634
v 0.3629456 -23.59838 -84.10188
v -26.24408 27.43124 -21.42636
v -34.15039 26.27096 -21.93076
v -22.01108 4.560413 -52.91309
v -17.13641 4.925829 -52.74026
v 22.32904 4.690843 -52.7416
v 34.1004 26.47165 -21.66682
v 26.18372 27.58542 -21.22366
v 17.45111 5.027564 -52.60651
vt 0.9356978 0.4161656
vt 0.9687244 0.4786142
vt 0.9427605 0.4058544
vt 0.832642 0.4998353
vt 0.8631011 0.427488
vt 0.8556889 0.4194339
vt 0.832642 0.4998353
vt 0.8226414 0.5665255
vt 0.8414922 0.5065267
vt 0.9811985 0.5417999
vt 0.9687244 0.4786142
vt 0.9601805 0.488018
vt 0.9347912 0.08032181
vt 0.891229 0.01169425
vt 0.9164288 0.08749005
vt 0.9164288 0.08749005
vt 0.891229 0.01169425
vt 0.8934075 0.09261093
vt 0.8934075 0.09261093
vt 0.891229 0.01169425
vt 0.8702278 0.09093281
vt 0.8702278 0.09093281
vt 0.891229 0.01169425
vt 0.8515946 0.08630988
vt 0.8684284 0.4315139
vt 0.8828866 0.4324689
vt 0.8978451 0.3402611
vt 0.8828866 0.4324689
vt 0.8995787 0.4312488
vt 0.8978451 0.3402611
vt 0.8995787 0.4312488
vt 0.9162182 0.4272706
vt 0.8978451 0.3402611
vt 0.9162182 0.4272706
vt 0.9305546 0.4218246
vt 0.8978451 0.3402611
vt 0.9407457 0.2207603
vt 0.9471361 0.280128
vt 0.9920765 0.2498939
vt 0.9854781 0.1988977
vt 0.8071158 0.2144285
vt 0.8043987 0.2667738
vt 0.8510257 0.2876576
vt 0.8531905 0.227506
vt 0.8997046 0.3091744
vt 0.9471361 0.280128
vt 0.9407457 0.2207603
vt 0.8974133 0.2380805
vt 0.8205743 0.1657402
vt 0.8071158 0.2144285
vt 0.8531905 0.227506
vt 0.857242 0.1782169
vt 0.9334325 0.1724979
vt 0.8957424 0.1870567
vt 0.8974133 0.2380805
vt 0.9407457 0.2207603
vt 0.9334325 0.1724979
vt 0.9407457 0.2207603
vt 0.9854781 0.1988977
vt 0.9690003 0.1541126
vt 0.8531905 0.227506
vt 0.8974133 0.2380805
vt 0.8957424 0.1870567
vt 0.857242 0.1782169
vt 0.8510257 0.2876576
vt 0.8997046 0.3091744
vt 0.8974133 0.2380805
vt 0.8531905 0.227506
vt 0.8671013 0.587665
vt 0.8226414 0.5665255
vt 0.8156947 0.6310607
vt 0.8606489 0.6658504
vt 0.9811985 0.5417999
vt 0.9378049 0.5766391
vt 0.9471886 0.6523548
vt 0.9905552 0.6037933
vt 0.9046105 0.6954138
vt 0.9028846 0.6048073
vt 0.8671013 0.587665
vt 0.8606489 0.6658504
vt 0.9471886 0.6523548
vt 0.9378049 0.5766391
vt 0.9028846 0.6048073
vt 0.9046105 0.6954138
vt 0.8226414 0.5665255
vt 0.815851 0.5644569
vt 0.8107885 0.6363801
vt 0.8156947 0.6310607
vt 0.8156947 0.6310607
vt 0.8107885 0.6363801
vt 0.857024 0.67904
vt 0.8606489 0.6658504
vt 0.9471886 0.6523548
vt 0.9512931 0.6643393
vt 0.9956343 0.6075556
vt 0.9905552 0.6037933
vt 0.9905552 0.6037933
vt 0.9956343 0.6075556
vt 0.9878703 0.5376323
vt 0.9811985 0.5417999
vt 0.8606489 0.6658504
vt 0.857024 0.67904
vt 0.9049488 0.7131777
vt 0.9046105 0.6954138
vt 0.8228126 0.1564164
vt 0.8205743 0.1657402
vt 0.857242 0.1782169
vt 0.8595078 0.1673243
vt 0.9811985 0.5417999
vt 0.9878703 0.5376323
vt 0.9755255 0.4733011
vt 0.9687244 0.4786142
vt 0.8953282 0.1731932
vt 0.8957424 0.1870567
vt 0.9334325 0.1724979
vt 0.9305234 0.1620474
vt 0.9305234 0.1620474
vt 0.9334325 0.1724979
vt 0.9690003 0.1541126
vt 0.966434 0.1466338
vt 0.832642 0.4998353
vt 0.8256794 0.4966683
vt 0.815851 0.5644569
vt 0.8226414 0.5665255
vt 0.8595078 0.1673243
vt 0.857242 0.1782169
vt 0.8957424 0.1870567
vt 0.8953282 0.1731932
vt 0.9046105 0.6954138
vt 0.9049488 0.7131777
vt 0.9512931 0.6643393
vt 0.9471886 0.6523548
vt 0.8469839 0.0968403
vt 0.8228126 0.1564164
vt 0.8595078 0.1673243
vt 0.8685383 0.1027459
vt 0.9305234 0.1620474
vt 0.9187211 0.09879854
vt 0.8937418 0.1067762
vt 0.8953282 0.1731932
vt 0.9400613 0.09024227
vt 0.9187211 0.09879854
vt 0.9305234 0.1620474
vt 0.966434 0.1466338
vt 0.8937418 0.1067762
vt 0.8685383 0.1027459
vt 0.8595078 0.1673243
vt 0.8953282 0.1731932
vt 0.9289015 0.5139354
vt 0.9601805 0.488018
vt 0.9305546 0.4218246
vt 0.9162182 0.4272706
vt 0.8828866 0.4324689
vt 0.8735704 0.5225642
vt 0.9014202 0.5279311
vt 0.8995787 0.4312488
vt 0.8414922 0.5065267
vt 0.8735704 0.5225642
vt 0.8828866 0.4324689
vt 0.8684284 0.4315139
vt 0.9289015 0.5139354
vt 0.9162182 0.4272706
vt 0.8995787 0.4312488
vt 0.9014202 0.5279311
vt 0.8515946 0.08630988
vt 0.8469839 0.0968403
vt 0.8685383 0.1027459
vt 0.8702278 0.09093281
vt 0.8934075 0.09261093
vt 0.8937418 0.1067762
vt 0.9187211 0.09879854
vt 0.9164288 0.08749005
vt 0.9164288 0.08749005
vt 0.9187211 0.09879854
vt 0.9400613 0.09024227
vt 0.9347912 0.08032181
vt 0.8702278 0.09093281
vt 0.8685383 0.1027459
vt 0.8937418 0.1067762
vt 0.8934075 0.09261093
vt 0.8671013 0.587665
vt 0.8735704 0.5225642
vt 0.8414922 0.5065267
vt 0.8226414 0.5665255
vt 0.9028846 0.6048073
vt 0.9014202 0.5279311
vt 0.8735704 0.5225642
vt 0.8671013 0.587665
vt 0.9378049 0.5766391
vt 0.9289015 0.5139354
vt 0.9014202 0.5279311
vt 0.9028846 0.6048073
vt 0.9811985 0.5417999
vt 0.9601805 0.488018
vt 0.9289015 0.5139354
vt 0.9378049 0.5766391
vt 0.8978451 0.3402611
vt 0.8975188 0.3231397
vt 0.8631011 0.427488
vt 0.8684284 0.4315139
vt 0.9305546 0.4218246
vt 0.9356978 0.4161656
vt 0.8975188 0.3231397
vt 0.8978451 0.3402611
vt 0.9601805 0.488018
vt 0.9687244 0.4786142
vt 0.9356978 0.4161656
vt 0.9305546 0.4218246
vt 0.8631011 0.427488
vt 0.832642 0.4998353
vt 0.8414922 0.5065267
vt 0.8684284 0.4315139
vn -0.09701101 0.7968221 -0.5963752
vn -0.09701101 0.7968222 -0.596375
vn -0.09701102 0.7968222 -0.5963751
vn 0.09693442 0.7973925 -0.5956247
vn 0.09693442 0.7973925 -0.5956247
vn 0.09693443 0.7973925 -0.5956247
vn 0.1079755 0.9186776 -0.379964
vn 0.1079755 0.9186776 -0.379964
vn 0.1079755 0.9186776 -0.379964
vn -0.1104312 0.9180363 -0.3808075
vn -0.1104312 0.9180363 -0.3808074
vn -0.1104312 0.9180363 -0.3808075
vn 0.8841195 -0.44823 -0.1319948
vn 0.8841195 -0.44823 -0.1319948
vn 0.8841195 -0.44823 -0.1319948
vn 0.5342018 -0.8256492 0.1814716
vn 0.5342018 -0.8256492 0.1814716
vn 0.5342018 -0.8256492 0.1814716
vn -0.5307234 -0.8287812 0.1773535
vn -0.5307234 -0.8287812 0.1773535
vn -0.5307234 -0.8287812 0.1773535
vn -0.8804201 -0.4534203 -0.1388179
vn -0.8804201 -0.4534203 -0.1388179
vn -0.8804201 -0.4534203 -0.1388179
vn -0.8940055 0.4398698 0.0852578
vn -0.8940055 0.4398698 0.08525779
vn -0.8940055 0.4398698 0.08525779
vn -0.4995892 0.826702 -0.2587942
vn -0.4995892 0.826702 -0.2587943
vn -0.4995892 0.826702 -0.2587942
vn 0.4967065 0.8296316 -0.2549393
vn 0.4967065 0.8296316 -0.2549393
vn 0.4967065 0.8296316 -0.2549393
vn 0.8907168 0.4451177 0.09216189
vn 0.8907168 0.4451176 0.09216189
vn 0.8907168 0.4451176 0.09216189
vn 0.9089622 -0.4042877 -0.1016815
vn 0.9089622 -0.4042878 -0.1016815
vn 0.9089622 -0.4042877 -0.1016815
vn 0.9089622 -0.4042877 -0.1016815
vn -0.9057543 -0.4096255 -0.1087017
vn -0.9057544 -0.4096255 -0.1087018
vn -0.9057544 -0.4096255 -0.1087017
vn -0.9057543 -0.4096255 -0.1087017
vn 0.7026359 -0.7046075 -0.09915181
vn 0.7026359 -0.7046075 -0.09915181
vn 0.7026359 -0.7046075 -0.09915181
vn 0.7026359 -0.7046075 -0.09915181
vn -0.9316999 -0.3615913 0.03445088
vn -0.9316999 -0.3615913 0.03445088
vn -0.9316999 -0.3615913 0.03445088
vn -0.9316999 -0.3615913 0.03445088
vn 0.6554218 -0.7547725 0.02721549
vn 0.6554218 -0.7547725 0.02721549
vn 0.6554218 -0.7547725 0.02721549
vn 0.6554218 -0.7547725 0.02721549
vn 0.9335167 -0.3561051 0.04166375
vn 0.9335167 -0.356105 0.04166374
vn 0.9335167 -0.356105 0.04166374
vn 0.9335167 -0.356105 0.04166374
vn -0.651162 -0.758615 0.02216311
vn -0.6511621 -0.758615 0.02216311
vn -0.6511621 -0.758615 0.02216312
vn -0.6511621 -0.758615 0.02216311
vn -0.697691 -0.7087259 -0.1045695
vn -0.697691 -0.708726 -0.1045695
vn -0.697691 -0.708726 -0.1045695
vn -0.697691 -0.708726 -0.1045695
vn -0.9074636 0.4078363 0.1008929
vn -0.9074636 0.4078363 0.1008929
vn -0.9074636 0.4078363 0.1008929
vn -0.9074636 0.4078363 0.1008929
vn 0.9042411 0.4131654 0.1079002
vn 0.9042411 0.4131653 0.1079002
vn 0.9042411 0.4131654 0.1079002
vn 0.9042411 0.4131654 0.1079002
vn -0.7290912 0.6797353 0.07991152
vn -0.7290913 0.6797352 0.07991152
vn -0.7290913 0.6797352 0.07991152
vn -0.7290913 0.6797353 0.07991152
vn 0.7244405 0.6840103 0.0855327
vn 0.7244405 0.6840103 0.0855327
vn 0.7244405 0.6840103 0.0855327
vn 0.7244405 0.6840103 0.0855327
vn 0.3913558 0.9171028 -0.07591499
vn 0.3913559 0.9171028 -0.07591499
vn 0.3913558 0.9171028 -0.07591499
vn 0.3913559 0.9171028 -0.07591499
vn 0.2163891 0.1889243 0.9578536
vn 0.2163891 0.1889243 0.9578536
vn 0.2163891 0.1889243 0.9578536
vn 0.216389 0.1889243 0.9578536
vn -0.2248992 0.1876255 0.956147
vn -0.2248992 0.1876255 0.956147
vn -0.2248992 0.1876255 0.956147
vn -0.2248992 0.1876255 0.956147
vn -0.3961448 0.9147865 -0.07896129
vn -0.3961448 0.9147865 -0.07896128
vn -0.3961448 0.9147865 -0.07896128
vn -0.3961448 0.9147865 -0.07896128
vn 0.2760208 0.0418243 0.9602413
vn 0.2760208 0.0418243 0.9602413
vn 0.2760208 0.0418243 0.9602413
vn 0.2760208 0.0418243 0.9602413
vn 0.02250915 -0.2242304 -0.9742761
vn 0.02250915 -0.2242304 -0.9742761
vn 0.02250915 -0.2242305 -0.9742761
vn 0.02250915 -0.2242304 -0.9742761
vn -0.334008 0.8616486 -0.3821
vn -0.334008 0.8616486 -0.3821
vn -0.334008 0.8616486 -0.3821001
vn -0.3340079 0.8616486 -0.3821
vn -0.01362582 -0.2128807 -0.9769832
vn -0.01362582 -0.2128807 -0.9769832
vn -0.01362581 -0.2128807 -0.9769832
vn -0.01362582 -0.2128807 -0.9769832
vn -0.01364835 -0.2243379 -0.9744158
vn -0.01364835 -0.2243379 -0.9744158
vn -0.01364835 -0.2243379 -0.9744158
vn -0.01364835 -0.2243379 -0.9744158
vn 0.3318733 0.8636091 -0.379525
vn 0.3318733 0.8636091 -0.3795251
vn 0.3318733 0.8636091 -0.3795251
vn 0.3318733 0.8636091 -0.3795251
vn 0.02243183 -0.2127766 -0.9768434
vn 0.02243183 -0.2127766 -0.9768434
vn 0.02243183 -0.2127766 -0.9768434
vn 0.02243183 -0.2127766 -0.9768434
vn -0.2836792 0.04017959 0.9580771
vn -0.2836792 0.04017959 0.9580771
vn -0.2836792 0.04017959 0.9580771
vn -0.2836792 0.04017959 0.9580771
vn -0.9135862 -0.3916849 0.1092844
vn -0.9135862 -0.3916849 0.1092844
vn -0.9135862 -0.3916849 0.1092844
vn -0.9135862 -0.3916849 0.1092844
vn 0.5990929 -0.7807345 0.1775984
vn 0.5990929 -0.7807345 0.1775984
vn 0.5990929 -0.7807345 0.1775984
vn 0.5990929 -0.7807345 0.1775984
vn 0.915002 -0.3863063 0.1163564
vn 0.915002 -0.3863063 0.1163564
vn 0.915002 -0.3863063 0.1163564
vn 0.915002 -0.3863063 0.1163564
vn -0.5958469 -0.7842487 0.1729754
vn -0.5958469 -0.7842487 0.1729754
vn -0.595847 -0.7842487 0.1729754
vn -0.595847 -0.7842487 0.1729754
vn 0.9191363 0.3939396 0.0001746602
vn 0.9191363 0.3939396 0.0001746602
vn 0.9191363 0.3939396 0.0001746602
vn 0.9191362 0.3939396 0.0001746602
vn -0.5892066 0.8028 -0.09136681
vn -0.5892065 0.8028 -0.0913668
vn -0.5892066 0.8028 -0.0913668
vn -0.5892066 0.8027999 -0.0913668
vn -0.9214115 0.3885263 -0.006944113
vn -0.9214115 0.3885263 -0.006944114
vn -0.9214115 0.3885263 -0.006944113
vn -0.9214115 0.3885263 -0.006944113
vn 0.5851637 0.8062536 -0.08682603
vn 0.5851637 0.8062535 -0.08682602
vn 0.5851637 0.8062535 -0.08682602
vn 0.5851637 0.8062535 -0.08682602
vn 0.01357413 -0.2317423 -0.9726825
vn 0.01357413 -0.2317424 -0.9726825
vn 0.01357413 -0.2317424 -0.9726825
vn 0.01357413 -0.2317424 -0.9726825
vn 0.01353545 -0.2776446 -0.9605885
vn 0.01353545 -0.2776446 -0.9605885
vn 0.01353545 -0.2776446 -0.9605885
vn 0.01353545 -0.2776446 -0.9605885
vn -0.004688125 -0.2317967 -0.9727529
vn -0.004688126 -0.2317967 -0.9727529
vn -0.004688126 -0.2317967 -0.9727529
vn -0.004688125 -0.2317967 -0.9727529
vn -0.004470486 -0.2776967 -0.9606584
vn -0.004470486 -0.2776967 -0.9606584
vn -0.004470486 -0.2776967 -0.9606584
vn -0.004470486 -0.2776966 -0.9606584
vn -0.8906436 0.3968497 0.2219554
vn -0.8906436 0.3968497 0.2219554
vn -0.8906436 0.3968497 0.2219554
vn -0.8906436 0.3968497 0.2219554
vn -0.6319873 0.7306535 0.258336
vn -0.6319873 0.7306535 0.258336
vn -0.6319873 0.7306535 0.258336
vn -0.6319873 0.7306536 0.258336
vn 0.6256616 0.7343523 0.2632004
vn 0.6256615 0.7343522 0.2632004
vn 0.6256615 0.7343522 0.2632004
vn 0.6256615 0.7343522 0.2632004
vn 0.8865504 0.4020768 0.2288287
vn 0.8865504 0.4020768 0.2288287
vn 0.8865504 0.4020768 0.2288287
vn 0.8865504 0.4020768 0.2288287
vn 0.005545204 0.7405825 -0.6719427
vn 0.005545204 0.7405825 -0.6719427
vn 0.005545204 0.7405825 -0.6719427
vn 0.005545204 0.7405825 -0.6719427
vn -0.004704169 0.7405524 -0.6719822
vn -0.004704169 0.7405524 -0.6719821
vn -0.00470417 0.7405524 -0.6719822
vn -0.004704169 0.7405524 -0.6719822
vn -0.06451205 0.8032565 -0.5921295
vn -0.06451205 0.8032565 -0.5921295
vn -0.06451204 0.8032564 -0.5921295
vn -0.06451205 0.8032565 -0.5921294
vn 0.06436694 0.8036351 -0.5916313
vn 0.06436694 0.8036351 -0.5916313
vn 0.06436694 0.8036351 -0.5916313
vn 0.06436694 0.8036351 -0.5916313
g ShieldMesh_0
f 3/3/3 2/2/2 1/1/1
f 6/6/6 5/5/5 4/4/4
f 9/9/9 8/8/8 7/7/7
f 12/12/12 11/11/11 10/10/10
f 15/15/15 14/14/14 13/13/13
f 18/18/18 17/17/17 16/16/16
f 21/21/21 20/20/20 19/19/19
f 24/24/24 23/23/23 22/22/22
f 27/27/27 26/26/26 25/25/25
f 30/30/30 29/29/29 28/28/28
f 33/33/33 32/32/32 31/31/31
f 36/36/36 35/35/35 34/34/34
f 39/39/39 38/38/38 37/37/37
f 40/40/40 39/39/39 37/37/37
f 43/43/43 42/42/42 41/41/41
f 44/44/44 43/43/43 41/41/41
f 47/47/47 46/46/46 45/45/45
f 48/48/48 47/47/47 45/45/45
f 51/51/51 50/50/50 49/49/49
f 52/52/52 51/51/51 49/49/49
f 55/55/55 54/54/54 53/53/53
f 56/56/56 55/55/55 53/53/53
f 59/59/59 58/58/58 57/57/57
f 60/60/60 59/59/59 57/57/57
f 63/63/63 62/62/62 61/61/61
f 64/64/64 63/63/63 61/61/61
f 67/67/67 66/66/66 65/65/65
f 68/68/68 67/67/67 65/65/65
f 71/71/71 70/70/70 69/69/69
f 72/72/72 71/71/71 69/69/69
f 75/75/75 74/74/74 73/73/73
f 76/76/76 75/75/75 73/73/73
f 79/79/79 78/78/78 77/77/77
f 80/80/80 79/79/79 77/77/77
f 83/83/83 82/82/82 81/81/81
f 84/84/84 83/83/83 81/81/81
f 87/87/87 86/86/86 85/85/85
f 88/88/88 87/87/87 85/85/85
f 91/91/91 90/90/90 89/89/89
f 92/92/92 91/91/91 89/89/89
f 95/95/95 94/94/94 93/93/93
f 96/96/96 95/95/95 93/93/93
f 99/99/99 98/98/98 97/97/97
f 100/100/100 99/99/99 97/97/97
f 103/103/103 102/102/102 101/101/101
f 104/104/104 103/103/103 101/101/101
f 107/107/107 106/106/106 105/105/105
f 108/108/108 107/107/107 105/105/105
f 111/111/111 110/110/110 109/109/109
f 112/112/112 111/111/111 109/109/109
f 115/115/115 114/114/114 113/113/113
f 116/116/116 115/115/115 113/113/113
f 119/119/119 118/118/118 117/117/117
f 120/120/120 119/119/119 117/117/117
f 123/123/123 122/122/122 121/121/121
f 124/124/124 123/123/123 121/121/121
f 127/127/127 126/126/126 125/125/125
f 128/128/128 127/127/127 125/125/125
f 131/131/131 130/130/130 129/129/129
f 132/132/132 131/131/131 129/129/129
f 135/135/135 134/134/134 133/133/133
f 136/136/136 135/135/135 133/133/133
f 139/139/139 138/138/138 137/137/137
f 140/140/140 139/139/139 137/137/137
f 143/143/143 142/142/142 141/141/141
f 144/144/144 143/143/143 141/141/141
f 147/147/147 146/146/146 145/145/145
f 148/148/148 147/147/147 145/145/145
f 151/151/151 150/150/150 149/149/149
f 152/152/152 151/151/151 149/149/149
f 155/155/155 154/154/154 153/153/153
f 156/156/156 155/155/155 153/153/153
f 159/159/159 158/158/158 157/157/157
f 160/160/160 159/159/159 157/157/157
f 163/163/163 162/162/162 161/161/161
f 164/164/164 163/163/163 161/161/161
f 167/167/167 166/166/166 165/165/165
f 168/168/168 167/167/167 165/165/165
f 171/171/171 170/170/170 169/169/169
f 172/172/172 171/171/171 169/169/169
f 175/175/175 174/174/174 173/173/173
f 176/176/176 175/175/175 173/173/173
f 179/179/179 178/178/178 177/177/177
f 180/180/180 179/179/179 177/177/177
f 183/183/183 182/182/182 181/181/181
f 184/184/184 183/183/183 181/181/181
f 187/187/187 186/186/186 185/185/185
f 188/188/188 187/187/187 185/185/185
f 191/191/191 190/190/190 189/189/189
f 192/192/192 191/191/191 189/189/189
f 195/195/195 194/194/194 193/193/193
f 196/196/196 195/195/195 193/193/193
f 199/199/199 198/198/198 197/197/197
f 200/200/200 199/199/199 197/197/197
f 203/203/203 202/202/202 201/201/201
f 204/204/204 203/203/203 201/201/201
f 207/207/207 206/206/206 205/205/205
f 208/208/208 207/207/207 205/205/205
f 211/211/211 210/210/210 209/209/209
f 212/212/212 211/211/211 209/209/209
