g shield
v 0.2925189 0.1942568 0.03852439
v 0.1834519 0.2127274 0.1103881
v 0.2119136 0.3213965 0.001110554
v 0.2925189 0.1942568 0.03852439
v 0.2119136 0.3213965 0.001110554
v 0.2193111 0.1826613 -0.07124871
v 0.2119136 0.3213965 0.001110554
v 0.1097456 0.2004784 0.00167501
v 0.2193111 0.1826613 -0.07124871
v 0.1834519 0.2127274 0.1103881
v 0.1097456 0.2004784 0.00167501
v 0.2119136 0.3213965 0.001110554
v 0.09448001 0.03124368 0.1776404
v 0.1803923 0.1080145 0.3832365
v 0.06878418 0.117466 0.3597737
v 0.2060871 0.02179217 0.2011032
v 0.2320547 -0.0150438 0.05671275
v 0.1204466 -0.005592287 0.03324896
v 0.2029347 0.00164634 0.2079849
v 0.1766266 0.08905017 0.393508
v 0.2295882 -0.03584117 0.0600661
v 0.09132662 0.01109785 0.1845221
v 0.06501848 0.09850168 0.3700442
v 0.2628518 -0.03215873 -0.09064257
v 0.1512437 -0.02270716 -0.1141054
v 0.1992264 0.0170334 -0.3011639
v 0.3108346 0.00758189 -0.2777011
v 0.3097755 -0.01395506 -0.2813405
v 0.2610522 -0.05359036 -0.09071621
v 0.1981683 -0.004502535 -0.3048033
v 0.09448001 0.03124368 0.1776404
v 0.06878418 0.117466 0.3597737
v 0.1204466 -0.005592287 0.03324896
v 0.1179801 -0.02638966 0.03660327
v 0.1512437 -0.02270716 -0.1141054
v 0.149444 -0.0441379 -0.114179
v 0.1992264 0.0170334 -0.3011639
v 0.1363196 0.1764205 0.3380311
v 0.1168215 0.1008217 0.4219792
v 0.002633095 0.1016962 0.3797971
v 0.2382284 0.09367692 0.4272957
v -0.0123024 0.1537633 0.2992644
v -0.1271662 0.09056085 0.2547154
v 0.2861577 0.143688 0.3593958
v 0.4052952 0.07243562 0.362066
v -0.1104388 0.1400161 0.1526018
v -0.194761 0.06888998 0.08864641
v 0.1674095 0.2161669 0.1905389
v 0.4322845 0.1216258 0.2619798
v 0.5303253 0.04420829 0.2348326
v -0.1100159 0.1232455 -0.02821988
v -0.1822642 0.04944068 -0.02981186
v -0.1491805 0.02929103 -0.1441189
v -0.02118272 0.1805785 0.1656592
v 0.3465846 0.1684127 0.2396325
v 0.5005662 0.1025907 0.09485847
v 0.563409 0.02405769 0.1205256
v 0.5759057 0.004609346 0.002067327
v -0.04300857 0.08143461 -0.1917429
v -0.02415049 0.001063704 -0.2713523
v 0.004193544 0.1732758 -0.01436645
v 0.1834519 0.2127274 0.1103881
v 0.2925189 0.1942568 0.03852439
v 0.1097456 0.2004784 0.00167501
v 0.3915336 0.1606288 0.06363469
v 0.2193111 0.1826613 -0.07124871
v 0.04715639 0.1212068 -0.1833323
v 0.1027528 0.0538072 -0.2882845
v 0.1429163 -0.02017665 -0.336583
v 0.4997042 0.06305301 -0.08231422
v 0.5083119 -0.01706153 -0.1640016
v 0.4148826 0.1090774 -0.1091476
v 0.2335491 0.1587067 -0.1472168
v 0.2563259 0.07271689 -0.2747487
v 0.2643223 -0.02732342 -0.3312665
v 0.3785107 -0.02819687 -0.2890833
v 0.4012014 0.04374045 -0.2281024
v 0.002633095 0.1016962 0.3797971
v -0.03238696 0.06521136 0.2883434
v -0.1271662 0.09056085 0.2547154
v 0.1168215 0.1008217 0.4219792
v -0.115607 0.04939377 0.1529616
v 0.1249795 0.06866229 0.376085
v -0.194761 0.06888998 0.08864641
v 0.2382284 0.09367692 0.4272957
v -0.1205007 0.03196794 0.04009628
v 0.3034505 0.05377942 0.356052
v -0.1822642 0.04944068 -0.02981186
v 0.4052952 0.07243562 0.362066
v -0.1003769 0.0144847 -0.06266975
v 0.4313575 0.03077585 0.263236
v -0.1491805 0.02929103 -0.1441189
v 0.5303253 0.04420829 0.2348326
v -0.05333072 -0.004710138 -0.1650636
v 0.4784027 0.011581 0.1608421
v -0.02415049 0.001063704 -0.2713523
v 0.563409 0.02405769 0.1205256
v 0.07457525 -0.02771372 -0.2578806
v 0.4985275 -0.005902231 0.05807608
v 0.1429163 -0.02017665 -0.336583
v 0.5759057 0.004609346 0.002067327
v 0.2530462 -0.04259759 -0.2779126
v 0.4936338 -0.02332813 -0.05478919
v 0.2643223 -0.02732342 -0.3312665
v 0.5083119 -0.01706153 -0.1640016
v 0.4104128 -0.03914666 -0.190172
v 0.3785107 -0.02819687 -0.2890833
v 0.1249795 0.06866229 0.376085
v 0.01911944 0.1171541 0.1355443
v -0.03238696 0.06521136 0.2883434
v -0.115607 0.04939377 0.1529616
v 0.1377117 0.1239249 0.2281834
v 0.3034505 0.05377942 0.356052
v 0.2821987 0.1081991 0.1885844
v 0.4313575 0.03077585 0.263236
v 0.4784027 0.011581 0.1608421
v -0.002601147 0.09684366 -0.002694368
v -0.1205007 0.03196794 0.04009628
v -0.1003769 0.0144847 -0.06266975
v 0.3543523 0.08469325 0.06927174
v 0.4985275 -0.005902231 0.05807608
v 0.4936338 -0.02332813 -0.05478919
v 0.06955338 0.07333881 -0.122006
v -0.05333072 -0.004710138 -0.1650636
v 0.07457525 -0.02771372 -0.2578806
v 0.3326327 0.06438285 -0.06896693
v 0.4104128 -0.03914666 -0.190172
v 0.2530462 -0.04259759 -0.2779126
v 0.2140404 0.05761206 -0.161606
vt 0.8417075 0.6347781
vt 0.872007 0.6644808
vt 0.8716941 0.6347781
vt 0.8417075 0.6347781
vt 0.8716941 0.6347781
vt 0.8719997 0.6048716
vt 0.8716941 0.6347781
vt 0.9020227 0.6347781
vt 0.8719997 0.6048716
vt 0.872007 0.6644808
vt 0.9020227 0.6347781
vt 0.8716941 0.6347781
vt 0.6682073 0.515101
vt 0.7219503 0.5475913
vt 0.7219503 0.515101
vt 0.6682073 0.5475913
vt 0.6269612 0.5475913
vt 0.6269612 0.515101
vt 0.6682073 0.5537706
vt 0.7219503 0.5537706
vt 0.6269612 0.5537706
vt 0.6682073 0.5860353
vt 0.7219503 0.5860353
vt 0.5868942 0.5475913
vt 0.5868942 0.515101
vt 0.5331511 0.515101
vt 0.5331511 0.5475913
vt 0.5331511 0.5537706
vt 0.5868942 0.5537706
vt 0.5331511 0.5860353
vt 0.6682073 0.5919963
vt 0.7219503 0.5919963
vt 0.6269612 0.5919963
vt 0.6269612 0.5860353
vt 0.5868942 0.5919963
vt 0.5868942 0.5860353
vt 0.5331511 0.5919963
vt 0.8720288 0.7239664
vt 0.8720362 0.7553359
vt 0.9103855 0.7485598
vt 0.8336868 0.748567
vt 0.9161208 0.7221468
vt 0.9558676 0.7185222
vt 0.8280534 0.7221541
vt 0.7882047 0.7185222
vt 0.952163 0.6857189
vt 0.9852719 0.6727199
vt 0.8720288 0.6823491
vt 0.792004 0.6857189
vt 0.7588149 0.6727126
vt 0.9620396 0.6347781
vt 0.9903231 0.6347781
vt 0.9852719 0.5968363
vt 0.9254953 0.6854933
vt 0.8190283 0.6854496
vt 0.782171 0.6347781
vt 0.7537783 0.6347781
vt 0.7588076 0.5968436
vt 0.9521703 0.5838373
vt 0.9558749 0.5510267
vt 0.9284939 0.6347781
vt 0.872007 0.6644808
vt 0.8417075 0.6347781
vt 0.9020227 0.6347781
vt 0.8163862 0.6347781
vt 0.8719997 0.6048716
vt 0.9255025 0.5840629
vt 0.9161281 0.5474021
vt 0.9104 0.5209818
vt 0.792004 0.5838373
vt 0.7881974 0.551034
vt 0.819021 0.5841066
vt 0.8720288 0.5871998
vt 0.8720288 0.5457063
vt 0.8720362 0.5141985
vt 0.8336722 0.5209746
vt 0.8280461 0.5473948
vt 0.8374497 0.9852865
vt 0.8232497 0.959383
vt 0.7936707 0.9568647
vt 0.8729023 0.991182
vt 0.7914799 0.9253933
vt 0.8729023 0.9756864
vt 0.764623 0.9134278
vt 0.9083331 0.9852065
vt 0.7826658 0.8929758
vt 0.9224893 0.9592739
vt 0.760569 0.8774876
vt 0.9520029 0.9567046
vt 0.7826658 0.8619921
vt 0.9540044 0.925226
vt 0.764623 0.8415401
vt 0.9807885 0.913224
vt 0.7914799 0.8295746
vt 0.9625564 0.8929103
vt 0.7936707 0.7981032
vt 0.9846679 0.8774876
vt 0.8232497 0.7955849
vt 0.9625564 0.8620576
vt 0.8374497 0.7696814
vt 0.9807885 0.8417438
vt 0.8729023 0.7792888
vt 0.9540044 0.829742
vt 0.8729095 0.763786
vt 0.9520029 0.7982633
vt 0.9224893 0.7956941
vt 0.9083331 0.7697614
vt 0.8729023 0.9756864
vt 0.8312777 0.9137044
vt 0.8232497 0.959383
vt 0.7914799 0.9253933
vt 0.8679093 0.932628
vt 0.9224893 0.9592739
vt 0.9046502 0.9139373
vt 0.9540044 0.925226
vt 0.9625564 0.8929103
vt 0.8181331 0.8774876
vt 0.7826658 0.8929758
vt 0.7826658 0.8619921
vt 0.9179768 0.8774876
vt 0.9625564 0.8620576
vt 0.9540044 0.829742
vt 0.8312777 0.8412635
vt 0.7914799 0.8295746
vt 0.8232497 0.7955849
vt 0.9046502 0.8410306
vt 0.9224893 0.7956941
vt 0.8729023 0.7792888
vt 0.8679093 0.8223399
vn 0.5273826 0.5292273 0.6646699
vn 0.5273826 0.5292273 0.6646699
vn 0.5273826 0.5292273 0.6646699
vn 0.7701697 0.3272284 -0.5475036
vn 0.7701697 0.3272284 -0.5475036
vn 0.7701697 0.3272284 -0.5475036
vn -0.4651315 0.3893818 -0.795006
vn -0.4651315 0.3893818 -0.795006
vn -0.4651315 0.3893818 -0.795006
vn -0.6962648 0.5913808 0.4067974
vn -0.6962648 0.5913808 0.4067974
vn -0.6962648 0.5913808 0.4067974
vn -0.5894385 0.723457 -0.3594053
vn 0.8051311 0.5700155 -0.1638485
vn -0.5777847 0.7020918 -0.4162115
vn 0.7954196 0.59915 -0.09125178
vn 0.7721121 0.6341113 0.04178194
vn -0.6088615 0.7506492 -0.2565414
vn 0.5895361 -0.7254969 0.3551077
vn 0.5778823 -0.7041316 0.4126146
vn 0.6070168 -0.7507468 0.2605953
vn -0.795322 -0.5992476 0.09146187
vn -0.8050335 -0.5720554 0.1570786
vn 0.7410353 0.6399382 0.2033367
vn -0.6418806 0.7584184 -0.1130969
vn -0.6610402 0.7503504 0
vn 0.7099586 0.6282844 0.3181471
vn 0.6594588 -0.7507468 0.03864446
vn 0.6400359 -0.758516 0.1225056
vn -0.7118033 -0.6303244 -0.3098828
vn -0.5894385 0.723457 -0.3594053
vn -0.5777847 0.7020918 -0.4162115
vn -0.6088615 0.7506492 -0.2565414
vn -0.7720144 -0.6342089 -0.04210417
vn -0.6418806 0.7584184 -0.1130969
vn -0.7409377 -0.6400359 -0.2033851
vn -0.6610402 0.7503504 0
vn -0.06113356 0.8904946 0.450868
vn -0.09997958 0.7720144 0.6276925
vn -0.4068626 0.7176301 0.5652167
vn 0.2030189 0.6982072 0.6865057
vn -0.3874395 0.8263988 0.4086021
vn -0.6010923 0.7273416 0.331153
vn 0.2535186 0.8069758 0.5334027
vn 0.4710559 0.6923802 0.5465491
vn -0.579727 0.8128027 0.05716906
vn -0.6923802 0.7195724 0.05315262
vn 0.01073146 0.9934364 0.1138813
vn 0.5584593 0.775899 0.2934347
vn 0.6652857 0.6768419 0.3150872
vn -0.5059198 0.8283411 -0.2406164
vn -0.6282844 0.7370531 -0.2490209
vn -0.5816693 0.6243998 -0.5213307
vn -0.2980939 0.9526481 0.06001392
vn 0.3156722 0.9332251 0.1715868
vn 0.6109014 0.7914374 -0.02064685
vn 0.719667 0.6943195 0
vn 0.7759967 0.579727 -0.2484869
vn -0.4631892 0.7118033 -0.5280075
vn -0.3893818 0.5447657 -0.7427059
vn -0.2709017 0.939052 -0.2116447
vn 0.0359813 0.9992632 -0.01335429
vn 0.2904223 0.9507058 -0.1086892
vn -0.1640753 0.9662442 -0.198624
vn 0.3914217 0.9176868 -0.06811742
vn 0.09230793 0.9487635 -0.3022035
vn -0.1990367 0.8652447 -0.4601479
vn -0.1601908 0.6282844 -0.7613131
vn -0.1271717 0.4729007 -0.8718901
vn 0.6749972 0.6748996 -0.298143
vn 0.680824 0.5098043 -0.525907
vn 0.4166716 0.8438795 -0.3380121
vn 0.1136732 0.9040907 -0.4119447
vn 0.1641729 0.6943225 -0.7006879
vn 0.1855382 0.5234004 -0.8316415
vn 0.484652 0.4534777 -0.7479776
vn 0.4827097 0.6069191 -0.6313799
vn -0.2980939 -0.830381 0.4707521
vn -0.3155746 -0.8498039 0.4221919
vn -0.3932665 -0.8459194 0.3602248
vn -0.129114 -0.8614577 0.4911418
vn -0.3893818 -0.8867076 0.2492617
vn -0.129114 -0.8614577 0.4911418
vn -0.4088048 -0.8867076 0.2159357
vn 0.03986591 -0.8420348 0.5379481
vn -0.3660743 -0.9236113 0.1137182
vn 0.07288498 -0.8634 0.4992276
vn -0.3602474 -0.9294382 0.07979029
vn 0.1661152 -0.8653423 0.4728514
vn -0.3563628 -0.9313805 0.07440443
vn 0.2030189 -0.9061306 0.371094
vn -0.3563628 -0.9333227 -0.04375229
vn 0.236038 -0.9080729 0.3459621
vn -0.3252861 -0.9430342 -0.06982379
vn 0.2321534 -0.9449765 0.230487
vn -0.2844978 -0.9391496 -0.1925072
vn 0.2379802 -0.9488611 0.2074318
vn -0.1932098 -0.9585726 -0.2093047
vn 0.2418649 -0.9527457 0.183785
vn -0.1563062 -0.954688 -0.253257
vn 0.28848 -0.954688 0.07314406
vn 0.006846845 -0.9799379 -0.1991852
vn 0.2671147 -0.9624572 0.04822627
vn 0.006846845 -0.9799379 -0.1991852
vn 0.2748839 -0.9585726 -0.0746815
vn 0.197192 -0.9721687 -0.1265044
vn 0.1816536 -0.9663418 -0.182169
vn 0.03792357 -0.9508034 -0.307465
vn 0.2088362 -0.9779507 0
vn 0.3273259 -0.9177844 -0.2247878
vn 0.4555176 -0.8886499 -0.05296332
vn 0.002962232 -0.9877071 -0.1562881
vn -0.2475942 -0.9255536 -0.2864397
vn -0.2223442 -0.9721687 -0.07383186
vn -0.3990933 -0.902246 -0.1633301
vn -0.4903813 -0.8711692 -0.02429782
vn 0.2729416 -0.9391496 0.2085687
vn 0.5079596 -0.8459194 0.162473
vn 0.4788252 -0.8206695 0.3118141
vn -0.3311129 -0.9391496 0.09144525
vn -0.5156311 -0.8498039 0.1093518
vn -0.4845545 -0.8284387 0.2808848
vn 0.1292116 -0.9080729 0.3983818
vn 0.3525758 -0.7993042 0.4866242
vn 0.1641729 -0.7759967 0.6089962
vn -0.292267 -0.9119575 0.2879471
vn -0.3932665 -0.7993042 0.4543723
vn -0.1388255 -0.7973619 0.5873172
vn -0.1155179 -0.8847653 0.451493
g shield_0
f 3/3/3 2/2/2 1/1/1
f 6/6/6 5/5/5 4/4/4
f 9/9/9 8/8/8 7/7/7
f 12/12/12 11/11/11 10/10/10
f 15/15/15 14/14/14 13/13/13
f 14/14/14 16/16/16 13/13/13
f 16/16/16 17/17/17 13/13/13
f 17/17/17 18/18/18 13/13/13
f 16/16/16 14/14/14 19/19/19
f 14/14/14 20/20/20 19/19/19
f 16/16/16 19/19/19 21/21/21
f 17/17/17 16/16/16 21/21/21
f 19/19/19 20/20/20 22/22/22
f 21/21/21 19/19/19 22/22/22
f 20/20/20 23/23/23 22/22/22
f 17/17/17 24/24/24 18/18/18
f 24/24/24 25/25/25 18/18/18
f 25/25/25 24/24/24 26/26/26
f 24/24/24 27/27/27 26/26/26
f 27/27/27 24/24/24 28/28/28
f 24/24/24 17/17/17 29/29/29
f 24/24/24 29/29/29 28/28/28
f 17/17/17 21/21/21 29/29/29
f 28/28/28 29/29/29 30/30/30
f 31/31/31 22/22/22 23/23/23
f 32/32/32 31/31/31 23/23/23
f 31/31/31 33/33/33 22/22/22
f 34/34/34 21/21/21 22/22/22
f 33/33/33 34/34/34 22/22/22
f 29/29/29 21/21/21 34/34/34
f 33/33/33 35/35/35 34/34/34
f 29/29/29 36/36/36 30/30/30
f 36/36/36 29/29/29 34/34/34
f 35/35/35 36/36/36 34/34/34
f 37/37/37 30/30/30 36/36/36
f 35/35/35 37/37/37 36/36/36
f 40/40/40 39/39/39 38/38/38
f 38/38/38 39/39/39 41/41/41
f 42/42/42 40/40/40 38/38/38
f 42/42/42 43/43/43 40/40/40
f 44/44/44 38/38/38 41/41/41
f 41/41/41 45/45/45 44/44/44
f 43/43/43 42/42/42 46/46/46
f 46/46/46 47/47/47 43/43/43
f 38/38/38 48/48/48 42/42/42
f 38/38/38 44/44/44 48/48/48
f 44/44/44 45/45/45 49/49/49
f 45/45/45 50/50/50 49/49/49
f 46/46/46 51/51/51 47/47/47
f 51/51/51 52/52/52 47/47/47
f 52/52/52 51/51/51 53/53/53
f 42/42/42 54/54/54 46/46/46
f 48/48/48 54/54/54 42/42/42
f 44/44/44 55/55/55 48/48/48
f 55/55/55 44/44/44 49/49/49
f 49/49/49 50/50/50 56/56/56
f 50/50/50 57/57/57 56/56/56
f 56/56/56 57/57/57 58/58/58
f 51/51/51 59/59/59 53/53/53
f 59/59/59 60/60/60 53/53/53
f 61/61/61 51/51/51 46/46/46
f 54/54/54 61/61/61 46/46/46
f 51/51/51 61/61/61 59/59/59
f 54/54/54 48/48/48 62/62/62
f 62/62/62 48/48/48 55/55/55
f 54/54/54 62/62/62 61/61/61
f 62/62/62 55/55/55 63/63/63
f 62/62/62 64/64/64 61/61/61
f 55/55/55 65/65/65 63/63/63
f 55/55/55 49/49/49 65/65/65
f 49/49/49 56/56/56 65/65/65
f 66/66/66 63/63/63 65/65/65
f 67/67/67 61/61/61 64/64/64
f 61/61/61 67/67/67 59/59/59
f 66/66/66 67/67/67 64/64/64
f 60/60/60 59/59/59 68/68/68
f 59/59/59 67/67/67 68/68/68
f 68/68/68 69/69/69 60/60/60
f 56/56/56 70/70/70 65/65/65
f 70/70/70 56/56/56 58/58/58
f 58/58/58 71/71/71 70/70/70
f 72/72/72 66/66/66 65/65/65
f 70/70/70 72/72/72 65/65/65
f 66/66/66 73/73/73 67/67/67
f 67/67/67 73/73/73 68/68/68
f 72/72/72 73/73/73 66/66/66
f 69/69/69 68/68/68 74/74/74
f 73/73/73 74/74/74 68/68/68
f 75/75/75 69/69/69 74/74/74
f 75/75/75 74/74/74 76/76/76
f 71/71/71 76/76/76 77/77/77
f 70/70/70 71/71/71 77/77/77
f 72/72/72 70/70/70 77/77/77
f 72/72/72 77/77/77 73/73/73
f 77/77/77 74/74/74 73/73/73
f 74/74/74 77/77/77 76/76/76
f 80/80/80 79/79/79 78/78/78
f 78/78/78 79/79/79 81/81/81
f 82/82/82 79/79/79 80/80/80
f 79/79/79 83/83/83 81/81/81
f 84/84/84 82/82/82 80/80/80
f 81/81/81 83/83/83 85/85/85
f 86/86/86 82/82/82 84/84/84
f 83/83/83 87/87/87 85/85/85
f 88/88/88 86/86/86 84/84/84
f 85/85/85 87/87/87 89/89/89
f 90/90/90 86/86/86 88/88/88
f 89/89/89 87/87/87 91/91/91
f 88/88/88 92/92/92 90/90/90
f 89/89/89 91/91/91 93/93/93
f 92/92/92 94/94/94 90/90/90
f 93/93/93 91/91/91 95/95/95
f 96/96/96 94/94/94 92/92/92
f 97/97/97 93/93/93 95/95/95
f 96/96/96 98/98/98 94/94/94
f 95/95/95 99/99/99 97/97/97
f 100/100/100 98/98/98 96/96/96
f 97/97/97 99/99/99 101/101/101
f 102/102/102 98/98/98 100/100/100
f 99/99/99 103/103/103 101/101/101
f 104/104/104 102/102/102 100/100/100
f 101/101/101 103/103/103 105/105/105
f 106/106/106 102/102/102 104/104/104
f 103/103/103 106/106/106 105/105/105
f 107/107/107 106/106/106 104/104/104
f 105/105/105 106/106/106 107/107/107
f 110/110/110 109/109/109 108/108/108
f 111/111/111 109/109/109 110/110/110
f 109/109/109 112/112/112 108/108/108
f 108/108/108 112/112/112 113/113/113
f 112/112/112 114/114/114 113/113/113
f 112/112/112 109/109/109 114/114/114
f 113/113/113 114/114/114 115/115/115
f 115/115/115 114/114/114 116/116/116
f 117/117/117 109/109/109 111/111/111
f 109/109/109 117/117/117 114/114/114
f 118/118/118 117/117/117 111/111/111
f 119/119/119 117/117/117 118/118/118
f 114/114/114 120/120/120 116/116/116
f 117/117/117 120/120/120 114/114/114
f 116/116/116 120/120/120 121/121/121
f 121/121/121 120/120/120 122/122/122
f 123/123/123 117/117/117 119/119/119
f 117/117/117 123/123/123 120/120/120
f 124/124/124 123/123/123 119/119/119
f 125/125/125 123/123/123 124/124/124
f 120/120/120 126/126/126 122/122/122
f 123/123/123 126/126/126 120/120/120
f 122/122/122 126/126/126 127/127/127
f 127/127/127 126/126/126 128/128/128
f 129/129/129 123/123/123 125/125/125
f 128/128/128 129/129/129 125/125/125
f 126/126/126 129/129/129 128/128/128
f 123/123/123 129/129/129 126/126/126
