g shizijia
v 0.15 -0.03990376 -0.001646109
v 0.15 -0.03990376 0.001646113
v 0.1723303 0 0
v 0.15 0.03990376 0.00164611
v 0.15 0.03990376 -0.001646113
v -0.15 0.03990378 -0.001646109
v -0.15 0.03990378 0.001646113
v -0.1723303 2.602115E-08 0
v -0.15 -0.03990373 0.00164611
v -0.15 -0.03990373 -0.001646113
v -0.03990376 -0.15 -0.001646109
v -0.03990376 -0.15 0.001646113
v -7.532797E-09 -0.1723303 0
v 0.03990375 -0.15 0.00164611
v 0.03990375 -0.15 -0.001646113
v 0.03990379 0.15 -0.001646109
v 0.03990379 0.15 0.001646113
v 3.355395E-08 0.1723303 0
v -0.03990373 0.15 0.00164611
v -0.03990373 0.15 -0.001646113
v 0.05 -0.01198359 -0.01
v 7.54979E-10 0.01 -0.01
v -7.54979E-10 -0.01 -0.01
v 0.05 0.01198359 -0.01
v 0.09999999 -0.02152573 -0.007875425
v 0.09999999 0.02152573 -0.007875423
v 0.15 0.03990376 -0.001646113
v 0.15 -0.03990376 -0.001646109
v 0.1723303 0 0
v 0.05 0.01198359 0.01
v -7.54979E-10 -0.01 0.01
v 7.54979E-10 0.01 0.01
v 0.05 -0.01198359 0.01
v 0.09999999 0.02152573 0.007875423
v 0.09999999 -0.02152573 0.007875423
v 0.15 -0.03990376 0.001646113
v 0.15 0.03990376 0.00164611
v 0.1723303 0 0
v 0.05 -0.01198359 0.01
v -7.54979E-10 -0.01 -0.01
v -7.54979E-10 -0.01 0.01
v 0.05 -0.01198359 -0.01
v 0.09999999 -0.02152573 0.007875423
v 0.09999999 -0.02152573 -0.007875425
v 0.15 -0.03990376 0.001646113
v 0.15 -0.03990376 -0.001646109
v 0.09999999 0.02152573 0.007875423
v 0.15 0.03990376 -0.001646113
v 0.15 0.03990376 0.00164611
v 0.09999999 0.02152573 -0.007875423
v 0.05 0.01198359 0.01
v 0.05 0.01198359 -0.01
v 7.54979E-10 0.01 0.01
v 7.54979E-10 0.01 -0.01
v -0.05 0.01198359 -0.01
v -7.54979E-10 -0.01 -0.01
v 7.54979E-10 0.01 -0.01
v -0.05 -0.01198358 -0.01
v -0.09999999 0.02152574 -0.007875425
v -0.09999999 -0.02152571 -0.007875423
v -0.15 -0.03990373 -0.001646113
v -0.15 0.03990378 -0.001646109
v -0.1723303 2.602115E-08 0
v -0.05 -0.01198358 0.01
v 7.54979E-10 0.01 0.01
v -7.54979E-10 -0.01 0.01
v -0.05 0.01198359 0.01
v -0.09999999 -0.02152571 0.007875423
v -0.09999999 0.02152574 0.007875423
v -0.15 0.03990378 0.001646113
v -0.15 -0.03990373 0.00164611
v -0.1723303 2.602115E-08 0
v -0.05 0.01198359 0.01
v 7.54979E-10 0.01 -0.01
v 7.54979E-10 0.01 0.01
v -0.05 0.01198359 -0.01
v -0.09999999 0.02152574 0.007875423
v -0.09999999 0.02152574 -0.007875425
v -0.15 0.03990378 0.001646113
v -0.15 0.03990378 -0.001646109
v -0.09999999 -0.02152571 0.007875423
v -0.15 -0.03990373 -0.001646113
v -0.15 -0.03990373 0.00164611
v -0.09999999 -0.02152571 -0.007875423
v -0.05 -0.01198358 0.01
v -0.05 -0.01198358 -0.01
v -7.54979E-10 -0.01 0.01
v -7.54979E-10 -0.01 -0.01
v -0.01198359 -0.05 -0.01
v 0.01 -1.192093E-09 -0.01
v -0.01 1.192093E-09 -0.01
v 0.01198359 -0.05 -0.01
v -0.02152573 -0.09999999 -0.007875425
v 0.02152572 -0.09999999 -0.007875423
v 0.03990375 -0.15 -0.001646113
v -0.03990376 -0.15 -0.001646109
v -7.532797E-09 -0.1723303 0
v 0.01198359 -0.05 0.01
v -0.01 1.192093E-09 0.01
v 0.01 -1.192093E-09 0.01
v -0.01198359 -0.05 0.01
v 0.02152572 -0.09999999 0.007875423
v -0.02152573 -0.09999999 0.007875423
v -0.03990376 -0.15 0.001646113
v 0.03990375 -0.15 0.00164611
v -7.532797E-09 -0.1723303 0
v -0.01198359 -0.05 0.01
v -0.01 1.192093E-09 -0.01
v -0.01 1.192093E-09 0.01
v -0.01198359 -0.05 -0.01
v -0.02152573 -0.09999999 0.007875423
v -0.02152573 -0.09999999 -0.007875425
v -0.03990376 -0.15 0.001646113
v -0.03990376 -0.15 -0.001646109
v 0.02152572 -0.09999999 0.007875423
v 0.03990375 -0.15 -0.001646113
v 0.03990375 -0.15 0.00164611
v 0.02152572 -0.09999999 -0.007875423
v 0.01198359 -0.05 0.01
v 0.01198359 -0.05 -0.01
v 0.01 -1.192093E-09 0.01
v 0.01 -1.192093E-09 -0.01
v 0.0119836 0.05 -0.01
v -0.01 1.192093E-09 -0.01
v 0.01 -1.192093E-09 -0.01
v -0.01198358 0.05 -0.01
v 0.02152575 0.09999999 -0.007875425
v -0.02152571 0.09999999 -0.007875423
v -0.03990373 0.15 -0.001646113
v 0.03990379 0.15 -0.001646109
v 3.355395E-08 0.1723303 0
v -0.01198358 0.05 0.01
v 0.01 -1.192093E-09 0.01
v -0.01 1.192093E-09 0.01
v 0.0119836 0.05 0.01
v -0.02152571 0.09999999 0.007875423
v 0.02152575 0.09999999 0.007875423
v 0.03990379 0.15 0.001646113
v -0.03990373 0.15 0.00164611
v 3.355395E-08 0.1723303 0
v 0.0119836 0.05 0.01
v 0.01 -1.192093E-09 -0.01
v 0.01 -1.192093E-09 0.01
v 0.0119836 0.05 -0.01
v 0.02152575 0.09999999 0.007875423
v 0.02152575 0.09999999 -0.007875425
v 0.03990379 0.15 0.001646113
v 0.03990379 0.15 -0.001646109
v -0.02152571 0.09999999 0.007875423
v -0.03990373 0.15 -0.001646113
v -0.03990373 0.15 0.00164611
v -0.02152571 0.09999999 -0.007875423
v -0.01198358 0.05 0.01
v -0.01198358 0.05 -0.01
v -0.01 1.192093E-09 0.01
v -0.01 1.192093E-09 -0.01
vt 0.3528168 0.5057418
vt 0.3528168 0.6321312
vt 0.4160114 0.5689365
vt 0.4792061 0.6321312
vt 0.4792061 0.5057418
vt 0.3528168 0.5057418
vt 0.3528168 0.6321312
vt 0.4160114 0.5689365
vt 0.4792061 0.6321312
vt 0.4792061 0.5057418
vt 0.3528168 0.5057418
vt 0.3528168 0.6321312
vt 0.4160114 0.5689365
vt 0.4792061 0.6321312
vt 0.4792061 0.5057418
vt 0.3528168 0.5057418
vt 0.3528168 0.6321312
vt 0.4160114 0.5689365
vt 0.4792061 0.6321312
vt 0.4792061 0.5057418
vt 0.3949465 0.5057418
vt 0.4160114 0.6321312
vt 0.4160114 0.5057418
vt 0.3949465 0.6321312
vt 0.3738816 0.5057418
vt 0.3738816 0.6321312
vt 0.3528168 0.6321312
vt 0.3528168 0.5057418
vt 0.3528168 0.5689365
vt 0.4370763 0.6321312
vt 0.4160114 0.5057418
vt 0.4160114 0.6321312
vt 0.4370763 0.5057418
vt 0.4581412 0.6321312
vt 0.4581412 0.5057418
vt 0.4792061 0.5057418
vt 0.4792061 0.6321312
vt 0.4792061 0.5689365
vt 0.4370763 0.6321312
vt 0.4160114 0.5057418
vt 0.4160114 0.6321312
vt 0.4370763 0.5057418
vt 0.4581412 0.6321312
vt 0.4581412 0.5057418
vt 0.4792061 0.6321312
vt 0.4792061 0.5057418
vt 0.3738817 0.6321312
vt 0.3528168 0.5057418
vt 0.3528168 0.6321312
vt 0.3738817 0.5057418
vt 0.3949465 0.6321312
vt 0.3949465 0.5057418
vt 0.4160114 0.6321312
vt 0.4160114 0.5057418
vt 0.3949465 0.5057418
vt 0.4160114 0.6321312
vt 0.4160114 0.5057418
vt 0.3949465 0.6321312
vt 0.3738816 0.5057418
vt 0.3738816 0.6321312
vt 0.3528168 0.6321312
vt 0.3528168 0.5057418
vt 0.3528168 0.5689365
vt 0.4370763 0.6321312
vt 0.4160114 0.5057418
vt 0.4160114 0.6321312
vt 0.4370763 0.5057418
vt 0.4581412 0.6321312
vt 0.4581412 0.5057418
vt 0.4792061 0.5057418
vt 0.4792061 0.6321312
vt 0.4792061 0.5689365
vt 0.4370763 0.6321312
vt 0.4160114 0.5057418
vt 0.4160114 0.6321312
vt 0.4370763 0.5057418
vt 0.4581412 0.6321312
vt 0.4581412 0.5057418
vt 0.4792061 0.6321312
vt 0.4792061 0.5057418
vt 0.3738817 0.6321312
vt 0.3528168 0.5057418
vt 0.3528168 0.6321312
vt 0.3738817 0.5057418
vt 0.3949465 0.6321312
vt 0.3949465 0.5057418
vt 0.4160114 0.6321312
vt 0.4160114 0.5057418
vt 0.3949465 0.5057418
vt 0.4160114 0.6321312
vt 0.4160114 0.5057418
vt 0.3949465 0.6321312
vt 0.3738816 0.5057418
vt 0.3738816 0.6321312
vt 0.3528168 0.6321312
vt 0.3528168 0.5057418
vt 0.3528168 0.5689365
vt 0.4370763 0.6321312
vt 0.4160114 0.5057418
vt 0.4160114 0.6321312
vt 0.4370763 0.5057418
vt 0.4581412 0.6321312
vt 0.4581412 0.5057418
vt 0.4792061 0.5057418
vt 0.4792061 0.6321312
vt 0.4792061 0.5689365
vt 0.4370763 0.6321312
vt 0.4160114 0.5057418
vt 0.4160114 0.6321312
vt 0.4370763 0.5057418
vt 0.4581412 0.6321312
vt 0.4581412 0.5057418
vt 0.4792061 0.6321312
vt 0.4792061 0.5057418
vt 0.3738817 0.6321312
vt 0.3528168 0.5057418
vt 0.3528168 0.6321312
vt 0.3738817 0.5057418
vt 0.3949465 0.6321312
vt 0.3949465 0.5057418
vt 0.4160114 0.6321312
vt 0.4160114 0.5057418
vt 0.3949465 0.5057418
vt 0.4160114 0.6321312
vt 0.4160114 0.5057418
vt 0.3949465 0.6321312
vt 0.3738816 0.5057418
vt 0.3738816 0.6321312
vt 0.3528168 0.6321312
vt 0.3528168 0.5057418
vt 0.3528168 0.5689365
vt 0.4370763 0.6321312
vt 0.4160114 0.5057418
vt 0.4160114 0.6321312
vt 0.4370763 0.5057418
vt 0.4581412 0.6321312
vt 0.4581412 0.5057418
vt 0.4792061 0.5057418
vt 0.4792061 0.6321312
vt 0.4792061 0.5689365
vt 0.4370763 0.6321312
vt 0.4160114 0.5057418
vt 0.4160114 0.6321312
vt 0.4370763 0.5057418
vt 0.4581412 0.6321312
vt 0.4581412 0.5057418
vt 0.4792061 0.6321312
vt 0.4792061 0.5057418
vt 0.3738817 0.6321312
vt 0.3528168 0.5057418
vt 0.3528168 0.6321312
vt 0.3738817 0.5057418
vt 0.3949465 0.6321312
vt 0.3949465 0.5057418
vt 0.4160114 0.6321312
vt 0.4160114 0.5057418
vn 0.8726532 -0.4883403 0
vn 0.8726532 -0.4883403 0
vn 1 3.232799E-06 0
vn 0.8726532 0.4883403 0
vn 0.8726532 0.4883403 0
vn -0.8726532 0.4883405 0
vn -0.8726532 0.4883405 0
vn -1 -9.4017E-06 0
vn -0.8726534 -0.4883401 0
vn -0.8726534 -0.48834 0
vn -0.4883403 -0.8726532 0
vn -0.4883403 -0.8726532 0
vn 3.232799E-06 -1 0
vn 0.4883403 -0.8726532 0
vn 0.4883403 -0.8726532 0
vn 0.4883405 0.8726532 0
vn 0.4883405 0.8726532 0
vn -9.4017E-06 1 0
vn -0.4883401 0.8726534 0
vn -0.48834 0.8726534 0
vn 0.02270295 0 -0.9997422
vn 0 0 -1
vn 0 0 -1
vn 0.02270295 0 -0.9997422
vn 0.08972754 0 -0.9959663
vn 0.08972751 0 -0.9959663
vn 0.1088674 0 -0.9940562
vn 0.1088674 0 -0.9940562
vn 0.07351699 0 -0.9972939
vn 0.02270296 0 0.9997422
vn 0 0 1
vn 0 0 1
vn 0.02270296 0 0.9997422
vn 0.08972753 0 0.9959663
vn 0.08972751 0 0.9959663
vn 0.1088674 0 0.9940562
vn 0.1088674 0 0.9940562
vn 0.07351701 0 0.9972939
vn -0.1128682 -0.99361 0
vn -0.03964057 -0.9992141 0
vn -0.03964057 -0.9992141 0
vn -0.1128682 -0.99361 0
vn -0.2630436 -0.9647839 0
vn -0.2630436 -0.9647839 0
vn -0.3449941 -0.9386048 0
vn -0.3449941 -0.9386048 0
vn -0.2630436 0.9647839 0
vn -0.3449941 0.9386048 0
vn -0.3449941 0.9386048 0
vn -0.2630436 0.9647839 0
vn -0.1128682 0.99361 0
vn -0.1128682 0.99361 0
vn -0.03964057 0.9992141 0
vn -0.03964057 0.9992141 0
vn -0.02270295 0 -0.9997422
vn 0 0 -1
vn 0 0 -1
vn -0.02270295 0 -0.9997422
vn -0.08972754 0 -0.9959663
vn -0.08972749 0 -0.9959663
vn -0.1088674 0 -0.9940562
vn -0.1088674 0 -0.9940562
vn -0.07351697 0 -0.9972939
vn -0.02270296 0 0.9997422
vn 0 0 1
vn 0 0 1
vn -0.02270296 0 0.9997422
vn -0.08972751 0 0.9959663
vn -0.08972752 0 0.9959663
vn -0.1088674 0 0.9940562
vn -0.1088674 0 0.9940562
vn -0.073517 0 0.9972939
vn 0.1128683 0.9936098 0
vn 0.03964071 0.9992141 0
vn 0.03964071 0.9992141 0
vn 0.1128683 0.9936098 0
vn 0.2630438 0.9647839 0
vn 0.2630438 0.9647839 0
vn 0.3449943 0.9386047 0
vn 0.3449943 0.9386047 0
vn 0.2630435 -0.9647839 0
vn 0.3449939 -0.938605 0
vn 0.344994 -0.938605 0
vn 0.2630435 -0.9647839 0
vn 0.1128681 -0.99361 0
vn 0.1128681 -0.99361 0
vn 0.03964043 -0.9992141 0
vn 0.03964043 -0.9992141 0
vn 0 -0.02270295 -0.9997422
vn 0 0 -1
vn 0 0 -1
vn 0 -0.02270295 -0.9997422
vn 0 -0.08972754 -0.9959663
vn 0 -0.08972751 -0.9959663
vn 0 -0.1088674 -0.9940562
vn 0 -0.1088674 -0.9940562
vn 0 -0.07351699 -0.9972939
vn 0 -0.02270296 0.9997422
vn 0 0 1
vn 0 0 1
vn 0 -0.02270296 0.9997422
vn 0 -0.08972751 0.9959663
vn 0 -0.08972751 0.9959663
vn 0 -0.1088674 0.9940562
vn 0 -0.1088674 0.9940562
vn 0 -0.07351701 0.9972939
vn -0.99361 0.1128683 0
vn -0.9992141 0.03964062 0
vn -0.9992141 0.03964062 0
vn -0.99361 0.1128682 0
vn -0.9647839 0.2630437 0
vn -0.9647839 0.2630437 0
vn -0.9386048 0.3449942 0
vn -0.9386048 0.3449942 0
vn 0.9647839 0.2630436 0
vn 0.9386048 0.3449941 0
vn 0.9386048 0.3449941 0
vn 0.9647839 0.2630436 0
vn 0.99361 0.1128682 0
vn 0.99361 0.1128682 0
vn 0.9992141 0.03964053 0
vn 0.9992141 0.03964052 0
vn 0 0.02270295 -0.9997422
vn 0 0 -1
vn 0 0 -1
vn 0 0.02270295 -0.9997422
vn 0 0.08972752 -0.9959663
vn 0 0.08972749 -0.9959663
vn 0 0.1088674 -0.9940562
vn 0 0.1088674 -0.9940562
vn 0 0.07351697 -0.9972939
vn 0 0.02270296 0.9997422
vn 0 0 1
vn 0 0 1
vn 0 0.02270296 0.9997422
vn 0 0.08972751 0.9959663
vn 0 0.08972752 0.9959663
vn 0 0.1088674 0.9940562
vn 0 0.1088674 0.9940562
vn 0 0.073517 0.9972939
vn 0.9936098 -0.1128684 0
vn 0.9992139 -0.03964076 0
vn 0.9992139 -0.03964076 0
vn 0.9936098 -0.1128684 0
vn 0.9647839 -0.2630438 0
vn 0.9647839 -0.2630438 0
vn 0.9386047 -0.3449944 0
vn 0.9386047 -0.3449944 0
vn -0.964784 -0.2630435 0
vn -0.938605 -0.3449939 0
vn -0.938605 -0.344994 0
vn -0.964784 -0.2630435 0
vn -0.99361 -0.112868 0
vn -0.99361 -0.112868 0
vn -0.9992141 -0.03964038 0
vn -0.9992141 -0.03964038 0
g shizijia_0
f 3/3/3 2/2/2 1/1/1
f 5/5/5 4/4/4 3/3/3
f 8/8/8 7/7/7 6/6/6
f 10/10/10 9/9/9 8/8/8
f 13/13/13 12/12/12 11/11/11
f 15/15/15 14/14/14 13/13/13
f 18/18/18 17/17/17 16/16/16
f 20/20/20 19/19/19 18/18/18
f 23/23/23 22/22/22 21/21/21
f 24/24/24 21/21/21 22/22/22
f 21/21/21 24/24/24 25/25/25
f 26/26/26 25/25/25 24/24/24
f 26/26/26 27/27/27 25/25/25
f 28/28/28 25/25/25 27/27/27
f 29/29/29 28/28/28 27/27/27
f 32/32/32 31/31/31 30/30/30
f 33/33/33 30/30/30 31/31/31
f 30/30/30 33/33/33 34/34/34
f 35/35/35 34/34/34 33/33/33
f 35/35/35 36/36/36 34/34/34
f 37/37/37 34/34/34 36/36/36
f 38/38/38 37/37/37 36/36/36
f 41/41/41 40/40/40 39/39/39
f 42/42/42 39/39/39 40/40/40
f 39/39/39 42/42/42 43/43/43
f 44/44/44 43/43/43 42/42/42
f 43/43/43 44/44/44 45/45/45
f 46/46/46 45/45/45 44/44/44
f 49/49/49 48/48/48 47/47/47
f 50/50/50 47/47/47 48/48/48
f 47/47/47 50/50/50 51/51/51
f 52/52/52 51/51/51 50/50/50
f 51/51/51 52/52/52 53/53/53
f 54/54/54 53/53/53 52/52/52
f 57/57/57 56/56/56 55/55/55
f 58/58/58 55/55/55 56/56/56
f 55/55/55 58/58/58 59/59/59
f 60/60/60 59/59/59 58/58/58
f 60/60/60 61/61/61 59/59/59
f 62/62/62 59/59/59 61/61/61
f 63/63/63 62/62/62 61/61/61
f 66/66/66 65/65/65 64/64/64
f 67/67/67 64/64/64 65/65/65
f 64/64/64 67/67/67 68/68/68
f 69/69/69 68/68/68 67/67/67
f 69/69/69 70/70/70 68/68/68
f 71/71/71 68/68/68 70/70/70
f 72/72/72 71/71/71 70/70/70
f 75/75/75 74/74/74 73/73/73
f 76/76/76 73/73/73 74/74/74
f 73/73/73 76/76/76 77/77/77
f 78/78/78 77/77/77 76/76/76
f 77/77/77 78/78/78 79/79/79
f 80/80/80 79/79/79 78/78/78
f 83/83/83 82/82/82 81/81/81
f 84/84/84 81/81/81 82/82/82
f 81/81/81 84/84/84 85/85/85
f 86/86/86 85/85/85 84/84/84
f 85/85/85 86/86/86 87/87/87
f 88/88/88 87/87/87 86/86/86
f 91/91/91 90/90/90 89/89/89
f 92/92/92 89/89/89 90/90/90
f 89/89/89 92/92/92 93/93/93
f 94/94/94 93/93/93 92/92/92
f 94/94/94 95/95/95 93/93/93
f 96/96/96 93/93/93 95/95/95
f 97/97/97 96/96/96 95/95/95
f 100/100/100 99/99/99 98/98/98
f 101/101/101 98/98/98 99/99/99
f 98/98/98 101/101/101 102/102/102
f 103/103/103 102/102/102 101/101/101
f 103/103/103 104/104/104 102/102/102
f 105/105/105 102/102/102 104/104/104
f 106/106/106 105/105/105 104/104/104
f 109/109/109 108/108/108 107/107/107
f 110/110/110 107/107/107 108/108/108
f 107/107/107 110/110/110 111/111/111
f 112/112/112 111/111/111 110/110/110
f 111/111/111 112/112/112 113/113/113
f 114/114/114 113/113/113 112/112/112
f 117/117/117 116/116/116 115/115/115
f 118/118/118 115/115/115 116/116/116
f 115/115/115 118/118/118 119/119/119
f 120/120/120 119/119/119 118/118/118
f 119/119/119 120/120/120 121/121/121
f 122/122/122 121/121/121 120/120/120
f 125/125/125 124/124/124 123/123/123
f 126/126/126 123/123/123 124/124/124
f 123/123/123 126/126/126 127/127/127
f 128/128/128 127/127/127 126/126/126
f 128/128/128 129/129/129 127/127/127
f 130/130/130 127/127/127 129/129/129
f 131/131/131 130/130/130 129/129/129
f 134/134/134 133/133/133 132/132/132
f 135/135/135 132/132/132 133/133/133
f 132/132/132 135/135/135 136/136/136
f 137/137/137 136/136/136 135/135/135
f 137/137/137 138/138/138 136/136/136
f 139/139/139 136/136/136 138/138/138
f 140/140/140 139/139/139 138/138/138
f 143/143/143 142/142/142 141/141/141
f 144/144/144 141/141/141 142/142/142
f 141/141/141 144/144/144 145/145/145
f 146/146/146 145/145/145 144/144/144
f 145/145/145 146/146/146 147/147/147
f 148/148/148 147/147/147 146/146/146
f 151/151/151 150/150/150 149/149/149
f 152/152/152 149/149/149 150/150/150
f 149/149/149 152/152/152 153/153/153
f 154/154/154 153/153/153 152/152/152
f 153/153/153 154/154/154 155/155/155
f 156/156/156 155/155/155 154/154/154
