g shoulderblade_spikes
v -0.08130854 0.4561033 -0.4106008
v -0.2147177 0.4903176 -0.3222661
v -0.2640582 0.6418322 -0.6070042
v -0.3146815 0.6250923 -0.6071395
v -0.2653411 0.4735776 -0.3224027
v -0.3516253 0.3667157 -0.4113253
v -0.3144576 0.3236893 -0.361028
v -0.2480378 0.40595 -0.2925773
v -0.2088442 0.287518 -0.304162
v -0.3407663 0.3342088 -0.4521697
v -0.207357 0.2999945 -0.5405043
v -0.3038225 0.5925853 -0.6479838
v -0.2531991 0.6093253 -0.6478485
v -0.1567337 0.3167345 -0.540369
v -0.07044953 0.4235964 -0.4514464
v -0.4894295 0.4080385 -0.2166871
v -0.563664 0.3777839 -0.2102982
v -0.5723064 0.4797957 -0.3337353
v -0.5864079 0.4622942 -0.3472119
v -0.5777655 0.3602825 -0.2237748
v -0.5647243 0.3145843 -0.2886484
v -0.5482857 0.2960042 -0.2607825
v -0.5583242 0.3311816 -0.2108431
v -0.5096333 0.2935452 -0.2129121
v -0.5446128 0.311027 -0.3050698
v -0.4703783 0.3412817 -0.3114588
v -0.5662975 0.4587357 -0.3636332
v -0.552196 0.4762371 -0.3501566
v -0.4562781 0.358783 -0.2979822
v -0.4693192 0.4044812 -0.2331085
v -0.1492426 0.3072261 -0.3040021
v -0.1884362 0.425658 -0.2924173
v -0.08574045 0.3993211 -0.3604154
v -0.2088442 0.287518 -0.304162
v -0.2480378 0.40595 -0.2925773
v -0.3016735 0.2854158 -0.4091173
v -0.1960589 0.2492445 -0.3522502
v -0.1989766 0.2590789 -0.4771154
v -0.3144576 0.3236893 -0.361028
v -0.2088442 0.287518 -0.304162
v -0.2147177 0.4903176 -0.3222661
v -0.08130854 0.4561033 -0.4106008
v -0.08574045 0.3993211 -0.3604154
v -0.1884362 0.425658 -0.2924173
v -0.2653411 0.4735776 -0.3224027
v -0.3146815 0.6250923 -0.6071395
v -0.2640582 0.6418322 -0.6070042
v -0.2147177 0.4903176 -0.3222661
v -0.2480378 0.40595 -0.2925773
v -0.3144576 0.3236893 -0.361028
v -0.3516253 0.3667157 -0.4113253
v -0.2653411 0.4735776 -0.3224027
v -0.1492426 0.3072261 -0.3040021
v -0.08574045 0.3993211 -0.3604154
v -0.07295519 0.3610488 -0.4085048
v -0.1364585 0.2689538 -0.3520903
v -0.2088442 0.287518 -0.304162
v -0.139375 0.2787882 -0.4769567
v -0.1960589 0.2492445 -0.3522502
v -0.1989766 0.2590789 -0.4771154
v -0.207357 0.2999945 -0.5405043
v -0.3407663 0.3342088 -0.4521697
v -0.3016735 0.2854158 -0.4091173
v -0.1989766 0.2590789 -0.4771154
v -0.1567337 0.3167345 -0.540369
v -0.2531991 0.6093253 -0.6478485
v -0.3038225 0.5925853 -0.6479838
v -0.207357 0.2999945 -0.5405043
v -0.139375 0.2787882 -0.4769567
v -0.07295519 0.3610488 -0.4085048
v -0.07044953 0.4235964 -0.4514464
v -0.1567337 0.3167345 -0.540369
v -0.08130854 0.4561033 -0.4106008
v -0.2640582 0.6418322 -0.6070042
v -0.2531991 0.6093253 -0.6478485
v -0.07044953 0.4235964 -0.4514464
v -0.3407663 0.3342088 -0.4521697
v -0.3038225 0.5925853 -0.6479838
v -0.3146815 0.6250923 -0.6071395
v -0.3516253 0.3667157 -0.4113253
v -0.1884362 0.425658 -0.2924173
v -0.2480378 0.40595 -0.2925773
v -0.2653411 0.4735776 -0.3224027
v -0.2147177 0.4903176 -0.3222661
v -0.139375 0.2787882 -0.4769567
v -0.1567337 0.3167345 -0.540369
v -0.207357 0.2999945 -0.5405043
v -0.1989766 0.2590789 -0.4771154
v -0.08574045 0.3993211 -0.3604154
v -0.08130854 0.4561033 -0.4106008
v -0.07044953 0.4235964 -0.4514464
v -0.07295519 0.3610488 -0.4085048
v -0.3016735 0.2854158 -0.4091173
v -0.3407663 0.3342088 -0.4521697
v -0.3516253 0.3667157 -0.4113253
v -0.3144576 0.3236893 -0.361028
v -0.2531991 0.6093253 -0.6478485
v -0.2640582 0.6418322 -0.6070042
v -0.3146815 0.6250923 -0.6071395
v -0.3038225 0.5925853 -0.6479838
v -0.4930311 0.3141501 -0.1970442
v -0.5417233 0.3517876 -0.1949765
v -0.4845781 0.3750777 -0.1998943
v -0.5096333 0.2935452 -0.2129121
v -0.5583242 0.3311816 -0.2108431
v -0.5246081 0.2918158 -0.2801155
v -0.4859558 0.2893557 -0.232245
v -0.467463 0.3151059 -0.2850333
v -0.5482857 0.2960042 -0.2607825
v -0.5096333 0.2935452 -0.2129121
v -0.563664 0.3777839 -0.2102982
v -0.4894295 0.4080385 -0.2166871
v -0.4845781 0.3750777 -0.1998943
v -0.5417233 0.3517876 -0.1949765
v -0.5777655 0.3602825 -0.2237748
v -0.5864079 0.4622942 -0.3472119
v -0.5723064 0.4797957 -0.3337353
v -0.563664 0.3777839 -0.2102982
v -0.5583242 0.3311816 -0.2108431
v -0.5482857 0.2960042 -0.2607825
v -0.5647243 0.3145843 -0.2886484
v -0.5777655 0.3602825 -0.2237748
v -0.4930311 0.3141501 -0.1970442
v -0.4845781 0.3750777 -0.1998943
v -0.4609007 0.3708881 -0.2192272
v -0.4693549 0.3099617 -0.2163784
v -0.5096333 0.2935452 -0.2129121
v -0.4508621 0.3357107 -0.2691666
v -0.4859558 0.2893557 -0.232245
v -0.467463 0.3151059 -0.2850333
v -0.4703783 0.3412817 -0.3114588
v -0.5446128 0.311027 -0.3050698
v -0.5246081 0.2918158 -0.2801155
v -0.467463 0.3151059 -0.2850333
v -0.4562781 0.358783 -0.2979822
v -0.552196 0.4762371 -0.3501566
v -0.5662975 0.4587357 -0.3636332
v -0.4703783 0.3412817 -0.3114588
v -0.4508621 0.3357107 -0.2691666
v -0.4609007 0.3708881 -0.2192272
v -0.4693192 0.4044812 -0.2331085
v -0.4562781 0.358783 -0.2979822
v -0.4894295 0.4080385 -0.2166871
v -0.5723064 0.4797957 -0.3337353
v -0.552196 0.4762371 -0.3501566
v -0.4693192 0.4044812 -0.2331085
v -0.5446128 0.311027 -0.3050698
v -0.5662975 0.4587357 -0.3636332
v -0.5864079 0.4622942 -0.3472119
v -0.5647243 0.3145843 -0.2886484
v -0.5417233 0.3517876 -0.1949765
v -0.5583242 0.3311816 -0.2108431
v -0.5777655 0.3602825 -0.2237748
v -0.563664 0.3777839 -0.2102982
v -0.4508621 0.3357107 -0.2691666
v -0.4562781 0.358783 -0.2979822
v -0.4703783 0.3412817 -0.3114588
v -0.467463 0.3151059 -0.2850333
v -0.4845781 0.3750777 -0.1998943
v -0.4894295 0.4080385 -0.2166871
v -0.4693192 0.4044812 -0.2331085
v -0.4609007 0.3708881 -0.2192272
v -0.5246081 0.2918158 -0.2801155
v -0.5446128 0.311027 -0.3050698
v -0.5647243 0.3145843 -0.2886484
v -0.5482857 0.2960042 -0.2607825
v -0.552196 0.4762371 -0.3501566
v -0.5723064 0.4797957 -0.3337353
v -0.5864079 0.4622942 -0.3472119
v -0.5662975 0.4587357 -0.3636332
vt 0.0552852 0.404587
vt 0.0731921 0.404587
vt 0.0552852 0.3207152
vt 0.0552852 0.2495242
vt 0.0731921 0.3334025
vt 0.0552852 0.3334025
vt 0.05810678 0.1486578
vt 0.07189535 0.1486578
vt 0.05810678 0.2054542
vt 0.07130888 0.404991
vt 0.05339546 0.404991
vt 0.05339546 0.3211127
vt 0.0529328 0.2499282
vt 0.0529328 0.3338065
vt 0.0708397 0.3338065
vt 0.0552852 0.404587
vt 0.0731921 0.404587
vt 0.0552852 0.3207152
vt 0.0552852 0.2495242
vt 0.0731921 0.3334025
vt 0.0552852 0.3334025
vt 0.05810678 0.1486578
vt 0.07189535 0.1486578
vt 0.05810678 0.2054542
vt 0.07130888 0.404991
vt 0.05339546 0.404991
vt 0.05339546 0.3211127
vt 0.0529328 0.2499282
vt 0.0529328 0.3338065
vt 0.0708397 0.3338065
vt 0.05744211 0.1363615
vt 0.05744211 0.07956508
vt 0.07122417 0.07956508
vt 0.05258092 0.1414768
vt 0.05258092 0.08645937
vt 0.07169335 0.07956508
vt 0.05790477 0.1363615
vt 0.05790477 0.07956508
vt 0.07487983 0.08645937
vt 0.06152134 0.1414768
vt 0.06691687 0.3457705
vt 0.04900997 0.3457705
vt 0.05330423 0.3488463
vt 0.06623916 0.3488463
vt 0.0731921 0.4444149
vt 0.0552852 0.3605366
vt 0.05925365 0.3598067
vt 0.07708887 0.4433332
vt 0.06623916 0.3484814
vt 0.05330423 0.3484814
vt 0.04900997 0.3454056
vt 0.06691687 0.3454056
vt 0.06105868 0.2088036
vt 0.07441065 0.1537927
vt 0.07122417 0.1468984
vt 0.05744211 0.2036883
vt 0.05550676 0.2196077
vt 0.05744211 0.1468984
vt 0.05258092 0.2088036
vt 0.05258092 0.1537927
vt 0.04712023 0.3458422
vt 0.06503364 0.3458422
vt 0.06434943 0.3489245
vt 0.0514145 0.3489245
vt 0.04927062 0.4427662
vt 0.04927062 0.3592333
vt 0.05339546 0.3599631
vt 0.05339546 0.4438415
vt 0.05116687 0.3482989
vt 0.06494893 0.3482989
vt 0.06834394 0.3455881
vt 0.0540471 0.3455881
vt 0.0552852 0.443444
vt 0.0552852 0.3595656
vt 0.05116036 0.3588358
vt 0.05116036 0.4423622
vt 0.07130888 0.4438415
vt 0.05339546 0.3599631
vt 0.05737043 0.3592333
vt 0.07519913 0.4427662
vt 0.07089835 0.3786129
vt 0.06623916 0.3786129
vt 0.06691687 0.3755372
vt 0.07081364 0.3753417
vt 0.05116687 0.3776354
vt 0.0540471 0.3749247
vt 0.05026762 0.3749247
vt 0.04630569 0.3783588
vt 0.06813543 0.3783588
vt 0.07212342 0.3749247
vt 0.06834394 0.3749247
vt 0.06494893 0.3776354
vt 0.06434943 0.378261
vt 0.06503364 0.3751853
vt 0.0689239 0.3749898
vt 0.06901513 0.378261
vt 0.04927062 0.4726176
vt 0.05314784 0.4710472
vt 0.05737043 0.4726241
vt 0.05339546 0.473354
vt 0.05744211 0.1363615
vt 0.05744211 0.07956508
vt 0.07122417 0.07956508
vt 0.05258092 0.1414768
vt 0.05258092 0.08645937
vt 0.07169335 0.07956508
vt 0.05790477 0.1363615
vt 0.05790477 0.07956508
vt 0.07487983 0.08645937
vt 0.06152134 0.1414768
vt 0.06691687 0.3457705
vt 0.04900997 0.3457705
vt 0.05330423 0.3488463
vt 0.06623916 0.3488463
vt 0.0731921 0.4444149
vt 0.0552852 0.3605366
vt 0.05925365 0.3598067
vt 0.07708887 0.4433332
vt 0.06623916 0.3484814
vt 0.05330423 0.3484814
vt 0.04900997 0.3454056
vt 0.06691687 0.3454056
vt 0.06105868 0.2088036
vt 0.07441065 0.1537927
vt 0.07122417 0.1468984
vt 0.05744211 0.2036883
vt 0.05550676 0.2196077
vt 0.05744211 0.1468984
vt 0.05258092 0.2088036
vt 0.05258092 0.1537927
vt 0.04712023 0.3458422
vt 0.06503364 0.3458422
vt 0.06434943 0.3489245
vt 0.0514145 0.3489245
vt 0.04927062 0.4427662
vt 0.04927062 0.3592333
vt 0.05339546 0.3599631
vt 0.05339546 0.4438415
vt 0.05116687 0.3482989
vt 0.06494893 0.3482989
vt 0.06834394 0.3455881
vt 0.0540471 0.3455881
vt 0.0552852 0.443444
vt 0.0552852 0.3595656
vt 0.05116036 0.3588358
vt 0.05116036 0.4423622
vt 0.07130888 0.4438415
vt 0.05339546 0.3599631
vt 0.05737043 0.3592333
vt 0.07519913 0.4427662
vt 0.07089835 0.3786129
vt 0.06623916 0.3786129
vt 0.06691687 0.3755372
vt 0.07081364 0.3753417
vt 0.05116687 0.3776354
vt 0.0540471 0.3749247
vt 0.05026762 0.3749247
vt 0.04630569 0.3783588
vt 0.06813543 0.3783588
vt 0.07212342 0.3749247
vt 0.06834394 0.3749247
vt 0.06494893 0.3776354
vt 0.06434943 0.378261
vt 0.06503364 0.3751853
vt 0.0689239 0.3749898
vt 0.06901513 0.378261
vt 0.04927062 0.4726176
vt 0.05314784 0.4710472
vt 0.05737043 0.4726241
vt 0.05339546 0.473354
vn 0.6882126 0.6881987 0.2296646
vn 0.2114668 0.8093076 0.547999
vn 0.3306533 0.9323388 0.1463313
vn -0.8227641 0.551711 0.1366536
vn -0.6555186 0.5228756 0.5448821
vn -0.9630966 0.1422479 0.2284964
vn -0.726646 -0.3152744 0.6103996
vn -0.4536706 0.02113909 0.8909187
vn -0.2210647 -0.5132776 0.8292626
vn -0.7766275 -0.4152372 -0.4737382
vn -0.3018039 -0.5363461 -0.7881924
vn -0.5747793 -0.1903208 -0.7958686
vn 0.578638 0.1922293 -0.7926071
vn 0.5651815 -0.2499141 -0.7862015
vn 0.8746818 0.1307136 -0.4667394
vn 0.05191076 0.7804721 0.6230317
vn -0.4863507 0.5594005 0.6712183
vn -0.3171828 0.8631337 0.3929316
vn -0.970786 0.0499745 -0.2346849
vn -0.9784755 -0.04998839 0.200217
vn -0.8842797 -0.3806347 -0.2704934
vn -0.5920807 -0.7977873 0.1139119
vn -0.6747423 -0.5036659 0.5394845
vn -0.1826175 -0.8208557 0.5411532
vn -0.1826175 -0.5055882 -0.8432268
vn 0.355644 -0.2864389 -0.8896461
vn -0.03844029 -0.1153487 -0.992581
vn 0.6151628 0.6978106 -0.3669265
vn 0.8477687 0.3248723 -0.4192209
vn 0.753573 0.6555186 0.04922477
vn 0.4786752 -0.2806718 0.8319215
vn 0.3479545 0.2864251 0.892686
vn 0.7689519 0.1787727 0.6138023
vn -0.2210647 -0.5132776 0.8292626
vn -0.4536706 0.02113909 0.8909187
vn -0.5555558 -0.8304675 -0.0410069
vn -0.07112044 -0.9611881 0.2665694
vn -0.132636 -0.9400421 -0.3142109
vn -0.726646 -0.3152744 0.6103996
vn -0.2210647 -0.5132776 0.8292626
vn 0.2114668 0.8093076 0.547999
vn 0.6882126 0.6881987 0.2296646
vn 0.7689519 0.1787727 0.6138023
vn 0.3479545 0.2864251 0.892686
vn -0.6555186 0.5228756 0.5448821
vn -0.8227641 0.551711 0.1366536
vn 0.3306533 0.9323388 0.1463313
vn 0.2114668 0.8093076 0.547999
vn -0.4536706 0.02113909 0.8909187
vn -0.726646 -0.3152744 0.6103996
vn -0.9630966 0.1422479 0.2284964
vn -0.6555186 0.5228756 0.5448821
vn 0.4786752 -0.2806718 0.8319215
vn 0.7689519 0.1787727 0.6138023
vn 0.9417406 -0.3363404 0
vn 0.6286194 -0.7305046 0.2668343
vn -0.2210647 -0.5132776 0.8292626
vn 0.6689891 -0.6747562 -0.3117014
vn -0.07112044 -0.9611881 0.2665694
vn -0.132636 -0.9400421 -0.3142109
vn -0.3018039 -0.5363461 -0.7881924
vn -0.7766275 -0.4152372 -0.4737382
vn -0.5555558 -0.8304675 -0.0410069
vn -0.132636 -0.9400421 -0.3142109
vn 0.5651815 -0.2499141 -0.7862015
vn 0.578638 0.1922293 -0.7926071
vn -0.5747793 -0.1903208 -0.7958686
vn -0.3018039 -0.5363461 -0.7881924
vn 0.6689891 -0.6747562 -0.3117014
vn 0.9417406 -0.3363404 0
vn 0.8746818 0.1307136 -0.4667394
vn 0.5651815 -0.2499141 -0.7862015
vn 0.6882126 0.6881987 0.2296646
vn 0.3306533 0.9323388 0.1463313
vn 0.578638 0.1922293 -0.7926071
vn 0.8746818 0.1307136 -0.4667394
vn -0.7766275 -0.4152372 -0.4737382
vn -0.5747793 -0.1903208 -0.7958686
vn -0.8227641 0.551711 0.1366536
vn -0.9630966 0.1422479 0.2284964
vn 0.3479545 0.2864251 0.892686
vn -0.4536706 0.02113909 0.8909187
vn -0.6555186 0.5228756 0.5448821
vn 0.2114668 0.8093076 0.547999
vn 0.6689891 -0.6747562 -0.3117014
vn 0.5651815 -0.2499141 -0.7862015
vn -0.3018039 -0.5363461 -0.7881924
vn -0.132636 -0.9400421 -0.3142109
vn 0.7689519 0.1787727 0.6138023
vn 0.6882126 0.6881987 0.2296646
vn 0.8746818 0.1307136 -0.4667394
vn 0.9417406 -0.3363404 0
vn -0.5555558 -0.8304675 -0.0410069
vn -0.7766275 -0.4152372 -0.4737382
vn -0.9630966 0.1422479 0.2284964
vn -0.726646 -0.3152744 0.6103996
vn 0.578638 0.1922293 -0.7926071
vn 0.3306533 0.9323388 0.1463313
vn -0.8227641 0.551711 0.1366536
vn -0.5747793 -0.1903208 -0.7958686
vn 0.2133892 -0.3287309 0.9200006
vn -0.2210647 0.0615086 0.9733176
vn 0.2556812 0.2556673 0.9323419
vn -0.1826175 -0.8208557 0.5411532
vn -0.6747423 -0.5036659 0.5394845
vn 0.05575544 -0.9112067 -0.4081588
vn 0.382557 -0.9208185 0.07578512
vn 0.5344237 -0.7170481 -0.4474743
vn -0.5920807 -0.7977873 0.1139119
vn -0.1826175 -0.8208557 0.5411532
vn -0.4863507 0.5594005 0.6712183
vn 0.05191076 0.7804721 0.6230317
vn 0.2556812 0.2556673 0.9323419
vn -0.2210647 0.0615086 0.9733176
vn -0.9784755 -0.04998839 0.200217
vn -0.970786 0.0499745 -0.2346849
vn -0.3171828 0.8631337 0.3929316
vn -0.4863507 0.5594005 0.6712183
vn -0.6747423 -0.5036659 0.5394845
vn -0.5920807 -0.7977873 0.1139119
vn -0.8842797 -0.3806347 -0.2704934
vn -0.9784755 -0.04998839 0.200217
vn 0.2133892 -0.3287309 0.9200006
vn 0.2556812 0.2556673 0.9323419
vn 0.9035172 0.1403255 0.4049263
vn 0.7785637 -0.4286938 0.4583233
vn -0.1826175 -0.8208557 0.5411532
vn 0.9881012 -0.153796 -0.001695306
vn 0.382557 -0.9208185 0.07578512
vn 0.5344237 -0.7170481 -0.4474743
vn 0.355644 -0.2864389 -0.8896461
vn -0.1826175 -0.5055882 -0.8432268
vn 0.05575544 -0.9112067 -0.4081588
vn 0.5344237 -0.7170481 -0.4474743
vn 0.8477687 0.3248723 -0.4192209
vn 0.6151628 0.6978106 -0.3669265
vn -0.03844029 -0.1153487 -0.992581
vn 0.355644 -0.2864389 -0.8896461
vn 0.9881012 -0.153796 -0.001695306
vn 0.9035172 0.1403255 0.4049263
vn 0.753573 0.6555186 0.04922477
vn 0.8477687 0.3248723 -0.4192209
vn 0.05191076 0.7804721 0.6230317
vn -0.3171828 0.8631337 0.3929316
vn 0.6151628 0.6978106 -0.3669265
vn 0.753573 0.6555186 0.04922477
vn -0.1826175 -0.5055882 -0.8432268
vn -0.03844029 -0.1153487 -0.992581
vn -0.970786 0.0499745 -0.2346849
vn -0.8842797 -0.3806347 -0.2704934
vn -0.2210647 0.0615086 0.9733176
vn -0.6747423 -0.5036659 0.5394845
vn -0.9784755 -0.04998839 0.200217
vn -0.4863507 0.5594005 0.6712183
vn 0.9881012 -0.153796 -0.001695306
vn 0.8477687 0.3248723 -0.4192209
vn 0.355644 -0.2864389 -0.8896461
vn 0.5344237 -0.7170481 -0.4474743
vn 0.2556812 0.2556673 0.9323419
vn 0.05191076 0.7804721 0.6230317
vn 0.753573 0.6555186 0.04922477
vn 0.9035172 0.1403255 0.4049263
vn 0.05575544 -0.9112067 -0.4081588
vn -0.1826175 -0.5055882 -0.8432268
vn -0.8842797 -0.3806347 -0.2704934
vn -0.5920807 -0.7977873 0.1139119
vn 0.6151628 0.6978106 -0.3669265
vn -0.3171828 0.8631337 0.3929316
vn -0.970786 0.0499745 -0.2346849
vn -0.03844029 -0.1153487 -0.992581
g shoulderblade_spikes_0
f 3/3/3 2/2/2 1/1/1
f 6/6/6 5/5/5 4/4/4
f 9/9/9 8/8/8 7/7/7
f 12/12/12 11/11/11 10/10/10
f 15/15/15 14/14/14 13/13/13
f 18/18/18 17/17/17 16/16/16
f 21/21/21 20/20/20 19/19/19
f 24/24/24 23/23/23 22/22/22
f 27/27/27 26/26/26 25/25/25
f 30/30/30 29/29/29 28/28/28
f 33/33/33 32/32/32 31/31/31
f 34/34/34 31/31/31 32/32/32
f 35/35/35 34/34/34 32/32/32
f 38/38/38 37/37/37 36/36/36
f 39/39/39 36/36/36 37/37/37
f 40/40/40 39/39/39 37/37/37
f 43/43/43 42/42/42 41/41/41
f 44/44/44 43/43/43 41/41/41
f 47/47/47 46/46/46 45/45/45
f 48/48/48 47/47/47 45/45/45
f 51/51/51 50/50/50 49/49/49
f 52/52/52 51/51/51 49/49/49
f 55/55/55 54/54/54 53/53/53
f 56/56/56 55/55/55 53/53/53
f 56/56/56 53/53/53 57/57/57
f 55/55/55 56/56/56 58/58/58
f 59/59/59 56/56/56 57/57/57
f 60/60/60 58/58/58 56/56/56
f 59/59/59 60/60/60 56/56/56
f 63/63/63 62/62/62 61/61/61
f 64/64/64 63/63/63 61/61/61
f 67/67/67 66/66/66 65/65/65
f 68/68/68 67/67/67 65/65/65
f 71/71/71 70/70/70 69/69/69
f 72/72/72 71/71/71 69/69/69
f 75/75/75 74/74/74 73/73/73
f 76/76/76 75/75/75 73/73/73
f 79/79/79 78/78/78 77/77/77
f 80/80/80 79/79/79 77/77/77
f 83/83/83 82/82/82 81/81/81
f 84/84/84 83/83/83 81/81/81
f 87/87/87 86/86/86 85/85/85
f 88/88/88 87/87/87 85/85/85
f 91/91/91 90/90/90 89/89/89
f 92/92/92 91/91/91 89/89/89
f 95/95/95 94/94/94 93/93/93
f 96/96/96 95/95/95 93/93/93
f 99/99/99 98/98/98 97/97/97
f 100/100/100 99/99/99 97/97/97
f 103/103/103 102/102/102 101/101/101
f 104/104/104 101/101/101 102/102/102
f 105/105/105 104/104/104 102/102/102
f 108/108/108 107/107/107 106/106/106
f 109/109/109 106/106/106 107/107/107
f 110/110/110 109/109/109 107/107/107
f 113/113/113 112/112/112 111/111/111
f 114/114/114 113/113/113 111/111/111
f 117/117/117 116/116/116 115/115/115
f 118/118/118 117/117/117 115/115/115
f 121/121/121 120/120/120 119/119/119
f 122/122/122 121/121/121 119/119/119
f 125/125/125 124/124/124 123/123/123
f 126/126/126 125/125/125 123/123/123
f 126/126/126 123/123/123 127/127/127
f 125/125/125 126/126/126 128/128/128
f 129/129/129 126/126/126 127/127/127
f 130/130/130 128/128/128 126/126/126
f 129/129/129 130/130/130 126/126/126
f 133/133/133 132/132/132 131/131/131
f 134/134/134 133/133/133 131/131/131
f 137/137/137 136/136/136 135/135/135
f 138/138/138 137/137/137 135/135/135
f 141/141/141 140/140/140 139/139/139
f 142/142/142 141/141/141 139/139/139
f 145/145/145 144/144/144 143/143/143
f 146/146/146 145/145/145 143/143/143
f 149/149/149 148/148/148 147/147/147
f 150/150/150 149/149/149 147/147/147
f 153/153/153 152/152/152 151/151/151
f 154/154/154 153/153/153 151/151/151
f 157/157/157 156/156/156 155/155/155
f 158/158/158 157/157/157 155/155/155
f 161/161/161 160/160/160 159/159/159
f 162/162/162 161/161/161 159/159/159
f 165/165/165 164/164/164 163/163/163
f 166/166/166 165/165/165 163/163/163
f 169/169/169 168/168/168 167/167/167
f 170/170/170 169/169/169 167/167/167
