g Wq06_02
v 0.03958819 0.09553698 0.06819665
v -0.0002212095 0.06488162 0.03879311
v -0.0004873133 0.0819124 0.03860332
v 0.03984775 0.07891491 0.06838238
v 0.04590292 0.07892063 0.06030596
v -2.504349E-05 0.06224366 0.02466919
v 0.04564194 0.09555308 0.06010952
v 0.03984775 0.07891491 0.06838238
v 0.03958819 0.09553698 0.06819665
v -2.504349E-05 0.07977494 0.02461076
v -0.0004873133 0.0819124 0.03860332
v 0.03958819 0.09553698 0.06819665
v -0.02603979 -0.1751276 0.03906313
v -1.123688E-19 -0.2402341 0.03906311
v -1.354217E-06 -0.1612937 0.03030553
v 0.02577331 -0.1750421 0.03906313
v -0.04583287 0.03919397 0.06023498
v -0.03947883 0.09529977 0.06810039
v -0.03979254 0.03918567 0.06831021
v -0.04552881 0.09531683 0.06002321
v -2.504349E-05 0.07977494 0.02461076
v -0.03947883 0.09529977 0.06810039
v 0.0004801559 0.08176199 0.03859925
v -2.504349E-05 0.01865915 0.0248144
v 0.0001711225 0.02094073 0.03879958
v -0.03979254 0.03918567 0.06831021
v -0.03947883 0.09529977 0.06810039
v 0.0004801559 0.08176199 0.03859925
v -0.003700256 0.09233079 0.03536612
v -3.538132E-06 -0.04008316 0.03383485
v -3.538132E-06 0.09233079 0.03383489
v -0.003700256 -0.04008316 0.03536608
v -0.005231485 0.09233079 0.03906291
v -0.005231485 -0.04008316 0.03906287
v -0.003700256 0.09233079 0.04275956
v -0.003700256 -0.04008316 0.04275952
v -3.538132E-06 0.09233079 0.04429078
v -3.538132E-06 -0.04008317 0.04429075
v 0.00369318 0.09233079 0.04275956
v 0.00369318 -0.04008316 0.04275952
v 0.005224409 0.09233079 0.03906291
v 0.005224409 -0.04008316 0.03906287
v 0.00369318 0.09233079 0.03536612
v 0.00369318 -0.04008316 0.03536608
v -3.538132E-06 0.09233079 0.03383489
v -3.538132E-06 -0.04008316 0.03383485
v -0.03986386 0.01605305 0.06838643
v 0.0004402399 0.02073675 0.03861158
v 0.0002144337 0.002005831 0.0387934
v -0.039637 0.03118046 0.06821334
v -2.504349E-05 0.01865915 0.0248144
v -0.04568788 0.03116308 0.06012562
v -0.04590992 0.01603694 0.0602993
v -0.039637 0.03118046 0.06821334
v -0.03986386 0.01605305 0.06838643
v -2.504349E-05 -0.0001348733 0.02480053
v -0.03986386 0.01605305 0.06838643
v 0.0002144337 0.002005831 0.0387934
v 0.03958044 0.07217205 0.06815174
v 0.04579069 0.01623698 0.06022519
v 0.03973989 0.01623228 0.06829167
v 0.04560985 0.07211871 0.06007442
v -2.504349E-05 0.06224366 0.02466919
v 0.03958044 0.07217205 0.06815174
v -0.0004150057 0.06511466 0.03861475
v -2.504349E-05 -0.0001348733 0.02480053
v 0.03973989 0.01623228 0.06829167
v -0.0002213621 0.002288898 0.03878918
v -0.0004150057 0.06511466 0.03861475
v 0.03958044 0.07217205 0.06815174
v -3.538132E-06 -0.04008316 0.03383485
v -3.538132E-06 -0.1724971 0.0338348
v 0.00369318 -0.1724971 0.03536603
v 0.00369318 -0.04008316 0.03536608
v 0.005224409 -0.1724971 0.03906283
v 0.005224409 -0.04008316 0.03906287
v 0.00369318 -0.1724971 0.04275947
v 0.00369318 -0.04008316 0.04275952
v -3.538132E-06 -0.1724971 0.0442907
v -3.538132E-06 -0.04008317 0.04429075
v -0.003700256 -0.1724971 0.04275947
v -0.003700256 -0.04008316 0.04275952
v -0.005231485 -0.1724971 0.03906283
v -0.005231485 -0.04008316 0.03906287
v -0.003700256 -0.1724971 0.03536603
v -0.003700256 -0.04008316 0.03536608
v -3.538132E-06 -0.1724971 0.0338348
v -3.538132E-06 -0.04008316 0.03383485
v -1.206398E-06 -0.1612937 0.04782059
v -1.123688E-19 -0.2402341 0.03906311
v -0.02603979 -0.1751276 0.03906313
v -1.354217E-06 -0.1612937 0.03030553
v 0.02577331 -0.1750421 0.03906313
v -3.538132E-06 0.09233079 0.04429078
v -3.576279E-06 0.09233079 0.03906284
v 0.00369318 0.09233079 0.04275956
v -0.003700256 0.09233079 0.04275956
v 0.005224409 0.09233079 0.03906291
v -0.005231485 0.09233079 0.03906291
v 0.00369318 0.09233079 0.03536612
v -0.003700256 0.09233079 0.03536612
v -3.538132E-06 0.09233079 0.03383489
vt 0.9795974 0.4497477
vt 0.9146395 0.6584448
vt 0.9768564 0.6436389
vt 0.9188735 0.464198
vt 0.8809903 0.4631017
vt 0.8701447 0.6876348
vt 0.8213629 0.4445085
vt 0.8922939 0.4269277
vt 0.8327132 0.4083188
vt 0.8090878 0.6685637
vt 0.7678272 0.6349619
vt 0.7835398 0.4416891
vt 0.7520771 0.07052788
vt 0.8628953 0.3363101
vt 0.863021 0.01014307
vt 0.9728832 0.07026744
vt 0.5235507 0.3386577
vt 0.6052472 0.5639968
vt 0.5614303 0.3298935
vt 0.5673471 0.5728039
vt 0.33902 0.5588282
vt 0.5659674 0.6157771
vt 0.3685185 0.6095206
vt 0.291312 0.3045151
vt 0.3288606 0.2607431
vt 0.529399 0.2961821
vt 0.6332013 0.08669767
vt 0.4415081 0.03377102
vt 0.009405058 0.8571228
vt 0.7404065 0.8374826
vt 0.009405058 0.8374826
vt 0.7404065 0.8571228
vt 0.009405062 0.8767638
vt 0.7404065 0.8767638
vt 0.009404939 0.896404
vt 0.7404066 0.896404
vt 0.009405054 0.9160442
vt 0.7404065 0.9160442
vt 0.009404756 0.9356849
vt 0.7404065 0.9356852
vt 0.009404764 0.9553254
vt 0.7404065 0.9553253
vt 0.009404756 0.9749655
vt 0.7404065 0.9749655
vt 0.009404823 0.9946057
vt 0.7404064 0.9946057
vt 0.9737347 0.7665708
vt 0.919728 0.9468687
vt 0.9886234 0.9595748
vt 0.9180559 0.7564979
vt 0.8762988 0.9771534
vt 0.8802823 0.7566158
vt 0.8245808 0.7665364
vt 0.8737074 0.7194184
vt 0.8180035 0.7293524
vt 0.8069944 0.9897314
vt 0.7870073 0.7627755
vt 0.7667073 0.9552858
vt 0.3046374 0.09240521
vt 0.2304936 0.3198465
vt 0.2685836 0.3270957
vt 0.266526 0.08540182
vt 0.04343756 0.08071601
vt 0.2681629 0.04254139
vt 0.07591448 0.03255976
vt 0.002779007 0.3451087
vt 0.2350715 0.3624605
vt 0.03892129 0.3900957
vt 0.1317367 0.6368192
vt 0.3177829 0.5821097
vt 0.00925155 0.8166066
vt 0.7402536 0.8166066
vt 0.7402537 0.7969664
vt 0.009251438 0.7969664
vt 0.7402537 0.7773257
vt 0.009251431 0.7773257
vt 0.7402534 0.7576858
vt 0.009251252 0.7576855
vt 0.7402537 0.738045
vt 0.009251423 0.7380451
vt 0.7402537 0.7184043
vt 0.009251367 0.7184044
vt 0.7402535 0.6987641
vt 0.009251431 0.6987642
vt 0.7402535 0.6791234
vt 0.009251427 0.6791235
vt 0.7402535 0.6594833
vt 0.009251427 0.6594834
vt 0.7065004 0.3905633
vt 0.7035459 0.06857117
vt 0.5908241 0.362389
vt 0.707145 0.4575627
vt 0.8205233 0.3605507
vt 0.9412436 0.3789411
vt 0.9443398 0.3395363
vt 0.9142866 0.3652137
vt 0.9700148 0.3695891
vt 0.9049308 0.3364426
vt 0.9837438 0.3426305
vt 0.9186619 0.3094837
vt 0.974388 0.3138594
vt 0.9474334 0.3001307
vn 0.05798494 0.6599452 0.7490728
vn -0.120369 -0.8220669 0.5565225
vn -0.5428585 0.7416141 0.394098
vn 0.1627153 -0.4782233 0.8630332
vn 0.8733913 -0.4814789 -0.07325029
vn 0.6261616 -0.5530024 -0.5496455
vn 0.734242 0.6622767 -0.1492591
vn 0.1627153 -0.4782233 0.8630332
vn 0.05798494 0.6599452 0.7490728
vn 0.4533258 0.4356426 -0.7776319
vn -0.5428585 0.7416141 0.394098
vn 0.05798494 0.6599452 0.7490728
vn -0.9913158 0.1315019 2.952163E-06
vn 0.001360317 -0.999999 -8.909305E-07
vn 0.001147878 0.7039188 -0.7102795
vn 0.9911876 0.1324656 1.406018E-06
vn -0.8861698 -0.4553341 -0.08587223
vn -0.06036599 0.6554569 0.7528161
vn -0.1808803 -0.462451 0.8679985
vn -0.737195 0.6602103 -0.1437566
vn -0.4518754 0.4391595 -0.7764969
vn -0.06036599 0.6554569 0.7528161
vn 0.5441554 0.7371877 0.4005611
vn -0.6536584 -0.5504465 -0.5193642
vn 0.0350808 -0.8323301 0.553169
vn -0.1808803 -0.462451 0.8679985
vn -0.06036599 0.6554569 0.7528161
vn 0.5441554 0.7371877 0.4005611
vn -0.5489875 0.630262 -0.5489834
vn 0 3.240147E-07 -1
vn 0 0.6302626 -0.776382
vn -0.7071093 2.291687E-07 -0.7071041
vn -0.7763821 0.6302626 5.644085E-06
vn -1 0 7.197851E-06
vn -0.5489828 0.6302629 0.5489868
vn -0.7071043 -2.292655E-07 0.7071093
vn 0 0.6302624 0.7763821
vn 0 -3.24205E-07 1
vn 0.5489829 0.6302629 0.5489869
vn 0.7071043 -2.292655E-07 0.7071093
vn 0.7763821 0.6302626 5.644085E-06
vn 1 0 7.197851E-06
vn 0.5489874 0.6302618 -0.5489833
vn 0.7071093 2.291687E-07 -0.7071041
vn 0 0.6302626 -0.776382
vn 0 3.240147E-07 -1
vn -0.1683082 -0.4813683 0.8602076
vn 0.498723 0.7693287 0.3992602
vn 0.1149361 -0.8292332 0.5469571
vn -0.07817253 0.6492293 0.7565649
vn -0.4672565 0.4498346 -0.7611309
vn -0.7521506 0.6417256 -0.1498591
vn -0.8731062 -0.4806505 -0.08161313
vn -0.07817253 0.6492293 0.7565649
vn -0.1683082 -0.4813683 0.8602076
vn -0.6237569 -0.5514787 -0.5538941
vn -0.1683082 -0.4813683 0.8602076
vn 0.1149361 -0.8292332 0.5469571
vn 0.1145013 0.6401396 0.7596781
vn 0.8704907 -0.4856086 -0.08018854
vn 0.1607832 -0.4845046 0.8598861
vn 0.7760118 0.6101604 -0.1597184
vn 0.4899709 0.4473666 -0.7481923
vn 0.1145013 0.6401396 0.7596781
vn -0.443615 0.8079677 0.3878067
vn 0.6244843 -0.5524466 -0.5521068
vn 0.1607832 -0.4845046 0.8598861
vn -0.1160905 -0.8273035 0.5496289
vn -0.443615 0.8079677 0.3878067
vn 0.1145013 0.6401396 0.7596781
vn 0 3.240147E-07 -1
vn 0 3.242049E-07 -1
vn 0.7071093 2.292639E-07 -0.7071042
vn 0.7071093 2.291687E-07 -0.7071041
vn 1 0 7.105439E-06
vn 1 0 7.197851E-06
vn 0.7071043 -2.510505E-07 0.7071093
vn 0.7071043 -2.292655E-07 0.7071093
vn 0 -3.603546E-07 1
vn 0 -3.24205E-07 1
vn -0.7071043 -2.510505E-07 0.7071093
vn -0.7071043 -2.292655E-07 0.7071093
vn -1 0 7.084903E-06
vn -1 0 7.197851E-06
vn -0.7071093 2.292639E-07 -0.7071043
vn -0.7071093 2.291687E-07 -0.7071041
vn 0 3.242049E-07 -1
vn 0 3.240147E-07 -1
vn 0.001153053 0.70392 0.7102783
vn 0.001360317 -0.999999 -8.909305E-07
vn -0.9913158 0.1315019 2.952163E-06
vn 0.001147878 0.7039188 -0.7102795
vn 0.9911876 0.1324656 1.406018E-06
vn 0 0.6302624 0.7763821
vn 0 1 0
vn 0.5489829 0.6302629 0.5489869
vn -0.5489828 0.6302629 0.5489868
vn 0.7763821 0.6302626 5.644085E-06
vn -0.7763821 0.6302626 5.644085E-06
vn 0.5489874 0.6302618 -0.5489833
vn -0.5489875 0.630262 -0.5489834
vn 0 0.6302626 -0.776382
g Wq06_02_0
f 3/3/3 2/2/2 1/1/1
f 2/2/2 4/4/4 1/1/1
f 4/4/4 2/2/2 5/5/5
f 2/2/2 6/6/6 5/5/5
f 5/5/5 6/6/6 7/7/7
f 8/8/8 5/5/5 7/7/7
f 9/9/9 8/8/8 7/7/7
f 6/6/6 10/10/10 7/7/7
f 10/10/10 11/11/11 7/7/7
f 11/11/11 12/12/12 7/7/7
f 15/15/15 14/14/14 13/13/13
f 16/16/16 14/14/14 15/15/15
f 19/19/19 18/18/18 17/17/17
f 18/18/18 20/20/20 17/17/17
f 17/17/17 20/20/20 21/21/21
f 21/21/21 20/20/20 22/22/22
f 23/23/23 21/21/21 22/22/22
f 24/24/24 17/17/17 21/21/21
f 24/24/24 25/25/25 17/17/17
f 25/25/25 26/26/26 17/17/17
f 26/26/26 25/25/25 27/27/27
f 25/25/25 28/28/28 27/27/27
f 31/31/31 30/30/30 29/29/29
f 30/30/30 32/32/32 29/29/29
f 29/29/29 32/32/32 33/33/33
f 32/32/32 34/34/34 33/33/33
f 33/33/33 34/34/34 35/35/35
f 34/34/34 36/36/36 35/35/35
f 35/35/35 36/36/36 37/37/37
f 36/36/36 38/38/38 37/37/37
f 37/37/37 38/38/38 39/39/39
f 38/38/38 40/40/40 39/39/39
f 39/39/39 40/40/40 41/41/41
f 40/40/40 42/42/42 41/41/41
f 41/41/41 42/42/42 43/43/43
f 42/42/42 44/44/44 43/43/43
f 43/43/43 44/44/44 45/45/45
f 44/44/44 46/46/46 45/45/45
f 49/49/49 48/48/48 47/47/47
f 48/48/48 50/50/50 47/47/47
f 48/48/48 51/51/51 50/50/50
f 51/51/51 52/52/52 50/50/50
f 52/52/52 51/51/51 53/53/53
f 52/52/52 53/53/53 54/54/54
f 53/53/53 55/55/55 54/54/54
f 51/51/51 56/56/56 53/53/53
f 53/53/53 56/56/56 57/57/57
f 56/56/56 58/58/58 57/57/57
f 61/61/61 60/60/60 59/59/59
f 60/60/60 62/62/62 59/59/59
f 63/63/63 62/62/62 60/60/60
f 62/62/62 63/63/63 64/64/64
f 63/63/63 65/65/65 64/64/64
f 66/66/66 63/63/63 60/60/60
f 66/66/66 60/60/60 67/67/67
f 68/68/68 66/66/66 67/67/67
f 69/69/69 68/68/68 67/67/67
f 70/70/70 69/69/69 67/67/67
f 73/73/73 72/72/72 71/71/71
f 74/74/74 73/73/73 71/71/71
f 75/75/75 73/73/73 74/74/74
f 76/76/76 75/75/75 74/74/74
f 77/77/77 75/75/75 76/76/76
f 78/78/78 77/77/77 76/76/76
f 79/79/79 77/77/77 78/78/78
f 80/80/80 79/79/79 78/78/78
f 81/81/81 79/79/79 80/80/80
f 82/82/82 81/81/81 80/80/80
f 83/83/83 81/81/81 82/82/82
f 84/84/84 83/83/83 82/82/82
f 85/85/85 83/83/83 84/84/84
f 86/86/86 85/85/85 84/84/84
f 87/87/87 85/85/85 86/86/86
f 88/88/88 87/87/87 86/86/86
f 91/91/91 90/90/90 89/89/89
f 89/89/89 92/92/92 91/91/91
f 90/90/90 93/93/93 89/89/89
f 93/93/93 92/92/92 89/89/89
f 96/96/96 95/95/95 94/94/94
f 94/94/94 95/95/95 97/97/97
f 98/98/98 95/95/95 96/96/96
f 97/97/97 95/95/95 99/99/99
f 100/100/100 95/95/95 98/98/98
f 99/99/99 95/95/95 101/101/101
f 102/102/102 95/95/95 100/100/100
f 101/101/101 95/95/95 102/102/102
