g xiantiao2
v 0.0006906128 0.003131943 -0.001910435
v 0.01645157 -0.001238785 0.002260735
v 0.01640701 -0.002665329 -0.0001100039
v 0.02808517 -0.0134935 0.004430163
v 0.02823624 -0.01071808 0.009143056
v 0.03493255 -0.02734817 0.01080153
v 0.03513489 -0.0231617 0.01774988
v 0.03712234 -0.04157577 0.0181921
v 0.03734848 -0.03611275 0.02669749
v 0.03553803 -0.05249901 0.03814632
v 0.03522858 -0.05892967 0.02904071
v 0.02908417 -0.07495201 0.04041641
v 0.02964264 -0.06735588 0.04998485
v 0.01973236 -0.0890065 0.05232135
v 0.020755 -0.08033745 0.06190359
v 0.007888641 -0.1009122 0.06450447
v 0.009643555 -0.09114242 0.07390833
v -0.02160324 -0.1076637 0.1019067
v 0.04598343 -0.03956329 0.02267381
v 0.04468017 -0.05806938 0.03494085
v 0.03886276 -0.07512939 0.04780219
v 0.02937073 -0.09001449 0.06097182
v 0.0420105 -0.02450943 0.01362339
v 0.03493255 -0.02734817 0.01080153
v 0.03189529 -0.009628372 0.005208022
v 0.02808517 -0.0134935 0.004430163
v 0.01640701 -0.002665329 -0.0001100039
v 0.01776886 -0.0002536774 2.825513E-05
v 0.0006906128 0.003131943 -0.001910435
v 0.01645157 -0.001238785 0.002260735
v 0.02823624 -0.01071808 0.009143056
v 0.03513489 -0.0231617 0.01774988
v 0.03734848 -0.03611275 0.02669749
v 0.03553803 -0.05249901 0.03814632
v 0.02964264 -0.06735588 0.04998485
v 0.020755 -0.08033745 0.06190359
v 0.009643555 -0.09114242 0.07390833
v 0.0172969 -0.1025011 0.07434022
v -0.02160324 -0.1076637 0.1019067
v -0.016521 -0.1214912 0.1052385
v -0.05709824 -0.1121669 0.1306259
v -0.02569763 -0.1194345 0.09341954
v -0.06299942 -0.1251705 0.122572
v -0.05709824 -0.1121669 0.1306259
v -0.05332397 -0.1273314 0.1356581
v -0.1287712 -0.08923493 0.1920393
v -0.1292969 -0.1051569 0.2019273
v -0.1815214 -0.03295349 0.2548546
v -0.1408342 -0.1027819 0.1873393
v -0.1287712 -0.08923493 0.1920393
v -0.1847725 -0.04771255 0.2689597
v -0.2061682 0.03955978 0.3169987
v -0.1993906 -0.04333984 0.2550118
v -0.1815214 -0.03295349 0.2548546
v -0.2101926 0.02526192 0.3334949
v -0.2036697 0.110879 0.3747532
v -0.226911 0.0327034 0.3209304
v -0.2061682 0.03955978 0.3169987
v -0.2079169 0.09668411 0.3928003
v -0.1801538 0.1764171 0.4309412
v -0.2254962 0.1081788 0.3825988
v -0.2036697 0.110879 0.3747532
v -0.1846548 0.1614755 0.4496787
v -0.1391897 0.2341747 0.4877959
v -0.2015442 0.1775725 0.4425909
v -0.1801538 0.1764171 0.4309412
v -0.1441429 0.2182282 0.5069078
v -0.08346497 0.2777401 0.544465
v -0.1603567 0.2369918 0.5015112
v -0.1391897 0.2341747 0.4877959
v -0.08995666 0.2600456 0.5628117
v -0.01887711 0.3081816 0.6016229
v -0.1028522 0.2829309 0.5614659
v -0.08346497 0.2777401 0.544465
v -0.02823288 0.2888701 0.6182117
v 0.05174911 0.3206444 0.6589969
v -0.03650162 0.3145238 0.6212394
v -0.01887711 0.3081816 0.6016229
v 0.04035278 0.3006011 0.6745241
v 0.1235362 0.3180781 0.7165312
v 0.03459579 0.3272709 0.6798432
v 0.05174911 0.3206444 0.6589969
v 0.1098767 0.2977484 0.7306573
v 0.194028 0.3001859 0.7748151
v 0.1067386 0.3248001 0.7382585
v 0.1235362 0.3180781 0.7165312
v 0.1757521 0.2809961 0.7852595
v 0.2581857 0.2668086 0.8327828
v 0.1775265 0.3068641 0.797051
v 0.194028 0.3001859 0.7748151
v 0.2377304 0.2489537 0.8411393
v 0.3146936 0.2215683 0.8908429
v 0.2415329 0.2735814 0.8547801
v 0.2581857 0.2668086 0.8327828
v 0.292421 0.2055986 0.8969839
v 0.3616498 0.166306 0.9489485
v 0.2978375 0.2285865 0.9121838
v 0.3146936 0.2215683 0.8908429
v 0.3380371 0.1526607 0.9528307
v 0.3975751 0.1031236 1.007051
v 0.3446072 0.1737716 0.9692619
v 0.3616498 0.166306 0.9489485
v 0.3731833 0.09210167 1.00871
v 0.4214493 0.03428398 1.065108
v 0.3804495 0.111252 1.026021
v 0.3975751 0.1031236 1.007051
v 0.396875 0.02602867 1.064647
v 0.4327118 -0.03787949 1.123078
v 0.4044266 0.04326904 1.082479
v 0.4214493 0.03428398 1.065108
v 0.4085379 -0.04338356 1.120658
v 0.4305099 -0.1144484 1.183654
v 0.4160428 -0.02789352 1.138665
v 0.4327118 -0.03787949 1.123078
v 0.4076013 -0.1150195 1.17765
v 0.4128571 -0.1934966 1.247477
v 0.4147256 -0.1017571 1.19594
v 0.4305099 -0.1144484 1.183654
v 0.3921817 -0.1918854 1.240149
v 0.3802045 -0.2697774 1.312568
v 0.3986475 -0.1800534 1.257526
v 0.4128571 -0.1934966 1.247477
v 0.3624435 -0.2665273 1.304393
v 0.3355011 -0.3373753 1.375748
v 0.3680905 -0.2561489 1.320306
v 0.3802045 -0.2697774 1.312568
v 0.3210828 -0.3332099 1.367346
v 0.284137 -0.3922433 1.433881
v 0.325845 -0.3242794 1.381253
v 0.3355011 -0.3373753 1.375748
v 0.2731424 -0.3879418 1.425952
v 0.2331448 -0.433022 1.483891
v 0.2770627 -0.3804516 1.437388
v 0.284137 -0.3922433 1.433881
v 0.225256 -0.4292682 1.477129
v 0.1863217 -0.456246 1.521395
v 0.2284915 -0.4232068 1.48578
v 0.2331448 -0.433022 1.483891
v 0.1863217 -0.456246 1.521395
vt -0.0005375916 0.8333334
vt 0.008721666 0.8750001
vt 0.008721671 0.7916667
vt 0.01798094 0.75
vt 0.01798092 0.9166667
vt 0.0272402 0.7083334
vt 0.02724018 0.9583334
vt 0.03649947 0.6666667
vt 0.03649944 1
vt 0.0457587 1
vt 0.04575873 0.6666667
vt 0.05501799 0.6666667
vt 0.05501796 1
vt 0.06427725 0.6666667
vt 0.06427722 1
vt 0.07353651 0.6666667
vt 0.07353649 1
vt 0.09205499 1
vt 0.03649949 0.3333334
vt 0.04575875 0.3333334
vt 0.05501801 0.3333334
vt 0.06427728 0.3333334
vt 0.02724023 0.2916667
vt 0.02724021 0.5416667
vt 0.01798097 0.25
vt 0.01798096 0.4166667
vt 0.008721711 0.2916667
vt 0.008721716 0.2083333
vt -0.0005375412 0.1666667
vt 0.008721724 0.125
vt 0.01798099 0.08333337
vt 0.02724025 0.04166675
vt 0.03649952 0
vt 0.04575878 0
vt 0.05501804 0
vt 0.0642773 0
vt 0.07353656 0
vt 0.07353654 0.3333334
vt 0.09205507 0
vt 0.09205505 0.3333334
vt 0.1105736 0
vt 0.09205502 0.6666667
vt 0.1105735 0.6666667
vt 0.1105735 1
vt 0.1105736 0.3333334
vt 0.1476106 0
vt 0.1476106 0.3333334
vt 0.1846477 0
vt 0.1476106 0.6666667
vt 0.1476105 1
vt 0.1846476 0.3333334
vt 0.2216847 0
vt 0.1846476 0.6666667
vt 0.1846476 1
vt 0.2216847 0.3333334
vt 0.2587217 0
vt 0.2216847 0.6666667
vt 0.2216846 1
vt 0.2587217 0.3333334
vt 0.2957588 0
vt 0.2587217 0.6666667
vt 0.2587216 1
vt 0.2957588 0.3333334
vt 0.3327958 0
vt 0.2957587 0.6666667
vt 0.2957587 1
vt 0.3327958 0.3333334
vt 0.3698328 0
vt 0.3327958 0.6666667
vt 0.3327957 1
vt 0.3698328 0.3333334
vt 0.4068699 5.960464E-08
vt 0.3698328 0.6666667
vt 0.3698328 1
vt 0.4068699 0.3333334
vt 0.443907 5.960464E-08
vt 0.4068698 0.6666667
vt 0.4068698 1
vt 0.4439069 0.3333334
vt 0.480944 5.960464E-08
vt 0.4439069 0.6666667
vt 0.4439069 1
vt 0.4809439 0.3333334
vt 0.5179809 5.960464E-08
vt 0.4809439 0.6666667
vt 0.4809439 1
vt 0.5179809 0.3333334
vt 0.5550181 5.960464E-08
vt 0.5179809 0.6666667
vt 0.5179809 1
vt 0.5550181 0.3333334
vt 0.5920551 5.960464E-08
vt 0.5550179 0.6666667
vt 0.5550179 1
vt 0.5920551 0.3333334
vt 0.6290921 5.960464E-08
vt 0.592055 0.6666667
vt 0.592055 1
vt 0.6290921 0.3333334
vt 0.6661291 5.960464E-08
vt 0.629092 0.6666667
vt 0.629092 1
vt 0.6661291 0.3333334
vt 0.7031661 5.960464E-08
vt 0.6661291 0.6666667
vt 0.6661291 1
vt 0.7031661 0.3333334
vt 0.7402031 5.960464E-08
vt 0.7031661 0.6666667
vt 0.7031661 1
vt 0.7402031 0.3333334
vt 0.7772403 5.960464E-08
vt 0.7402031 0.6666667
vt 0.7402031 1
vt 0.7772403 0.3333334
vt 0.8142773 5.960464E-08
vt 0.7772402 0.6666667
vt 0.7772402 1
vt 0.8142773 0.3333334
vt 0.8513143 5.960464E-08
vt 0.8142772 0.6666667
vt 0.8142772 1
vt 0.8513143 0.3333334
vt 0.8883514 5.960464E-08
vt 0.8513143 0.6666667
vt 0.8513143 1
vt 0.8883514 0.3333334
vt 0.9253883 5.960464E-08
vt 0.8883513 0.6666667
vt 0.8883513 1
vt 0.9253883 0.3333334
vt 0.9624255 5.960464E-08
vt 0.9253883 0.6666667
vt 0.9253883 1
vt 0.9624255 0.3333334
vt 0.9994624 0.3333334
vt 0.9624254 0.6666667
vt 0.9624254 1
vt 0.9994624 1
vn -0.9511783 0.2665715 -0.155562
vn -0.2717437 0.2226252 0.9362656
vn -0.3018075 -0.7210665 -0.6236789
vn -0.4126193 -0.6072135 -0.678997
vn -0.3637578 0.3135305 0.8771424
vn -0.4547948 -0.4992593 -0.7374971
vn -0.4107053 0.4210524 0.8087249
vn -0.4616159 -0.4463167 -0.7666239
vn -0.4293617 0.5081571 0.7466089
vn -0.4221995 0.6076341 0.6727023
vn -0.457517 -0.4117138 -0.7881434
vn -0.4518968 -0.3871263 -0.8036931
vn -0.3889008 0.7093633 0.5878434
vn -0.450449 -0.3797528 -0.8080121
vn -0.3367378 0.793597 0.5067658
vn -0.4446323 -0.402325 -0.8002729
vn -0.2380885 0.8800841 0.4108113
vn -0.08178829 0.9603 0.2667108
vn 0.9967554 0.04611682 -0.06596772
vn 0.9855337 -0.1577052 0.06206925
vn 0.9346453 -0.3110303 0.1723318
vn 0.8651125 -0.4237747 0.2683193
vn 0.9327195 0.2944784 -0.2081271
vn -0.4547948 -0.4992593 -0.7374971
vn 0.7423329 0.5675001 -0.3562098
vn -0.4126193 -0.6072135 -0.678997
vn -0.3018075 -0.7210665 -0.6236789
vn 0.4365704 0.7697217 -0.4657625
vn -0.9511783 0.2665715 -0.155562
vn -0.2717437 0.2226252 0.9362656
vn -0.3637578 0.3135305 0.8771424
vn -0.4107053 0.4210524 0.8087249
vn -0.4293617 0.5081571 0.7466089
vn -0.4221995 0.6076341 0.6727023
vn -0.3889008 0.7093633 0.5878434
vn -0.3367378 0.793597 0.5067658
vn -0.2380885 0.8800841 0.4108113
vn 0.7672048 -0.5298103 0.3615216
vn -0.08178829 0.9603 0.2667108
vn 0.6242133 -0.6181251 0.4777855
vn 0.1468245 0.9876045 0.05549634
vn -0.4718792 -0.4342889 -0.767283
vn -0.5780583 -0.4507269 -0.6802161
vn 0.1468245 0.9876045 0.05549634
vn 0.4528006 -0.665417 0.5934576
vn 0.3808919 0.9045043 -0.1918158
vn 0.3043943 -0.650351 0.6959797
vn 0.542526 0.7309707 -0.4139411
vn -0.7463578 -0.3932884 -0.5369117
vn 0.3808919 0.9045043 -0.1918158
vn 0.2546396 -0.6052839 0.7541817
vn 0.600203 0.5625291 -0.56861
vn -0.9057205 -0.2097953 -0.3683155
vn 0.542526 0.7309707 -0.4139411
vn 0.2597174 -0.604701 0.7529166
vn 0.5992533 0.4418824 -0.6675593
vn -0.9788132 0.008857252 -0.204564
vn 0.600203 0.5625291 -0.56861
vn 0.2683229 -0.6547325 0.7066317
vn 0.5762916 0.3670054 -0.730202
vn -0.9747214 0.2170548 -0.0529679
vn 0.5992533 0.4418824 -0.6675593
vn 0.250458 -0.7296669 0.6362838
vn 0.5486823 0.3381785 -0.7645804
vn -0.916869 0.3903563 0.08350526
vn 0.5762916 0.3670054 -0.730202
vn 0.1902274 -0.8142129 0.548517
vn 0.5428752 0.3152963 -0.7783796
vn -0.8222778 0.5296023 0.2082801
vn 0.5486823 0.3381785 -0.7645804
vn 0.113015 -0.8888226 0.4440969
vn 0.5459676 0.3262947 -0.7716548
vn -0.7068712 0.6274451 0.3265668
vn 0.5428752 0.3152963 -0.7783796
vn 0.001508651 -0.9390925 0.3436612
vn 0.5811839 0.3197298 -0.7483303
vn -0.5859265 0.6898072 0.4252717
vn 0.5459676 0.3262947 -0.7716548
vn -0.1214653 -0.9665942 0.2257032
vn 0.6261585 0.3160494 -0.712768
vn -0.4740826 0.7119105 0.5181014
vn 0.5811839 0.3197298 -0.7483303
vn -0.241781 -0.9627397 0.1211375
vn 0.6854048 0.300215 -0.6633936
vn -0.3810957 0.7122635 0.5894462
vn 0.6261585 0.3160494 -0.712768
vn -0.3620287 -0.9320725 0.01326532
vn 0.7514707 0.2575603 -0.6074162
vn -0.2987441 0.6973509 0.6515011
vn 0.6854048 0.300215 -0.6633936
vn -0.4735338 -0.8756094 -0.09525649
vn 0.8121222 0.2048441 -0.5463482
vn -0.2419518 0.6663122 0.7053279
vn 0.7514707 0.2575603 -0.6074162
vn -0.5606362 -0.8057497 -0.1909309
vn 0.8666742 0.1359631 -0.4799896
vn -0.2050351 0.6387748 0.7415709
vn 0.8121222 0.2048441 -0.5463482
vn -0.6292442 -0.7244635 -0.2814329
vn 0.9107921 0.05307945 -0.4094391
vn -0.1834279 0.6145172 0.7672828
vn 0.8666742 0.1359631 -0.4799896
vn -0.6781466 -0.6374906 -0.3656813
vn 0.9410779 -0.04057626 -0.3357466
vn -0.174037 0.5978191 0.782511
vn 0.9107921 0.05307945 -0.4094391
vn -0.7078866 -0.5502583 -0.4428457
vn 0.9554942 -0.1431442 -0.2579547
vn -0.1728657 0.5916286 0.7874599
vn 0.9410779 -0.04057626 -0.3357466
vn -0.7197515 -0.4669854 -0.5136949
vn 0.9507736 -0.2578436 -0.1718904
vn -0.174174 0.5975139 0.7827136
vn 0.9554942 -0.1431442 -0.2579547
vn -0.7164616 -0.3898921 -0.578504
vn 0.9247597 -0.3707426 -0.08584578
vn -0.1745375 0.6194053 0.765424
vn 0.9507736 -0.2578436 -0.1718904
vn -0.7023347 -0.3224075 -0.6346489
vn 0.8795441 -0.4758167 -0.0007227027
vn -0.1718345 0.6494845 0.7407043
vn 0.9247597 -0.3707426 -0.08584578
vn -0.6815084 -0.2693885 -0.6804236
vn 0.8192709 -0.5676325 0.08117022
vn -0.1600555 0.6890783 0.7067908
vn 0.8795441 -0.4758167 -0.0007227027
vn -0.6597902 -0.2299737 -0.7153943
vn 0.7529777 -0.6394346 0.155396
vn -0.1390228 0.7329559 0.6659192
vn 0.8192709 -0.5676325 0.08117022
vn -0.6422625 -0.2020797 -0.7393664
vn 0.6634007 -0.7080508 0.2419994
vn -0.112313 0.7745475 0.6224644
vn 0.7529777 -0.6394346 0.155396
vn -0.6484998 -0.2003967 -0.7343631
vn -0.6645654 -0.4323458 0.6094505
vn -0.1026848 0.7922506 0.6014937
vn 0.6634007 -0.7080508 0.2419994
vn -0.6645654 -0.4323458 0.6094505
g xiantiao2_0
f 3/3/3 2/2/2 1/1/1
f 3/3/3 4/4/4 2/2/2
f 5/5/5 2/2/2 4/4/4
f 4/4/4 6/6/6 5/5/5
f 7/7/7 5/5/5 6/6/6
f 6/6/6 8/8/8 7/7/7
f 9/9/9 7/7/7 8/8/8
f 9/9/9 8/8/8 10/10/10
f 11/11/11 10/10/10 8/8/8
f 11/11/11 12/12/12 10/10/10
f 13/13/13 10/10/10 12/12/12
f 12/12/12 14/14/14 13/13/13
f 15/15/15 13/13/13 14/14/14
f 14/14/14 16/16/16 15/15/15
f 17/17/17 15/15/15 16/16/16
f 17/17/17 16/16/16 18/18/18
f 8/8/8 19/19/19 11/11/11
f 11/11/11 20/20/20 12/12/12
f 20/20/20 11/11/11 19/19/19
f 12/12/12 21/21/21 14/14/14
f 21/21/21 12/12/12 20/20/20
f 14/14/14 22/22/22 16/16/16
f 22/22/22 14/14/14 21/21/21
f 19/19/19 8/8/8 23/23/23
f 24/24/24 23/23/23 8/8/8
f 23/23/23 24/24/24 25/25/25
f 26/26/26 25/25/25 24/24/24
f 26/26/26 27/27/27 25/25/25
f 28/28/28 25/25/25 27/27/27
f 28/28/28 27/27/27 29/29/29
f 30/30/30 28/28/28 29/29/29
f 28/28/28 30/30/30 25/25/25
f 31/31/31 25/25/25 30/30/30
f 31/31/31 32/32/32 25/25/25
f 23/23/23 25/25/25 32/32/32
f 32/32/32 33/33/33 23/23/23
f 19/19/19 23/23/23 33/33/33
f 33/33/33 34/34/34 19/19/19
f 20/20/20 19/19/19 34/34/34
f 34/34/34 35/35/35 20/20/20
f 21/21/21 20/20/20 35/35/35
f 35/35/35 36/36/36 21/21/21
f 22/22/22 21/21/21 36/36/36
f 36/36/36 37/37/37 22/22/22
f 38/38/38 22/22/22 37/37/37
f 37/37/37 39/39/39 38/38/38
f 38/38/38 16/16/16 22/22/22
f 40/40/40 38/38/38 39/39/39
f 39/39/39 41/41/41 40/40/40
f 16/16/16 38/38/38 42/42/42
f 40/40/40 42/42/42 38/38/38
f 42/42/42 18/18/18 16/16/16
f 42/42/42 43/43/43 18/18/18
f 42/42/42 40/40/40 43/43/43
f 44/44/44 18/18/18 43/43/43
f 45/45/45 40/40/40 41/41/41
f 45/45/45 43/43/43 40/40/40
f 41/41/41 46/46/46 45/45/45
f 47/47/47 45/45/45 46/46/46
f 45/45/45 47/47/47 43/43/43
f 46/46/46 48/48/48 47/47/47
f 43/43/43 49/49/49 44/44/44
f 49/49/49 43/43/43 47/47/47
f 50/50/50 44/44/44 49/49/49
f 51/51/51 47/47/47 48/48/48
f 47/47/47 51/51/51 49/49/49
f 48/48/48 52/52/52 51/51/51
f 49/49/49 53/53/53 50/50/50
f 53/53/53 49/49/49 51/51/51
f 54/54/54 50/50/50 53/53/53
f 55/55/55 51/51/51 52/52/52
f 51/51/51 55/55/55 53/53/53
f 52/52/52 56/56/56 55/55/55
f 53/53/53 57/57/57 54/54/54
f 57/57/57 53/53/53 55/55/55
f 58/58/58 54/54/54 57/57/57
f 59/59/59 55/55/55 56/56/56
f 55/55/55 59/59/59 57/57/57
f 56/56/56 60/60/60 59/59/59
f 57/57/57 61/61/61 58/58/58
f 61/61/61 57/57/57 59/59/59
f 62/62/62 58/58/58 61/61/61
f 63/63/63 59/59/59 60/60/60
f 59/59/59 63/63/63 61/61/61
f 60/60/60 64/64/64 63/63/63
f 61/61/61 65/65/65 62/62/62
f 65/65/65 61/61/61 63/63/63
f 66/66/66 62/62/62 65/65/65
f 67/67/67 63/63/63 64/64/64
f 63/63/63 67/67/67 65/65/65
f 64/64/64 68/68/68 67/67/67
f 65/65/65 69/69/69 66/66/66
f 69/69/69 65/65/65 67/67/67
f 70/70/70 66/66/66 69/69/69
f 71/71/71 67/67/67 68/68/68
f 67/67/67 71/71/71 69/69/69
f 68/68/68 72/72/72 71/71/71
f 69/69/69 73/73/73 70/70/70
f 73/73/73 69/69/69 71/71/71
f 74/74/74 70/70/70 73/73/73
f 75/75/75 71/71/71 72/72/72
f 71/71/71 75/75/75 73/73/73
f 72/72/72 76/76/76 75/75/75
f 73/73/73 77/77/77 74/74/74
f 77/77/77 73/73/73 75/75/75
f 78/78/78 74/74/74 77/77/77
f 79/79/79 75/75/75 76/76/76
f 75/75/75 79/79/79 77/77/77
f 76/76/76 80/80/80 79/79/79
f 77/77/77 81/81/81 78/78/78
f 81/81/81 77/77/77 79/79/79
f 82/82/82 78/78/78 81/81/81
f 83/83/83 79/79/79 80/80/80
f 79/79/79 83/83/83 81/81/81
f 80/80/80 84/84/84 83/83/83
f 81/81/81 85/85/85 82/82/82
f 85/85/85 81/81/81 83/83/83
f 86/86/86 82/82/82 85/85/85
f 87/87/87 83/83/83 84/84/84
f 83/83/83 87/87/87 85/85/85
f 84/84/84 88/88/88 87/87/87
f 85/85/85 89/89/89 86/86/86
f 89/89/89 85/85/85 87/87/87
f 90/90/90 86/86/86 89/89/89
f 91/91/91 87/87/87 88/88/88
f 87/87/87 91/91/91 89/89/89
f 88/88/88 92/92/92 91/91/91
f 89/89/89 93/93/93 90/90/90
f 93/93/93 89/89/89 91/91/91
f 94/94/94 90/90/90 93/93/93
f 95/95/95 91/91/91 92/92/92
f 91/91/91 95/95/95 93/93/93
f 92/92/92 96/96/96 95/95/95
f 93/93/93 97/97/97 94/94/94
f 97/97/97 93/93/93 95/95/95
f 98/98/98 94/94/94 97/97/97
f 99/99/99 95/95/95 96/96/96
f 95/95/95 99/99/99 97/97/97
f 96/96/96 100/100/100 99/99/99
f 97/97/97 101/101/101 98/98/98
f 101/101/101 97/97/97 99/99/99
f 102/102/102 98/98/98 101/101/101
f 103/103/103 99/99/99 100/100/100
f 99/99/99 103/103/103 101/101/101
f 100/100/100 104/104/104 103/103/103
f 101/101/101 105/105/105 102/102/102
f 105/105/105 101/101/101 103/103/103
f 106/106/106 102/102/102 105/105/105
f 107/107/107 103/103/103 104/104/104
f 103/103/103 107/107/107 105/105/105
f 104/104/104 108/108/108 107/107/107
f 105/105/105 109/109/109 106/106/106
f 109/109/109 105/105/105 107/107/107
f 110/110/110 106/106/106 109/109/109
f 111/111/111 107/107/107 108/108/108
f 107/107/107 111/111/111 109/109/109
f 108/108/108 112/112/112 111/111/111
f 109/109/109 113/113/113 110/110/110
f 113/113/113 109/109/109 111/111/111
f 114/114/114 110/110/110 113/113/113
f 115/115/115 111/111/111 112/112/112
f 111/111/111 115/115/115 113/113/113
f 112/112/112 116/116/116 115/115/115
f 113/113/113 117/117/117 114/114/114
f 117/117/117 113/113/113 115/115/115
f 118/118/118 114/114/114 117/117/117
f 119/119/119 115/115/115 116/116/116
f 115/115/115 119/119/119 117/117/117
f 116/116/116 120/120/120 119/119/119
f 117/117/117 121/121/121 118/118/118
f 121/121/121 117/117/117 119/119/119
f 122/122/122 118/118/118 121/121/121
f 123/123/123 119/119/119 120/120/120
f 119/119/119 123/123/123 121/121/121
f 120/120/120 124/124/124 123/123/123
f 121/121/121 125/125/125 122/122/122
f 125/125/125 121/121/121 123/123/123
f 126/126/126 122/122/122 125/125/125
f 127/127/127 123/123/123 124/124/124
f 123/123/123 127/127/127 125/125/125
f 124/124/124 128/128/128 127/127/127
f 125/125/125 129/129/129 126/126/126
f 129/129/129 125/125/125 127/127/127
f 130/130/130 126/126/126 129/129/129
f 131/131/131 127/127/127 128/128/128
f 127/127/127 131/131/131 129/129/129
f 128/128/128 132/132/132 131/131/131
f 129/129/129 133/133/133 130/130/130
f 133/133/133 129/129/129 131/131/131
f 134/134/134 130/130/130 133/133/133
f 135/135/135 131/131/131 132/132/132
f 131/131/131 135/135/135 133/133/133
f 132/132/132 136/136/136 135/135/135
f 135/135/135 136/136/136 137/137/137
f 137/137/137 133/133/133 135/135/135
f 133/133/133 137/137/137 134/134/134
f 138/138/138 134/134/134 137/137/137
f 137/137/137 139/139/139 138/138/138
